<svg xmlns="http://www.w3.org/2000/svg" viewBox="0 0 97.18 110.67"><defs><style>.cls-1{isolation:isolate;}.cls-2{fill:#d27528;stroke-width:0.84px;}.cls-2,.cls-3,.cls-4,.cls-5,.cls-6,.cls-8{stroke:#231f20;stroke-linecap:round;stroke-linejoin:round;}.cls-3,.cls-6,.cls-8{fill:none;}.cls-3{stroke-width:0.83px;}.cls-4{fill:#231f20;stroke-width:0.43px;}.cls-5,.cls-7{fill:#02763c;}.cls-5{stroke-width:0.87px;}.cls-6{stroke-width:0.84px;}.cls-7{opacity:0.3;mix-blend-mode:screen;}.cls-8{stroke-width:0.33px;}</style></defs><g class="cls-1"><g id="Layer_1" data-name="Layer 1"><path class="cls-2" d="M63.3,107.78a4.26,4.26,0,0,1-.32.93,2.92,2.92,0,0,1-1.82,1.38,3.59,3.59,0,0,1-1.6.12c-3.94-.62-4.42-8.59-4.53-11.63a41.58,41.58,0,0,1,.26-4.74c.07-.87.12-1.75.11-2.62,0-2.39-.49-4.86-.74-7.26-.14-1.33-.08-3,1.14-3.55a19.66,19.66,0,0,1,1.9,5.3,28.39,28.39,0,0,1-.09,6,27.61,27.61,0,0,0,0,3.28,18.27,18.27,0,0,0,.92,4.64,13.18,13.18,0,0,0,2.65,4.55c.78.85,1.67,1.26,2,2A2.23,2.23,0,0,1,63.3,107.78Z"/><path class="cls-3" d="M63.3,107.78a4.26,4.26,0,0,1-.32.93,2.87,2.87,0,0,1-1.82,1.38,3.59,3.59,0,0,1-1.6.12,1.12,1.12,0,0,1,.07-.54c.27-.74,2.21-3.12,3.61-3.41A2.23,2.23,0,0,1,63.3,107.78Z"/><path class="cls-4" d="M57.64,95c-.83-.38-1.63-.79-2.35-1.19.07-.87.12-1.75.11-2.62,0-2.39-.49-4.86-.74-7.26-.14-1.33-.08-3,1.14-3.55a19.66,19.66,0,0,1,1.9,5.3,28.39,28.39,0,0,1-.09,6A27.61,27.61,0,0,0,57.64,95Z"/><path class="cls-5" d="M55.83,92H55.7a7.3,7.3,0,0,1-3.26-1.21c-.31-.17-.61-.32-.92-.47a36.81,36.81,0,0,0-5.29-1.74c-4.87-1.42-9.72-2.83-14.59-4.23-4-1.18-8.27-2.49-11-5.64a3.2,3.2,0,0,1-.89-1.69,2.55,2.55,0,0,1,1.23-2.3,7.61,7.61,0,0,1,2.57-.93c-4.37-1-8.79-2-12.81-4a6.43,6.43,0,0,1-2.13-1.5A2.5,2.5,0,0,1,8,65.92c.56-1.41,2.45-1.6,4-1.56a30.92,30.92,0,0,1-11.17-14c-.41-1-.7-2.34.1-3.11a2.87,2.87,0,0,1,2.12-.52,38.83,38.83,0,0,1,15.52,3.82A5.11,5.11,0,0,1,17.28,47a1.53,1.53,0,0,1,.22-.84,1.67,1.67,0,0,1,1.64-.44,13,13,0,0,1,8.08,4.88,23.75,23.75,0,0,1,2.1,3c1,1.72,1.89,3.55,2.76,5.36.35-2.13.93-4.58,2.88-5.51,4.71-2.27,8.12,5.73,9.46,8.87,3.4,7.92,6.07,16.2,10.36,23.69C55.45,87.15,58.33,91.69,55.83,92Z"/><path class="cls-4" d="M55.83,92H55.7a23.86,23.86,0,0,1-2-4.15,51.1,51.1,0,0,0-15-19,37.28,37.28,0,0,1-3.74-3.24,21.57,21.57,0,0,1-4.59-8.53c-.37-1.17-.69-2.36-1-3.56,1,1.72,1.89,3.55,2.76,5.36.35-2.13.93-4.58,2.88-5.51,4.71-2.27,8.12,5.73,9.46,8.87,3.4,7.92,6.07,16.2,10.36,23.69C55.45,87.15,58.33,91.69,55.83,92Z"/><path class="cls-5" d="M68,41.14a35,35,0,0,1-1.51,9.31c-1,3.5-2.33,6.93-3.49,10.37a118.93,118.93,0,0,0-4.15,16c-.85,4.56-.6,9.9-2,14.28l0,.11a1.11,1.11,0,0,1-.22.38.94.94,0,0,1-1.26-.1,2.72,2.72,0,0,1-.61-1.25C53,84.06,51.22,78.8,47.47,73.45c-2.93-4.19-6.49-7.88-9.59-11.94s-5.77-8.64-6.5-13.69a8.19,8.19,0,0,1,.25-4,3.78,3.78,0,0,1,2.95-2.51,33.93,33.93,0,0,1-3.71-14.7A9,9,0,0,1,32.2,20.9c1.2-1.59,3.72-2.29,5.2-1A44.18,44.18,0,0,1,42.09,3.16c.79-1.57,2.43-3.34,4-2.52a3.42,3.42,0,0,1,1.24,1.44,50.21,50.21,0,0,1,5.95,17.6c.6-2.07,1.34-4.56,3.42-5.1a4.12,4.12,0,0,1,4.14,1.74,9.52,9.52,0,0,1,1.5,4.46c.75,5.83-.31,11.73-1.52,17.48,1.05-1.3,2.39-2.73,4.06-2.59C67.18,35.86,68.07,38.81,68,41.14Z"/><path class="cls-4" d="M66.53,50.45c-1,3.5-2.33,6.93-3.49,10.37a118.93,118.93,0,0,0-4.15,16c-.85,4.56-.6,9.9-2,14.28l0,.11a3.25,3.25,0,0,1-.6-.92,5.06,5.06,0,0,1-.33-1.73c-.52-7.75.29-15.55-.28-23.3-.3-4-.88-8.39,1.32-11.76a8.26,8.26,0,0,1,7.66-3.62,4.21,4.21,0,0,1,1.9.6Z"/><path class="cls-6" d="M44.79,4.82c.15,17.48,2.78,34.84,5.41,52.12C51,62.08,51.76,67.23,53,72.29c1.49,6.18,3.64,12.35,3.38,18.7"/><path class="cls-6" d="M3.5,49.49C17,59.45,27.31,73.59,41.86,82c4.47,2.56,9.39,4.63,12.86,8.43a2.48,2.48,0,0,1,.59.88"/><path class="cls-5" d="M61.48,88.83a34.23,34.23,0,0,1,4.36-3L78,77.89c3.36-2.18,6.88-4.55,8.53-8.19a3.08,3.08,0,0,0,.36-1.79,2.47,2.47,0,0,0-1.76-1.76,7.1,7.1,0,0,0-2.6-.14A55.54,55.54,0,0,0,93.1,58.84a6.09,6.09,0,0,0,1.54-2,2.41,2.41,0,0,0-.2-2.38c-.9-1.13-2.67-.78-4-.32a29.52,29.52,0,0,0,6.33-15.89c.09-1.06,0-2.34-1-2.82a2.74,2.74,0,0,0-2.08.11,37.17,37.17,0,0,0-13.12,7.77,4.9,4.9,0,0,0,.22-3.57,1.44,1.44,0,0,0-.43-.71,1.62,1.62,0,0,0-1.62,0,12.42,12.42,0,0,0-6,6.68,37.34,37.34,0,0,0-2.14,9c-.91-1.85-2.11-3.92-4.15-4.24-4.9-.77-5.72,7.18-6.11,10.38Q58.71,73.82,56.74,86.7c-.17,1.11-.68,3.87.44,4.69s2.87-1.1,3.6-1.88C61,89.27,61.24,89.05,61.48,88.83Z"/><path class="cls-6" d="M57.65,90.66a69.3,69.3,0,0,0,4.43-7.16c1.08-2,2.07-4.1,3.29-6s2.88-4,4.36-6q2-2.66,3.72-5.46c3-4.92,5.57-10.16,8.63-15.07s6.76-9.57,11.63-12.71"/><path class="cls-7" d="M42.55,34.32c.78,4.23-.1,8-2,8.3s-4-2.81-4.8-7,.09-7.95,2-8.3S41.76,30.08,42.55,34.32Z"/><path class="cls-8" d="M56.28,96.33a1.23,1.23,0,0,0,.54,0"/><path class="cls-8" d="M56.44,97.48a.77.77,0,0,1,.43-.17"/><path class="cls-8" d="M56.55,98.29l.49-.11"/><path class="cls-8" d="M56.77,99.06a1.14,1.14,0,0,0,.54-.17"/><path class="cls-8" d="M56.82,100.09l.44-.22"/><path class="cls-8" d="M57.64,103.07a12.82,12.82,0,0,0,1.25-.7"/><path class="cls-8" d="M57.8,104c.48-.23,1-.48,1.42-.74"/><path class="cls-8" d="M58.56,104.66a2.6,2.6,0,0,0,1-.6"/><path class="cls-8" d="M59.43,105a2,2,0,0,0,.6-.32"/><path class="cls-8" d="M59.76,105.76a1.17,1.17,0,0,0,.58-.47"/><path class="cls-8" d="M60,106.28a1.51,1.51,0,0,0,.6-.43"/><path class="cls-8" d="M61.93,108.29l.43-.33"/><path class="cls-8" d="M57.26,101.51a1,1,0,0,0,.48-.18"/><path class="cls-6" d="M78,42a17.23,17.23,0,0,0-1,8.44A57.36,57.36,0,0,1,77.41,59c3.85-2.28,9-.82,13.06-2.63"/><path class="cls-6" d="M65.62,54.27c-1.36,4.18.5,8.63,1.09,13A22.43,22.43,0,0,1,65.85,77c2.6-1.65,5.72-2.21,8.67-3.09s6-2.28,7.55-5"/><path class="cls-6" d="M34.41,23.72c.77,3.69,3.63,6.54,6.41,9.08s5.75,5.2,6.89,8.79C49.55,34,56.32,28,56.77,20.22c0-.26,0-.52,0-.78"/><path class="cls-6" d="M33.68,46.51c5.16,1.93,8.5,6.82,11.49,11.43L51.8,68.13c-.13-5.83.86-12,4.5-16.54,1.08-1.36,2.38-2.55,3.5-3.88a19.76,19.76,0,0,0,4.08-8.25"/><path class="cls-6" d="M11.58,67a42.76,42.76,0,0,1,13.78,2.22c-1.53-3.27-1.59-7-2.07-10.57a44.87,44.87,0,0,0-1.94-8.32"/><path class="cls-6" d="M24.08,78.63a68.48,68.48,0,0,1,16,2.48C36.39,75.85,37.5,68.41,34.12,63"/><path class="cls-8" d="M46.66,8.62a3.31,3.31,0,0,0,1.43-.85"/><path class="cls-8" d="M47.53,10.14l1.52-.76"/><path class="cls-8" d="M48.19,11.92l1.4-.39"/><path class="cls-8" d="M48.73,13.29l1-.23"/><path class="cls-8" d="M49.05,14.7l.76-.33"/><path class="cls-8" d="M49.16,15.93,50,16"/><path class="cls-8" d="M49.5,17.46a1.44,1.44,0,0,1,1-.07"/><path class="cls-8" d="M49.92,18.62h.44"/><path class="cls-8" d="M50.25,19.81h.65"/><path class="cls-8" d="M51.23,21h-.55C50.9,21,51,21.11,51.23,21Z"/><path class="cls-8" d="M50.07,42.24a12.73,12.73,0,0,1,2.34,2.24"/><path class="cls-8" d="M51.77,42l2.51,1.94"/><path class="cls-8" d="M53.53,41.06a8.07,8.07,0,0,1,1.49,1"/><path class="cls-8" d="M54.51,39.23l1.4,1"/><path class="cls-8" d="M55.68,37.51a1.1,1.1,0,0,1,1.07.56"/><path class="cls-8" d="M56.55,35.44l.86.46"/><path class="cls-8" d="M57.4,33.58a.46.46,0,0,1,.55.14"/><path class="cls-8" d="M58,31.65a1.28,1.28,0,0,1,.76.22"/><path class="cls-8" d="M58.4,30.33l.87.11"/><path class="cls-8" d="M58.49,28.26l.56-.19"/><path class="cls-8" d="M58.5,26.54a.39.39,0,0,1,.43,0"/><path class="cls-8" d="M58.5,24.81h.44"/><path class="cls-8" d="M58.63,23.27a.39.39,0,0,0,.53,0"/><path class="cls-8" d="M58.29,20.7l.43-.12"/><path class="cls-8" d="M62.85,47.61a1.74,1.74,0,0,1,1.29.46"/><path class="cls-8" d="M64.15,46.43l.87.21"/><path class="cls-8" d="M64.48,45.23a1,1,0,0,1,.76.22"/><path class="cls-8" d="M64.81,43.93a.48.48,0,0,1,.43.1"/><path class="cls-8" d="M65,43h.33"/><path class="cls-8" d="M65.46,41.65a.2.2,0,0,0,.31,0"/><path class="cls-8" d="M43.21,31.56a2.08,2.08,0,0,1,1.25.87"/><path class="cls-8" d="M43,29a3.16,3.16,0,0,1,1.39.94"/><path class="cls-8" d="M43,27.08a1.53,1.53,0,0,1,1.1.55"/><path class="cls-8" d="M43.08,24.93l.65.22"/><path class="cls-8" d="M43.2,23.39a2,2,0,0,0,1,.27"/><path class="cls-8" d="M43.08,22l.76.12"/><path class="cls-8" d="M42.76,20.13a.89.89,0,0,0,.66-.08"/><path class="cls-8" d="M42.75,18.83a1.32,1.32,0,0,0,.76-.11"/><path class="cls-8" d="M43.08,17.63a.53.53,0,0,0,.56-.31"/><path class="cls-8" d="M42.54,15.93l.77-.21"/><path class="cls-8" d="M42.64,14.49l.33-.11"/><path class="cls-8" d="M42.65,12.75h.43"/><path class="cls-8" d="M34.18,28.72a6.65,6.65,0,0,1-.55,1.74"/><path class="cls-8" d="M35.19,29.37l0,2.39"/><path class="cls-8" d="M36.24,31a8.73,8.73,0,0,0,.3,2.83"/><path class="cls-8" d="M37.32,32.85A3.83,3.83,0,0,0,37.77,35"/><path class="cls-8" d="M38.5,34.05A17.23,17.23,0,0,0,39.32,37"/><path class="cls-8" d="M39.94,36a6.25,6.25,0,0,0,.86,2.28"/><path class="cls-8" d="M41.34,36.87a6.82,6.82,0,0,1,.7,2.05"/><path class="cls-8" d="M42.59,37.72c.18.84.36,1.67.55,2.5"/><path class="cls-8" d="M43.68,38.61c.19,1.1.42,2.18.69,3.26"/><path class="cls-8" d="M45,40.55a19.81,19.81,0,0,1,.41,3.16"/><path class="cls-8" d="M45.6,45.14c.29-.36.57-.73.86-1.1"/><path class="cls-8" d="M46,46.42a2.54,2.54,0,0,0,.77-.86"/><path class="cls-8" d="M46.14,48.41a3.91,3.91,0,0,0,1.16-1.13"/><path class="cls-8" d="M46.56,49.69a.9.9,0,0,0,.75-.33"/><path class="cls-8" d="M47.1,51.09l.43-.12"/><path class="cls-8" d="M47.31,52.48l.56-.17"/><path class="cls-8" d="M47.76,53.62l.43-.11"/><path class="cls-8" d="M48,54.9l.32-.11"/><path class="cls-8" d="M38,54.18a1.69,1.69,0,0,0,1.08-.38"/><path class="cls-8" d="M38.63,56l1.51-1"/><path class="cls-8" d="M39.5,57.29a12.22,12.22,0,0,1,1.73-.88"/><path class="cls-8" d="M40.49,58.21A10.38,10.38,0,0,1,43,57.86"/><path class="cls-8" d="M41.68,59.27l1.83-.48"/><path class="cls-8" d="M42.65,60A3.34,3.34,0,0,0,44,59.75"/><path class="cls-8" d="M43.41,61.43a3.44,3.44,0,0,1,1.86.39"/><path class="cls-8" d="M44.38,63.16a5.56,5.56,0,0,1,2.07.21"/><path class="cls-8" d="M45.57,64.6l1.64.27"/><path class="cls-8" d="M46.45,66.43a15.7,15.7,0,0,1,2.06-.08"/><path class="cls-8" d="M47.1,67.35a10.33,10.33,0,0,1,2.29.2"/><path class="cls-8" d="M48.08,69h1.63"/><path class="cls-8" d="M48.73,70.34a4.78,4.78,0,0,0,1.84-.16"/><path class="cls-8" d="M49.27,71.75a4.41,4.41,0,0,0,1.62,0"/><path class="cls-8" d="M50.14,72.83l1-.13"/><path class="cls-8" d="M50.57,74.12l.66-.19"/><path class="cls-8" d="M51.12,75.32a1.13,1.13,0,0,1,.65-.11"/><path class="cls-8" d="M51.68,76.64l.32-.22"/><path class="cls-8" d="M51.88,77.38h0Z"/><path class="cls-8" d="M53,79.37l.43,0"/><path class="cls-8" d="M53.08,80.34l.44-.23"/><path class="cls-8" d="M53.19,81.52l.43-.22"/><path class="cls-8" d="M53.62,83.14l.54-.33"/><path class="cls-8" d="M54.27,84.12a.45.45,0,0,0,.42-.23"/><path class="cls-8" d="M53.28,62.92a.6.6,0,0,1,.55-.09"/><path class="cls-8" d="M53,64.7l1-.27"/><path class="cls-8" d="M53,66.08l.87-.12"/><path class="cls-8" d="M53.08,67.42l.86-.26"/><path class="cls-8" d="M53.51,68.58a.53.53,0,0,0,.65,0"/><path class="cls-8" d="M53.51,70.21l.32-.21"/><path class="cls-8" d="M53.94,71.19h.11"/><path class="cls-8" d="M86.41,53.31a8.67,8.67,0,0,0,2,.13"/><path class="cls-8" d="M87.82,52.24a3.84,3.84,0,0,0,1.75-.17"/><path class="cls-8" d="M88.82,50.85a2.73,2.73,0,0,0,2-.26"/><path class="cls-8" d="M89.78,49.56a4.76,4.76,0,0,0,1.53-.63"/><path class="cls-8" d="M90.44,47.6a4.9,4.9,0,0,0,1.62-.53"/><path class="cls-8" d="M91.09,46.09a6.14,6.14,0,0,0,1.31-.51"/><path class="cls-8" d="M91.63,44.59a3.71,3.71,0,0,0,1.2-.45"/><path class="cls-8" d="M92.61,43.17a.86.86,0,0,0,.76-.33"/><path class="cls-8" d="M92.83,42a1.46,1.46,0,0,0,1-.32"/><path class="cls-8" d="M93.48,40.89a.86.86,0,0,0,.65-.22"/><path class="cls-8" d="M77.1,65l2,1.37"/><path class="cls-8" d="M78.53,64.52,80,65.78"/><path class="cls-8" d="M80,63.56l1,1.23"/><path class="cls-8" d="M81.43,63a1.33,1.33,0,0,1,.63.78"/><path class="cls-8" d="M82.52,61.73c.26.36.51.73.76,1.09"/><path class="cls-8" d="M83.61,60.94a1.42,1.42,0,0,1,.73.81"/><path class="cls-8" d="M84.57,60.42a.56.56,0,0,1,.52.46"/><path class="cls-8" d="M86,59.78a.57.57,0,0,1,.32.55"/><path class="cls-8" d="M87,59.24l.42.55"/><path class="cls-8" d="M88.27,59.57l-.21-.44C88.13,59.2,88.2,59.49,88.27,59.57Z"/><path class="cls-8" d="M66,80.76a10.58,10.58,0,0,0,1.16-2.62"/><path class="cls-8" d="M67.4,79.77a12.17,12.17,0,0,0,1.24-2.37"/><path class="cls-8" d="M70,76.84a8.08,8.08,0,0,1-.54,1.64"/><path class="cls-8" d="M71.51,76.3a11.34,11.34,0,0,1-.34,1.83"/><path class="cls-8" d="M72.63,76.19a2.69,2.69,0,0,0-.23,1.08"/><path class="cls-8" d="M73.73,75.87l-.24,1"/><path class="cls-8" d="M75.05,75.64a1.42,1.42,0,0,1-.15.76"/><path class="cls-8" d="M76.44,75.1a1.55,1.55,0,0,1-.34.76"/><path class="cls-8" d="M78.09,74.23a1,1,0,0,1-.15.65"/><path class="cls-8" d="M79.13,73.48a.61.61,0,0,1-.08.54"/><path class="cls-8" d="M80,73a.68.68,0,0,1,0,.75"/><path class="cls-8" d="M81.1,72.6v.55"/><path class="cls-8" d="M82.07,71.84l.11.22"/><path class="cls-8" d="M57.94,84.44c0,.58.09,1.16.14,1.74"/><path class="cls-8" d="M58.71,82.82a4.93,4.93,0,0,1,0,2.06"/><path class="cls-8" d="M59.82,80.86c0,.87.08,1.74.11,2.6"/><path class="cls-8" d="M61.06,78.89c.11.66.23,1.32.35,2"/><path class="cls-8" d="M61.81,76.49a3.87,3.87,0,0,1,.27,1.87"/><path class="cls-8" d="M62.68,75.06a3.19,3.19,0,0,1,.69,1.46"/><path class="cls-8" d="M63.72,73.58a7.22,7.22,0,0,0,.62,1.32"/><path class="cls-8" d="M64,71.85l.75,1.09"/><path class="cls-8" d="M64.28,70A2,2,0,0,1,65,71"/><path class="cls-8" d="M64.59,68.34a.81.81,0,0,1,.62.79"/><path class="cls-8" d="M64.47,66.86a.68.68,0,0,1,.45.42"/><path class="cls-8" d="M64.59,64.68a2.07,2.07,0,0,1,.54.76"/><path class="cls-8" d="M63.93,63.26l.77.33"/><path class="cls-8" d="M68.42,65l.36,2.94"/><path class="cls-8" d="M69.44,63.57a22.09,22.09,0,0,1,.67,3.7"/><path class="cls-8" d="M70.78,62.72a6.42,6.42,0,0,0,.77,2.06"/><path class="cls-8" d="M71.65,61.85c.29.51.58,1,.88,1.51"/><path class="cls-8" d="M72.22,60.84c.28.34.57.67.85,1"/><path class="cls-8" d="M72.85,59.88A6.22,6.22,0,0,1,74,61"/><path class="cls-8" d="M73.51,59.12l.75.55"/><path class="cls-8" d="M73.93,57.93a1.56,1.56,0,0,1,.87.45"/><path class="cls-8" d="M74.26,56.07l.54.12"/><path class="cls-8" d="M74.47,54.68a1.22,1.22,0,0,1,.65.12"/><path class="cls-8" d="M74.59,53.57l.32.11"/><path class="cls-8" d="M74.58,52.39l.44.11"/><path class="cls-8" d="M74.36,51.31l.44.11"/><path class="cls-8" d="M74.58,50.45l.43.12"/><path class="cls-8" d="M74.36,49.15a.45.45,0,0,1,.44.1"/><path class="cls-8" d="M74.25,48.06l.33-.11"/><path class="cls-8" d="M78.3,51.08,79,52"/><path class="cls-8" d="M79.29,49.77l.61,1"/><path class="cls-8" d="M80.26,48.8l.41.77"/><path class="cls-8" d="M81.2,47.73l.2.55"/><path class="cls-8" d="M82,46.64l.32.65"/><path class="cls-8" d="M82.62,45.77l.32.44"/><path class="cls-8" d="M83.44,44.5a.17.17,0,0,0,.1.23.16.16,0,0,0,.2-.15C83.84,44.74,83.26,44.47,83.44,44.5Z"/><path class="cls-8" d="M85.33,43l.54,0"/><path class="cls-8" d="M6.58,49.58a1.5,1.5,0,0,0,1.21-.31"/><path class="cls-8" d="M7.81,50.71l2-1.15"/><path class="cls-8" d="M9.74,51l2.39-1.19"/><path class="cls-8" d="M11.59,51.22l2.27-.88"/><path class="cls-8" d="M16,51.3l-1.51.35"/><path class="cls-8" d="M15.71,52.07l1.52-.41"/><path class="cls-8" d="M16.69,52.73a3.64,3.64,0,0,0,1.41-.33"/><path class="cls-8" d="M17.56,53.4l1.19-.23"/><path class="cls-8" d="M23.09,51.76a2.86,2.86,0,0,0,1.42-.44"/><path class="cls-8" d="M23.63,52.91l1.86-.61"/><path class="cls-8" d="M24.62,54.06l1.52-.12"/><path class="cls-8" d="M25.26,55.35A3.09,3.09,0,0,0,27,55"/><path class="cls-8" d="M25.81,56.54A4.91,4.91,0,0,0,27.44,56"/><path class="cls-8" d="M26.57,57.3A8.64,8.64,0,0,0,28.31,57"/><path class="cls-8" d="M27,58.51a3,3,0,0,0,1.3,0"/><path class="cls-8" d="M27.44,60.12,29,59.86"/><path class="cls-8" d="M28.31,61.53a2.7,2.7,0,0,0,1.3-.33"/><path class="cls-8" d="M28.85,63.07a3.74,3.74,0,0,0,1.52-.57"/><path class="cls-8" d="M29.39,64.66A3.54,3.54,0,0,0,31.12,64"/><path class="cls-8" d="M31.36,66.16a3.36,3.36,0,0,0,1.71-.65"/><path class="cls-8" d="M32.33,67.93l1.19-.65"/><path class="cls-8" d="M33.21,69.26l.86-.55"/><path class="cls-8" d="M33.85,70.21a.68.68,0,0,0,.55-.1"/><path class="cls-8" d="M34,71.73h.54"/><path class="cls-8" d="M34.49,72.94a.23.23,0,0,0,.32,0"/><path class="cls-8" d="M39,73.29a14.17,14.17,0,0,0,1.83-.91"/><path class="cls-8" d="M39.93,74.67a7.67,7.67,0,0,1,1.74-1"/><path class="cls-8" d="M40.91,75.65l1.61-1"/><path class="cls-8" d="M42.1,76.41l1.2-.65"/><path class="cls-8" d="M43.18,77.16l1.32-.74"/><path class="cls-8" d="M44.28,77.93l1-.55"/><path class="cls-8" d="M45,79.27,46,78.79"/><path class="cls-8" d="M45.8,80.32l.75-.45"/><path class="cls-8" d="M46.56,81l.65-.32"/><path class="cls-8" d="M47.64,81.94l.55-.43"/><path class="cls-8" d="M48.73,82.27l.43-.11"/><path class="cls-8" d="M27.24,80.9A8.08,8.08,0,0,0,28.62,80"/><path class="cls-8" d="M28.64,81.31l1.3-.67"/><path class="cls-8" d="M30.07,81.89a8.07,8.07,0,0,0,1.49-.83"/><path class="cls-8" d="M31.27,82.24a6.11,6.11,0,0,0,1.58-1"/><path class="cls-8" d="M33,82.32l1.49-.82"/><path class="cls-8" d="M34.16,82.67a4.69,4.69,0,0,0,1.33-.6"/><path class="cls-8" d="M35.48,82.94l1.18-.68"/><path class="cls-8" d="M36.35,83.69l1.31-.52"/><path class="cls-8" d="M37.43,84.25a2.76,2.76,0,0,0,1.4-.58"/><path class="cls-8" d="M39.05,84.43l.66-.43"/><path class="cls-8" d="M40.35,84.53l.43-.32Z"/><path class="cls-8" d="M42.75,85.63l.87-.44"/><path class="cls-8" d="M44.49,86l.33-.32"/><path class="cls-8" d="M16,69.34l1.2-.87"/><path class="cls-8" d="M17.55,69.67l1.2-.65"/><path class="cls-8" d="M19,70l.88-.42"/><path class="cls-8" d="M20.71,70.12l.65-.12"/><path class="cls-8" d="M24.29,70.33l-1,.45C23.65,70.59,24,70.51,24.29,70.33Z"/><path class="cls-8" d="M24.29,72l1.09-.43"/><path class="cls-8" d="M25.15,72.47l1.1-.51"/><path class="cls-8" d="M26.57,73.69c.36-.19.17-.82.53-1l-1.19.42"/><path class="cls-8" d="M27.43,74a.67.67,0,0,0,.76-.14"/><path class="cls-8" d="M28.2,74.67l.87-.33"/><path class="cls-8" d="M29.07,75.54l.65-.22"/><path class="cls-8" d="M30.92,76.31l.65-.12"/><path class="cls-8" d="M7.56,56.77a1.42,1.42,0,0,0,1.19-.57"/><path class="cls-8" d="M8.66,58.07l1.74-.74"/><path class="cls-8" d="M9.52,59a8.52,8.52,0,0,0,1.5-.5"/><path class="cls-8" d="M10.7,59.73a3.53,3.53,0,0,0,2.08-.26"/><path class="cls-8" d="M12.23,61.2l2-.55"/><path class="cls-8" d="M13.75,62.17l1.95-.35"/><path class="cls-8" d="M15.28,63.49a5.92,5.92,0,0,1,1.62-.28"/><path class="cls-8" d="M16.81,64.28a15.73,15.73,0,0,1,1.93-.4"/><path class="cls-8" d="M18.64,64.89a3.29,3.29,0,0,0,1.08-.12"/><path class="cls-8" d="M19.5,66.24l1.43.21"/></g></g></svg>