<svg xmlns="http://www.w3.org/2000/svg" viewBox="0 0 89.79 110.8"><defs><style>.cls-1{isolation:isolate;}.cls-2{fill:#d27528;}.cls-10,.cls-11,.cls-12,.cls-2,.cls-3,.cls-4,.cls-5,.cls-6,.cls-7,.cls-8,.cls-9{stroke:#231f20;stroke-linecap:round;stroke-linejoin:round;}.cls-10,.cls-11,.cls-12,.cls-2,.cls-3,.cls-4,.cls-5,.cls-6,.cls-7,.cls-9{stroke-width:0.87px;}.cls-3{fill:#914f22;}.cls-4{fill:#231f20;}.cls-5,.cls-8{fill:none;}.cls-6{fill:#eb9649;}.cls-7{fill:#29abe2;}.cls-8{stroke-width:0.33px;}.cls-9{fill:#fff;}.cls-10{fill:#8dd6eb;}.cls-11{fill:#4ec9f4;}.cls-12{fill:#3c7cbf;}.cls-13{fill:#c9ebfc;opacity:0.5;mix-blend-mode:screen;}</style></defs><g class="cls-1"><g id="Layer_1" data-name="Layer 1"><path class="cls-2" d="M89.33,25.16,76.84,107.44a2.09,2.09,0,0,1-2.36,1.76L12.3,100.54a1.69,1.69,0,0,1-1.09-.62L4.52,91.48,1,87.06a2,2,0,0,1-.35-.72,2,2,0,0,1,.17-1.53A1.67,1.67,0,0,1,1,84.53l1-1.18,4.93-5.8,8.8,1.22.48-2.58,10-53L28,13.93,78,21.34l9.45,1.4.16,0A2.12,2.12,0,0,1,89.33,25.16Z"/><path class="cls-3" d="M87.42,22.63l0,.11-12,82.17a2,2,0,0,1-2.28,1.77L21,99.13l-4.49-.65L13.28,98,13.06,98a1.62,1.62,0,0,1-.82-.57L8.1,92,2.43,84.53A2,2,0,0,1,2,83.46a.37.37,0,0,1,0-.11A2.09,2.09,0,0,1,2.42,82L3,81.27,8.13,75l8.09,1.17.37,0,9.67-53,2-11,.14-.8,1.65.25,35.75,5.52.38-1.33L76.52,11l2.61,2.42.39.36,7.65,7.1A1.92,1.92,0,0,1,87.42,22.63Z"/><path class="cls-4" d="M79.13,13.43,76.52,11,66.19,15.84l-.38,1.33L30.06,11.65,28.12,13,26.26,23.21l-9.67,53-.37,0L8.13,75,3,81.27,2.42,82A2.09,2.09,0,0,0,2,83.35a.37.37,0,0,0,0,.11H2a2.11,2.11,0,0,0,.41,1.06L8.1,92l4.14,5.43a1.54,1.54,0,0,0,.82.56h0l.22.05,6.29.91c-.59,1.39-1,2.44-1,2.44l4.87.73c-.19-3.7,2-7,3.27-8.55,1,.15,1.65.31,1.65.31s23.49,3.23,33.81,4.69a3.44,3.44,0,0,0,1.65-.17c2.87-1.06,3.68-3.69,4.33-8.43,1.23-9,8.71-58.62,11.36-76.15Zm-62.43,83a3.6,3.6,0,0,1,1-1.62,7.43,7.43,0,0,1,4.84-1.55,32.73,32.73,0,0,0-2.72,5.2A35.86,35.86,0,0,1,16.7,96.42Z"/><line class="cls-5" x1="64.36" y1="94.4" x2="74.51" y2="106.35"/><path class="cls-2" d="M77.84,11.45,65.35,93.73A2.1,2.1,0,0,1,63,95.5L8.46,87.89,1.88,87A1.69,1.69,0,0,1,.46,85L16.23,1.8A1.68,1.68,0,0,1,18.12.45l6.53,1L76.07,9.06A2.1,2.1,0,0,1,77.84,11.45Z"/><path class="cls-6" d="M24.65,1.42,8.46,87.89,1.88,87A1.69,1.69,0,0,1,.46,85L16.23,1.8A1.68,1.68,0,0,1,18.12.45Z"/><path class="cls-7" d="M16.43,92.21c-7.5,6.32-8.6,16.8-8.6,16.8l5.41-3.89,3.9,5.24a27.78,27.78,0,0,1,8.25-17.07Z"/><path class="cls-8" d="M81.18,18.72c-.55,4.67-1.22,9.32-1.9,14Q74.57,65,69.32,97.24"/><path class="cls-8" d="M78.07,71q-2.89,15.58-5.13,31.29"/><path class="cls-8" d="M70.61,101.7q1.1-5.94,2.2-11.87c1.67-9,3.34-18,4.71-27"/><path class="cls-8" d="M84.14,18.86q-2.86,16.56-4.8,33.26"/><path class="cls-8" d="M85.26,19.78c-.07,0,0-.14.08-.1s.06.14,0,.21L83.11,33"/><path class="cls-8" d="M85.17,26.84,83.13,39c-1.67,10-3.34,20-4.89,30"/><path class="cls-8" d="M24.33,95.9Q33.48,97,42.59,98.45"/><path class="cls-8" d="M46.49,99.36q12.54,1.5,25,3.41"/><path class="cls-8" d="M51.59,98.51l17.1,2.33"/><path class="cls-8" d="M37.91,99.7l29.57,4.35"/><path class="cls-8" d="M22.15,97.7q5.46,1,11,1.46"/><path class="cls-8" d="M69.55,104.14l3.81.75"/><path class="cls-8" d="M3.63,88.47l.54-.22"/><path class="cls-8" d="M4.1,89a.47.47,0,0,0,.29-.14"/><path class="cls-8" d="M4.43,89.63a1.71,1.71,0,0,1,.39-.17"/><path class="cls-8" d="M4.79,90.1,5.08,90"/><path class="cls-8" d="M5.29,90.68l.29-.15"/><path class="cls-8" d="M5.73,91.25a.8.8,0,0,0,.33-.17"/><path class="cls-8" d="M6.16,91.65l.33-.14"/><path class="cls-8" d="M6.49,92.05l.25-.11"/><path class="cls-8" d="M6.82,92.64a.38.38,0,0,1,.29-.09"/><path class="cls-8" d="M7.12,93a.46.46,0,0,1,.35-.14"/><path class="cls-8" d="M7.58,93.5l.18-.07"/><path class="cls-8" d="M18,92.19c-1.52,1.55-3.1,3.2-3.65,5.31"/><path class="cls-8" d="M18.86,92.46a19.11,19.11,0,0,0-4.52,8.17c-.08.28-.14.55-.21.83"/><path class="cls-8" d="M20.47,92.18a2.85,2.85,0,0,0-.61.59c-.62.76-1.2,1.54-1.75,2.35"/><path class="cls-8" d="M20.21,93.69c-.5.89-1,1.78-1.49,2.66"/><path class="cls-8" d="M21.36,93.51a13.67,13.67,0,0,0-1.55,2.23"/><path class="cls-8" d="M23.24,92.64a30.08,30.08,0,0,0-3,4.49"/><path class="cls-8" d="M24,92.84s0,.1,0,.14a25.87,25.87,0,0,1-2.16,3"/><path class="cls-8" d="M76.78,60.81l.9.58"/><path class="cls-8" d="M77.34,60.05l.72.52"/><path class="cls-8" d="M77.34,59.18l.79.32"/><path class="cls-8" d="M77.41,58.52a1.13,1.13,0,0,1,.58.23"/><path class="cls-8" d="M77.71,57.64l.36.16"/><path class="cls-8" d="M77.7,56.72l.51.14"/><path class="cls-8" d="M77.85,56.14l.36.14"/><path class="cls-8" d="M78.07,55.26l.43.15"/><path class="cls-8" d="M78.14,54.39a.61.61,0,0,1,.36.15"/><path class="cls-8" d="M78.35,53.46a.41.41,0,0,0,.44.13"/><path class="cls-8" d="M78.65,52.58a.2.2,0,0,1,.13.22"/><path class="cls-8" d="M78.28,70.2a.54.54,0,0,1,.44.22"/><path class="cls-8" d="M78.65,69.47a.39.39,0,0,1,.28.15"/><path class="cls-8" d="M78.86,68.75a.51.51,0,0,1,.36.14"/><path class="cls-8" d="M79,68l.22-.07"/><path class="cls-8" d="M79.15,67.15h.22"/><path class="cls-8" d="M79.22,66.2l.22-.08"/><path class="cls-8" d="M79.44,65.2a.14.14,0,0,0,.21,0"/><path class="cls-8" d="M79.44,64.55h.22"/><path class="cls-8" d="M79.66,63.89h.15"/><path class="cls-8" d="M76.22,86.09a2,2,0,0,1,.54.63"/><path class="cls-8" d="M76.05,87.15l.36.58"/><path class="cls-8" d="M75.82,88.31a.94.94,0,0,1,.5.52"/><path class="cls-8" d="M75.75,89.19a.47.47,0,0,1,.36.29"/><path class="cls-8" d="M75.67,90.2a.33.33,0,0,1,.36.29"/><path class="cls-8" d="M75.6,91.3a.54.54,0,0,1,.44.5"/><path class="cls-8" d="M75.67,92.31l.29.29"/><path class="cls-8" d="M75.31,93.45l.37.08"/><path class="cls-8" d="M75.18,94.51c.18-.1.41.18.27.33"/><path class="cls-8" d="M75,96a.2.2,0,0,1,.15.2"/><path class="cls-8" d="M85.18,42.2a1.14,1.14,0,0,1,.55.39"/><path class="cls-8" d="M85.46,41.28a1.58,1.58,0,0,1,.58.29"/><path class="cls-8" d="M85.75,40.41l.58.21"/><path class="cls-8" d="M85.82,39.31l.44.15"/><path class="cls-8" d="M85.89,38.31l.44.14"/><path class="cls-8" d="M86,37.45l.45.11"/><path class="cls-8" d="M86.19,36.56l.5.09"/><path class="cls-8" d="M86.39,35.71l.3.14"/><path class="cls-8" d="M86.48,35a.42.42,0,0,1,.36.06"/><path class="cls-8" d="M86.62,34l.36.14"/><path class="cls-8" d="M86.76,33.37a.56.56,0,0,1,.36.15"/><path class="cls-8" d="M86.84,32.58a.53.53,0,0,1,.43.15"/><path class="cls-8" d="M87,31.63l.29.22"/><path class="cls-8" d="M87,30.47a.66.66,0,0,1,.43.23"/><path class="cls-8" d="M87.34,29.53a.46.46,0,0,1,.29.37"/><path class="cls-8" d="M80.84,72.93l.42.31"/><path class="cls-8" d="M80.6,74l.44.36"/><path class="cls-8" d="M80.39,75.05a.4.4,0,0,1,.35.22"/><path class="cls-8" d="M80.32,75.85l.29.29"/><path class="cls-8" d="M80.09,76.67l.36.14V77C80.56,77.08,80,76.62,80.09,76.67Z"/><path class="cls-8" d="M79.88,78.61a.39.39,0,0,1,.37.14"/><path class="cls-8" d="M79.88,79.33l.36.15"/><path class="cls-8" d="M79.66,80.43a.17.17,0,0,1,.22.06"/><path class="cls-8" d="M79.45,81.51a.23.23,0,0,1,.29.21"/><path class="cls-8" d="M79.22,82.76a.27.27,0,0,1,.23.34"/><path class="cls-8" d="M78.94,83.82l.3.28"/><path class="cls-8" d="M78.65,85.07a.26.26,0,0,1,.24,0"/><path class="cls-8" d="M78.5,86.06l.15.08"/><path class="cls-8" d="M78.57,87.23h.08"/><path class="cls-8" d="M26.76,100.78a2.33,2.33,0,0,0,.34.81"/><path class="cls-8" d="M27.67,101.23a2,2,0,0,0,.39.71"/><path class="cls-8" d="M28.63,101.37a2,2,0,0,0,.51.72"/><path class="cls-8" d="M29.51,101.36l.5.59"/><path class="cls-8" d="M30.53,101.51a1.66,1.66,0,0,0,.34.59"/><path class="cls-8" d="M31.45,101.8a1.24,1.24,0,0,0,.3.58"/><path class="cls-8" d="M32.25,101.8a1.08,1.08,0,0,0,.23.51C32.57,102.43,32.22,101.65,32.25,101.8Z"/><path class="cls-8" d="M33.58,101.93a1.34,1.34,0,0,1,.34.53"/><path class="cls-8" d="M34.35,102l.45.64"/><path class="cls-8" d="M35.25,102.07l.49.53"/><path class="cls-8" d="M36.52,102a2.6,2.6,0,0,0,.51.88"/><path class="cls-8" d="M53.06,104.41l.59.71"/><path class="cls-8" d="M54.14,104.35l.87,1.08"/><path class="cls-8" d="M55.31,104.84l.77,1"/><path class="cls-8" d="M56.41,105.12a2.77,2.77,0,0,0,.56.67"/><path class="cls-8" d="M57.56,105.27l.73.8"/><path class="cls-8" d="M58.93,105.2l.72.81"/><path class="cls-8" d="M60.16,105.5l.66.94"/><path class="cls-8" d="M61.1,105.72l.65.72"/><path class="cls-8" d="M62.05,105.93l.88.93"/><path class="cls-8" d="M63.64,106.29l.44.51c.14.17.67,0,.79.15"/><path class="cls-8" d="M65.69,106.21l.76.83"/><path class="cls-8" d="M66.9,106.59l.43.51"/><path class="cls-8" d="M67.91,106.73a.52.52,0,0,0,.37.35c.17.17.77-.08.94.09s.61,0,.73.13"/><path class="cls-8" d="M70.89,107.23a1.25,1.25,0,0,1,.5.52"/><path class="cls-8" d="M71,77.37l.5.51"/><path class="cls-8" d="M71.18,76.51l.43.36"/><path class="cls-8" d="M71.54,75.86a1.16,1.16,0,0,0,.44.35"/><path class="cls-8" d="M71.61,75.06l.35.3"/><path class="cls-8" d="M71.69,74.48a.42.42,0,0,1,.36.06"/><path class="cls-8" d="M71.69,73.38l.29.15"/><path class="cls-8" d="M71.69,72.59l.36.14"/><path class="cls-8" d="M71.9,71.72l.29.15"/><path class="cls-8" d="M72.05,71.07h.29"/><path class="cls-8" d="M72.19,70.34h.15"/><path class="cls-8" d="M76.69,38.8l.65.3"/><path class="cls-8" d="M76.91,37.57a2.4,2.4,0,0,1,.65.44"/><path class="cls-8" d="M77.28,36.69l.57.23"/><path class="cls-8" d="M77.27,36l.29.08"/><path class="cls-8" d="M77.33,35.21l.3.13"/><path class="cls-8" d="M77.56,34.53l.36.14"/><path class="cls-8" d="M77.77,33.24l.37.13"/><path class="cls-8" d="M78.07,32.65h.36"/><path class="cls-8" d="M78.07,31.79a.75.75,0,0,1,.51.06"/><path class="cls-8" d="M78.14,31.13a.42.42,0,0,1,.36-.07"/><path class="cls-8" d="M78.07,29.74a.28.28,0,0,0,.29,0"/><path class="cls-8" d="M78.15,28.53s.1,0,.06.06"/><path class="cls-8" d="M32.51,95.47l.54.75"/><path class="cls-8" d="M33.59,95.63a2.61,2.61,0,0,0,.33.81"/><path class="cls-8" d="M34.65,95.79l.42.73"/><path class="cls-8" d="M35.45,96.07a1.13,1.13,0,0,0,.43.51"/><path class="cls-8" d="M36.46,96.22l.41.59"/><path class="cls-8" d="M37.41,96.29l.51.57"/><path class="cls-8" d="M38.42,96.44l.72.65c.16.15.65,0,.8.22"/><path class="cls-8" d="M40.59,97l.5.37"/><path class="cls-8" d="M41.68,96.73a1.41,1.41,0,0,0,.35.66"/><path class="cls-8" d="M42.69,96.94a.63.63,0,0,0,.23.51"/><path class="cls-8" d="M43.85,97.53a1,1,0,0,1,.37.5"/><path class="cls-8" d="M46.54,97.81a1.65,1.65,0,0,0,.49.53c.16.1.61.06.73.2"/><path class="cls-8" d="M48.12,98l.29.5"/><path class="cls-8" d="M49.15,98.1l.48.46"/><path class="cls-8" d="M50.31,98.39l.21.23"/><path class="cls-8" d="M4.86,84.25A2.33,2.33,0,0,1,6,84.56"/><path class="cls-8" d="M5.28,82.9a1.42,1.42,0,0,1,1.3.37"/><path class="cls-8" d="M5.57,81.64a.92.92,0,0,1,1,0"/><path class="cls-8" d="M5.88,79.74l.87.16"/><path class="cls-8" d="M6.31,78.46a1.45,1.45,0,0,1,1,.29"/><path class="cls-8" d="M7.18,77a1.16,1.16,0,0,1,.87.29"/><path class="cls-8" d="M7.75,75.3l.89.23"/><path class="cls-8" d="M8.05,74.12a.86.86,0,0,1,.73.13"/><path class="cls-8" d="M8.05,72.81a1,1,0,0,0,.72.14"/><path class="cls-8" d="M8.34,71.07h.58"/><path class="cls-8" d="M8.63,69.88l.73.15"/><path class="cls-8" d="M8.92,68.44l.87.15"/><path class="cls-8" d="M9.06,66.86l.87.29"/><path class="cls-8" d="M9.35,65.56a1.55,1.55,0,0,0,.87.14"/><path class="cls-8" d="M9.5,64.24l1.3.18"/><path class="cls-8" d="M10.22,62.66a1.52,1.52,0,0,1,.87.14"/><path class="cls-8" d="M11.69,49.71a10.78,10.78,0,0,0,2.3.65"/><path class="cls-8" d="M12.55,48.41l2,.6"/><path class="cls-8" d="M13.27,47.13a3.07,3.07,0,0,1,1.44.47"/><path class="cls-8" d="M13.56,45.38l1.16.15"/><path class="cls-8" d="M13.54,43.56,14.7,44"/><path class="cls-8" d="M14.13,41.94l1,.29"/><path class="cls-8" d="M14.14,40.62a1.8,1.8,0,0,1,1.15.3"/><path class="cls-8" d="M15.59,38.87l-1.17-.4C14.76,38.38,15.28,38.71,15.59,38.87Z"/><path class="cls-8" d="M15.3,36.28l.72.29"/><path class="cls-8" d="M15.15,35a1.17,1.17,0,0,1,1.31-.29"/><path class="cls-8" d="M15.44,33.67h1"/><path class="cls-8" d="M15.59,32.07a1.66,1.66,0,0,1,1,.29"/><path class="cls-8" d="M16.59,24.61a6.64,6.64,0,0,1,2.47.23"/><path class="cls-8" d="M17.33,23.09h1.88"/><path class="cls-8" d="M17.76,21.35l1.6.22"/><path class="cls-8" d="M17.91,19.9h1.3"/><path class="cls-8" d="M18.35,18a4.62,4.62,0,0,0,1.44.17"/><path class="cls-8" d="M18.63,16.71a3.23,3.23,0,0,1,1.31.14"/><path class="cls-8" d="M18.92,15.27a1.47,1.47,0,0,1,1,.11"/><path class="cls-8" d="M18.92,13.52a1.08,1.08,0,0,0,.87.29"/><path class="cls-8" d="M19.35,12.21a2.48,2.48,0,0,1,1.74,0"/><path class="cls-8" d="M19.21,10.47H21"/><path class="cls-8" d="M20.36,8.17l1.31.44"/><path class="cls-8" d="M21,6.7h1.16"/><path class="cls-8" d="M21.53,5.11h.87"/><path class="cls-8" d="M22.4,4.09h.14"/><path class="cls-8" d="M10.24,60.52a1.68,1.68,0,0,1,1.15-.05"/><path class="cls-8" d="M9.93,58.75A1.44,1.44,0,0,1,11,59"/><path class="cls-8" d="M10.37,57.45a.87.87,0,0,1,.73.13"/><path class="cls-8" d="M66.9,11.4A5.9,5.9,0,0,0,69.36,11"/><path class="cls-8" d="M69.08,12.24l3.19-.59"/><path class="cls-8" d="M70.52,13.31,72.7,13"/><path class="cls-8" d="M70.67,14.53a6.58,6.58,0,0,0,2-.13"/><path class="cls-8" d="M71.11,16a4.91,4.91,0,0,1,1.75.08"/><path class="cls-8" d="M71,17.41l1.6.42"/><path class="cls-8" d="M70.79,19.22a4,4,0,0,0,1.48.35"/><path class="cls-8" d="M70.82,20.91l1,.29"/><path class="cls-8" d="M71.11,22.36l.58.29"/><path class="cls-8" d="M70.65,24.13a1.2,1.2,0,0,0,.89.1"/><path class="cls-8" d="M70.68,26.11l.87.27"/><path class="cls-8" d="M70.53,28.29l.73.29"/><path class="cls-8" d="M57.09,91.74A10.74,10.74,0,0,1,59,93.29"/><path class="cls-8" d="M59.21,92.11l1.46.86"/><path class="cls-8" d="M60.52,90.94,62,91.8"/><path class="cls-8" d="M62.55,90.35l-1.29-.75A2.64,2.64,0,0,1,62.55,90.35Z"/><path class="cls-8" d="M62.27,87.88,63,88"/><path class="cls-8" d="M62.41,86.58h.72"/><path class="cls-8" d="M62.7,84.85a.61.61,0,0,1,.58.13"/><path class="cls-8" d="M62.71,83.28l.44-.15"/><path class="cls-8" d="M21.82,60.94,24,60.62"/><path class="cls-8" d="M22,62.75a6.83,6.83,0,0,0,2.19-.49"/><path class="cls-8" d="M23.13,63.69l1.58-.34"/><path class="cls-8" d="M24,65.19a3.4,3.4,0,0,0,2.19-.36"/><path class="cls-8" d="M25.15,66.44A3.51,3.51,0,0,0,26.6,66"/><path class="cls-8" d="M26,67.88l1.6-.73"/><path class="cls-8" d="M26.73,69.12a3.59,3.59,0,0,0,1.18-.65"/><path class="cls-8" d="M28.19,70a2.17,2.17,0,0,0,1.2-.68"/><path class="cls-8" d="M29.79,71.21a1.72,1.72,0,0,0,.59-.86"/><polygon class="cls-9" points="59.77 43.41 57.92 56.48 47.38 64.42 34.3 62.58 26.36 52.03 28.21 38.95 38.76 31.01 51.83 32.85 59.77 43.41"/><polygon class="cls-10" points="38.83 54.9 34.99 49.8 35.88 43.48 40.98 39.64 47.3 40.53 51.14 45.63 50.25 51.95 45.15 55.79 38.83 54.9"/><polygon class="cls-11" points="51.83 32.85 47.3 40.53 40.98 39.64 38.76 31.01 51.83 32.85"/><polygon class="cls-7" points="34.3 62.58 38.83 54.9 45.15 55.79 47.38 64.42 34.3 62.58"/><polygon class="cls-12" points="57.92 56.48 50.25 51.95 51.14 45.63 59.77 43.41 57.92 56.48"/><polygon class="cls-11" points="28.2 38.95 35.88 43.48 34.99 49.8 26.36 52.02 28.2 38.95"/><polygon class="cls-11" points="40.98 39.64 35.88 43.48 28.21 38.95 38.76 31.01 40.98 39.64"/><polygon class="cls-12" points="47.3 40.53 51.14 45.63 59.77 43.41 51.83 32.85 47.3 40.53"/><polygon class="cls-7" points="38.83 54.9 34.99 49.8 26.36 52.03 34.3 62.58 38.83 54.9"/><polygon class="cls-12" points="45.15 55.79 50.25 51.95 57.92 56.48 47.37 64.42 45.15 55.79"/><path class="cls-8" d="M45,42.28l1.06-.51"/><path class="cls-8" d="M45.57,42.69a2.22,2.22,0,0,1,.91-.26"/><path class="cls-8" d="M45.87,43.35c.31-.05.62-.1.93-.13"/><path class="cls-8" d="M46.37,44.16a4.42,4.42,0,0,1,1.2-.13"/><path class="cls-8" d="M46.86,44.83l1.26,0"/><path class="cls-8" d="M47.37,45.5l1.08.11"/><path class="cls-8" d="M47.76,46.21a2.76,2.76,0,0,0,.76.07"/><path class="cls-8" d="M47.76,47a2.91,2.91,0,0,1,.65.09"/><path class="cls-8" d="M47.82,47.83a.71.71,0,0,1,.68.25"/><path class="cls-8" d="M48,48.87a1,1,0,0,1,.49.08"/><path class="cls-8" d="M48.06,49.59a.22.22,0,0,1,.3.19"/><path class="cls-8" d="M47.79,50.65l.27,0"/><path class="cls-8" d="M47.42,51.35l.1.07"/><path class="cls-8" d="M46.72,52a.65.65,0,0,1,.39,0"/><path class="cls-8" d="M46,52.71a.26.26,0,0,1,.32.12"/><path class="cls-8" d="M45.48,53.43a.47.47,0,0,1,.33,0"/><path class="cls-8" d="M36.84,47.77l.68-.17"/><path class="cls-8" d="M36.81,48.7a4.27,4.27,0,0,1,1-.3"/><path class="cls-8" d="M37.19,49.22l1-.3"/><path class="cls-8" d="M37.65,49.81a1.58,1.58,0,0,0,.73-.18"/><path class="cls-8" d="M38.25,50.24l.9-.24"/><path class="cls-8" d="M38.88,50.83l.62-.17"/><path class="cls-8" d="M39.44,51.5a.92.92,0,0,0,.69-.25"/><path class="cls-8" d="M51.39,36.44a2.86,2.86,0,0,0,1-.38"/><path class="cls-8" d="M51.63,37.07l1-.3"/><path class="cls-8" d="M52.22,37.6a5.58,5.58,0,0,1,1.07-.19"/><path class="cls-8" d="M52.56,38.32l1.26-.1"/><path class="cls-8" d="M53.19,38.89a3.38,3.38,0,0,1,1.1,0"/><path class="cls-8" d="M53.6,39.5a4.92,4.92,0,0,1,1.15,0"/><path class="cls-8" d="M54.11,40.16a5.39,5.39,0,0,1,1.12.21"/><path class="cls-8" d="M54.71,41l1,.2"/><path class="cls-8" d="M55,41.6l1.37,0"/><path class="cls-8" d="M55.27,42.36c0,.1.17.09.28.06a1.35,1.35,0,0,1,.77,0"/><path class="cls-8" d="M56.22,46.19a9.9,9.9,0,0,1,1.54,0"/><path class="cls-8" d="M56.29,46.9a6.89,6.89,0,0,1,1.36.07"/><path class="cls-8" d="M56.22,47.73l1.13.18"/><path class="cls-8" d="M56.23,48.45a4.71,4.71,0,0,1,1.11.32"/><path class="cls-8" d="M56.17,49.2a3.29,3.29,0,0,1,1.08.57"/><path class="cls-8" d="M56.05,50.1a8.28,8.28,0,0,1,1.11.31"/><path class="cls-8" d="M55.94,50.89a2.11,2.11,0,0,1,.81.46"/><path class="cls-8" d="M55.88,51.73a1.61,1.61,0,0,1,.95.37"/><path class="cls-8" d="M55.84,52.37a1.4,1.4,0,0,1,.78.33"/><path class="cls-8" d="M56,53.1a2.41,2.41,0,0,1,.57.58"/><path class="cls-8" d="M47.42,60.59A2.32,2.32,0,0,1,48,61.74"/><path class="cls-8" d="M48,60.37a1.76,1.76,0,0,1,.47.51"/><path class="cls-8" d="M48.74,59.88a2.75,2.75,0,0,0,.61.75"/><path class="cls-8" d="M49.23,59.51l.63.59"/><path class="cls-8" d="M49.87,59.27l.81.46"/><path class="cls-8" d="M50.72,58.75a2,2,0,0,1,.72.31"/><path class="cls-8" d="M51.36,58.1l.88.32"/><path class="cls-8" d="M51.94,57.45a2.13,2.13,0,0,1,.74.19"/><path class="cls-8" d="M52.66,57a1.14,1.14,0,0,0,.69.2"/><path class="cls-8" d="M53.54,56.56l.31.2"/><path class="cls-8" d="M35.47,41.15l.44.34"/><path class="cls-8" d="M36.14,40.59a.66.66,0,0,0,.39.38"/><path class="cls-8" d="M36.75,40.23l.1.07"/><path class="cls-8" d="M37.42,39.77a1.49,1.49,0,0,1,.54.42"/><path class="cls-8" d="M38.14,39.33l.44.34"/><path class="cls-8" d="M38.86,38.88a1,1,0,0,0,.28.23.1.1,0,0,1-.06.14"/><path class="cls-8" d="M32.84,45a3.88,3.88,0,0,0,1.07-.19"/><path class="cls-8" d="M32.93,45.52l.71-.1"/><path class="cls-8" d="M32.9,46.32a.84.84,0,0,1,.59-.15"/><path class="cls-8" d="M32.85,47.27l.39-.07"/><path class="cls-8" d="M33,48.42l.29-.12"/><path class="cls-8" d="M32.77,52.65a3.63,3.63,0,0,1,.85-.6"/><path class="cls-8" d="M33,53.54l.88-.82"/><path class="cls-8" d="M33.49,54.06a3.87,3.87,0,0,1,.84-.67"/><path class="cls-8" d="M34,54.87l.46-.42"/><path class="cls-8" d="M34.42,55.49l.57-.58"/><path class="cls-8" d="M35,55.93l.52-.34"/><path class="cls-8" d="M42.27,57.57l1.14-.37"/><path class="cls-8" d="M42.74,58.37a4.47,4.47,0,0,1,1.2-.59"/><path class="cls-8" d="M43.23,59a5.18,5.18,0,0,1,.86-.4"/><path class="cls-8" d="M43.45,59.68l.64-.29"/><path class="cls-8" d="M43.71,60.69l.72-.29"/><path class="cls-8" d="M44,61.69a1.4,1.4,0,0,1,.5,0"/><path class="cls-8" d="M44.33,62.33l.41-.22"/><path class="cls-8" d="M45,37.57l1.28.71"/><path class="cls-8" d="M45.86,37.12a2.34,2.34,0,0,1,.71.39"/><path class="cls-8" d="M46.58,36.72l.51.21"/><path class="cls-8" d="M47,36l.4.28"/><path class="cls-8" d="M47.17,35.56a1.21,1.21,0,0,0,.52.23"/><path class="cls-8" d="M47.78,34.83a.29.29,0,0,1,.26.08"/><path class="cls-13" d="M38.08,35c.51.68-.15,2-1.47,3s-2.79,1.23-3.3.55.16-2,1.48-3S37.58,34.31,38.08,35Z"/></g></g></svg>