<svg xmlns="http://www.w3.org/2000/svg" viewBox="0 0 90.42 110.69"><defs><style>.cls-1{isolation:isolate;}.cls-2{fill:#3c7cbf;}.cls-2,.cls-3,.cls-4,.cls-5,.cls-7{stroke:#231f20;stroke-linecap:round;stroke-linejoin:round;}.cls-2,.cls-3,.cls-4{stroke-width:0.87px;}.cls-3{fill:#4ec9f4;}.cls-4{fill:#315aa9;}.cls-5{fill:#231f20;stroke-width:0.43px;}.cls-6{fill:#c9ebfc;opacity:0.5;mix-blend-mode:screen;}.cls-7{fill:none;stroke-width:0.33px;}</style></defs><g class="cls-1"><g id="Layer_1" data-name="Layer 1"><path class="cls-2" d="M85.55,70.61c-8.83,15.9-41-4.3-41-4.3l-30.11-17c-1.36-.17-18.11-4.21-13.12-19.16,2.34-7,11.92-16,23.85-22.19a68,68,0,0,1,18.85-6.7c7.78-1.43,15.53-1.1,22.24,2,.37.17.73.34,1.1.53C76,8.18,81.92,16.21,85.53,25.39,91.78,41.24,91.13,60.54,85.55,70.61Z"/><path class="cls-3" d="M85.53,25.39a8.84,8.84,0,0,1-3.08,1.12,11.35,11.35,0,0,1-4.87-.45A17.51,17.51,0,0,1,66,14.23a20.29,20.29,0,0,1,.34-11c.37.17.73.34,1.1.53C76,8.18,81.92,16.21,85.53,25.39Z"/><path class="cls-3" d="M31,19.15c-1.21,1-2.4,2.2-2.47,3.74-.09,2,1.65,3.5,3.35,4.48a23.37,23.37,0,0,0,17.93,2.27,13.41,13.41,0,0,0,5.57-2.9,7.35,7.35,0,0,0,2.46-5.63C57.08,9.56,36.14,15,31,19.15Z"/><path class="cls-3" d="M72.63,33.63c5.08.88,9.69,5.31,9.62,10.46-.06,4.67-3.8,8.67-8.14,10.42S65,56.18,60.29,55.93C53,55.53,48,49.3,52.94,43,57.43,37.25,65.09,32.31,72.63,33.63Z"/><path class="cls-3" d="M42,4.93a17.35,17.35,0,0,1-9.84,4.5,10.38,10.38,0,0,1-5-.28,5.87,5.87,0,0,1-2-1.2,68,68,0,0,1,18.85-6.7A6.85,6.85,0,0,1,42,4.93Z"/><path class="cls-4" d="M82.78,71.57C80.52,76.31,71.65,77.22,60,74.72a102.38,102.38,0,0,1-16.34-5.07c-2.54-1-5.14-2.14-7.74-3.38C13.62,55.66-1.45,40.83,2.22,33.15s24.67-5.31,46.91,5.3S86.44,63.89,82.78,71.57Z"/><path class="cls-5" d="M69.77,62.6c-1.24,2.43-6.69,2.61-14,.9A77.4,77.4,0,0,1,45.5,60.27c-1.61-.62-3.25-1.31-4.9-2.05C26.5,51.86,16.69,43.51,18.7,39.57s15.06-2,29.16,4.38S71.77,58.66,69.77,62.6Z"/><path class="cls-5" d="M60,74.72a102.38,102.38,0,0,1-16.34-5.07l3.56-13.89L58.07,53S57.09,65.6,60,74.72Z"/><path class="cls-3" d="M36.42,43.27c-.55,0-2.24,2.32-2.58,2.69-2.22,2.43-4.33,5-6.33,7.59A89.35,89.35,0,0,0,13.38,79.34a85.06,85.06,0,0,0-3.51,17,10.16,10.16,0,0,0,.06,3.85c.78,2.86,3.81,4.56,6.74,5s5.9-.16,8.86-.21c7.06-.11,14,2.75,21,2.28,2.64-.17,4.28-.75,5.94-3a3.21,3.21,0,0,0,.74-1.54,4.42,4.42,0,0,0-.7-2.18c-1.52-3.13-1.31-7.23-1.31-10.62A87.81,87.81,0,0,1,52,78.26a135.35,135.35,0,0,1,5.09-22.21c.32-1,.64-2,1-3C58.06,53,53.17,43.74,36.42,43.27Z"/><path class="cls-2" d="M52.83,104.27c-.37,4.22-10.21,6.8-22,5.75s-21-5.31-20.61-9.53,10.21-6.8,22-5.75S53.21,100.05,52.83,104.27Z"/><path class="cls-6" d="M60.85,9.53c-.34,2-4.63,2.9-9.59,2.06s-8.72-3.12-8.38-5.1,4.63-2.9,9.59-2.07S61.18,7.55,60.85,9.53Z"/><path class="cls-7" d="M4.23,34.91A73.31,73.31,0,0,1,23.8,41.28"/><path class="cls-7" d="M63.42,58.28a90.94,90.94,0,0,1,15,9.1c.24.18.46.6.18.71"/><path class="cls-7" d="M11.72,30.54a8.39,8.39,0,0,1,3.45,1.9q4.05,3.23,7.81,6.83"/><path class="cls-7" d="M20.5,30.74a3.54,3.54,0,0,1,1.65,1.35,46.56,46.56,0,0,1,4.79,7.4"/><path class="cls-7" d="M29.61,32.59a20.34,20.34,0,0,1,1.57,6.51"/><path class="cls-7" d="M35.66,34.24a9,9,0,0,1,.45,5.48"/><path class="cls-7" d="M41,36.5a7.3,7.3,0,0,1-1,4.23"/><path class="cls-7" d="M46.21,39c-1.21,1.22-2.36,2.5-3.46,3.82"/><path class="cls-7" d="M50.47,41.48A19.43,19.43,0,0,0,47,44.7"/><path class="cls-7" d="M56.05,44.28A23,23,0,0,0,52,46.7"/><path class="cls-7" d="M55.63,49c2.24-.35,4.49-.6,6.76-.73"/><path class="cls-7" d="M59.89,51.91a15,15,0,0,1,8,0"/><path class="cls-7" d="M62.78,54.58a10.14,10.14,0,0,0,2.86,0,18.59,18.59,0,0,1,3.79.37l3.24.53"/><path class="cls-7" d="M66.13,58.3c1.28,0,2.56,0,3.84.12a23.07,23.07,0,0,1,7.29,1.88"/><path class="cls-7" d="M22.21,41.87A45.22,45.22,0,0,0,5.43,40.59"/><path class="cls-7" d="M24,44.61,18.56,45a25.17,25.17,0,0,0-2.87.31,22.69,22.69,0,0,0-4.19,1.33"/><path class="cls-7" d="M25.71,47.37a37.73,37.73,0,0,0-8.32,4"/><path class="cls-7" d="M28.32,49.37q-3.18,2.55-6.12,5.37"/><path class="cls-7" d="M59.65,62.64l2,10"/><path class="cls-7" d="M63.23,63.15c1.48,3.66,2.92,7.32,4.32,11"/><path class="cls-7" d="M66.92,63.05a91.29,91.29,0,0,1,6.33,8.81"/><path class="cls-7" d="M30,7.1a1.28,1.28,0,0,1,.62.92"/><path class="cls-7" d="M31.77,7.42a1.18,1.18,0,0,1,.57.65"/><path class="cls-7" d="M32.88,6.89a1.78,1.78,0,0,1,.74.84"/><path class="cls-7" d="M34.16,6.59l.83.54"/><path class="cls-7" d="M35.38,6.1l.82.47"/><path class="cls-7" d="M36.82,5.57a1.81,1.81,0,0,1,.73.43"/><path class="cls-7" d="M38.13,5.11a.51.51,0,0,1,.42.18"/><path class="cls-7" d="M39,4.47l.33.06"/><path class="cls-7" d="M33.22,23.19a19.86,19.86,0,0,0,1,3.12"/><path class="cls-7" d="M35.39,24.51l1.35,2.23"/><path class="cls-7" d="M37.36,25l1.48,1.93"/><path class="cls-7" d="M39.69,25.22a13.51,13.51,0,0,1,1.62,1.84"/><path class="cls-7" d="M41.77,25l1.35,1.35"/><path class="cls-7" d="M43.58,24.77l1.69,2"/><path class="cls-7" d="M45.77,25.24l1.8,1.33"/><path class="cls-7" d="M47.75,24.89l1.33.79"/><path class="cls-7" d="M49.11,24.22l1.15.53"/><path class="cls-7" d="M50.57,23.56l1.06.41"/><path class="cls-7" d="M71.1,11,73,10.56"/><path class="cls-7" d="M72.21,12.39,75,11.88"/><path class="cls-7" d="M73.55,13.71a14.88,14.88,0,0,1,2.89-.46"/><path class="cls-7" d="M75,14.84l3.17-.06"/><path class="cls-7" d="M76.41,16.1l2.65.33"/><path class="cls-7" d="M77.09,17.45l3,.5"/><path class="cls-7" d="M78.07,19l2.24.72"/><path class="cls-7" d="M78.81,20.56l1.74.41"/><path class="cls-7" d="M79.42,21.66l1.61.49"/><path class="cls-7" d="M80.11,22.92l1.38.46"/><path class="cls-7" d="M70.8,47.52a6.66,6.66,0,0,1,2.55,3.14"/><path class="cls-7" d="M73,47.61c.72.78,1.45,1.55,2.18,2.32"/><path class="cls-7" d="M74.81,47.52a7,7,0,0,1,1.61,1.25"/><path class="cls-7" d="M75.38,46.82a4,4,0,0,1,1.33.88"/><path class="cls-7" d="M76,45.32l1.14.63"/><path class="cls-7" d="M76.42,44.06l.93.49"/><path class="cls-7" d="M76.62,42.85l.79,0"/><path class="cls-7" d="M75.87,41.26l.66.11"/><path class="cls-7" d="M81.1,29.11A14.74,14.74,0,0,1,84.61,29"/><path class="cls-7" d="M82.79,31.05a7.43,7.43,0,0,1,2.4-.18"/><path class="cls-7" d="M83.52,32.76a12.53,12.53,0,0,1,2.37-.14"/><path class="cls-7" d="M84,34.63l2.34.17"/><path class="cls-7" d="M85,36.26l1.46.7"/><path class="cls-7" d="M85.06,38.3l1.58.61"/><path class="cls-7" d="M85.29,40.26l2.13.17c.07,0,.16,0,.19.08s-.07.15-.11.09"/><path class="cls-7" d="M85.69,41.91l2,.44"/><path class="cls-7" d="M86,44.13a4,4,0,0,1,1.63.6"/><path class="cls-7" d="M85.51,46.28l1.89.62c.07,0,.16.06.19.13s0,.18-.12.14"/><path class="cls-7" d="M85.74,48.23l1.34.53c.19.07.42.26.29.42"/><path class="cls-7" d="M85.69,49.91c.64.45,1.29.89,1.94,1.33,0,.12-.06.23-.08.34"/><path class="cls-7" d="M85.54,52.06a3.17,3.17,0,0,1,2,1.86"/><path class="cls-7" d="M85.28,54.27a3.31,3.31,0,0,1,1.85,2.53"/><path class="cls-7" d="M85.34,57.21a3.26,3.26,0,0,1,1.5,2.13"/><path class="cls-7" d="M84.83,59.42A2.83,2.83,0,0,1,86,62.14"/><path class="cls-7" d="M84.91,61.84c.22.68.44,1.36.67,2"/><path class="cls-7" d="M53.19,34.14l2.35,2.09"/><path class="cls-7" d="M56.25,33.31l1.43,1.59"/><path class="cls-7" d="M58,32.27a21.61,21.61,0,0,1,1.92,1.51"/><path class="cls-7" d="M60.12,31.73l1.39,1"/><path class="cls-7" d="M61.51,30.84l1.43.82"/><path class="cls-7" d="M63.29,29.66l1.17,1.1"/><path class="cls-7" d="M65.57,28.91l.69,1.25"/><path class="cls-7" d="M67.11,28.4l.68,1.24"/><path class="cls-7" d="M68.56,27.85c.16.4.32.8.47,1.2"/><path class="cls-7" d="M12,24.43a43.54,43.54,0,0,1,6.45-.79,2.63,2.63,0,0,1,2,.44"/><path class="cls-7" d="M16.71,22.45a9.59,9.59,0,0,1,4.52-.06"/><path class="cls-7" d="M19.09,20.34a10.23,10.23,0,0,1,3.21.37"/><path class="cls-7" d="M21.14,18.91a14.8,14.8,0,0,1,2.65.35"/><path class="cls-7" d="M22.69,17.8a4.79,4.79,0,0,0,2.22.23"/><path class="cls-7" d="M24,15.8l1.88.21"/><path class="cls-7" d="M25.61,14.49l1.81.64"/><path class="cls-7" d="M61.19,16.14A11.78,11.78,0,0,0,63.56,16"/><path class="cls-7" d="M62.08,18.18a2.64,2.64,0,0,1,1.79-.6"/><path class="cls-7" d="M62.46,19.25l1.7-.06"/><path class="cls-7" d="M63.3,21l1.53.26"/><path class="cls-7" d="M63.47,23.26l.9,0"/><path class="cls-7" d="M76,61.88,79.88,63"/><path class="cls-7" d="M78.26,63.79A16.57,16.57,0,0,1,80.66,65"/><path class="cls-7" d="M79.9,66.09a5.19,5.19,0,0,1,1.43,1.08"/><path class="cls-7" d="M76.74,68.8A15.25,15.25,0,0,1,79,71"/><path class="cls-7" d="M75.52,69.47a10.17,10.17,0,0,1,1.94,2.39"/><path class="cls-7" d="M75.38,71.5a2.21,2.21,0,0,1,1,1.37"/><path class="cls-7" d="M74.32,72.44a.82.82,0,0,1,.67.8"/><path class="cls-7" d="M68.84,71.71A6.28,6.28,0,0,1,70.12,74"/><path class="cls-7" d="M70.31,72.12l1.21,1.55"/><path class="cls-7" d="M72.62,67.19l1.57,1.49"/><path class="cls-7" d="M73.52,66.55A5.29,5.29,0,0,1,75,67.72"/><path class="cls-7" d="M41.76,39a6,6,0,0,0,1.6-1.28"/><path class="cls-7" d="M42.76,39.72l1.17-.93"/><path class="cls-7" d="M46.29,40.87,48,39.93"/><path class="cls-7" d="M47.31,41.5a6,6,0,0,0,1.53-1"/><path class="cls-7" d="M51,43.15l1.52-1"/><path class="cls-7" d="M52.67,43.92A3.35,3.35,0,0,0,54,43.2"/><path class="cls-7" d="M19,52.26a16.44,16.44,0,0,1,2.93-2"/><path class="cls-7" d="M20.06,53.23A18.41,18.41,0,0,1,22.37,51"/><path class="cls-7" d="M20.4,54.4A22.72,22.72,0,0,1,23,51.85"/><path class="cls-7" d="M22.32,56a12.73,12.73,0,0,0,2.5-2.31"/><path class="cls-7" d="M13.82,48.79a22.17,22.17,0,0,0,3.48-1.74"/><path class="cls-7" d="M10.92,43.86a18.82,18.82,0,0,1,4.26-1"/><path class="cls-7" d="M39.4,42.86A64.93,64.93,0,0,0,24.17,74.11"/><path class="cls-7" d="M40.8,43.2a3.3,3.3,0,0,1-.58,1.55A92,92,0,0,0,27.77,89.4"/><path class="cls-7" d="M44.47,43.94a281.53,281.53,0,0,0-9.21,28.68"/><path class="cls-7" d="M46.38,50.87C42.7,65.56,37.63,80.2,37.83,95.34"/><path class="cls-7" d="M53.53,48.2a147.39,147.39,0,0,0-8.94,35"/><path class="cls-7" d="M56,50.53a194.39,194.39,0,0,0-5.84,22.8"/><path class="cls-7" d="M48.07,76.25a2.9,2.9,0,0,0,1.7,1.37"/><path class="cls-7" d="M48,78.49a5.29,5.29,0,0,0,1.33.8"/><path class="cls-7" d="M47.92,80.5l1,.45"/><path class="cls-7" d="M47.29,82.29l1.24.66"/><path class="cls-7" d="M46.91,84.5l1,1.19"/><path class="cls-7" d="M46.69,86.49l1.58.61"/><path class="cls-7" d="M46.83,88.32l1.59.61"/><path class="cls-7" d="M46.51,90.86l1.63.39"/><path class="cls-7" d="M46.61,92.91l1.92,0"/><path class="cls-7" d="M46.63,94.83l2-.11"/><path class="cls-7" d="M46.94,47.07A4,4,0,0,0,49,48"/><path class="cls-7" d="M47,48.89l1.48.58"/><path class="cls-7" d="M47.5,50.35l1,.39"/><path class="cls-7" d="M47.61,52.37l.86.26"/><path class="cls-7" d="M47.42,53.48a3.12,3.12,0,0,1,1,.45"/><path class="cls-7" d="M40.65,57.51l1.62.46"/><path class="cls-7" d="M40.5,59.06a3.82,3.82,0,0,0,1.19.32"/><path class="cls-7" d="M40.61,60.44a1.53,1.53,0,0,1,.73.44"/><path class="cls-7" d="M40.37,61.86c.13.32.26.65.4,1"/><path class="cls-7" d="M31.67,77.25l3.69.87"/><path class="cls-7" d="M31.61,79.6a9.54,9.54,0,0,0,3.32.38"/><path class="cls-7" d="M32.19,81.55a6.3,6.3,0,0,1,2.37,0"/><path class="cls-7" d="M31.89,82.67l2.67.19"/><path class="cls-7" d="M32.56,84l1.91.08"/><path class="cls-7" d="M32.42,85.53l1.84.42"/><path class="cls-7" d="M32.17,88.32l1.73.41"/><path class="cls-7" d="M32.68,90l.65.12"/><path class="cls-7" d="M20.55,75.54c.06.3.36.48.65.6a6.17,6.17,0,0,0,3,.47"/><path class="cls-7" d="M20.24,78.87l2.12.09"/><path class="cls-7" d="M20.59,80.16l2.06.46"/><path class="cls-7" d="M20.05,82a13.37,13.37,0,0,1,2.08.39"/><path class="cls-7" d="M20.45,83.63l1.44.13"/><path class="cls-7" d="M20.18,87.19c.39-.31.77-1.18,1.16-1.49l-1.43-.24"/><path class="cls-7" d="M25.45,78.17A84.43,84.43,0,0,0,23.54,94.4"/><path class="cls-7" d="M22,64.88a85.62,85.62,0,0,0-7.86,31.67"/><path class="cls-7" d="M27.65,98.34a31.45,31.45,0,0,1,5.74-.14,14,14,0,0,1,7.76,2.47,9.06,9.06,0,0,1,2.11,2.3"/><path class="cls-7" d="M20.78,98.41a25.87,25.87,0,0,1,14.77-1.17"/><path class="cls-7" d="M15.44,100.22c3,3.1,7.35,4.52,11.62,5.08a3.54,3.54,0,0,0,2.21-.21"/><path class="cls-7" d="M20.57,101.52a32.64,32.64,0,0,0,4.76,1.82,16.8,16.8,0,0,0,5.82.52,34.71,34.71,0,0,0,4.29-.76"/><path class="cls-7" d="M24.44,106.92A35.87,35.87,0,0,0,33.25,108a10.79,10.79,0,0,0,1.61-.08,13.61,13.61,0,0,0,3.73-1.32"/><path class="cls-7" d="M47.38,102a2,2,0,0,1,.46,2.16,4.1,4.1,0,0,1-1.44,1.81,8.32,8.32,0,0,1-3.89,1.64"/><path class="cls-7" d="M45.5,104.22A4.4,4.4,0,0,1,42,106.29"/><path class="cls-7" d="M50.28,103.81a2,2,0,0,1-1.89,2"/><path class="cls-7" d="M37.25,104.06a3.79,3.79,0,0,0,2.53-.82"/></g></g></svg>