<svg xmlns="http://www.w3.org/2000/svg" viewBox="0 0 87.56 110.66"><defs><style>.cls-1{isolation:isolate;}.cls-2,.cls-5{fill:#666766;}.cls-10,.cls-11,.cls-12,.cls-2,.cls-3,.cls-4,.cls-5,.cls-6,.cls-7,.cls-8{stroke:#231f20;stroke-linecap:round;stroke-linejoin:round;}.cls-2,.cls-3{stroke-width:0.86px;}.cls-11,.cls-3{fill:#8e8d8d;}.cls-4,.cls-7{fill:#231f20;}.cls-4{stroke-width:0.43px;}.cls-11,.cls-5{stroke-width:0.87px;}.cls-6{fill:#914f22;}.cls-10,.cls-6,.cls-8{stroke-width:0.84px;}.cls-7{stroke-width:0.45px;}.cls-8{fill:#d27528;}.cls-9{fill:#c9ebfc;opacity:0.3;mix-blend-mode:screen;}.cls-10{fill:#b3b4b4;}.cls-12{fill:none;stroke-width:0.33px;}</style></defs><g class="cls-1"><g id="Layer_1" data-name="Layer 1"><path class="cls-2" d="M87.13,44.59a2.54,2.54,0,0,1-1.52,2.32,1.64,1.64,0,0,1-1.74-.34L77,40.17a6,6,0,0,0-2.48-1.39L56,33.85,52.89,33,53,31.08l1-14.17,4.1,1.46,14.48,5.18A25.89,25.89,0,0,1,79,28.21a30.08,30.08,0,0,1,8,15.88A2.89,2.89,0,0,1,87.13,44.59Z"/><path class="cls-3" d="M84.86,42a2.55,2.55,0,0,1-1.52,2.32A1.66,1.66,0,0,1,81.6,44l-6.86-6.4a5.73,5.73,0,0,0-2.47-1.38L56.28,32,53,31.08l-2.41-.64,1.09-16.1,6.6,2.36,12,4.28A25.86,25.86,0,0,1,79,28.21a31,31,0,0,1,5.78,13.31A2.89,2.89,0,0,1,84.86,42Z"/><polygon class="cls-4" points="58.31 16.7 58.09 18.38 56.28 31.95 56.03 33.85 52.9 33.02 53.03 31.08 50.62 30.44 51.72 14.34 58.31 16.7"/><path class="cls-2" d="M48,15.4l-4.41,15-25-1.66a7,7,0,0,0-2.33.22,7.92,7.92,0,0,0-.79.24L6,32.83a2.13,2.13,0,0,1-2.63-1h0L.74,29.28a58.35,58.35,0,0,1,5.05-3A30.61,30.61,0,0,1,26,15.5Z"/><path class="cls-2" d="M16.27,29a7.92,7.92,0,0,0-.79.24L6,32.83a2.13,2.13,0,0,1-2.63-1h0L.74,29.28a58.35,58.35,0,0,1,5.05-3,30.69,30.69,0,0,1,2.72-2.85l4.74-.68Z"/><path class="cls-5" d="M51.82,37.61c-.56,2.28-5.21,3.11-10.4,1.84S32.48,35.31,33,33s5.22-3.11,10.4-1.85S52.38,35.33,51.82,37.61Z"/><path class="cls-6" d="M57.4,9.62,52,30.07l-2.39,9.11-16.7,63.61L16.55,98.46,34.22,33.64l2.58-9.47L42.28,4.08A8.44,8.44,0,0,1,51.77.75C58.32,2.4,57.4,9.62,57.4,9.62Z"/><path class="cls-7" d="M52,30.07l-2.39,9.11C44.48,34,37.56,33.53,34.22,33.64l2.58-9.47,8.36.36Z"/><path class="cls-8" d="M38.23,50.49c-5.18-1.26-9.76-.79-10.21,1.06L15,98.26s-2.8,7.52,1.11,7.25l12.86,3.93H31.4s1.71.48,3.33-6.22L46.81,56.13C47.26,54.28,43.42,51.76,38.23,50.49Z"/><path class="cls-3" d="M.77,26.93a30.5,30.5,0,0,1,22.57-14l22.07-.1L41,27.78,16,26.11a7.37,7.37,0,0,0-3.11.47L3.34,30.21a2.09,2.09,0,0,1-2-.25h0A2.27,2.27,0,0,1,.77,26.93Z"/><path class="cls-9" d="M21.54,16.57c.28,1.13-1.37,2.51-3.68,3.08s-4.41.11-4.68-1,1.36-2.51,3.67-3.08S21.26,15.44,21.54,16.57Z"/><path class="cls-10" d="M33,33c.56-2.29,5.22-3.11,10.4-1.85,5,1.22,8.68,3.94,8.43,6.18A25.67,25.67,0,0,0,53.22,33L58,13.09c.45-1.85-3.39-4.37-8.57-5.64s-9.76-.79-10.21,1.06l-6,22.63A5.45,5.45,0,0,0,33,33Z"/><path class="cls-11" d="M43.43,31.18C38.25,29.92,33.59,30.74,33,33a2.43,2.43,0,0,0,.43,1.91,1.94,1.94,0,0,1,0-.76c.53-2.18,5-3,10-1.76,4.76,1.16,8.26,3.74,8.07,5.87a2,2,0,0,0,.32-.68C52.38,35.33,48.62,32.45,43.43,31.18Z"/><ellipse class="cls-8" cx="23.51" cy="105.51" rx="4.25" ry="9.67" transform="translate(-84.57 103.37) rotate(-76.3)"/><path class="cls-12" d="M40.52,33.37l-1.71,7.4a7,7,0,0,1-.72,2"/><path class="cls-12" d="M42,33.37q-1.53,6.95-3,13.9"/><path class="cls-12" d="M39.82,51q1.53-5,2.73-10.13"/><path class="cls-12" d="M33.15,50.1a74.47,74.47,0,0,1,2.22-7.47"/><path class="cls-12" d="M46.81,35.35Q45.4,41.13,44,46.89a12.1,12.1,0,0,0-.43,2.45"/><path class="cls-12" d="M38.1,32.71a16.4,16.4,0,0,1-1,4.69"/><path class="cls-12" d="M43.84,6.7a.46.46,0,0,0,.22-.3c.48-1.49,1-3,1.45-4.46"/><path class="cls-12" d="M49,.54c-.4,1.59-.74,3.19-1,4.8"/><path class="cls-12" d="M50.9.55c-.32,1-.64,2-.95,3.05"/><path class="cls-12" d="M52.14,1.88c-.48,1.87-.94,3.76-1.4,5.64,0,.08-.06.19-.15.18s0-.18,0-.1"/><path class="cls-12" d="M53.48,3.72a38.47,38.47,0,0,0-.81,4.66"/><path class="cls-12" d="M54.42,6.64,54,9"/><path class="cls-12" d="M48.52,6.27l.73.22"/><path class="cls-12" d="M49,5.88a1.08,1.08,0,0,0,.44,0"/><path class="cls-12" d="M49.28,5.44a.41.41,0,0,1,.36,0"/><path class="cls-12" d="M49.39,5a.15.15,0,0,1,.18,0"/><path class="cls-12" d="M49.57,4.65l.15,0"/><path class="cls-12" d="M54.42,4.18A3.42,3.42,0,0,0,55.07,4"/><path class="cls-12" d="M54.71,4.63l.51-.06"/><path class="cls-12" d="M55,5.12a1.3,1.3,0,0,1,.44,0"/><path class="cls-12" d="M55.25,5.71a.61.61,0,0,0,.3,0"/><path class="cls-12" d="M55.29,6.38a2.84,2.84,0,0,1,.58,0"/><path class="cls-12" d="M55.51,6.9l.4,0"/><path class="cls-12" d="M55.63,7.56a.28.28,0,0,1,.4,0"/><path class="cls-12" d="M55.65,8.09a1.22,1.22,0,0,0,.33,0"/><path class="cls-12" d="M55.87,8.48a.15.15,0,0,0,.18,0"/><path class="cls-12" d="M45.44,5.38a2.66,2.66,0,0,1,1,.31"/><path class="cls-12" d="M45.91,5a1.31,1.31,0,0,1,.65.13"/><path class="cls-12" d="M46.17,4.48a.71.71,0,0,1,.47.1"/><path class="cls-12" d="M46.35,4l.25,0"/><path class="cls-12" d="M46.46,3.48a.87.87,0,0,0,.36,0"/><path class="cls-12" d="M46.75,2.84l.32,0"/><path class="cls-12" d="M43.09,5.06a2.23,2.23,0,0,0,.44-.13s0,.06,0,.07"/><path class="cls-12" d="M43.27,4.68l.3-.1"/><path class="cls-12" d="M43.53,4.22l.21,0"/><path class="cls-12" d="M43.71,3.77a.32.32,0,0,0,.22-.1"/><path class="cls-12" d="M35.76,38.55a2.91,2.91,0,0,0,1,.45"/><path class="cls-12" d="M35.74,39.46l.73,0"/><path class="cls-12" d="M35.63,40.26h.47"/><path class="cls-12" d="M35.56,40.81a1.76,1.76,0,0,0,.51,0"/><path class="cls-12" d="M33.14,42.43a1.47,1.47,0,0,1,.57.38"/><path class="cls-12" d="M33.09,43.22a.63.63,0,0,1,.31.27"/><path class="cls-12" d="M32.77,44.09a.48.48,0,0,1,.38.15"/><path class="cls-12" d="M32.52,44.88l.33.14"/><path class="cls-12" d="M32.27,45.79a.18.18,0,0,1,.23.09"/><path class="cls-12" d="M31.72,46.43H32"/><path class="cls-12" d="M36.54,45.53a1.41,1.41,0,0,1,.54,0,.21.21,0,0,1,.11,0s0,.08,0,.1"/><path class="cls-12" d="M36.32,46.22s0,0,0,.07a2.9,2.9,0,0,1,.51,0"/><path class="cls-12" d="M36.07,47.12a1.87,1.87,0,0,1,.4.13"/><path class="cls-12" d="M35.89,47.87l.32.08"/><path class="cls-12" d="M35.85,48.24H36"/><path class="cls-12" d="M43.16,36.74A5.22,5.22,0,0,0,44,37"/><path class="cls-12" d="M43.13,37.69a1,1,0,0,1,.59.1"/><path class="cls-12" d="M43.2,38.38a.85.85,0,0,1,.34.14"/><path class="cls-12" d="M43.06,38.92h.36"/><path class="cls-12" d="M46.42,41.76a5.47,5.47,0,0,0,1,.62"/><path class="cls-12" d="M46.35,42.62l.62.18"/><path class="cls-12" d="M46.35,43.17l.4.17"/><path class="cls-12" d="M46.31,43.94a.66.66,0,0,1,.27.12"/><path class="cls-12" d="M46.09,44.7a.33.33,0,0,1,.24.2"/><path class="cls-12" d="M45.84,45.53a.15.15,0,0,1,.15.1"/><path class="cls-12" d="M45.66,46.25a.34.34,0,0,1,.25.14"/><path class="cls-12" d="M45.52,47a.2.2,0,0,0,.22,0"/><path class="cls-12" d="M45.37,47.65l.19,0"/><path class="cls-12" d="M43.82,50a.41.41,0,0,1,.52.17"/><path class="cls-12" d="M43.82,50.78a.35.35,0,0,1,.4.1"/><path class="cls-12" d="M43.82,51.68c.07,0,.2-.16.26-.21s0-.11-.09-.09-.12,0-.17,0"/><path class="cls-12" d="M35.05,34.58a.78.78,0,0,1,.43.06"/><path class="cls-12" d="M34.91,35.32a.28.28,0,0,1,.3.06"/><path class="cls-12" d="M34.77,36.11a.2.2,0,0,1,.21.07"/><path class="cls-12" d="M34.77,37a.13.13,0,0,1,.14.14"/><path class="cls-12" d="M6.76,30.86l.16-.2a2,2,0,0,1,.22.52"/><path class="cls-12" d="M7.92,30.19a3.27,3.27,0,0,1,.35.56"/><path class="cls-12" d="M8.94,29.76c.11.17.22.33.32.5"/><path class="cls-12" d="M9.77,29.38a5.59,5.59,0,0,1,.41.66"/><path class="cls-12" d="M10.73,29a1.1,1.1,0,0,0,.48.65"/><path class="cls-12" d="M11.76,28.74a.82.82,0,0,0,.26.72"/><path class="cls-12" d="M12.64,28.52l.12.55"/><path class="cls-12" d="M13.29,28l.26.49"/><path class="cls-12" d="M14.2,27.65a.49.49,0,0,0,.11.33"/><path class="cls-12" d="M18.45,27.32a1.24,1.24,0,0,1,.24.55"/><path class="cls-12" d="M19.27,27.49l.09.44"/><path class="cls-12" d="M20.18,27.49l.21.38"/><path class="cls-12" d="M21.39,27.49l.14.49"/><path class="cls-12" d="M22.25,27.54l.15.55"/><path class="cls-12" d="M23.23,27.65a1.11,1.11,0,0,0,.13.4"/><path class="cls-12" d="M24.14,27.71l.31.55"/><path class="cls-12" d="M25.34,27.65l.2.5"/><path class="cls-12" d="M26.38,27.71l.14.49"/><path class="cls-12" d="M27.29,27.71a1.41,1.41,0,0,1,.16.49"/><path class="cls-12" d="M28.23,27.81l.24.55"/><path class="cls-12" d="M29.18,28l.21.55"/><path class="cls-12" d="M30.12,28.14a1.2,1.2,0,0,1,.21.49"/><path class="cls-12" d="M30.93,28.3a.3.3,0,0,1,.09.38"/><path class="cls-12" d="M31.79,28.25a.27.27,0,0,1,.12.22"/><path class="cls-12" d="M34,14.4a4.52,4.52,0,0,0,1.58-.26"/><path class="cls-12" d="M33.87,15.49a5.29,5.29,0,0,0,1.17-.3"/><path class="cls-12" d="M33.73,16.47c.05.09.17.09.27.09l.73-.06"/><path class="cls-12" d="M33.69,17.39a4,4,0,0,0,1-.07"/><path class="cls-12" d="M33.53,18.4h1.09"/><path class="cls-12" d="M33.64,19.35a1.7,1.7,0,0,0,.71-.06"/><path class="cls-12" d="M33.27,20.33a1.2,1.2,0,0,1,1,0"/><path class="cls-12" d="M33.37,21.2a1,1,0,0,1,.5.19"/><path class="cls-12" d="M33.15,22.33l.65-.11"/><path class="cls-12" d="M33.15,23.09l.38.06"/><path class="cls-12" d="M14.53,24l1.89-.29"/><path class="cls-12" d="M15.23,22.81l1.85-.12"/><path class="cls-12" d="M15.88,22.18c.61-.11,1.23-.19,1.85-.26"/><path class="cls-12" d="M16.53,21.05l1.63-.17c.1,0,.23-.06.21-.16"/><path class="cls-12" d="M17.13,20c.49-.1,1-.2,1.48-.32"/><path class="cls-12" d="M17.68,18.78a3.07,3.07,0,0,0,1.37-.26"/><path class="cls-12" d="M18.65,17.55a1.22,1.22,0,0,0,.82.07"/><path class="cls-12" d="M19,16.85a1.89,1.89,0,0,1,.71,0"/><path class="cls-12" d="M19.3,23.69a8.6,8.6,0,0,1,1.9.12"/><path class="cls-12" d="M20.23,22.89c.52,0,1.05.05,1.57.11"/><path class="cls-12" d="M21.15,22.24a6.32,6.32,0,0,0,1.15,0"/><path class="cls-12" d="M21.8,21.52a1.56,1.56,0,0,1,.71-.11"/><path class="cls-12" d="M22.19,20.88a1,1,0,0,1,.54,0"/><path class="cls-12" d="M53.73,12.57c.57.11,1.14.24,1.7.39"/><path class="cls-12" d="M53.84,13.41a2.43,2.43,0,0,1,1.38.65"/><path class="cls-12" d="M53.56,14.34l1.21.36c.13,0,.29.11.31.25"/><path class="cls-12" d="M53.63,15.53a3.24,3.24,0,0,1,.87.44"/><path class="cls-12" d="M53.3,16.59a3.58,3.58,0,0,1,1.1.56"/><path class="cls-12" d="M52.87,17.77l.87.22"/><path class="cls-12" d="M52.48,18.77a6.5,6.5,0,0,0,1.2.4"/><path class="cls-12" d="M52.16,19.78a1.46,1.46,0,0,1,.94.42"/><path class="cls-12" d="M52.27,20.66l.92.22"/><path class="cls-12" d="M51.14,22.19a12.33,12.33,0,0,1,2.77,1.6"/><path class="cls-12" d="M51.24,24a5.52,5.52,0,0,1,1.74.93"/><path class="cls-12" d="M51.34,24.84a4,4,0,0,1,1.27.79"/><path class="cls-12" d="M51.07,26a1.81,1.81,0,0,1,1.1.59"/><path class="cls-12" d="M50.91,27a1.15,1.15,0,0,1,.78.42"/><path class="cls-12" d="M50.58,28.1a.9.9,0,0,1,.62.41"/><path class="cls-12" d="M50.37,29a1,1,0,0,1,.76.71"/><path class="cls-12" d="M50.37,30.09a.86.86,0,0,1,.59.29"/><path class="cls-12" d="M50.21,31.13a.93.93,0,0,1,.65.27"/><path class="cls-12" d="M50.26,32.39a.76.76,0,0,1,.49.14"/><path class="cls-12" d="M43.58,19a7.65,7.65,0,0,1,1.85,1.23"/><path class="cls-12" d="M43.36,20.83a3.88,3.88,0,0,1,1.87,1"/><path class="cls-12" d="M43.36,22.19a5.36,5.36,0,0,1,1.56,1"/><path class="cls-12" d="M43.58,23.86a1.59,1.59,0,0,1,1.22.63"/><path class="cls-12" d="M43.47,25a1.66,1.66,0,0,1,.77.47"/><path class="cls-12" d="M43.3,26.14l.77.54"/><path class="cls-12" d="M42.93,27.54l.7.23"/><path class="cls-12" d="M43,28.37a.9.9,0,0,1,.5.14"/><path class="cls-12" d="M72.49,34.44l.68.21a2.7,2.7,0,0,1,1.42.78"/><path class="cls-12" d="M73.24,33.72l1.3.67"/><path class="cls-12" d="M73.3,32.58a2.84,2.84,0,0,0,1.12.43"/><path class="cls-12" d="M73.51,31.27l1.07.42"/><path class="cls-12" d="M73.72,30.2l.82.27"/><path class="cls-12" d="M74.16,29.54l.7.28"/><path class="cls-12" d="M74.43,28.57a1.19,1.19,0,0,0,.76.17"/><path class="cls-12" d="M74.64,27.54l.33-.06"/><path class="cls-12" d="M78.29,31.23a5.11,5.11,0,0,1,1.35.5"/><path class="cls-12" d="M78.77,32.11a4.92,4.92,0,0,1,1.2.37"/><path class="cls-12" d="M78.88,33.15a4.9,4.9,0,0,1,1.85.86"/><path class="cls-12" d="M79.62,34.37l1.65.88"/><path class="cls-12" d="M80.18,35.59a.16.16,0,0,0-.09.12,6.35,6.35,0,0,1,1.78.9"/><path class="cls-12" d="M80.65,36.94a7.45,7.45,0,0,1,1.65,1.19"/><path class="cls-12" d="M81,38.53a10.2,10.2,0,0,1,1.6,1.24"/><path class="cls-12" d="M81.55,40.12a2.19,2.19,0,0,1,1.17.9"/><path class="cls-12" d="M82,41.39a2.38,2.38,0,0,1,.82.82"/><path class="cls-12" d="M82.19,42.6a.63.63,0,0,0,.44.1"/><path class="cls-12" d="M59.47,33.93a.71.71,0,0,1,.16.56"/><path class="cls-12" d="M60.48,34.18a.53.53,0,0,0,.09.6"/><path class="cls-12" d="M61.51,34.56a.53.53,0,0,0,.2.55"/><path class="cls-12" d="M62.76,34.66l.16.6"/><path class="cls-12" d="M63.78,35a1.82,1.82,0,0,0,.12.65"/><path class="cls-12" d="M64.61,35.36l.24.5"/><path class="cls-12" d="M65.67,35.48c.08.23.16.47.23.7"/><path class="cls-12" d="M66.63,35.85a1.54,1.54,0,0,0,.22.62"/><path class="cls-12" d="M67.7,36.24a.58.58,0,0,0,.1.49"/><path class="cls-12" d="M68.4,36.51l.17.43"/><path class="cls-12" d="M69.07,36.68a.36.36,0,0,0,.12.4"/><path class="cls-12" d="M70,36.73l.21.65"/><path class="cls-12" d="M71,37.1l.11.38"/><path class="cls-12" d="M83.2,44.29a3.22,3.22,0,0,0,1.39,1.22"/><path class="cls-12" d="M83.93,44a10.72,10.72,0,0,1,1.31,1.3"/><path class="cls-12" d="M84.75,43.67a5.93,5.93,0,0,0,1.18,1.22"/><path class="cls-12" d="M85,43.16a5.63,5.63,0,0,1,1,1"/><path class="cls-12" d="M84.81,42.15l.69.56"/><path class="cls-12" d="M84.86,41.06l.44.27"/><path class="cls-12" d="M84.92,40.3l.58.34"/><path class="cls-12" d="M85,39.65l.44.16"/><path class="cls-12" d="M60.41,20.14l1.8.44"/><path class="cls-12" d="M60.74,21.36c-.06,0,0,.12.1.15l1.31.4"/><path class="cls-12" d="M60.9,22.64a8.9,8.9,0,0,1,1.43.31"/><path class="cls-12" d="M61.18,23.86a2.49,2.49,0,0,1,1.08.59"/><path class="cls-12" d="M61.56,25.32a2.82,2.82,0,0,1,.65.43"/><path class="cls-12" d="M61.45,26.57a1.2,1.2,0,0,1,.65.15"/><path class="cls-12" d="M61.72,27.77a1.12,1.12,0,0,1,.44.09"/><path class="cls-9" d="M43.27,13.3c-.55,2.18-1.76,3.76-2.71,3.52s-1.28-2.2-.73-4.38,1.76-3.76,2.71-3.52S43.81,11.12,43.27,13.3Z"/><path class="cls-12" d="M28.62,99.47a6.77,6.77,0,0,1,3.72,3.28"/><path class="cls-12" d="M30.72,99a2.64,2.64,0,0,1,1.74,1.58"/><path class="cls-12" d="M31.39,97.43a7.28,7.28,0,0,1,1.66,1.26"/><path class="cls-12" d="M31.35,95.75a.17.17,0,0,1,0-.26A7.72,7.72,0,0,1,33.79,97a.77.77,0,0,1,.23.28.29.29,0,0,1-.1.32"/><path class="cls-12" d="M30.48,92.39c-.05,0,0-.14.05-.17a.38.38,0,0,1,.21,0,6.23,6.23,0,0,1,3.35,2.69"/><path class="cls-12" d="M31.89,88.93a14.29,14.29,0,0,1,2.45,2.34c.24.29.47.67.3,1"/><path class="cls-12" d="M33,88.55a5.33,5.33,0,0,1,2.55,2.11"/><path class="cls-12" d="M33.48,87.56A4.2,4.2,0,0,1,36,89.5"/><path class="cls-12" d="M34,86.33c-.07-.09.13-.16.24-.11A5.23,5.23,0,0,1,36.49,88"/><path class="cls-12" d="M35,85.24a.1.1,0,0,1,.08-.13,4.84,4.84,0,0,1,1.59,1.36"/><path class="cls-12" d="M35.92,83.65a6.79,6.79,0,0,1,1.31,1.08"/><path class="cls-12" d="M34.69,81.61a1.64,1.64,0,0,1,1.24.14,5.17,5.17,0,0,1,2.13,1.8"/><path class="cls-12" d="M34.55,79.05a3.87,3.87,0,0,1,3.37,2.34"/><path class="cls-12" d="M35.49,76.68A6,6,0,0,1,38.77,79"/><path class="cls-12" d="M36.22,75.69c.22-.16.53,0,.77.07A9.62,9.62,0,0,1,39.4,77.5"/><path class="cls-12" d="M36.36,73.56a4.4,4.4,0,0,1,3,2.25.33.33,0,0,1,0,.33"/><path class="cls-12" d="M36.49,71.93a6.46,6.46,0,0,1,3.68,1.83"/><path class="cls-12" d="M37.8,70.68c.1-.26.47-.23.73-.14A6,6,0,0,1,41,72.26"/><path class="cls-12" d="M39.18,69.53a4,4,0,0,1,2,.74"/><path class="cls-12" d="M39.55,68a4.85,4.85,0,0,1,2,.93"/><path class="cls-12" d="M40.05,66.93a2.38,2.38,0,0,1,1.43.52"/><path class="cls-12" d="M40.56,65.49a3.49,3.49,0,0,1,1.58.43"/><path class="cls-12" d="M39.69,62.92A10.34,10.34,0,0,1,43,64.57"/><path class="cls-12" d="M41.14,61.57a2.15,2.15,0,0,1,1.83.62"/><path class="cls-12" d="M41.8,59.8a10.9,10.9,0,0,0,1.58.54"/><path class="cls-12" d="M42.59,58.08a9.9,9.9,0,0,0,1.29.46"/><path class="cls-12" d="M43.17,56.92l.78.25"/><path class="cls-12" d="M43.89,55.55l.59.42"/><path class="cls-12" d="M22.37,97.61a3.53,3.53,0,0,1,2.13.11,10.85,10.85,0,0,1,1.92,1"/><path class="cls-12" d="M23.76,95.63a7.13,7.13,0,0,1,3.5.79"/><path class="cls-12" d="M24.56,93.91a17.38,17.38,0,0,1,2.67.48"/><path class="cls-12" d="M25.28,92.14a5.13,5.13,0,0,1,1.81.41"/><path class="cls-12" d="M26.36,90.35a2.15,2.15,0,0,1,1.51.41"/><path class="cls-12" d="M27.24,88.7a2.54,2.54,0,0,1,1,.53"/><path class="cls-12" d="M27.61,87.08l1.14.35"/><path class="cls-12" d="M28.18,85.45a2.47,2.47,0,0,1,.79.23"/><path class="cls-12" d="M28.31,83.63a.77.77,0,0,1,.59-.19"/><path class="cls-12" d="M33.38,54.78a3.36,3.36,0,0,1,2.62.78"/><path class="cls-12" d="M33.46,56.05a17.43,17.43,0,0,1,1.89.48"/><path class="cls-12" d="M33.75,57.29l1.24.42"/><path class="cls-12" d="M33.38,58.7l1.39.3"/><path class="cls-12" d="M33,60.06a1.62,1.62,0,0,1,1.38.26"/><path class="cls-12" d="M33,61.56a1.56,1.56,0,0,1,.94.22"/><path class="cls-12" d="M32.89,62.67a.38.38,0,0,1,.52.26"/><path class="cls-12" d="M32.74,64a.78.78,0,0,0,.5.07"/><path class="cls-12" d="M32.23,65.26a.75.75,0,0,0,.51.06"/><path class="cls-12" d="M15.69,104A13.94,13.94,0,0,1,17,105.27a12.09,12.09,0,0,0,6.94,3.53"/><path class="cls-12" d="M19.86,105.79a12.2,12.2,0,0,0,9,2.71"/><path class="cls-12" d="M18.33,102.41a12.57,12.57,0,0,1,7.29,1.38c.08,0,.16.15.1.21"/><path class="cls-12" d="M26.2,103.16a8.16,8.16,0,0,1,2.67,1,4.44,4.44,0,0,1,1.85,2.12"/><path class="cls-12" d="M26.79,104.75a6.12,6.12,0,0,1,2.63,2.06"/><path class="cls-12" d="M19.34,103.77a13,13,0,0,1,6.76,2c.16.1.34.27.25.43"/><path class="cls-12" d="M30.42,108.73l1.09-.17"/></g></g></svg>