<svg xmlns="http://www.w3.org/2000/svg" viewBox="0 0 116.83 110.8"><defs><style>.cls-1{isolation:isolate;}.cls-2{fill:#fdb517;}.cls-2,.cls-3,.cls-4,.cls-5,.cls-7{stroke:#231f20;stroke-linecap:round;stroke-linejoin:round;}.cls-2,.cls-3,.cls-4,.cls-7{stroke-width:0.87px;}.cls-3{fill:#231f20;}.cls-4{fill:#dcdbdb;}.cls-5{fill:none;stroke-width:0.33px;}.cls-6{fill:#c9ebfc;opacity:0.7;mix-blend-mode:screen;}.cls-7{fill:#f05867;}</style></defs><g class="cls-1"><g id="Layer_1" data-name="Layer 1"><path class="cls-2" d="M30.91,48.06s-.61.27-1.67.63A33.31,33.31,0,0,1,21,50.34,20.85,20.85,0,0,1,6.09,46.08C-3.33,38.41.46,26,7,20.23A.8.8,0,0,1,8.3,21C7.18,25.87,6,36.87,18,36.42A32,32,0,0,0,25.77,35l.51-.15Z"/><path class="cls-3" d="M29.42,46.94s-.05.72-.18,1.75A33.31,33.31,0,0,1,21,50.34c-2-4.46-2.74-10.43-3.05-13.92A32,32,0,0,0,25.77,35Z"/><path class="cls-2" d="M85.92,48.06s.61.27,1.67.63a33.21,33.21,0,0,0,8.23,1.65c4.66.32,10.22-.43,14.91-4.26,9.43-7.67,5.64-20-.89-25.85a.8.8,0,0,0-1.31.78c1.12,4.86,2.35,15.86-9.66,15.41A32,32,0,0,1,91.06,35l-.51-.15Z"/><path class="cls-3" d="M87.41,46.94s0,.72.18,1.75a33.21,33.21,0,0,0,8.23,1.65c2-4.46,2.74-10.43,3.05-13.92A32,32,0,0,1,91.06,35Z"/><path class="cls-3" d="M81.16,80.54c-2.33-8.65-1-14.64-1-14.64l-7.63,4H44.29l-7.63-4s1.33,6-1,14.64.66,17.07,5.54,19.73S52,105.59,52,105.59h12.9s5.88-2.66,10.76-5.32S83.49,89.18,81.16,80.54Z"/><path class="cls-4" d="M81.12,76.64c-1.69-8.57,2.65-11.27,2.65-11.27l-6.74,1s3.1,18.08,2.55,23.24A4.23,4.23,0,0,1,77.26,93V91.61a5.83,5.83,0,0,0-11.66,0v2.3H64.25v-2.3a5.84,5.84,0,0,0-11.67,0v2.3H51.23v-2.3a5.84,5.84,0,0,0-11.67,0V93a4.22,4.22,0,0,1-2.31-3.41c-.55-5.16,2.55-23.24,2.55-23.24l-6.75-1s4.35,2.7,2.66,11.27-5.44,15.09-.57,23.19,12.24,10.53,19.09,10.53H62.6c6.84,0,14.21-2.44,19.08-10.53S82.8,85.21,81.12,76.64Z"/><path class="cls-4" d="M87.06,56.69a2.7,2.7,0,0,1,.24-3.8c6.27-5.57,10.08-13,10.08-21.06,0-17.34-17.44-31.4-39-31.4s-39,14.06-39,31.4c0,8.11,3.81,15.49,10.08,21.06a2.71,2.71,0,0,1,.24,3.8l0,0c-3.55,3.94-6.65,10.11-2.22,13.45s6.25-2.34,9-1.9c1.67.27,1.38,3,3,5.22v4.64a6,6,0,0,0,5.56,6,5.83,5.83,0,0,0,6.11-5.83V76.09h1.35v2a5.94,5.94,0,0,0,5.55,6,5.84,5.84,0,0,0,6.12-5.83V76.09H65.6v2a5.94,5.94,0,0,0,5.55,6,5.83,5.83,0,0,0,6.11-5.83v-4.8c1.63-2.18,1.35-5,3-5.22,2.77-.44,4.58,5.25,9,1.9s1.33-9.51-2.22-13.45Z"/><ellipse class="cls-3" cx="44.22" cy="46.41" rx="11.64" ry="12.86"/><ellipse class="cls-3" cx="72.61" cy="46.41" rx="11.64" ry="12.86"/><path class="cls-3" d="M58.43,56.34v0h0v0c-.52.34-6.67,4.39-5.61,7.89s5.12,1.71,5.63.06c.52,1.65,4.54,3.56,5.64-.06S59,56.68,58.43,56.34Z"/><path class="cls-5" d="M69.87,7.82,73.18,6.6"/><path class="cls-5" d="M72.09,8.3,75.8,7.16"/><path class="cls-5" d="M74.47,8.9a17.3,17.3,0,0,1,3.93-.53"/><path class="cls-5" d="M76.75,10.11a11.61,11.61,0,0,1,3.93-.41"/><path class="cls-5" d="M78.73,11.16a26.77,26.77,0,0,1,3.8-.12"/><path class="cls-5" d="M80.36,12.47a12.31,12.31,0,0,1,3.15-.08"/><path class="cls-5" d="M82.42,13.43a6,6,0,0,1,2.62.41"/><path class="cls-5" d="M83.28,15.16l2.84.43"/><path class="cls-5" d="M84.49,16.69a11.24,11.24,0,0,0,2.39.11"/><path class="cls-5" d="M85.68,18a3.79,3.79,0,0,0,2.07.32"/><path class="cls-5" d="M87.1,19.73a4,4,0,0,0,2,.44"/><path class="cls-5" d="M87.85,21.5a4.28,4.28,0,0,0,2.07.17"/><path class="cls-5" d="M88.84,23.21a4.26,4.26,0,0,0,1.63.1"/><path class="cls-5" d="M89.81,24.53l1.09.23"/><path class="cls-5" d="M90.47,26.79a1.36,1.36,0,0,0,1,.34"/><path class="cls-5" d="M89.82,32.1l3.47.82"/><path class="cls-5" d="M90.66,33.83a12,12,0,0,0,2.85.56"/><path class="cls-5" d="M91.23,35.18a6.82,6.82,0,0,1,2,.51"/><path class="cls-5" d="M91.12,36.58a2.54,2.54,0,0,0,1.52.33"/><path class="cls-5" d="M91,38l1.09.76"/><path class="cls-5" d="M90.47,39.83l1,.43"/><path class="cls-5" d="M90.14,41.26l.65.33"/><path class="cls-5" d="M89.6,43.11l.32.22"/><path class="cls-5" d="M59.47,29.56a18.68,18.68,0,0,0,3.39-.76"/><path class="cls-5" d="M59.69,28.41l2.61-1.08"/><path class="cls-5" d="M60.35,26.69a5.85,5.85,0,0,1,1.85-1"/><path class="cls-5" d="M59.8,25.27a8.85,8.85,0,0,0,1.56-1.15"/><path class="cls-5" d="M59.59,23.64a4.05,4.05,0,0,0,1.1-1"/><path class="cls-5" d="M59.49,22l.43-.65"/><path class="cls-5" d="M58.5,20.38l.87-.65"/><path class="cls-5" d="M58.18,19.08,58.5,19"/><path class="cls-5" d="M84.17,58.79c.68-.15,1.36-.27,2.06-.36"/><path class="cls-5" d="M85.25,59.5l1.63.14"/><path class="cls-5" d="M85.57,60.63l1.75.3"/><path class="cls-5" d="M86.11,62.05l1.74.65"/><path class="cls-5" d="M86.33,63.67a5.48,5.48,0,0,1,1.55.37"/><path class="cls-5" d="M86.66,65.07l1.32.39"/><path class="cls-5" d="M86.77,66.14l1,.32"/><path class="cls-5" d="M86.66,67.35h1.09"/><path class="cls-5" d="M86.88,68.22h.65"/><path class="cls-5" d="M73.84,66.66a20,20,0,0,0,3.69.5"/><path class="cls-5" d="M73.84,68.05a8.45,8.45,0,0,1,3,0"/><path class="cls-5" d="M73,69.71l2.94-.41"/><path class="cls-5" d="M72.84,70.69A27.16,27.16,0,0,1,75.9,70"/><path class="cls-5" d="M73,71.86l2.27-.57"/><path class="cls-5" d="M73.51,72.68l1.74-.33"/><path class="cls-5" d="M73.51,74.32l1.73-.68"/><path class="cls-5" d="M73.72,75.4l1.53-.31"/><path class="cls-5" d="M73.83,76.6l1.09-.22"/><path class="cls-5" d="M73.62,77.89a1.44,1.44,0,0,0,.87-.09"/><path class="cls-5" d="M73.72,78.77l.77.11"/><path class="cls-5" d="M73.62,80.18l.65-.11"/><path class="cls-5" d="M73.51,81.16h.54"/><path class="cls-5" d="M56.88,82.07l2.06.25c.18,0,.44,0,.47-.19"/><path class="cls-5" d="M58,81.27l3-.2"/><path class="cls-5" d="M59.26,80.26l1.85-.4"/><path class="cls-5" d="M59.58,79.19l1.86-.75"/><path class="cls-5" d="M60.24,77.78a7.84,7.84,0,0,0,1.54-.61"/><path class="cls-5" d="M60.45,76.37l1.1-.64"/><path class="cls-5" d="M60.57,75.18l.76-.33"/><path class="cls-5" d="M60.79,74.09l.76-.43"/><path class="cls-5" d="M60.9,73.23l.44-.32"/><path class="cls-5" d="M43.28,80.88l3.49.46"/><path class="cls-5" d="M45,79.88l2.28-.13"/><path class="cls-5" d="M46,79.05l1.75-.26"/><path class="cls-5" d="M46.54,77.66l1.63-.33"/><path class="cls-5" d="M47.19,76.23a2.72,2.72,0,0,0,1.43-.48"/><path class="cls-5" d="M47.41,75a2.6,2.6,0,0,0,1.2-.43"/><path class="cls-5" d="M47.63,73.88l.87-.33"/><path class="cls-5" d="M48.39,72.58l-.65.22C47.81,72.8,48.32,72.58,48.39,72.58Z"/><path class="cls-5" d="M71.87,61.27A3.54,3.54,0,0,1,73,62.56"/><path class="cls-5" d="M73.17,61.05l1.09,1.09"/><path class="cls-5" d="M74.71,61.15A3.65,3.65,0,0,0,76,62"/><path class="cls-5" d="M76.12,60.5a6.27,6.27,0,0,0,1.62,1"/><path class="cls-5" d="M78.08,60.17a2.25,2.25,0,0,0,1.3.56"/><path class="cls-5" d="M79.27,59.74a2,2,0,0,0,1.2.34"/><path class="cls-5" d="M80.8,58.65a1.53,1.53,0,0,0,.86.24"/><path class="cls-5" d="M82.2,57.57l.33.11"/><path class="cls-5" d="M34.28,59.23c.54-.44.52-1.45,1.06-1.88a5.91,5.91,0,0,1-2.27,1.23"/><path class="cls-5" d="M35.36,60.21a14.12,14.12,0,0,0,1.71-1.14"/><path class="cls-5" d="M36.54,61.26a4.81,4.81,0,0,0,1.84-1.41"/><path class="cls-5" d="M39.51,60.58a.76.76,0,0,1-.06,1.09"/><path class="cls-5" d="M40.6,60.59a1.74,1.74,0,0,1,.16,1.32"/><path class="cls-5" d="M41.93,60.89a1.12,1.12,0,0,1,0,1.23"/><path class="cls-5" d="M43.26,61.07a.89.89,0,0,1-.14,1.25"/><path class="cls-5" d="M44.6,61a1.11,1.11,0,0,1,0,1.3"/><path class="cls-5" d="M46.41,61.17a.91.91,0,0,1-.16,1.23"/><path class="cls-5" d="M47.71,60.87a.58.58,0,0,1-.07,1"/><path class="cls-5" d="M49.37,60.22a.36.36,0,0,1,.22.61"/><path class="cls-5" d="M51.22,59.57a.2.2,0,0,1,.14.31"/><path class="cls-5" d="M30,36a24.48,24.48,0,0,1,1.18-5.2"/><path class="cls-5" d="M31.48,34.06l1.78-4.62"/><path class="cls-5" d="M33.45,32.58l0,0c.89-1.34,1.74-2.69,2.56-4.07"/><path class="cls-5" d="M35.6,31.51q1.32-1.56,2.58-3.18"/><path class="cls-5" d="M37.21,30.92c-.08.1.16.14.25,0,.82-.74,1.61-1.5,2.37-2.3"/><path class="cls-5" d="M39.58,30.28a20.29,20.29,0,0,0,2.18-1.85"/><path class="cls-5" d="M41.54,29.83A3.44,3.44,0,0,0,43,29"/><path class="cls-5" d="M43,30.27a7.79,7.79,0,0,0,1.45-.71"/><path class="cls-5" d="M27.71,66.6a3.92,3.92,0,0,0,1.53,2.3"/><path class="cls-5" d="M29.39,66.58a19.39,19.39,0,0,0,1.34,1.79"/><path class="cls-5" d="M30.58,66.46a5.38,5.38,0,0,1,1.13,1.25"/><path class="cls-5" d="M31.87,66.37a3.86,3.86,0,0,0,1.19.77"/><path class="cls-5" d="M33,66a2.32,2.32,0,0,0,1,.78"/><path class="cls-5" d="M34,65.85l1.19.23"/><path class="cls-5" d="M35.46,65.27a2,2,0,0,0,1.09.17c.26,0,1-.72,1.2-.61"/><path class="cls-5" d="M79.26,71l.77-.31"/><path class="cls-5" d="M79.49,72.14l.32-.22"/><path class="cls-5" d="M79.05,73.11a1.56,1.56,0,0,0,.87-.21"/><path class="cls-5" d="M79.27,74.09a1.52,1.52,0,0,0,.87-.09"/><path class="cls-5" d="M79.27,75.51h1"/><path class="cls-5" d="M79.7,76.59h.76"/><path class="cls-5" d="M80,77.81h.76"/><path class="cls-5" d="M80.14,79.42h1.09"/><path class="cls-5" d="M80.46,80.84l1,.11"/><path class="cls-5" d="M80.57,81.93l1.09.23"/><path class="cls-5" d="M80.79,83.34l1.2.32"/><path class="cls-5" d="M81,84.65l1.52.65"/><path class="cls-5" d="M81,86.17l1.73.77"/><path class="cls-5" d="M81.44,87.8a7.18,7.18,0,0,1,1.43.74"/><path class="cls-5" d="M81.43,89.56a13.54,13.54,0,0,1,1.58.88"/><path class="cls-5" d="M81.33,91.08a4.26,4.26,0,0,1,1.46.56"/><path class="cls-5" d="M80.57,92.36a8,8,0,0,1,1.34.68.88.88,0,0,1,.37.37.31.31,0,0,1-.18.43"/><path class="cls-5" d="M79.77,94.15l1.62,1.52"/><path class="cls-5" d="M78.37,96.1a19.15,19.15,0,0,1,1.83,1.13c.3.21.64.55.49.89"/><path class="cls-5" d="M78.18,97.47a3.75,3.75,0,0,1,1.44,1.84"/><path class="cls-5" d="M77,99a7.67,7.67,0,0,1,1.58,1.48"/><path class="cls-5" d="M76.11,99.76a4.39,4.39,0,0,1,1.67,1.38"/><path class="cls-5" d="M75.14,100.73a3.76,3.76,0,0,1,1.57,1.49"/><path class="cls-5" d="M74.69,101.76a2.43,2.43,0,0,1,1.53,1.55"/><path class="cls-5" d="M73.82,102.76a1.14,1.14,0,0,1,1,1.13"/><path class="cls-5" d="M72.93,103.81a2.11,2.11,0,0,1,.65,1.6"/><path class="cls-5" d="M71.54,104.54l.56,1.39c.1.23.13.6-.12.65"/><path class="cls-5" d="M70.43,105.78a.74.74,0,0,1,.19,1.08"/><path class="cls-5" d="M69.32,106.19a1.75,1.75,0,0,1,.3.86c0,.31-.28.63-.58.58"/><path class="cls-5" d="M68.34,106.93a1.09,1.09,0,0,1-.55,1.06"/><path class="cls-5" d="M66.5,107.74c0-.06.15,0,.13.12a.29.29,0,0,1-.19.13"/><path class="cls-5" d="M46.7,105.66a10.53,10.53,0,0,1,2,1.85"/><path class="cls-5" d="M48,104.94a6.61,6.61,0,0,0,2.31,2.36"/><path class="cls-5" d="M49.49,104.75a12.94,12.94,0,0,0,2.69,2.2"/><path class="cls-5" d="M51.43,104.11a13.89,13.89,0,0,0,1.86,1.18"/><path class="cls-5" d="M52.63,103.89a5.2,5.2,0,0,1,1.42.54"/><path class="cls-5" d="M53.72,103.24l1.08.23"/><path class="cls-5" d="M54.37,102.58l.76.12"/><path class="cls-5" d="M55.46,101.49h.43"/><path class="cls-5" d="M56.22,100.41a.49.49,0,0,1,.44,0"/><path class="cls-5" d="M35.78,80.83h.54"/><path class="cls-5" d="M36.33,79.51a1.2,1.2,0,0,0,.65,0"/><path class="cls-5" d="M36.66,78.21a.77.77,0,0,0,.54,0"/><path class="cls-5" d="M36.87,77a.62.62,0,0,0,.45-.19"/><path class="cls-5" d="M37,75.92a.65.65,0,0,0,.66-.41"/><path class="cls-5" d="M37.3,74.74a1.41,1.41,0,0,0,.67-.3"/><path class="cls-5" d="M37.3,73.64a.84.84,0,0,0,.7-.39"/><path class="cls-5" d="M37.41,72.45a1,1,0,0,0,.68-.4"/><path class="cls-5" d="M37.19,71.06l.44-.11"/><path class="cls-5" d="M35.24,82.63l1-.16c.06,0,.14,0,.16,0s-.11.07-.08,0"/><path class="cls-5" d="M34.58,83.88l1.06-.33a.3.3,0,0,0-.19.22C35.6,83.81,34.44,83.84,34.58,83.88Z"/><path class="cls-5" d="M43.61,87.81a10.46,10.46,0,0,1,2.61-.36"/><path class="cls-5" d="M44.9,89a9.94,9.94,0,0,1,2.51-.63"/><path class="cls-5" d="M48.27,89.4,46.12,90A4.73,4.73,0,0,0,48.27,89.4Z"/><path class="cls-5" d="M47.09,92.48l.87-.33"/><path class="cls-5" d="M47.41,93.23h.66"/><path class="cls-5" d="M56.63,88.52a10.1,10.1,0,0,1,2.2-1"/><path class="cls-5" d="M57.42,89.65l2.83-1"/><path class="cls-5" d="M60.14,90a5,5,0,0,1,1.4-.48"/><path class="cls-5" d="M60.37,91.1l1.49-.62"/><path class="cls-5" d="M61.12,92.16l.76-.23"/><path class="cls-5" d="M61.33,93.57l1.19-.35"/><path class="cls-5" d="M68,89.26a27.39,27.39,0,0,1,3.3-1.86"/><path class="cls-5" d="M70.24,89.63a14.31,14.31,0,0,1,2.29-1.29"/><path class="cls-5" d="M73.38,89.29l-1.71.92C72.18,90,72.88,89.52,73.38,89.29Z"/><path class="cls-5" d="M74.49,91.82l-.55.43"/><path class="cls-5" d="M73.94,93.78l.66-.32"/><path class="cls-5" d="M100.69,36.57a9.18,9.18,0,0,1-1.3,9.94"/><path class="cls-5" d="M103.17,36.36c.39.1.59.51.73.88a16.09,16.09,0,0,1,.74,8.39"/><path class="cls-5" d="M105.61,35.23a11,11,0,0,1,2.87,5.55,3.27,3.27,0,0,1-.12,2.1"/><path class="cls-5" d="M107.58,33.33a13.43,13.43,0,0,1,4.67,5.74,2,2,0,0,1,.17,1.55"/><path class="cls-5" d="M108.82,30.5a2.89,2.89,0,0,1,2.21.89,16.73,16.73,0,0,1,3.14,3.47c.09.14.14.38,0,.4"/><path class="cls-5" d="M109.59,26.41a8.44,8.44,0,0,1,5.08,4.15"/><path class="cls-5" d="M110.23,22.23l.47-.22"/><path class="cls-5" d="M110.56,22.82l.57-.27"/><path class="cls-5" d="M111,23.27l.44-.1"/><path class="cls-5" d="M111.28,23.88a.68.68,0,0,0,.5-.13"/><path class="cls-5" d="M111.57,24.45a1.42,1.42,0,0,0,.54-.12"/><path class="cls-5" d="M112,25.13l.54,0"/><path class="cls-5" d="M112.51,25.93a1.73,1.73,0,0,1,.51,0"/><path class="cls-5" d="M112.91,26.62l.44.14"/><path class="cls-5" d="M113.35,27.23l.36.15"/><path class="cls-5" d="M113.66,32.77a.17.17,0,0,1,.16.06,4.08,4.08,0,0,1,.82.94"/><path class="cls-5" d="M114.3,32.45,115,33"/><path class="cls-5" d="M114.58,32.05a.68.68,0,0,1,.43.23"/><path class="cls-5" d="M114.83,31.47a.62.62,0,0,1,.42.62"/><path class="cls-5" d="M112.91,38.46s.09,0,.12.1a8.61,8.61,0,0,1,.56,1.09"/><path class="cls-5" d="M113.47,38a7.65,7.65,0,0,1,.5.88"/><path class="cls-5" d="M113.83,37.44a4,4,0,0,1,.56.67"/><path class="cls-5" d="M114.16,37a1,1,0,0,1,.6,1"/><path class="cls-5" d="M109.38,42.39a6.16,6.16,0,0,1,.4,1.53,1,1,0,0,1-.13.74"/><path class="cls-5" d="M110.07,42.7a3,3,0,0,1,.32,1.53"/><path class="cls-5" d="M110.65,42.33a1.53,1.53,0,0,1,.29,1"/><path class="cls-5" d="M111.16,41.82a2.21,2.21,0,0,1,.35,1.14"/><path class="cls-5" d="M111.78,41.92a.91.91,0,0,1,.26.68"/><path class="cls-5" d="M112.26,41.66a.47.47,0,0,1,.24.72"/><path class="cls-5" d="M105.54,44.9a.94.94,0,0,1,.06.15,4.43,4.43,0,0,1,.27,2.1,1.15,1.15,0,0,1-.2.57"/><path class="cls-5" d="M106.34,45.17a4.91,4.91,0,0,1,.19,1.53"/><path class="cls-5" d="M107.31,44.92c.07.39.12.79.16,1.19"/><path class="cls-5" d="M107.77,44.84a1.73,1.73,0,0,1,.26.85s0,.05,0,.06,0,0,0,0"/><path class="cls-5" d="M108.36,44.65a1.22,1.22,0,0,1,.18,1.18"/><path class="cls-5" d="M100.48,46a14.82,14.82,0,0,1-.49,2.27,2,2,0,0,1-.36.8"/><path class="cls-5" d="M101.11,46.8a4.93,4.93,0,0,1-.39,1.61"/><path class="cls-5" d="M102,46.48a2.7,2.7,0,0,1-.29,1.5"/><path class="cls-5" d="M102.65,46.11a2.28,2.28,0,0,1,0,1.32s-.1.11-.12.06"/><path class="cls-5" d="M103.45,45.9a2.81,2.81,0,0,1,0,1.19c0,.09-.07.19-.16.19"/><path class="cls-5" d="M104.28,46.33a6.16,6.16,0,0,1,0,1.05"/><path class="cls-5" d="M98.68,47.82a1.15,1.15,0,0,1-.23,1"/><path class="cls-5" d="M101.57,37.27a2.34,2.34,0,0,1,.88,1.92"/><path class="cls-5" d="M102.48,37.56a1.73,1.73,0,0,1,.53,1.31"/><path class="cls-5" d="M102.92,37.51a1.15,1.15,0,0,1,.48,1.07"/><path class="cls-5" d="M107,35.56a4.52,4.52,0,0,1,.87.61,1.56,1.56,0,0,1,.5.92"/><path class="cls-5" d="M107.59,35.35a2.17,2.17,0,0,1,1.26,1.24"/><path class="cls-5" d="M108.17,35.1a3,3,0,0,1,1.25,1.29"/><path class="cls-5" d="M109.2,32.44l.71.54a4,4,0,0,1,1.36,1.46"/><path class="cls-5" d="M109.9,32.14a2.35,2.35,0,0,1,1.54,1.18"/><path class="cls-5" d="M110.3,31.75a1.37,1.37,0,0,1,1.12.74"/><path class="cls-5" d="M110.38,29.36a6.08,6.08,0,0,1,2.22,2"/><path class="cls-5" d="M111,29.26a2.05,2.05,0,0,1,1.26.74"/><path class="cls-5" d="M110.3,25.77a.89.89,0,0,1,.78.18c.06.05.11.14.06.2"/><path class="cls-5" d="M110.3,25l.07-.07a1.39,1.39,0,0,0,.52.21"/><path class="cls-5" d="M110.27,24.51a.5.5,0,0,1,.21,0"/><path class="cls-5" d="M110.34,24.09a.48.48,0,0,1,.37.28"/><path class="cls-5" d="M99.94,37.63s.08,0,.1.07a9.85,9.85,0,0,1,.3,2c0,.08,0,.19-.11.18"/><path class="cls-5" d="M99.53,38.11a5,5,0,0,1,0,1.49.64.64,0,0,1-.23.5"/><path class="cls-5" d="M104.51,37c.13-.19.71.64.78.76a6.67,6.67,0,0,1,.64,1.73"/><path class="cls-5" d="M105.6,37.05a6.52,6.52,0,0,1,1,2.28"/><path class="cls-5" d="M16.14,36.57a9.18,9.18,0,0,0,1.3,9.94"/><path class="cls-5" d="M13.65,36.36c-.38.1-.59.51-.72.88a16,16,0,0,0-.74,8.39"/><path class="cls-5" d="M11.22,35.23a11.06,11.06,0,0,0-2.88,5.55,3.34,3.34,0,0,0,.13,2.1"/><path class="cls-5" d="M9.25,33.33a13.29,13.29,0,0,0-4.67,5.74,2,2,0,0,0-.17,1.55"/><path class="cls-5" d="M8,30.5a2.87,2.87,0,0,0-2.21.89,16.73,16.73,0,0,0-3.14,3.47c-.09.14-.14.38,0,.4"/><path class="cls-5" d="M7.23,26.41a8.45,8.45,0,0,0-5.07,4.15"/><path class="cls-5" d="M6.6,22.23,6.13,22"/><path class="cls-5" d="M6.27,22.82l-.57-.27"/><path class="cls-5" d="M5.88,23.27l-.44-.1"/><path class="cls-5" d="M5.55,23.88A.72.72,0,0,1,5,23.75"/><path class="cls-5" d="M5.26,24.45a1.42,1.42,0,0,1-.54-.12"/><path class="cls-5" d="M4.82,25.13l-.54,0"/><path class="cls-5" d="M4.32,25.93a1.73,1.73,0,0,0-.51,0"/><path class="cls-5" d="M3.92,26.62l-.44.14"/><path class="cls-5" d="M3.48,27.23l-.36.15"/><path class="cls-5" d="M3.17,32.77a.17.17,0,0,0-.16.06,4.38,4.38,0,0,0-.83.94"/><path class="cls-5" d="M2.53,32.45,1.86,33"/><path class="cls-5" d="M2.25,32.05a.68.68,0,0,0-.43.23"/><path class="cls-5" d="M2,31.47a.62.62,0,0,0-.42.62"/><path class="cls-5" d="M3.92,38.46s-.09,0-.12.1a10.23,10.23,0,0,0-.57,1.09"/><path class="cls-5" d="M3.35,38a9.42,9.42,0,0,0-.49.88"/><path class="cls-5" d="M3,37.44a4.58,4.58,0,0,0-.57.67"/><path class="cls-5" d="M2.67,37a1,1,0,0,0-.6,1"/><path class="cls-5" d="M7.45,42.39a5.75,5.75,0,0,0-.4,1.53,1,1,0,0,0,.13.74"/><path class="cls-5" d="M6.76,42.7a3.11,3.11,0,0,0-.33,1.53"/><path class="cls-5" d="M6.18,42.33a1.48,1.48,0,0,0-.29,1"/><path class="cls-5" d="M5.67,41.82A2.12,2.12,0,0,0,5.32,43"/><path class="cls-5" d="M5,41.92a1,1,0,0,0-.26.68"/><path class="cls-5" d="M4.57,41.66a.48.48,0,0,0-.25.72"/><path class="cls-5" d="M11.29,44.9a1,1,0,0,0-.07.15,4.55,4.55,0,0,0-.26,2.1,1.14,1.14,0,0,0,.19.57"/><path class="cls-5" d="M10.49,45.17a5.23,5.23,0,0,0-.2,1.53"/><path class="cls-5" d="M9.52,44.92c-.07.39-.12.79-.16,1.19"/><path class="cls-5" d="M9.06,44.84a1.85,1.85,0,0,0-.27.85s0,.05,0,.06,0,0,0,0"/><path class="cls-5" d="M8.47,44.65a1.22,1.22,0,0,0-.18,1.18"/><path class="cls-5" d="M16.35,46a13.72,13.72,0,0,0,.49,2.27,2.13,2.13,0,0,0,.35.8"/><path class="cls-5" d="M15.72,46.8a4.69,4.69,0,0,0,.39,1.61"/><path class="cls-5" d="M14.84,46.48a2.7,2.7,0,0,0,.29,1.5"/><path class="cls-5" d="M14.17,46.11a2.37,2.37,0,0,0,0,1.32s.09.11.12.06"/><path class="cls-5" d="M13.38,45.9a2.81,2.81,0,0,0,0,1.19c0,.09.07.19.15.19"/><path class="cls-5" d="M12.54,46.33a7.38,7.38,0,0,0,0,1.05"/><path class="cls-5" d="M18.14,47.82a1.19,1.19,0,0,0,.24,1"/><path class="cls-5" d="M15.26,37.27a2.34,2.34,0,0,0-.88,1.92"/><path class="cls-5" d="M14.35,37.56a1.69,1.69,0,0,0-.53,1.31"/><path class="cls-5" d="M13.91,37.51a1.13,1.13,0,0,0-.48,1.07"/><path class="cls-5" d="M9.81,35.56a4.77,4.77,0,0,0-.86.61,1.56,1.56,0,0,0-.5.92"/><path class="cls-5" d="M9.24,35.35A2.17,2.17,0,0,0,8,36.59"/><path class="cls-5" d="M8.66,35.1a3,3,0,0,0-1.25,1.29"/><path class="cls-5" d="M7.63,32.44,6.92,33a4,4,0,0,0-1.36,1.46"/><path class="cls-5" d="M6.93,32.14a2.35,2.35,0,0,0-1.54,1.18"/><path class="cls-5" d="M6.53,31.75a1.37,1.37,0,0,0-1.12.74"/><path class="cls-5" d="M6.45,29.36a6.08,6.08,0,0,0-2.22,2"/><path class="cls-5" d="M5.84,29.26A2.05,2.05,0,0,0,4.58,30"/><path class="cls-5" d="M6.53,25.77a.88.88,0,0,0-.78.18c-.06.05-.11.14-.06.2"/><path class="cls-5" d="M6.53,25,6.46,25a1.39,1.39,0,0,1-.52.21"/><path class="cls-5" d="M6.56,24.51a.5.5,0,0,0-.21,0"/><path class="cls-5" d="M6.49,24.09a.48.48,0,0,0-.37.28"/><path class="cls-5" d="M16.89,37.63s-.08,0-.1.07a9.22,9.22,0,0,0-.3,2c0,.08,0,.19.11.18"/><path class="cls-5" d="M17.3,38.11a5.31,5.31,0,0,0,0,1.49.69.69,0,0,0,.24.5"/><path class="cls-5" d="M12.32,37c-.13-.19-.71.64-.78.76a6.67,6.67,0,0,0-.64,1.73"/><path class="cls-5" d="M11.23,37.05a6.52,6.52,0,0,0-1,2.28"/><path class="cls-6" d="M49.07,8.08c1.45,2.46-1.5,6.9-6.59,9.91s-10.4,3.46-11.86,1,1.49-6.91,6.59-9.92S47.61,5.62,49.07,8.08Z"/><path class="cls-7" d="M51,47.68a2.06,2.06,0,1,1-2-2A2.05,2.05,0,0,1,51,47.68Z"/><path class="cls-7" d="M70,47.68a2.06,2.06,0,1,1-2-2A2.05,2.05,0,0,1,70,47.68Z"/></g></g></svg>