<svg xmlns="http://www.w3.org/2000/svg" viewBox="0 0 101.67 110.69"><defs><style>.cls-1{isolation:isolate;}.cls-2{fill:#29abe2;}.cls-2,.cls-3,.cls-4,.cls-5,.cls-7{stroke:#231f20;stroke-linecap:round;stroke-linejoin:round;}.cls-2,.cls-3,.cls-4,.cls-5{stroke-width:0.87px;}.cls-3{fill:#3c7cbf;}.cls-4{fill:#8dd6eb;}.cls-5{fill:#4ec9f4;}.cls-6{fill:#c9ebfc;opacity:0.5;mix-blend-mode:screen;}.cls-7{fill:none;stroke-width:0.33px;}</style></defs><g class="cls-1"><g id="Layer_1" data-name="Layer 1"><polygon class="cls-2" points="101.24 55.34 50.83 110.26 0.43 55.34 50.83 0.43 101.24 55.34"/><polygon class="cls-3" points="101.24 55.34 50.83 110.26 0.43 55.34 101.24 55.34"/><polygon class="cls-4" points="70.69 55.34 50.83 110.26 30.98 55.34 50.83 0.43 70.69 55.34"/><polygon class="cls-5" points="70.69 55.34 50.83 110.26 30.98 55.34 70.69 55.34"/><path class="cls-6" d="M39.1,24.69c2.34,1.11,1.57,5.87-1.72,10.63S29.54,43,27.2,41.93s-1.57-5.88,1.72-10.64S36.77,23.57,39.1,24.69Z"/><path class="cls-7" d="M60.2,15.71a5.43,5.43,0,0,0,2.08-.5"/><path class="cls-7" d="M61.77,17.71A11.5,11.5,0,0,1,64,17.39"/><path class="cls-7" d="M63,19a5.22,5.22,0,0,1,2.45-.32"/><path class="cls-7" d="M63.51,20.15A9.06,9.06,0,0,0,66,20"/><path class="cls-7" d="M64.21,21.91,67,21.44"/><path class="cls-7" d="M64.21,24.35a18.28,18.28,0,0,0,4.18-.3"/><path class="cls-7" d="M66.13,26.12c1.55-.26,3.12-.45,4.69-.56"/><path class="cls-7" d="M67.89,28a23.94,23.94,0,0,1,4.16-.57"/><path class="cls-7" d="M69.44,29.75l3.48-.35"/><path class="cls-7" d="M70.31,31.29l6.1-.6"/><path class="cls-7" d="M71,33.94l5.92-.18"/><path class="cls-7" d="M73.62,35.52l6.1-.37"/><path class="cls-7" d="M75.35,37a18.84,18.84,0,0,0,6-.17"/><path class="cls-7" d="M77.63,39a40.53,40.53,0,0,0,5.05-.08"/><path class="cls-7" d="M79,41c1.79.23,3.63-.89,5.36-.42"/><path class="cls-7" d="M80.26,42.84l5.38-.62"/><path class="cls-7" d="M81.12,44.88a33.52,33.52,0,0,0,5.39-.46"/><path class="cls-7" d="M83.56,46.75c2.09.38,4.19-.78,6.33-.63"/><path class="cls-7" d="M85.48,48.55a22.2,22.2,0,0,1,4.89-.07"/><path class="cls-7" d="M86.87,51.28,91.75,51"/><path class="cls-7" d="M88.62,52.92l5.57-.8"/><path class="cls-7" d="M59.85,94.73l1.4.58"/><path class="cls-7" d="M60.72,93.44l1.22.43"/><path class="cls-7" d="M60.88,91.72a12.39,12.39,0,0,0,2.63.83"/><path class="cls-7" d="M62.11,90.25l4,.31"/><path class="cls-7" d="M62.82,88.56l4.87.3"/><path class="cls-7" d="M65.09,86.69c1.5.18,3,.29,4.52.33"/><path class="cls-7" d="M66.64,84.55a13.08,13.08,0,0,1,4,.25"/><path class="cls-7" d="M68.57,82.51h4.7"/><path class="cls-7" d="M71.18,80.1A21.31,21.31,0,0,1,74.84,80"/><path class="cls-7" d="M72.58,78a34.9,34.9,0,0,1,3.83-.32"/><path class="cls-7" d="M75.54,74.6a15.44,15.44,0,0,1,3.66.14"/><path class="cls-7" d="M77.11,72.54a13.58,13.58,0,0,0,3.49-.21"/><path class="cls-7" d="M78.68,70.25A18.42,18.42,0,0,0,82,70.17"/><path class="cls-7" d="M80.77,67.25l3.49-.13"/><path class="cls-7" d="M82.69,65.13h3.14"/><path class="cls-7" d="M85.13,62.43a21.39,21.39,0,0,0,3.49-.07"/><path class="cls-7" d="M86.69,60.68l4.2-.36"/><path class="cls-7" d="M89,58.47l3.15-.16"/><path class="cls-7" d="M91.22,57.08a3.76,3.76,0,0,1,2.78,0"/><path class="cls-7" d="M75,58a7.25,7.25,0,0,1,3,0"/><path class="cls-7" d="M74,59.56a16.36,16.36,0,0,1,3,.06"/><path class="cls-7" d="M73.79,61.4l1.91-.17a.65.65,0,0,1,.42.07.15.15,0,0,1-.1.26"/><path class="cls-7" d="M73.27,63.17a12,12,0,0,1,2.41.29l-.66.29"/><path class="cls-7" d="M72.75,65.34l1.22.14"/><path class="cls-7" d="M72.4,67.22l1,.29"/><path class="cls-7" d="M49.55,12.32l1.4-.43"/><path class="cls-7" d="M49.73,14.21a2.56,2.56,0,0,1,1.57-.28"/><path class="cls-7" d="M49.91,15.91c.93,0,1.86,0,2.79-.13"/><path class="cls-7" d="M49.21,18.27h4"/><path class="cls-7" d="M50.61,20.46A25.15,25.15,0,0,0,54.28,20"/><path class="cls-7" d="M50.25,22.75a12,12,0,0,1,4.54-.4"/><path class="cls-7" d="M51.13,24.79a24.16,24.16,0,0,1,5.23-.74"/><path class="cls-7" d="M52,26.62,56,26"/><path class="cls-7" d="M52.71,28.88l4.87-.77"/><path class="cls-7" d="M54.62,30.63c1.45-.16,2.9-.26,4.35-.29"/><path class="cls-7" d="M54.79,32.78,59,32.62"/><path class="cls-7" d="M54.27,35A33.63,33.63,0,0,0,60,34.65"/><path class="cls-7" d="M55.49,37a2.87,2.87,0,0,0,2,.18l3.52-.53"/><path class="cls-7" d="M56.89,38.74a29.47,29.47,0,0,1,4.88-.28"/><path class="cls-7" d="M58.11,40.86a11.71,11.71,0,0,0,4.17-.44"/><path class="cls-7" d="M58.45,42.9a8.75,8.75,0,0,0,3.64-.21"/><path class="cls-7" d="M59.33,44.37A31.52,31.52,0,0,1,64.91,44"/><path class="cls-7" d="M58.63,46.49A62.74,62.74,0,0,0,65.07,46"/><path class="cls-7" d="M60.55,48.91a18.13,18.13,0,0,0,4.71-.63"/><path class="cls-7" d="M61.07,50.51A12.41,12.41,0,0,0,64.91,50"/><path class="cls-7" d="M62.47,52.45A17.23,17.23,0,0,1,65.6,52"/><path class="cls-7" d="M59.68,58.24a10.5,10.5,0,0,0,4.36.32"/><path class="cls-7" d="M59,61.23a28.37,28.37,0,0,1,4-.08"/><path class="cls-7" d="M59.15,62.74A17.44,17.44,0,0,1,62,63"/><path class="cls-7" d="M59,64.33h2.44"/><path class="cls-7" d="M57.76,66l2.45.22"/><path class="cls-7" d="M57.06,68.36l2.45.27"/><path class="cls-7" d="M57.06,70.7,59,71"/><path class="cls-7" d="M57.06,72.73l1.57.58"/><path class="cls-7" d="M56.71,74.9l.87.87"/><path class="cls-7" d="M56,77.65c.12.58.24,1.16.35,1.74"/><path class="cls-7" d="M54.26,81.13a6,6,0,0,0,2.11.85"/><path class="cls-7" d="M54.09,83.74l1.74.73"/><path class="cls-7" d="M53.4,86.49a1.43,1.43,0,0,1,1.41.57"/><path class="cls-7" d="M53.22,89.38a1.48,1.48,0,0,1,1.05.29"/><path class="cls-7" d="M45.35,58l3.72.68"/><path class="cls-7" d="M45.54,61.07l3,.24"/><path class="cls-7" d="M46.25,63.47A2.11,2.11,0,0,1,48,64"/><path class="cls-7" d="M46.08,65.46l1.23.28"/><path class="cls-7" d="M45.91,67.84a1.67,1.67,0,0,1,1.58.53"/><path class="cls-7" d="M46.42,70.41a2.35,2.35,0,0,1,1.06.28"/><path class="cls-7" d="M22,51.38a18.91,18.91,0,0,0,4.87.2"/><path class="cls-7" d="M24.28,50a10.29,10.29,0,0,0,3.5.05"/><path class="cls-7" d="M25.85,48.39,29,48"/><path class="cls-7" d="M26.73,46.67l2.79-.73"/><path class="cls-7" d="M31.09,43.34l-1.57.43"/><path class="cls-7" d="M37.87,21.13A9.14,9.14,0,0,1,40.32,21"/><path class="cls-7" d="M39.27,19.13a8.29,8.29,0,0,1,2.28-.21"/><path class="cls-7" d="M40.29,17.5a2.51,2.51,0,0,1,1.77-.22"/><path class="cls-7" d="M41,15.92l1.75-.57"/><path class="cls-7" d="M41.54,14.48a3.06,3.06,0,0,0,1.78-.67"/><path class="cls-7" d="M23.21,58.44a48.92,48.92,0,0,1,5.44-.87"/><path class="cls-7" d="M23.94,61.3l4.35-.44"/><path class="cls-7" d="M25.68,64l3.3-.48"/><path class="cls-7" d="M27.59,66.63l2.26-.6"/><path class="cls-7" d="M29,68.82a7.27,7.27,0,0,0,1.74-.58"/><path class="cls-7" d="M30,71.41l1.57-.72"/><path class="cls-7" d="M30.91,74l1.39-.72"/><path class="cls-7" d="M32.48,75.62l1.57-.87"/><path class="cls-7" d="M34.05,77.51l1.22-.58"/><path class="cls-7" d="M35.09,79.82l1.22-.72"/><path class="cls-7" d="M35.61,82.28l1.4-.86"/><path class="cls-7" d="M36.84,84.31l1-.72"/><path class="cls-7" d="M37.71,86.48H39.1"/><path class="cls-7" d="M39.28,89.38l1.39-1.16"/><path class="cls-7" d="M13.12,61.43,14.87,61"/><path class="cls-7" d="M14,63.57,15.73,63"/><path class="cls-7" d="M15.22,64.91l1.21-.45"/><path class="cls-7" d="M15.56,66.49l1.22-.44"/><path class="cls-7" d="M17,67.51,18,67.22"/><path class="cls-7" d="M18,69.39l1.57-.28"/></g></g></svg>