<svg xmlns="http://www.w3.org/2000/svg" viewBox="0 0 109.52 110.79"><defs><style>.cls-1{isolation:isolate;}.cls-2{fill:#3c7cbf;}.cls-2,.cls-3,.cls-4,.cls-5,.cls-6,.cls-7,.cls-8{stroke:#231f20;stroke-linecap:round;stroke-linejoin:round;}.cls-2,.cls-3,.cls-4,.cls-5,.cls-6,.cls-7{stroke-width:0.87px;}.cls-3{fill:#4ec9f4;}.cls-4{fill:#d27528;}.cls-5{fill:#231f20;}.cls-6{fill:#fdb517;}.cls-7,.cls-8{fill:none;}.cls-8{stroke-width:0.33px;}.cls-9{fill:#c9ebfc;opacity:0.5;mix-blend-mode:screen;}</style></defs><g class="cls-1"><g id="Layer_1" data-name="Layer 1"><path class="cls-2" d="M95.59,65.41a40.84,40.84,0,1,1-81.67,0A75.09,75.09,0,0,1,17.4,44.84,102,102,0,0,1,29.08,19.12C36.09,8.33,45,.43,54.76.43c12.1,0,23,12.21,30.44,27A106.32,106.32,0,0,1,93,48,70.16,70.16,0,0,1,95.59,65.41Z"/><path class="cls-3" d="M68.09,49.05c-2.91-.47-6.37-.15-8.1,2.25a7.33,7.33,0,0,0-.89,5.57A14.59,14.59,0,0,0,70.8,68.46c4.09.67,9.94-1.35,10.22-6.25.25-4.27-2.75-8.53-6.2-10.69A18.4,18.4,0,0,0,68.09,49.05Z"/><path class="cls-3" d="M32.83,42.41c-1.67,3.25-4.62,6.31-8.28,6.37a9.21,9.21,0,0,1-6.73-3.43q-.22-.26-.42-.51A102,102,0,0,1,29.08,19.12a10.77,10.77,0,0,1,2.49,1.93,15,15,0,0,1,3.59,8.58A22.54,22.54,0,0,1,32.83,42.41Z"/><path class="cls-3" d="M44.78,33.92c1,3.63,3.54,7.39,7.29,7.67a9,9,0,0,0,4.16-.88A20.63,20.63,0,0,0,67.3,29.31c2.3-5.91,2.15-19.37-5.76-21.52C54.29,5.82,47.36,15.3,45.35,21A21.9,21.9,0,0,0,44.78,33.92Z"/><path class="cls-3" d="M28.89,66.73a15.43,15.43,0,0,0,.59,11,8.29,8.29,0,0,0,4.93,4.64,7.59,7.59,0,0,0,3.32.1,11.62,11.62,0,0,0,7.61-5.26,14.89,14.89,0,0,0,2.11-9.11c-.29-3.69-2.15-7.6-5.62-8.87A9.86,9.86,0,0,0,31.27,62.3,13.37,13.37,0,0,0,28.89,66.73Z"/><path class="cls-3" d="M93,48a10.38,10.38,0,0,1-2.38.72,7.44,7.44,0,0,1-3.32-.1,8.19,8.19,0,0,1-4.92-4.64,15.4,15.4,0,0,1-.6-11,13.37,13.37,0,0,1,2.38-4.43,9.64,9.64,0,0,1,1-1.07A106.32,106.32,0,0,1,93,48Z"/><path class="cls-4" d="M102.85,79.51c0,.54-1.4,9.58-4,15.19a10.73,10.73,0,0,1-2.45,3.66c-4.12,3.48-5.28,1.11-5.28,1.11s-4.61,8-12.36,9-6.09-2-6.09-2-4.45,3.94-12.36,3.94H49.18c-7.91,0-12.36-3.94-12.36-3.94s1.65,3-6.1,2-12.35-9-12.35-9-1.16,2.37-5.28-1.11C11,96.61,9.39,92,8.3,87.77a66.43,66.43,0,0,1-1.63-8.26l6.75-5.19,15.21,2,1.73.23,10,1.34,2.95.4,11.46,1.54,1.72-.23,1-.14,12.29-1.65,4.89-.66,7.66-1,3.21-.43L96.1,74.32Z"/><path class="cls-5" d="M102.85,79.51c0,.54-1.4,9.58-4,15.19l-.53-.13a12.14,12.14,0,0,1-7.07-5.41,14,14,0,0,1-3.63,7.74,5.26,5.26,0,0,1-2.15,1.53,4.42,4.42,0,0,1-4.17-1.13,13.28,13.28,0,0,1-2.59-3.69,15.26,15.26,0,0,1-2.89,4.83A5.17,5.17,0,0,1,70.71,100c-2.42-.84-3.31-3.71-3.84-6.24-.53,5.41-4.78,9.62-9.94,9.62s-9.4-4.21-9.93-9.62c-.53,2.53-1.42,5.4-3.84,6.24A5.2,5.2,0,0,1,38,98.44a15.42,15.42,0,0,1-2.88-4.83,13.28,13.28,0,0,1-2.59,3.69,4.44,4.44,0,0,1-4.17,1.13,5.29,5.29,0,0,1-2.16-1.53,14.12,14.12,0,0,1-3.63-7.74,12.12,12.12,0,0,1-7.06,5.41,3.31,3.31,0,0,1-2.66-.11,3.42,3.42,0,0,1-1.12-1.52,12.55,12.55,0,0,1-.92-6.87,10.94,10.94,0,0,1-2.52,1.7,66.43,66.43,0,0,1-1.63-8.26l6.75-5.19,15.21,2a6.53,6.53,0,0,1,.34,1,8.27,8.27,0,0,1,1.39-.77l10,1.34a11.55,11.55,0,0,1,1.72,1.56,5.46,5.46,0,0,1,1.23-1.16l11.46,1.54,1.72-.23.45.62c.19-.26.37-.52.57-.76l12.29-1.65a6.29,6.29,0,0,1,2,1.64,11.4,11.4,0,0,1,2.88-2.3l7.66-1a8.9,8.9,0,0,1,2.56,1.2,7.21,7.21,0,0,1,.65-1.63L96.1,74.32Z"/><path class="cls-6" d="M107.27,67.87a37.24,37.24,0,0,0-11.79-6,8.87,8.87,0,0,1,.42,3.58,4.62,4.62,0,0,0-3.72,4.3A8.19,8.19,0,0,0,81.61,75c-4.07-2.76-9.45-1.43-12.57,2-1.37-1.8-4.32-2.7-6.5-2.94l-.27,0a7.84,7.84,0,0,0-5.74,1.68,11.1,11.1,0,0,0-1.77,2,11.1,11.1,0,0,0-1.77-2A7.84,7.84,0,0,0,47.25,74l-.27,0c-2.18.24-5.13,1.14-6.5,2.94-3.12-3.48-8.5-4.81-12.58-2a8.17,8.17,0,0,0-10.56-5.24,4.62,4.62,0,0,0-3.72-4.3A8.69,8.69,0,0,1,14,61.83a37.24,37.24,0,0,0-11.79,6c-1,.73-2,1.73-1.79,2.92.26,1.69,2.5,2,4.2,2C2.44,76,.84,79.91,1.54,83.76a2.83,2.83,0,0,0,.78,1.69,2.91,2.91,0,0,0,2.18.49,10.28,10.28,0,0,0,6-2.62,12.06,12.06,0,0,0,.9,6.6,3.13,3.13,0,0,0,1.07,1.45,3.18,3.18,0,0,0,2.55.12,11.68,11.68,0,0,0,6.79-5.2,13.52,13.52,0,0,0,3.48,7.43,5.18,5.18,0,0,0,2.07,1.47,4.24,4.24,0,0,0,4-1.09,12.5,12.5,0,0,0,2.49-3.54,14.53,14.53,0,0,0,2.77,4.64,5,5,0,0,0,4.94,1.47c2.32-.81,3.18-3.57,3.69-6,.5,5.19,4.58,9.23,9.54,9.23s9-4,9.54-9.23c.51,2.42,1.36,5.18,3.69,6a5,5,0,0,0,4.94-1.47,14.53,14.53,0,0,0,2.77-4.64,12.31,12.31,0,0,0,2.49,3.54,4.23,4.23,0,0,0,4,1.09,5.15,5.15,0,0,0,2.08-1.47,13.52,13.52,0,0,0,3.48-7.43,11.65,11.65,0,0,0,6.79,5.2,2.54,2.54,0,0,0,3.62-1.57,12.06,12.06,0,0,0,.89-6.6,10.34,10.34,0,0,0,6,2.62,2.32,2.32,0,0,0,3-2.18c.7-3.85-.9-7.77-3.12-11,1.7.06,3.94-.29,4.2-2C109.25,69.6,108.23,68.6,107.27,67.87Z"/><path class="cls-7" d="M9.85,66.05a4,4,0,0,1,3.77-.64"/><path class="cls-7" d="M95.9,65.41a5.4,5.4,0,0,1,3,.42"/><path class="cls-8" d="M75,40.31l2.62,0"/><path class="cls-8" d="M75.93,38.18a3.48,3.48,0,0,0,2,.07"/><path class="cls-8" d="M76.33,36.23l2.21-.37"/><path class="cls-8" d="M77.09,33.62a1.94,1.94,0,0,0,1.62-.43"/><path class="cls-8" d="M77.37,32a1.94,1.94,0,0,0,1.45-.26"/><path class="cls-8" d="M77.51,30.11A3.23,3.23,0,0,0,79,29.67"/><path class="cls-8" d="M77.94,28.5l1-.58"/><path class="cls-8" d="M77.65,26.75l1.18-.69"/><path class="cls-8" d="M77.36,24.73a1.65,1.65,0,0,0,1-.41"/><path class="cls-8" d="M77.07,23.43l1-.58"/><path class="cls-8" d="M76.78,21.83l.73-.29"/><path class="cls-8" d="M76.2,20.53l.88-.43"/><path class="cls-8" d="M75.63,19.38l1-.59"/><path class="cls-8" d="M75.35,18.09l.72-.28"/><path class="cls-8" d="M74.18,16.5l.72-.15"/><path class="cls-8" d="M86.93,52.56a7.52,7.52,0,0,0,3.48-1"/><path class="cls-8" d="M88.09,54.26a11.8,11.8,0,0,0,3.19-.82"/><path class="cls-8" d="M89.54,55.18a3.71,3.71,0,0,0,1.74-.3"/><path class="cls-8" d="M89.69,56.63,91.56,56"/><path class="cls-8" d="M90,57.79a6.43,6.43,0,0,1,1.74-.31"/><path class="cls-8" d="M90.56,59a1.8,1.8,0,0,1,1.33-.09"/><path class="cls-8" d="M90.56,60.12a3,3,0,0,1,1.46.1"/><path class="cls-8" d="M90.86,61.48c.17.15.43,0,.66,0s.45.35.22.4"/><path class="cls-8" d="M90.85,63.29h.87"/><path class="cls-8" d="M90.57,64.62l.58-.28"/><path class="cls-8" d="M53.3,54.31a10.8,10.8,0,0,0,2.47-.26"/><path class="cls-8" d="M53.44,56l1.61-.16"/><path class="cls-8" d="M53.74,57.52a4.22,4.22,0,0,0,2-.78"/><path class="cls-8" d="M54.32,59.24l1.73-.73"/><path class="cls-8" d="M54.89,60.4a2.79,2.79,0,0,0,1.58-.33"/><path class="cls-8" d="M55.91,62a12.29,12.29,0,0,0,1.9-.38"/><path class="cls-8" d="M56.92,63.44A3.2,3.2,0,0,0,58.66,63"/><path class="cls-8" d="M57.5,65.18l1.6-.44"/><path class="cls-8" d="M58.52,66.76l1.3-.29"/><path class="cls-8" d="M59.25,68l1.31-.43"/><path class="cls-8" d="M60.4,68.94a3,3,0,0,0,1.32-.56"/><path class="cls-8" d="M61.42,70.26l1.31-.58"/><path class="cls-8" d="M62.87,71c.19-.1.38-.2.58-.29"/><path class="cls-8" d="M40,17.51a7.42,7.42,0,0,0,2.18.54"/><path class="cls-8" d="M39.53,19.5l1.88.18"/><path class="cls-8" d="M39.09,21.56a3.5,3.5,0,0,0,1.73,0"/><path class="cls-8" d="M39.09,24l1.6-.15"/><path class="cls-8" d="M39.38,25.89a2.23,2.23,0,0,0,1.17-.14"/><path class="cls-8" d="M39.67,27.65a2.08,2.08,0,0,0,1.3-.18"/><path class="cls-8" d="M40,29.51a2,2,0,0,0,1.46-.42"/><path class="cls-8" d="M40.55,31l1-.28"/><path class="cls-8" d="M40.83,32.69,42,32.38"/><path class="cls-8" d="M41.27,34.16a1.44,1.44,0,0,0,1-.29"/><path class="cls-8" d="M41.41,36.18a2.32,2.32,0,0,0,1-.23"/><path class="cls-8" d="M42,37.94l.87-.27"/><path class="cls-8" d="M42.28,40h.87"/><path class="cls-8" d="M42.86,41.55l.87-.29"/><path class="cls-8" d="M43.15,43l.73-.29"/><path class="cls-8" d="M23.31,67.31l2.45.91"/><path class="cls-8" d="M24.45,66.49a4.83,4.83,0,0,1,1.74.13"/><path class="cls-8" d="M24.91,64.83a4.34,4.34,0,0,0,1.42.3"/><path class="cls-8" d="M25.47,63.15a3.49,3.49,0,0,0,1.44.59"/><path class="cls-8" d="M26.2,61.82a3.59,3.59,0,0,1,1.29.47"/><path class="cls-8" d="M27.36,60.23a3,3,0,0,1,1.44.61"/><path class="cls-8" d="M28.66,59l1.17.85"/><path class="cls-8" d="M30.13,58.06a2,2,0,0,0,1.12.79"/><path class="cls-8" d="M31.56,57.2a3.68,3.68,0,0,0,1,.89"/><path class="cls-8" d="M33.14,56.21l.86.87"/><path class="cls-8" d="M34.9,55.46l.58.58"/><path class="cls-8" d="M36.62,54.74a.87.87,0,0,0,.46.84"/><path class="cls-8" d="M39,53.72a1.68,1.68,0,0,0,.57.74"/><path class="cls-8" d="M40.83,53.31a.84.84,0,0,1,.45.71"/><path class="cls-8" d="M18.65,51.12a8.46,8.46,0,0,1,.6,2.31"/><path class="cls-8" d="M20,51.51c.43.68.82,1.38,1.19,2.1"/><path class="cls-8" d="M21.85,51.69a5.47,5.47,0,0,0,1.28,1.62"/><path class="cls-8" d="M23.73,51.55a4.19,4.19,0,0,0,1.58.92"/><path class="cls-8" d="M25.61,51.27l1.44.61"/><path class="cls-8" d="M27.35,50.69l1.59.45c.34.09,1.31-.07,1.6.12"/><path class="cls-8" d="M44.51,9.14a5,5,0,0,1,1.66,1.69"/><path class="cls-8" d="M46.08,8.3a4.84,4.84,0,0,1,1.25,1.09"/><path class="cls-8" d="M48,7.57l1.2,1"/><path class="cls-8" d="M49.11,6.6a3.43,3.43,0,0,0,1.57.78"/><path class="cls-8" d="M50.68,5.76l.86.59"/><path class="cls-8" d="M51.71,5l.72.58"/><path class="cls-8" d="M53.59,4.58l.87.73"/><path class="cls-8" d="M56.5,4.89a.94.94,0,0,1,.75.07"/><path class="cls-8" d="M3.54,81.49a4,4,0,0,0,.59,2.12"/><path class="cls-8" d="M4.66,81.71l.71,1.38"/><path class="cls-8" d="M6,81.26a5.35,5.35,0,0,0,.88,1.34"/><path class="cls-8" d="M7.17,80.67a2.5,2.5,0,0,0,1.1,1.15"/><path class="cls-8" d="M8.61,80.23a3.76,3.76,0,0,0,1.32,1"/><path class="cls-8" d="M10,79.22c.39.29.77.59,1.15.89"/><path class="cls-8" d="M11.26,78.44a3.87,3.87,0,0,0,1,.52"/><path class="cls-8" d="M12.35,77.5l.94.44"/><path class="cls-8" d="M13.08,76.55a1.17,1.17,0,0,0,.79.4"/><path class="cls-8" d="M14.23,75.4a1.06,1.06,0,0,1,.58.14"/><path class="cls-8" d="M14.88,74.24a.62.62,0,0,0,.58.14"/><path class="cls-8" d="M2.53,69.45l.1,1.38"/><path class="cls-8" d="M3.27,69.82c.08.39.15.77.22,1.16"/><path class="cls-8" d="M4.08,69.82c.18.43.35.87.52,1.3"/><path class="cls-8" d="M5.26,70a2.29,2.29,0,0,1,.55.89"/><path class="cls-8" d="M6.5,69.87a5.1,5.1,0,0,1,.62.61"/><path class="cls-8" d="M7.57,69.6l.73.71"/><path class="cls-8" d="M8.8,69.24a2.1,2.1,0,0,0,.58.57"/><path class="cls-8" d="M9.76,68.87a.81.81,0,0,0,.62.42"/><path class="cls-8" d="M10.9,68.37l.43.29"/><path class="cls-8" d="M13.08,86.85a6.8,6.8,0,0,0,.75,2"/><path class="cls-8" d="M14.53,86.85a10.34,10.34,0,0,0,.92,1.53"/><path class="cls-8" d="M15.69,86.56a6.88,6.88,0,0,0,.93,1.09"/><path class="cls-8" d="M16.92,85.76l1.14,1"/><path class="cls-8" d="M18.37,84.81l.93.67"/><path class="cls-8" d="M19.31,84l.94.59"/><path class="cls-8" d="M20.61,83l.95.43"/><path class="cls-8" d="M21.34,82.13a2.35,2.35,0,0,1,.72.24"/><path class="cls-8" d="M21.84,81l.73.16"/><path class="cls-8" d="M22.42,79.68l.58.14"/><path class="cls-8" d="M23.37,78.3l.5.22"/><path class="cls-8" d="M24,77a.21.21,0,0,0,.29,0"/><path class="cls-8" d="M26.47,90.05a6.07,6.07,0,0,0,1.82,2"/><path class="cls-8" d="M28.21,90c.06-.1.22,0,.31.06.4.4.72,1,1.29,1"/><path class="cls-8" d="M29.6,89.31l1.44.75"/><path class="cls-8" d="M31.13,88.42a9,9,0,0,1,1.43.69"/><path class="cls-8" d="M32.28,87.63a2.29,2.29,0,0,1,1.16.38"/><path class="cls-8" d="M32.86,86.56a2,2,0,0,1,1.08.3"/><path class="cls-8" d="M33.8,85.15A3.22,3.22,0,0,1,35,85.4"/><path class="cls-8" d="M34.82,83.63a2.75,2.75,0,0,1,.94.18"/><path class="cls-8" d="M35.4,82.21a1.35,1.35,0,0,1,.79.15"/><path class="cls-8" d="M36,81a2.4,2.4,0,0,1,.94.29"/><path class="cls-8" d="M36.56,79.89l.87.29"/><path class="cls-8" d="M37,78.51a1.61,1.61,0,0,1,.58.3"/><path class="cls-8" d="M27.92,80.92a10,10,0,0,1,1,1.2"/><path class="cls-8" d="M28,79.72a11,11,0,0,1,2.23,2"/><path class="cls-8" d="M29.39,79.08l1.47,1.58"/><path class="cls-8" d="M30.47,78.88l.72.66"/><path class="cls-8" d="M31.19,78.37a2.62,2.62,0,0,1,.66.44"/><path class="cls-8" d="M32.07,77.79a.67.67,0,0,0,.5.36"/><path class="cls-8" d="M32.93,77.07l.36.22"/><path class="cls-8" d="M18.51,75.11a5.94,5.94,0,0,1,.94.8"/><path class="cls-8" d="M19.09,74.53a1.92,1.92,0,0,1,.8.58"/><path class="cls-8" d="M19.48,73.18a5.8,5.8,0,0,1,1.34,1.5"/><path class="cls-8" d="M20.28,72.9a4.55,4.55,0,0,1,1,1"/><path class="cls-8" d="M21.33,72.8a6,6,0,0,1,.82.77"/><path class="cls-8" d="M22.27,72.79a1.77,1.77,0,0,0,.59.5"/><path class="cls-8" d="M10.83,71.7l.72.66"/><path class="cls-8" d="M11.7,71.34l.65.43"/><path class="cls-8" d="M12.42,70.76l.73.5"/><path class="cls-8" d="M13.08,70.32l.58.43"/><path class="cls-8" d="M14,69.67l.57.37"/><path class="cls-8" d="M37.25,91.33a4.6,4.6,0,0,1,.32,1.75"/><path class="cls-8" d="M38.45,91.71c.19.61.42,1.21.67,1.8"/><path class="cls-8" d="M39.77,91.84c.23.51.46,1,.7,1.54"/><path class="cls-8" d="M40.92,91.56l.93,1.32s.07.09.12.07,0-.11,0-.06"/><path class="cls-8" d="M41.65,91l1.2.84,0-.23"/><path class="cls-8" d="M42.58,90.17l.91.41s.09,0,.13,0,0-.1,0-.07"/><path class="cls-8" d="M43.37,89l1,.22"/><path class="cls-8" d="M44,87.34l.58.22"/><path class="cls-8" d="M44.09,86a1.41,1.41,0,0,1,.94.18"/><path class="cls-8" d="M44.61,84.37l.72.22"/><path class="cls-8" d="M44.89,83.22l.58.09"/><path class="cls-8" d="M45,82l.57.16"/><path class="cls-8" d="M45,80.9a1.25,1.25,0,0,1,.57.16"/><path class="cls-8" d="M45,79.89a.53.53,0,0,0,.43.15"/><path class="cls-8" d="M45.18,78.73l.44.13"/><path class="cls-8" d="M50.16,94a7.41,7.41,0,0,1,.5,2.55"/><path class="cls-8" d="M51.65,95a5,5,0,0,0,.72,1.73"/><path class="cls-8" d="M52.61,94.63a15.44,15.44,0,0,1,.94,2.07"/><path class="cls-8" d="M53.6,94.82a11.7,11.7,0,0,0,1.21,2"/><path class="cls-8" d="M55.34,94.67c.43.51.88,1,1.34,1.49"/><path class="cls-8" d="M56.42,93.8A20.06,20.06,0,0,1,58.25,95"/><path class="cls-8" d="M57.75,92.6l1.84,1.17"/><path class="cls-8" d="M58.91,91.67l1.64,1.19"/><path class="cls-8" d="M60,90.76a5.92,5.92,0,0,1,1.37.44"/><path class="cls-8" d="M60.84,89.12a5,5,0,0,1,1.43.31"/><path class="cls-8" d="M61.92,87.34a2.86,2.86,0,0,1,1.3.07"/><path class="cls-8" d="M62.36,85.83a2.47,2.47,0,0,1,1.23.16"/><path class="cls-8" d="M62.58,84.39l.87.07"/><path class="cls-8" d="M62.72,82.93a1.51,1.51,0,0,1,.73-.06"/><path class="cls-8" d="M62.65,81.63h.65"/><path class="cls-8" d="M62.65,80.42l.8.07"/><path class="cls-8" d="M63.09,78.73l.58.15"/><path class="cls-8" d="M48.88,77a8,8,0,0,1,1.74-.47"/><path class="cls-8" d="M49.6,77.72l1.67-.19"/><path class="cls-8" d="M50.62,78.38a5.19,5.19,0,0,0,1.51-.25"/><path class="cls-8" d="M51.34,79.1l1.38-.16"/><path class="cls-8" d="M51.92,80h.95"/><path class="cls-8" d="M52.21,81.13a1.78,1.78,0,0,1,.73.06"/><path class="cls-8" d="M52.79,82l.59.14"/><path class="cls-8" d="M53.08,83l.58.15"/><path class="cls-8" d="M67.33,93.18a5.62,5.62,0,0,1,1.31,1.44"/><path class="cls-8" d="M68.59,92.87a5.68,5.68,0,0,0,1.25.92"/><path class="cls-8" d="M69.76,92.28a7.45,7.45,0,0,0,1.51,1.24"/><path class="cls-8" d="M71,91.93a2.22,2.22,0,0,1,1.22.51"/><path class="cls-8" d="M71.86,90.76a1.88,1.88,0,0,1,1.15.3"/><path class="cls-8" d="M72.65,89.39a3.69,3.69,0,0,1,1.09.21"/><path class="cls-8" d="M73.44,88.06a1.73,1.73,0,0,1,1.1.1"/><path class="cls-8" d="M73.81,86.56h.73"/><path class="cls-8" d="M73.74,84.89a1.58,1.58,0,0,1,.86.16"/><path class="cls-8" d="M73.89,83.74a1.45,1.45,0,0,1,.65.07"/><path class="cls-8" d="M73.88,82.41a1.77,1.77,0,0,1,.65,0"/><path class="cls-8" d="M73.81,80.9a1.63,1.63,0,0,0,.73-.05"/><path class="cls-8" d="M73.89,80h.36"/><path class="cls-8" d="M73.6,78.81h.5"/><path class="cls-8" d="M66,78.65,67.51,78"/><path class="cls-8" d="M66.72,79.19a7.3,7.3,0,0,0,1.07-.4"/><path class="cls-8" d="M67.14,80l1.3-.38"/><path class="cls-8" d="M67.8,80.55l1,.07"/><path class="cls-8" d="M68.23,81.63a3.17,3.17,0,0,1,.87.14"/><path class="cls-8" d="M68.52,83.15l.8.15"/><path class="cls-8" d="M68.88,84.39h.8"/><path class="cls-8" d="M69.25,85.47l.65-.14"/><path class="cls-8" d="M76,76.59l2.15-.71"/><path class="cls-8" d="M76.94,77.52a14.45,14.45,0,0,1,2-.69"/><path class="cls-8" d="M78.09,78a3.15,3.15,0,0,0,1.73-.33"/><path class="cls-8" d="M78.89,78.81l1.23-.08"/><path class="cls-8" d="M79.47,79.75l.79-.07"/><path class="cls-8" d="M79.61,80.62l.58.07"/><path class="cls-8" d="M79.68,81.7h.44"/><path class="cls-8" d="M79.9,82.58a.74.74,0,0,1,.44.06"/><path class="cls-8" d="M80.05,83.23l.36-.08"/><path class="cls-8" d="M79.74,91.43l1.1,1.87"/><path class="cls-8" d="M80.49,90.42c.6.34.83,1.15,1.47,1.39"/><path class="cls-8" d="M81.66,90.17l1.43,1.32"/><path class="cls-8" d="M82.36,89.46c.2-.14.47,0,.66.16l1.08.79"/><path class="cls-8" d="M83,88.37a3,3,0,0,1,2,.8"/><path class="cls-8" d="M84,87.33l1.44.23"/><path class="cls-8" d="M84.69,85.84a2.89,2.89,0,0,1,1.23-.22"/><path class="cls-8" d="M84.9,84.75l1.45-.3"/><path class="cls-8" d="M85.19,83.36a2.26,2.26,0,0,0,1-.55"/><path class="cls-8" d="M84.75,81.92a6.15,6.15,0,0,0,.76-.85"/><path class="cls-8" d="M84.39,80.9a1.32,1.32,0,0,0,.39-.71"/><path class="cls-8" d="M83.87,79.79a1,1,0,0,0,.57-.69"/><path class="cls-8" d="M83.37,78.86a.7.7,0,0,0,.49-.56"/><path class="cls-8" d="M82.44,77.47a.82.82,0,0,0,.68-.46"/><path class="cls-8" d="M83.57,74.34a7.68,7.68,0,0,0,.84-1.54"/><path class="cls-8" d="M84.51,74.51l1.2-1.71"/><path class="cls-8" d="M85.87,74.12a10.32,10.32,0,0,0,1-1.34"/><path class="cls-8" d="M87.16,74a6.6,6.6,0,0,1,1.14-1.1"/><path class="cls-8" d="M88.23,74.3l1-.92"/><path class="cls-8" d="M89.33,74.46l.92-.89"/><path class="cls-8" d="M89.91,75l1.15-.88"/><path class="cls-8" d="M90.77,75.47l.94-.66"/><path class="cls-8" d="M91.49,76.19a2,2,0,0,0,.82-.71"/><path class="cls-8" d="M93.82,88.18a8.43,8.43,0,0,0,1.81,0"/><path class="cls-8" d="M94.54,87.08c-.07-.13.17-.18.31-.14a2.11,2.11,0,0,0,1.38-.11"/><path class="cls-8" d="M95.05,85.62l1.24-.19"/><path class="cls-8" d="M95.1,84.05l1.2-.46c.11,0,.24-.12.2-.23"/><path class="cls-8" d="M95.7,82a10.54,10.54,0,0,0,1.46-.41"/><path class="cls-8" d="M95.91,80.66a1.6,1.6,0,0,0,.84-.67"/><path class="cls-8" d="M95.62,79.31a2.57,2.57,0,0,0,.75-1"/><path class="cls-8" d="M95.12,77.93A2.52,2.52,0,0,0,95.8,77"/><path class="cls-8" d="M94.61,76.19a2.23,2.23,0,0,0,.46-.71"/><path class="cls-8" d="M93.89,74.89a.56.56,0,0,0,.44-.36"/><path class="cls-8" d="M93.62,73.87c0,.06.12-.07,0-.08"/><path class="cls-8" d="M99.39,81a5,5,0,0,0,1.33-1.27"/><path class="cls-8" d="M100.66,81.57a4.52,4.52,0,0,1,1-1.3"/><path class="cls-8" d="M101.74,81.79l.54-1"/><path class="cls-8" d="M102.61,82.37c.25-.44.51-.88.76-1.33"/><path class="cls-8" d="M104.39,82.72l.39-1.45"/><path class="cls-8" d="M105.28,80.32l1.3,1.53"/><path class="cls-8" d="M105.12,79.2l1.1-.22"/><path class="cls-8" d="M104,78.06l.74-.56"/><path class="cls-8" d="M103.37,77.05l.6-.78"/><path class="cls-8" d="M102.51,76.19a5.13,5.13,0,0,0,.74-.93"/><path class="cls-8" d="M102.21,74.8a1.73,1.73,0,0,0,.69-1.06"/><path class="cls-8" d="M101.71,73.34a.65.65,0,0,0,.46-.62"/><path class="cls-8" d="M100.91,72.47a1,1,0,0,0,.77-.84"/><path class="cls-8" d="M100,71.46a.91.91,0,0,0,.43-.62"/><path class="cls-8" d="M99,70.54a2,2,0,0,0,.6-.57"/><path class="cls-8" d="M97.59,69.53a2.58,2.58,0,0,1,.58-.65"/><path class="cls-8" d="M97.08,68.51l.43-.29"/><path class="cls-8" d="M101.36,67.79a5.73,5.73,0,0,0,1-1"/><path class="cls-8" d="M102.36,68.29l1-1"/><path class="cls-8" d="M103.53,68.59l.65-.51"/><path class="cls-8" d="M104.26,68.81l.85-.61"/><path class="cls-8" d="M104.84,69.24a3.21,3.21,0,0,1,.86-.59"/><path class="cls-8" d="M105.63,69.67l.51-.21"/><path class="cls-8" d="M106.5,70.33H107"/><path class="cls-8" d="M23.33,45.92a.31.31,0,0,1,.14-.29,3.81,3.81,0,0,0,2.82.8"/><path class="cls-8" d="M24.85,44.19l3,.7"/><path class="cls-8" d="M26.48,43.22l2.72.45"/><path class="cls-8" d="M27.47,42a5.57,5.57,0,0,0,2.4-.19"/><path class="cls-8" d="M28.66,40.83a6,6,0,0,0,1.85-.54"/><path class="cls-8" d="M29.09,39.3a2.19,2.19,0,0,0,1.31-.54"/><path class="cls-8" d="M29.52,37.88a5.13,5.13,0,0,0,1.24-.82"/><path class="cls-8" d="M29.64,36.05l1.2-.65"/><path class="cls-8" d="M49.55,36.11l3.37,1.53"/><path class="cls-8" d="M52.59,35.36a8.29,8.29,0,0,0,3.68.68"/><path class="cls-8" d="M54.85,34.32a14.44,14.44,0,0,0,3,.53"/><path class="cls-8" d="M56.84,33.15a4.9,4.9,0,0,0,2.71.13"/><path class="cls-8" d="M58.56,31.81a3.91,3.91,0,0,0,1.85-.55"/><path class="cls-8" d="M59.32,30.17A5.73,5.73,0,0,0,61,29.52"/><path class="cls-8" d="M60.08,28.42a1.65,1.65,0,0,0,1.1-.41"/><path class="cls-8" d="M61,27l.76-.43"/><path class="cls-8" d="M61.27,25.05a.9.9,0,0,0,.46-.75"/><path class="cls-8" d="M61.49,22.34l1-.76"/><path class="cls-8" d="M88.13,45.71a11.7,11.7,0,0,0,2.29-.07"/><path class="cls-8" d="M88.55,44.49l1.1-.51"/><path class="cls-8" d="M88.35,42.89l1-.43"/><path class="cls-8" d="M88,41.69a2.77,2.77,0,0,0,1-.43"/><path class="cls-8" d="M88.13,40.5l.54-.33"/><path class="cls-8" d="M87.8,39a2.16,2.16,0,0,0,.67-.53"/><path class="cls-8" d="M87.58,37.67a2.53,2.53,0,0,0,.78-.41"/><path class="cls-8" d="M69.28,54.14a11.7,11.7,0,0,1,3.63-1.47"/><path class="cls-8" d="M71.37,54.72a4.63,4.63,0,0,1,2.52-1"/><path class="cls-8" d="M72.58,55.5,75,54.6"/><path class="cls-8" d="M73.78,56.48a7.57,7.57,0,0,1,1.73-.55"/><path class="cls-8" d="M74.65,57.47A3.44,3.44,0,0,1,76,57.2"/><path class="cls-8" d="M75.19,58.77a4.06,4.06,0,0,1,1.2-.24"/><path class="cls-8" d="M76.06,59.85l1-.11"/><path class="cls-8" d="M76.49,61.16l.44.43"/><path class="cls-8" d="M76.71,62.9c.07.29.15.58.22.87"/><path class="cls-8" d="M38.88,64.1a9.86,9.86,0,0,1,3.7-.94"/><path class="cls-8" d="M40.62,65a9,9,0,0,1,2.07-.09"/><path class="cls-8" d="M41.17,66.4A5.62,5.62,0,0,1,43.66,66"/><path class="cls-8" d="M42,68a5.57,5.57,0,0,1,1.72-.68"/><path class="cls-8" d="M42.57,69l1.31-.21"/><path class="cls-8" d="M42.79,70.29l1.09-.22"/><path class="cls-8" d="M43,71.48l.87-.21"/><path class="cls-8" d="M43,72.57l.65-.11"/><path class="cls-8" d="M20,95.11a5.44,5.44,0,0,0,2-.12"/><path class="cls-8" d="M20.51,96.51l1.63-.33"/><path class="cls-8" d="M21.48,97.58l1.3-.23"/><path class="cls-8" d="M22.24,98.46,23.77,98"/><path class="cls-8" d="M22.9,99.52a2.56,2.56,0,0,0,1.61-.23"/><path class="cls-8" d="M24,100.84l1.41-.33"/><path class="cls-8" d="M24.74,102.14l1.52-.32"/><path class="cls-8" d="M25.94,103.12l1.63-.54"/><path class="cls-8" d="M27.24,103.88l1.42-.43"/><path class="cls-8" d="M28.55,104.75A10.27,10.27,0,0,0,30.3,104"/><path class="cls-8" d="M30.61,105.08a4.35,4.35,0,0,0,1.21-.42"/><path class="cls-8" d="M32.66,100.26l2.22-1"/><path class="cls-8" d="M33.77,101.62a3.93,3.93,0,0,0,1.95-1"/><path class="cls-8" d="M35.18,102a7.92,7.92,0,0,0,1.52-.88"/><path class="cls-8" d="M36.48,102.47l1.2-.65"/><path class="cls-8" d="M37.9,102.8l1.3-.66"/><path class="cls-8" d="M38.66,103.66l1.73-.87"/><path class="cls-8" d="M40.62,103.89l1.63-.64"/><path class="cls-8" d="M42.36,105l1-.54"/><path class="cls-8" d="M43.76,105.72l1.3-1.2"/><path class="cls-8" d="M46,102.18l1.62-.57"/><path class="cls-8" d="M47.7,103.48l1.08-.45"/><path class="cls-8" d="M48.35,104.68a4.93,4.93,0,0,0,1.39-.8"/><path class="cls-8" d="M49.31,105.41a4.53,4.53,0,0,0,1.63-.88"/><path class="cls-8" d="M51.05,105.84l1.42-.87"/><path class="cls-8" d="M53,106a1.21,1.21,0,0,0,1.06-.6"/><path class="cls-8" d="M58.41,105.81a.72.72,0,0,1,.5,0l2,.66"/><path class="cls-8" d="M60.3,104.85a20.17,20.17,0,0,0,2.37.72"/><path class="cls-8" d="M61.71,104.09a12,12,0,0,0,2.82.8"/><path class="cls-8" d="M63.56,103.55a11.19,11.19,0,0,0,2.6.8"/><path class="cls-8" d="M65.3,102.57a14.34,14.34,0,0,0,2.82.69"/><path class="cls-8" d="M66.6,101.41a4.22,4.22,0,0,1,2.09.47"/><path class="cls-8" d="M72.35,103.15a14.6,14.6,0,0,0,2.84,1.16"/><path class="cls-8" d="M74.21,102.37a8.48,8.48,0,0,1,2.4.85"/><path class="cls-8" d="M75.73,101.93l2.41.82"/><path class="cls-8" d="M77,101l1.74.33"/><path class="cls-8" d="M78,99.62a1.74,1.74,0,0,0,1.32-.17"/><path class="cls-8" d="M78.67,98.12l.87-.11"/><path class="cls-8" d="M81,102.9l2.39.26"/><path class="cls-8" d="M83.24,101.44h1.19"/><path class="cls-8" d="M84.32,100.29a2.7,2.7,0,0,0,1.2-.09"/><path class="cls-8" d="M86.06,98.78a2.67,2.67,0,0,0,1.09.1"/><path class="cls-8" d="M87.83,97.56a.61.61,0,0,0,.74.26"/><path class="cls-8" d="M89.31,96.73l.44.31"/><path class="cls-8" d="M90.3,96.26l1.09.11c.42,0,.76-.47,1.11-.72"/><path class="cls-8" d="M92.15,94.2a2.41,2.41,0,0,0,1.1-.07"/><path class="cls-8" d="M92.69,92.79A3.14,3.14,0,0,0,94,92.5"/><path class="cls-9" d="M44.46,16.89C41.53,20.36,37.73,22,36,20.5s-.8-5.49,2.13-9,6.73-5.08,8.48-3.61S47.39,13.42,44.46,16.89Z"/></g></g></svg>