<svg xmlns="http://www.w3.org/2000/svg" viewBox="0 0 90.92 110.69"><defs><style>.cls-1{isolation:isolate;}.cls-2,.cls-6{fill:#d27528;}.cls-2,.cls-3,.cls-4,.cls-5,.cls-7{stroke:#231f20;stroke-linecap:round;stroke-linejoin:round;}.cls-2,.cls-4,.cls-5{stroke-width:0.87px;}.cls-3{fill:#231f20;stroke-width:0.43px;}.cls-4{fill:#914f22;}.cls-5,.cls-7{fill:none;}.cls-6{opacity:0.3;mix-blend-mode:screen;}.cls-7{stroke-width:0.33px;}</style></defs><g class="cls-1"><g id="Layer_1" data-name="Layer 1"><path class="cls-2" d="M30.27,30.42a1.89,1.89,0,0,1-.76,1.28A2,2,0,0,1,29,32a4,4,0,0,1-2-.14,29.24,29.24,0,0,0-2.95-.48,35.41,35.41,0,0,0-9.36.37,7.87,7.87,0,0,1-3.2.13,1.26,1.26,0,0,1-.58-.28c-.43-.43-.2-1.17.17-1.64a6.31,6.31,0,0,1,3.74-1.86,29.56,29.56,0,0,1,9.38-.44c.37,0,.74.09,1.1.15,1.12.18,2.22.43,3.33.67a2.21,2.21,0,0,1,1.31.72A1.66,1.66,0,0,1,30.27,30.42Z"/><path class="cls-3" d="M29.94,29.17a13,13,0,0,1-.42,2.48.09.09,0,0,0,0,.05A2,2,0,0,1,29,32a4,4,0,0,1-2-.14,29.24,29.24,0,0,0-2.95-.48,7,7,0,0,1,.65-2.53c.14-.27.34-.64.6-1,1.12.18,2.22.43,3.33.67A2.21,2.21,0,0,1,29.94,29.17Z"/><path class="cls-2" d="M30.46,31.16a1.58,1.58,0,0,1-.79,1.33,2.69,2.69,0,0,1-.48.24c-.33.14-.69.23-1,.34a20.15,20.15,0,0,0-3.27,1.32,35.35,35.35,0,0,0-9.68,8.18A14.46,14.46,0,0,1,12.78,45a2.37,2.37,0,0,1-2.28.48,1.85,1.85,0,0,1-1-1.75,4.52,4.52,0,0,1,.66-2,20.55,20.55,0,0,1,7.43-7.5,38.34,38.34,0,0,1,5.63-2.8c.26-.1.54-.23.82-.35,1.6-.71,3.58-1.62,5.17-1.2a2,2,0,0,1,.6.29A1.34,1.34,0,0,1,30.46,31.16Z"/><path class="cls-3" d="M29.84,30.14a15.2,15.2,0,0,1-.32,1.51c-.1.36-.2.73-.33,1.08-.33.14-.69.23-1,.34a20.15,20.15,0,0,0-3.27,1.32,2.94,2.94,0,0,1-.31-.41,4.15,4.15,0,0,1-.52-1.86,6.37,6.37,0,0,1,0-1.07c1.6-.71,3.58-1.62,5.17-1.2A2,2,0,0,1,29.84,30.14Z"/><path class="cls-2" d="M25.87,31.67a2.85,2.85,0,0,0,.48.87,1.8,1.8,0,0,0,2.92.13A9.71,9.71,0,0,0,30.89,28c.06-.73,0-1.7-.72-2.05a3.39,3.39,0,0,0-3.37.95,4.71,4.71,0,0,0-1.17,3.75A4.29,4.29,0,0,0,25.87,31.67Z"/><path class="cls-4" d="M90,85.07C88.54,92.5,83.46,98.91,77.09,103s-13.92,6.07-21.46,6.76c-3,.27-5.94.36-8.91.44-10,.28-19.6-.6-28.79-5.07C9.35,101,2,93.22.66,83.78a28,28,0,0,1,.53-9.87A36.72,36.72,0,0,1,7.86,59.58c4.53-5.93,10.74-10.32,15.89-15.71a35.81,35.81,0,0,0,6.53-9.17,21.47,21.47,0,0,0,2-6.75,16.48,16.48,0,0,0,0-4c-.37-3-1.57-5.8-2.52-8.67s-1.66-5.93-1-8.87,3-5.71,6-6c4.43-.4,7.39,4,10.63,6.23,4.38,3,7.62-.3,12.47.44A6.9,6.9,0,0,1,63.3,11c.83,2.1.17,4.5-.82,6.54s-2.31,3.94-2.88,6.13a11.55,11.55,0,0,0,.57,7.15A29.38,29.38,0,0,0,65.39,39c1.6,1.87,3.25,3.69,4.93,5.49,4.49,4.85,9.09,9.6,12.84,15C88.3,67,91.79,76.19,90,85.07Z"/><path class="cls-5" d="M42.39,4.26c.25-.07,1.1,1.41,1.27,1.59,1.65,1.81,3,3.9,4.47,5.82a14.92,14.92,0,0,0,5.53,4.71"/><path class="cls-5" d="M40.85,21.14c-.44,8.32-4.57,16-9.43,22.79"/><path class="cls-5" d="M42.67,22.08C43,34,39.06,45.57,35.15,56.82"/><path class="cls-5" d="M50.51,27.56a67.53,67.53,0,0,0,5.25,20.19"/><path class="cls-3" d="M70.32,44.5c-4.72-2.35-11.2-5.41-17.8-8A39.76,39.76,0,0,0,30.28,34.7a21.47,21.47,0,0,0,2-6.75l27.9,2.9A29.38,29.38,0,0,0,65.39,39C67,40.88,68.64,42.7,70.32,44.5Z"/><path class="cls-2" d="M35.54,31.53c-2,.44-6.54,1.19-6.88-2A3.11,3.11,0,0,1,30,26.91a8.13,8.13,0,0,1,2.85-1.22,29.71,29.71,0,0,1,5.52-1.05,43.84,43.84,0,0,1,4.44,0l4,.12a32.62,32.62,0,0,1,11.18,1.83,9.54,9.54,0,0,1,4.63,3.18,3.54,3.54,0,0,1,.67,2,2.16,2.16,0,0,1-1,1.83c-1,.55-2.16.1-3.2-.31A40,40,0,0,0,35.54,31.53Z"/><path class="cls-2" d="M28.79,37.24c-1.41.08-2-1.65-1.92-2.83a4.63,4.63,0,0,1,2.18-3.31,11.53,11.53,0,0,1,3.83-1.44,47.83,47.83,0,0,1,24.9,1c2.48.78,5,1.88,6.49,4a3.63,3.63,0,0,1,.63,3,19.14,19.14,0,0,1-3.54-1.89,25.29,25.29,0,0,0-7.91-2.34C46.55,32.27,39.35,31,32.62,33a4.23,4.23,0,0,0-2.13,1.15,2.32,2.32,0,0,0-.4.7,16.29,16.29,0,0,1-.82,1.92C29.12,37,29.09,37.22,28.79,37.24Z"/><path class="cls-6" d="M31.29,9c.12.58.27,1.16.43,1.74.25.86.93,1.91,1.77,1.59a1.46,1.46,0,0,0,.64-.57c1.18-1.58,2.67-6.15.78-7.8C32.12,1.47,30.91,7.18,31.29,9Z"/><path class="cls-6" d="M4.18,82.68c.34.82.72,1.63,1.14,2.42C6,86.29,7.43,87.65,9,87a2.83,2.83,0,0,0,1.13-1c2-2.57,4-9.54.1-11.49C4.42,71.63,3.14,80.18,4.18,82.68Z"/><path class="cls-7" d="M50.75,9.59a7.92,7.92,0,0,0,1.52-.88"/><path class="cls-7" d="M52.42,9.52l1.74-.94"/><path class="cls-7" d="M54.16,9.66A8.27,8.27,0,0,1,56,8.7"/><path class="cls-7" d="M55.46,9.87a6.1,6.1,0,0,1,1.88-.51"/><path class="cls-7" d="M56.84,10.17l1.44-.3"/><path class="cls-7" d="M57.85,11l1.44-.23"/><path class="cls-7" d="M58.35,12.11,59.87,12"/><path class="cls-7" d="M58.43,13.28a10.15,10.15,0,0,1,1.45.13"/><path class="cls-7" d="M58.21,15.16l1.45-.3"/><path class="cls-7" d="M58.36,16.39l1.3-.36"/><path class="cls-7" d="M58.07,17.77l1.15-.22"/><path class="cls-7" d="M57.56,19.36A10.21,10.21,0,0,0,59,19"/><path class="cls-7" d="M56.83,21a9.13,9.13,0,0,0,1.53-.42"/><path class="cls-7" d="M56.69,22.47l1.15-.31"/><path class="cls-7" d="M57,24.07l.58.07"/><path class="cls-7" d="M38.15,5.49a8,8,0,0,0,2.67-.2"/><path class="cls-7" d="M38.73,6.88a12,12,0,0,1,2.68-.21"/><path class="cls-7" d="M39.82,7.84a19.41,19.41,0,0,0,2.25-.34"/><path class="cls-7" d="M40.83,9.08l2-.15"/><path class="cls-7" d="M41.92,10.45H43.8"/><path class="cls-7" d="M43.08,11.47,45,11.11"/><path class="cls-7" d="M44.16,12.48l1.45-.14"/><path class="cls-7" d="M45.18,13.78l1.3-.21"/><path class="cls-7" d="M45.76,15.09,46.84,15"/><path class="cls-7" d="M46.41,16.25l.94.36"/><path class="cls-7" d="M46.62,17.59l2-.12"/><path class="cls-7" d="M34.31,18.17c.82-.09,1.64-.15,2.47-.18"/><path class="cls-7" d="M35.19,19.35a5.77,5.77,0,0,0,1.66,0"/><path class="cls-7" d="M35.76,20.56l1.23.08"/><path class="cls-7" d="M35.84,21.65h1.08"/><path class="cls-7" d="M35.83,22.84h.8"/><path class="cls-7" d="M35.91,23.63l.65-.14"/><path class="cls-7" d="M47.94,23.07l2.23.49"/><path class="cls-7" d="M49.3,22.25l1.23.15"/><path class="cls-7" d="M50,21.52a.7.7,0,0,0,.65-.13"/><path class="cls-7" d="M50.24,20.59a.68.68,0,0,0,.44.07"/><path class="cls-7" d="M50.39,19.65h.43"/><path class="cls-7" d="M54.59,39.22l1.23.28"/><path class="cls-7" d="M55,40.22a4.23,4.23,0,0,0,1.74.51"/><path class="cls-7" d="M55.31,41.59l2.24.89"/><path class="cls-7" d="M56.25,43.33a4.72,4.72,0,0,0,2,.36"/><path class="cls-7" d="M56.91,44.32a8.09,8.09,0,0,1,1.82.27"/><path class="cls-7" d="M57.41,45.5l1.67.11"/><path class="cls-7" d="M58.14,46.73l1.3.12"/><path class="cls-7" d="M58.86,47.76a2.63,2.63,0,0,1,1,.15"/><path class="cls-7" d="M59.3,49.2a2.66,2.66,0,0,1,1,.24"/><path class="cls-7" d="M59.88,50.57l.72.29"/><path class="cls-7" d="M42.42,36.17l1.75.25"/><path class="cls-7" d="M42.36,37.6c0,.09.08.15.17.18l1.36.4"/><path class="cls-7" d="M42.06,39.29a19.8,19.8,0,0,0,2.18.17"/><path class="cls-7" d="M42.42,40.51l1.46.18"/><path class="cls-7" d="M42,41.74a14.24,14.24,0,0,1,1.6.18"/><path class="cls-7" d="M41.7,43.12a5.21,5.21,0,0,1,1.31,0"/><path class="cls-7" d="M41.63,43.93a1.91,1.91,0,0,1,1.18.08"/><path class="cls-7" d="M41.19,45.06l1,.13"/><path class="cls-7" d="M40.83,46.08l1,.15"/><path class="cls-7" d="M40.54,47l.8.15"/><path class="cls-7" d="M40,48l.95.14"/><path class="cls-7" d="M39.82,49h.65"/><path class="cls-7" d="M39.53,50.06l.5.15"/><path class="cls-7" d="M39.38,51.22V52"/><path class="cls-7" d="M38.8,52.82c-.09.31-.19.62-.29.94-.33.29-.82.87-1.15,1.16"/><path class="cls-7" d="M30.31,46.75l.62.91"/><path class="cls-7" d="M30.84,46.44a4,4,0,0,1,.8,1"/><path class="cls-7" d="M31.85,45.64a6.62,6.62,0,0,0,.94,1.16"/><path class="cls-7" d="M32.72,44.56a7.65,7.65,0,0,1,1.16,1.38"/><path class="cls-7" d="M33.66,43.84c.43.39.86.78,1.3,1.16"/><path class="cls-7" d="M34.46,43.26l1.08.94"/><path class="cls-7" d="M35,42.6l.86.51"/><path class="cls-7" d="M35.47,41.45l.87.43"/><path class="cls-7" d="M35.91,40.79l.72.15"/><path class="cls-7" d="M36.63,39.71h.73"/><path class="cls-7" d="M37.21,38.69c.07.13.15.25.22.37"/><path class="cls-7" d="M29.54,39l1.45.74"/><path class="cls-7" d="M30.26,38.19a4.79,4.79,0,0,0,1.37.74"/><path class="cls-7" d="M31.13,37.68l1.22.52"/><path class="cls-7" d="M31.85,37l1.23.43"/><path class="cls-7" d="M32.36,36.38l.87.14"/><path class="cls-7" d="M32.72,35.73l.79.23"/><path class="cls-7" d="M33.45,35.15l.57.29"/><path class="cls-7" d="M67.23,47.42A6.85,6.85,0,0,0,71,48"/><path class="cls-7" d="M68.78,49.93c1.5,0,3,.16,4.49.32"/><path class="cls-7" d="M71.09,51.72a31.17,31.17,0,0,1,5.24,1.05"/><path class="cls-7" d="M72.55,54.31a17.19,17.19,0,0,1,4.78,1.24"/><path class="cls-7" d="M74.09,56.61c1.41.83,3.37.38,4.65,1.39"/><path class="cls-7" d="M75.15,59,80,60"/><path class="cls-7" d="M77,61.08c1.73.39,3.44.86,5.13,1.39"/><path class="cls-7" d="M78.28,63c1.7.81,3.92.4,5.38,1.6"/><path class="cls-7" d="M80.29,65.7l2.26.52a6.86,6.86,0,0,1,2.8,1.1"/><path class="cls-7" d="M81.16,68a14.89,14.89,0,0,1,4.67,1.66"/><path class="cls-7" d="M82.73,70.71c.08.21.33.29.54.35a9.66,9.66,0,0,1,2.17.77,4,4,0,0,1,1.66,1.55"/><path class="cls-7" d="M80.62,73.89,83,75.08a13.16,13.16,0,0,1,4.61,3.28"/><path class="cls-7" d="M81.45,77.58a30.57,30.57,0,0,1,4,2.38,3,3,0,0,1,1.45,1.81"/><path class="cls-7" d="M81.43,80.58c1.25,1.15,3,1.72,4.17,2.94a1.46,1.46,0,0,1,.51,1"/><path class="cls-7" d="M81,83.41c1.08.77,2.17,1.55,3.18,2.41a3,3,0,0,1,1.07,1.38"/><path class="cls-7" d="M80.58,86a10.55,10.55,0,0,1,3.29,3.39"/><path class="cls-7" d="M79.91,88.1a15,15,0,0,1,2.83,3.57"/><path class="cls-7" d="M79.4,90a12,12,0,0,1,2.47,3.64"/><path class="cls-7" d="M78.11,92.07a14.48,14.48,0,0,1,1.18,2A2.62,2.62,0,0,1,79.64,96"/><path class="cls-7" d="M76.78,94.26a9.48,9.48,0,0,1,1.11,3.52"/><path class="cls-7" d="M74.88,95.67c.21.6.54,1.15.79,1.74a2.89,2.89,0,0,1,.24,1.85"/><path class="cls-7" d="M73.45,97.36a4.22,4.22,0,0,1,.54,3"/><path class="cls-7" d="M71.92,98.87c0,.49.19,1,.24,1.45a1.39,1.39,0,0,1-.48,1.33"/><path class="cls-7" d="M70.22,100.46a9.36,9.36,0,0,1-.41,2.4"/><path class="cls-7" d="M67.79,102a9.34,9.34,0,0,0-.21,1.5,4.69,4.69,0,0,1-.61,1.7"/><path class="cls-7" d="M65.58,102.78a6.63,6.63,0,0,1-.91,2.76"/><path class="cls-7" d="M63.57,104.15a4.49,4.49,0,0,0-.27,1.28c-.09.43-.46.89-.89.77"/><path class="cls-7" d="M61.53,104.94l-1,1.3c-.17.24-.42.51-.71.45"/><path class="cls-7" d="M59.29,105.89,58,107.25"/><path class="cls-7" d="M60,95.47A5.27,5.27,0,0,1,59.67,98"/><path class="cls-7" d="M60.8,94.65A3.37,3.37,0,0,1,60.9,97"/><path class="cls-7" d="M61.86,92.74A14.19,14.19,0,0,1,63.41,96"/><path class="cls-7" d="M63.27,91.34A16.72,16.72,0,0,1,65,94.44"/><path class="cls-7" d="M64.22,90.76l1.59,1.81"/><path class="cls-7" d="M65.17,89.3a7.27,7.27,0,0,0,1.71,1.42"/><path class="cls-7" d="M66,88l1.44.44"/><path class="cls-7" d="M66.39,86.2l1.38.3"/><path class="cls-7" d="M66.61,85l1.09-.08"/><path class="cls-7" d="M66.68,83.58l1.38.15"/><path class="cls-7" d="M16.94,69.24a25,25,0,0,0,4.4-.47"/><path class="cls-7" d="M16.78,71.19c0,.09.1.14.18.15,1.28.19,2.52-.57,3.81-.56"/><path class="cls-7" d="M16.21,74.41c1.23-.21,2.46-.4,3.69-.56"/><path class="cls-7" d="M16.57,76.49,19,76.2"/><path class="cls-7" d="M16.5,79l2.17-.44"/><path class="cls-7" d="M16.65,81.06l2-.51"/><path class="cls-7" d="M16.94,82.87l1.73-.66"/><path class="cls-7" d="M17.66,84.31l1.16.51"/><path class="cls-7" d="M18.46,85.62l1.08,1.16"/><path class="cls-7" d="M19.49,87.34l1.28-.43"/><path class="cls-7" d="M20.41,88.8l1.45-.29"/><path class="cls-7" d="M21.35,90.11l1.38-.36"/><path class="cls-7" d="M22,91.42l1.45-.87"/><path class="cls-7" d="M23.09,92.43l1-.4"/><path class="cls-7" d="M11.08,66.11c.91.31,1.83.6,2.75.87"/><path class="cls-7" d="M12.37,64.47l1.89.64"/><path class="cls-7" d="M13.32,63.45l1.59.43"/><path class="cls-7" d="M14.4,62.37l1.23.15"/><path class="cls-7" d="M15.2,61l.58-.36"/><path class="cls-7" d="M15.34,60l.8-.58"/><path class="cls-7" d="M16.14,58.83c.26-.2.53-.39.8-.58.53.07.91-.22,1.44-.15"/><path class="cls-7" d="M27.21,31l.65-.38"/><path class="cls-7" d="M27.05,30.1l.55-.2"/><path class="cls-7" d="M27.21,29.4l.61-.26"/><path class="cls-7" d="M27.38,28.54a1.1,1.1,0,0,1,.54-.05"/><path class="cls-7" d="M27.6,27.83a.71.71,0,0,0,.38,0"/><path class="cls-7" d="M28,27.24l.27.05"/><path class="cls-7" d="M14.36,29.78a.63.63,0,0,1-.17.78"/><path class="cls-7" d="M15,30a.92.92,0,0,1-.06.76"/><path class="cls-7" d="M16,29.68a.83.83,0,0,1-.05.6"/><path class="cls-7" d="M17.14,29.35a1.11,1.11,0,0,1,0,.65"/><path class="cls-7" d="M18.2,29.46l-.05.55"/><path class="cls-7" d="M19.22,29.46a.93.93,0,0,1-.12.61"/><path class="cls-7" d="M20.16,29.35l.05.44"/><path class="cls-7" d="M21.41,29.19l-.06.6"/><path class="cls-7" d="M22.11,29.24l.06.49"/><path class="cls-7" d="M23.09,29.08l-.05.65"/><path class="cls-7" d="M12.89,41.63l.11-.09a.94.94,0,0,1,.21.63"/><path class="cls-7" d="M13.75,40.6a2.59,2.59,0,0,1,.32.81"/><path class="cls-7" d="M14.61,39.57a2.27,2.27,0,0,1,.26.91"/><path class="cls-7" d="M15.37,38.81a3,3,0,0,1,.29,1"/><path class="cls-7" d="M16.24,38a3.91,3.91,0,0,1,.29.81"/><path class="cls-7" d="M17.34,37.17l.26.87"/><path class="cls-7" d="M18.31,36.52l.16.76"/><path class="cls-7" d="M19.28,35.87l.16.55"/><path class="cls-7" d="M20.05,35.33c.05.18.11.36.16.54"/><path class="cls-7" d="M21.13,34.57l.21.65"/><path class="cls-7" d="M21.79,34.13l.32.44"/><path class="cls-7" d="M22.71,33.48l.22.22"/><path class="cls-7" d="M30.87,28.38a7.32,7.32,0,0,1-.24.92"/><path class="cls-7" d="M31.67,28.21a2.31,2.31,0,0,1-.21.82"/><path class="cls-7" d="M32.82,27.78c-.1.29-.19.58-.28.87"/><path class="cls-7" d="M34.06,27.29a4.79,4.79,0,0,1-.36.88"/><path class="cls-7" d="M35.41,27.23a3.93,3.93,0,0,1-.36.78"/><path class="cls-7" d="M36.34,27.24l-.11.59"/><path class="cls-7" d="M38.41,26.8c0,.16-.08.33-.11.49"/><path class="cls-7" d="M47.75,26.48a3,3,0,0,1-.49,1"/><path class="cls-7" d="M48.77,26.69l-.25.61a.15.15,0,0,0,0,.13s.08.06.1,0"/><path class="cls-7" d="M49.76,26.8a2.12,2.12,0,0,0-.29.7"/><path class="cls-7" d="M51.11,26.91c-.13.29-.27.58-.41.87l.19-.12"/><path class="cls-7" d="M52.58,27.24c-.1.26-.19.52-.29.79l.18-.14"/><path class="cls-7" d="M53.94,27.56a2.83,2.83,0,0,0-.13.63l.18-.14"/><path class="cls-7" d="M55.35,27.83l-.12.74s0,.09,0,.12.1,0,.08,0"/><path class="cls-7" d="M56.6,28.32c0,.22,0,.44,0,.65"/><path class="cls-7" d="M58,28.7l.27.54"/><path class="cls-7" d="M58.93,29l.28.65"/><path class="cls-7" d="M59.8,29.46l.49.49"/><path class="cls-7" d="M60.89,29.84l-.11.87"/><path class="cls-7" d="M42.45,30a9,9,0,0,1,.79.84"/><path class="cls-7" d="M43.56,30.06l.76.82"/><path class="cls-7" d="M44.87,30.11l.6.82"/><path class="cls-7" d="M46.44,30.33c.21.28.43.55.64.82"/><path class="cls-7" d="M48.07,30.33c.13.24.26.47.38.71"/><path class="cls-7" d="M49.21,30.55c.17.27.33.54.49.81"/><path class="cls-7" d="M50.84,30.87c.13.22.26.44.38.66"/><path class="cls-7" d="M52.42,30.93l.49.81"/><path class="cls-7" d="M53.88,31.15c.17.23.33.47.49.7"/><path class="cls-7" d="M55.24,31.53l.48,1"/><path class="cls-7" d="M56.65,32.29c.14.25.28.51.43.76"/><path class="cls-7" d="M58.07,32.61l.38.38"/><path class="cls-7" d="M59.31,32.83l.48.71"/><path class="cls-7" d="M60.73,33.21c.13.25.26.5.38.76"/><path class="cls-7" d="M61.85,33.93a.73.73,0,0,1,.22.7"/><path class="cls-7" d="M28,34.78l.59.54"/><path class="cls-7" d="M28.42,34.23a1.9,1.9,0,0,1,.53.45"/><path class="cls-7" d="M28.79,33.7l.38.11"/><path class="cls-7" d="M29.39,33.05l.38.21"/><path class="cls-7" d="M30,32.29l.27.43"/><path class="cls-7" d="M30.42,32l.27.55"/><path class="cls-7" d="M31.24,31.53l.27.54"/><path class="cls-7" d="M32.1,31.2l.21.44"/><path class="cls-7" d="M33.24,30.93a1.55,1.55,0,0,1,.29.43"/></g></g></svg>