<svg xmlns="http://www.w3.org/2000/svg" viewBox="0 0 85.02 110.8"><defs><style>.cls-1{isolation:isolate;}.cls-2{fill:#02763c;}.cls-2,.cls-3,.cls-4,.cls-5,.cls-6,.cls-7,.cls-9{stroke:#231f20;stroke-linecap:round;stroke-linejoin:round;}.cls-2,.cls-3,.cls-4,.cls-5,.cls-6,.cls-7{stroke-width:0.87px;}.cls-3,.cls-9{fill:none;}.cls-4{fill:#f05867;}.cls-5{fill:#231f20;}.cls-6{fill:#d27528;}.cls-7{fill:#eb9649;}.cls-8{fill:#c9ebfc;opacity:0.5;mix-blend-mode:screen;}.cls-9{stroke-width:0.33px;}</style></defs><g class="cls-1"><g id="Layer_1" data-name="Layer 1"><path class="cls-2" d="M33.71,17.05A25.91,25.91,0,0,0,25,12.79a14.57,14.57,0,0,1-5.24-2.4c1.37,4.08.61,8.87,3,12.44C25,26.11,29.15,27.33,33,28a17.62,17.62,0,0,1,3.82.93,5.55,5.55,0,0,1,2.84,2.52A17.61,17.61,0,0,0,33.71,17.05Z"/><path class="cls-3" d="M22.05,14a22.47,22.47,0,0,0,7.1,6.91C34.3,24.3,37.27,25.6,40,30.46"/><path class="cls-4" d="M84.16,69.24C81,93.2,67.62,107,57.29,109.75A15.94,15.94,0,0,1,45,108.31a7.5,7.5,0,0,0-8,.36c-4.52,3.11-9.85,2.92-23.19-9.89-17.37-16.69-17.66-55-1.9-64.71a26.14,26.14,0,0,1,16-4.25,23,23,0,0,1,11.8,4.25c1.32-.69,2.62-1.3,3.88-1.84a45.41,45.41,0,0,1,6.25-2.18c9.72-2.58,17.44-.62,23.11,4C82.12,41.49,85.93,55.87,84.16,69.24Z"/><path class="cls-5" d="M49.85,30.05c-.46.12-.93.25-1.4.4l-.37.11L47,30.92l-.38.13-1.25.46-.21.08a58,58,0,0,0-5.43,2.48,23,23,0,0,0-11.8-4.25,16,16,0,0,1,2.4,1,4.37,4.37,0,0,1,1.59,1.26A1.77,1.77,0,0,1,32,34.05a2.71,2.71,0,0,1-1.35.87c-2.43.94-5.05,2.09-6.21,4.42a10.79,10.79,0,0,1,15.33,1.58,9.21,9.21,0,0,1,11.42-3.77,6.24,6.24,0,0,0-4.74-3.09.83.83,0,0,1,.08-.12,18.57,18.57,0,0,1,6.61.13c4,.81,12.64,2.61,19.78,0C67.29,29.43,59.57,27.47,49.85,30.05Z"/><path class="cls-2" d="M45.59,31.92a14.12,14.12,0,0,0-5.09,2c-.25.14-.7.19-.73-.1a.43.43,0,0,1,.17-.32c.32-.33.66-.64,1-1,2.43-2.46,3.27-5.56,5-8.43a49.82,49.82,0,0,1,6-8.63A25,25,0,0,1,77,8.81a14.17,14.17,0,0,0-2.55,4c-1.24,2.53-2.48,5.05-3.73,7.58a23.25,23.25,0,0,1-2.33,4.05c-2.49,3.27-6.51,5-10.53,5.91S49.65,31.29,45.59,31.92Z"/><path class="cls-3" d="M42.57,32.07a157,157,0,0,1,29.14-21"/><path class="cls-6" d="M54,4.2a1.36,1.36,0,0,0-.35-.63C49-1.16,46.38.83,46.23,1h0c-2.42,3.71-6.87,11.48-7,24.71a45.25,45.25,0,0,1-1.32,10.38l1.65.94a8.39,8.39,0,0,1,2.56-2.22c1.06-3.86,1.19-7.64,3-14.89C46.61,13.52,51.58,7.7,53.62,5.5A1.37,1.37,0,0,0,54,4.2Z"/><path class="cls-7" d="M53.84,5.19c-.57,1-3.14,1.15-4.83,0S45.36,2.33,46.22,1h0C46.38.83,49-1.16,53.6,3.57A1.36,1.36,0,0,1,54,4.2,2,2,0,0,1,53.84,5.19Z"/><path class="cls-8" d="M18.12,50c-2,4.37-6,6.84-8.8,5.52S5.84,49.64,7.87,45.27s6-6.83,8.81-5.51S20.16,45.68,18.12,50Z"/><path class="cls-9" d="M40.18,33.84a1.28,1.28,0,0,0,.86-.12"/><path class="cls-9" d="M40.39,33a1.08,1.08,0,0,0,.73,0"/><path class="cls-9" d="M40.68,32.13h.43"/><path class="cls-9" d="M41,31.47l.51-.14"/><path class="cls-9" d="M41,30.68l.66-.22"/><path class="cls-9" d="M41.11,29.88l.59-.14"/><path class="cls-9" d="M41.4,29.07l.36-.08"/><path class="cls-9" d="M41.48,26.66l.83.15"/><path class="cls-9" d="M41.66,25.89a2.84,2.84,0,0,1,.8.29"/><path class="cls-9" d="M41.84,25.33a1.63,1.63,0,0,1,.69.09"/><path class="cls-9" d="M42.09,24.62l.4,0"/><path class="cls-9" d="M42.24,24a1.29,1.29,0,0,1,.47.15"/><path class="cls-9" d="M42.46,23.39a3.66,3.66,0,0,1,.43.15"/><path class="cls-9" d="M42.27,22.52a3.7,3.7,0,0,1,1,.38"/><path class="cls-9" d="M42.49,21.39l.84.37"/><path class="cls-9" d="M42.75,20.73a6.09,6.09,0,0,0,.83.25"/><path class="cls-9" d="M42.89,20.05l.83.3"/><path class="cls-9" d="M43,19.37a1.8,1.8,0,0,1,.61,0"/><path class="cls-9" d="M43.36,18.65a2.56,2.56,0,0,1,.62,0"/><path class="cls-9" d="M43.36,18l.65.13"/><path class="cls-9" d="M43.94,17.34l.36.07"/><path class="cls-9" d="M42.78,14.55a3,3,0,0,0,1.78,1.21"/><path class="cls-9" d="M43.73,14.14c.43.28.87.55,1.32.79"/><path class="cls-9" d="M44.22,13.21l.59.4a1.53,1.53,0,0,0,.69.33"/><path class="cls-9" d="M44.6,12.61l1.26.61"/><path class="cls-9" d="M45.34,11.7a4.07,4.07,0,0,0,1.17.65"/><path class="cls-9" d="M45.19,10.26a6.61,6.61,0,0,0,1.76,1"/><path class="cls-9" d="M45.76,9.29a10.61,10.61,0,0,1,2,1.42"/><path class="cls-9" d="M46.77,8.78a4.55,4.55,0,0,1,1.16,1"/><path class="cls-9" d="M47.46,8.28a4,4,0,0,0,1.08.83"/><path class="cls-9" d="M47.64,7.69A9.74,9.74,0,0,0,49,8.54"/><path class="cls-9" d="M48.36,7.31c.41.12.71.51,1.13.59"/><path class="cls-9" d="M48.94,6.86a2.41,2.41,0,0,1,.91.44"/><path class="cls-9" d="M50.07,7a1.13,1.13,0,0,1,.4.22"/><path class="cls-9" d="M49,3.84c.65.31,1.17.93,1.89,1"/><path class="cls-9" d="M50.31,4a5.8,5.8,0,0,0,1.2.94"/><path class="cls-9" d="M51,4l1,.67"/><path class="cls-9" d="M52.27,4.37a7.73,7.73,0,0,0-.64-.49C51.84,4,52.07,4.25,52.27,4.37Z"/><path class="cls-9" d="M48.58,1.82c.33.14.66.28,1,.44"/><path class="cls-9" d="M49.19,1.8l.66.36"/><path class="cls-9" d="M49.82,1.7a3.67,3.67,0,0,1,.61.42"/><path class="cls-9" d="M25.88,14.3a22.3,22.3,0,0,0,1.61,5.23"/><path class="cls-9" d="M30.8,16.4a18.69,18.69,0,0,0,1.55,6.14"/><path class="cls-9" d="M34.8,19.4a13.43,13.43,0,0,0,1.7,6.35"/><path class="cls-9" d="M22.35,19.09a13.1,13.1,0,0,1,4.72.73c.09,0,.19.07.21.17"/><path class="cls-9" d="M24.6,22.91a26.75,26.75,0,0,1,7-.11"/><path class="cls-9" d="M30.74,26.23a11.71,11.71,0,0,1,6.65.63"/><path class="cls-9" d="M22,15.78a2,2,0,0,0,.54,0"/><path class="cls-9" d="M22.2,16.51a3.23,3.23,0,0,1,.76,0"/><path class="cls-9" d="M22.74,17a4.62,4.62,0,0,0,.65.08"/><path class="cls-9" d="M23.21,17.89a1,1,0,0,0,.76,0"/><path class="cls-9" d="M23.83,18.36a1.89,1.89,0,0,0,.58,0"/><path class="cls-9" d="M25.64,20.73a3.93,3.93,0,0,0,1.49,0"/><path class="cls-9" d="M26.26,21.4c.49,0,1-.1,1.48-.19"/><path class="cls-9" d="M27.27,22a5.36,5.36,0,0,0,1-.12"/><path class="cls-9" d="M28.36,22.19a1.29,1.29,0,0,0,.58-.07"/><path class="cls-9" d="M30,23.92a5.31,5.31,0,0,0,1.38-.23"/><path class="cls-9" d="M30.79,24.57A3.87,3.87,0,0,0,32,24.33"/><path class="cls-9" d="M31.83,25a1.19,1.19,0,0,0,.72-.14"/><path class="cls-9" d="M32.53,25.53l.8-.21"/><path class="cls-9" d="M35.39,27.13a6.62,6.62,0,0,1,1.09,0"/><path class="cls-9" d="M36,27.67a1.43,1.43,0,0,1,.73.14"/><path class="cls-9" d="M22.41,13a.35.35,0,0,1,.28.33"/><path class="cls-9" d="M23.11,13.06a2.15,2.15,0,0,1,.42.95"/><path class="cls-9" d="M23.72,13.42a2.13,2.13,0,0,1,.38,1.06"/><path class="cls-9" d="M24.43,13.83a5.55,5.55,0,0,1,.47,1.29"/><path class="cls-9" d="M24.94,14.19a1.72,1.72,0,0,1,.35,1.05"/><path class="cls-9" d="M26.85,14.67a3.8,3.8,0,0,1,.56,1.76"/><path class="cls-9" d="M27.81,15.24a3.76,3.76,0,0,1,.53,1.48"/><path class="cls-9" d="M28.57,15.64A4.69,4.69,0,0,1,29,17.23"/><path class="cls-9" d="M29.27,16a5.66,5.66,0,0,1,.33,1.52"/><path class="cls-9" d="M29.91,16.36a2.3,2.3,0,0,1,.23,1.12"/><path class="cls-9" d="M31.75,17a8.87,8.87,0,0,1,.39,1.91"/><path class="cls-9" d="M32.49,17.74a4.1,4.1,0,0,1,.12,1.56"/><path class="cls-9" d="M33,18.32a7.22,7.22,0,0,1,.26,1.52"/><path class="cls-9" d="M33.68,18.9a6,6,0,0,1,.17,1.52"/><path class="cls-9" d="M34.15,19.37a2.5,2.5,0,0,1,.08,1.09"/><path class="cls-9" d="M35.76,21.07a8.39,8.39,0,0,1,.06,1.42"/><path class="cls-9" d="M36.23,21.72l.09,1.38"/><path class="cls-9" d="M36.78,22.7c0,.41.08.83.14,1.23"/><path class="cls-9" d="M37.32,23.75c.07.35.15.7.22,1.05"/><path class="cls-9" d="M37.93,24.77a11.76,11.76,0,0,1,.2,1.45"/><path class="cls-9" d="M65.64,9.31a21.26,21.26,0,0,1-4,7.63"/><path class="cls-9" d="M62.7,16.8a12.83,12.83,0,0,1,7.41,1.54"/><path class="cls-9" d="M56.53,13.48a19.84,19.84,0,0,1-3.61,9.74"/><path class="cls-9" d="M53.88,22.92a37.16,37.16,0,0,1,8.1-.11,9.28,9.28,0,0,1,2.83.47,4.58,4.58,0,0,1,1.36.85"/><path class="cls-9" d="M48.56,22a14,14,0,0,1-2.73,7.1"/><path class="cls-9" d="M46.66,28.75a16.75,16.75,0,0,1,3.91-.54,16.45,16.45,0,0,1,2.88.37l2.61.5"/><path class="cls-9" d="M65.27,11.78c-.12.4-.25.8-.37,1.2a1.16,1.16,0,0,1-.35.62"/><path class="cls-9" d="M65.88,11.9A1.73,1.73,0,0,1,65.47,13"/><path class="cls-9" d="M66.94,11.31a1.6,1.6,0,0,1-.32,1"/><path class="cls-9" d="M67.93,10.87A1.33,1.33,0,0,1,67.7,12"/><path class="cls-9" d="M68.9,10.6a2.85,2.85,0,0,1-.16.87"/><path class="cls-9" d="M69.84,10.27a1.06,1.06,0,0,1,0,.61"/><path class="cls-9" d="M70.52,10.22v.38"/><path class="cls-9" d="M71.66,9.51a.91.91,0,0,1-.15.49"/><path class="cls-9" d="M56.23,17.94a3.65,3.65,0,0,1-.67,1.55"/><path class="cls-9" d="M57,17.5a5,5,0,0,1-.41,1.37"/><path class="cls-9" d="M57.79,17.12a5.81,5.81,0,0,1-.2,1.09"/><path class="cls-9" d="M58.57,16.8a4.43,4.43,0,0,1-.07.81"/><path class="cls-9" d="M59.25,16.36l-.11.87"/><path class="cls-9" d="M60.06,16c0,.27,0,.54,0,.81"/><path class="cls-9" d="M60.64,15.87l0,.44"/><path class="cls-9" d="M61.06,15.66l0,.27"/><path class="cls-9" d="M61.73,15a.33.33,0,0,1-.07.44"/><path class="cls-9" d="M48.8,23.53a2,2,0,0,1-.29,1.53"/><path class="cls-9" d="M49.37,23.32a2.52,2.52,0,0,1-.09,1.09"/><path class="cls-9" d="M50.08,22.72l0,1"/><path class="cls-9" d="M50.89,22.23a1.56,1.56,0,0,1,.08.93"/><path class="cls-9" d="M51.62,21.9a1.06,1.06,0,0,1,0,.66"/><path class="cls-9" d="M52,21.63a1.69,1.69,0,0,1,.16.66"/><path class="cls-9" d="M52.76,21a.92.92,0,0,1-.07.88"/><path class="cls-9" d="M44.53,28.63a4.36,4.36,0,0,1-.06.49s0,.07,0,.08-.07,0,0-.05"/><path class="cls-9" d="M45.11,27.76a.7.7,0,0,1,0,.77"/><path class="cls-9" d="M45.74,27.06a.66.66,0,0,1,.12.67"/><path class="cls-9" d="M46.21,26.12a.74.74,0,0,1,0,.93"/><path class="cls-9" d="M46.13,30.57c.31.11.61.23.91.36"/><path class="cls-9" d="M47,30.2a5.5,5.5,0,0,1,1.24.42"/><path class="cls-9" d="M48.26,29.72a4.17,4.17,0,0,0,1.5.61"/><path class="cls-9" d="M49.76,29.57l1.63.8"/><path class="cls-9" d="M51.23,29.32a10.55,10.55,0,0,1,1.45.55"/><path class="cls-9" d="M52.64,29.28A5.21,5.21,0,0,1,54,29.6"/><path class="cls-9" d="M54.81,27.84a9.81,9.81,0,0,1,3.17.62"/><path class="cls-9" d="M57.26,27.45l2.4.74"/><path class="cls-9" d="M59,26.57l1.51.78"/><path class="cls-9" d="M59.87,26.13a2.38,2.38,0,0,1,1.4.68"/><path class="cls-9" d="M61.39,25.44a2,2,0,0,1,1,.65"/><path class="cls-9" d="M62.48,25a4.4,4.4,0,0,1,1.79,1.19"/><path class="cls-9" d="M63.89,24.78a1.41,1.41,0,0,1,1.09.71"/><path class="cls-9" d="M65.14,22.09l1.74.57"/><path class="cls-9" d="M66,21.52l1.52.54"/><path class="cls-9" d="M67,20.84a4.47,4.47,0,0,1,1.13.68"/><path class="cls-9" d="M67.59,20.12a1.57,1.57,0,0,1,1,.31"/><path class="cls-9" d="M68.08,19.3l.59.22"/><path class="cls-9" d="M68.62,18.86a.61.61,0,0,1,.28.16"/><path class="cls-9" d="M69.28,16.35l1.18.74"/><path class="cls-9" d="M69.88,15.53l.86.62"/><path class="cls-9" d="M70.53,14.93a4.18,4.18,0,0,1,.65.45"/><path class="cls-9" d="M70.91,14.33a2.41,2.41,0,0,1,.65.35"/><path class="cls-9" d="M71.37,13.83a.85.85,0,0,0,.51.32"/><path class="cls-9" d="M71.72,13.34a1.11,1.11,0,0,1,.54.14"/><path class="cls-9" d="M72.43,12.72a.23.23,0,0,1,.21-.05"/><path class="cls-9" d="M72.92,11.63a.23.23,0,0,0,.21-.05"/><path class="cls-9" d="M45.1,42.56a8.69,8.69,0,0,0,2.42-2.06"/><path class="cls-9" d="M47.15,42.74l2.11-1.68"/><path class="cls-9" d="M48.84,43l2.63-1.42"/><path class="cls-9" d="M50.75,43.71l2.76-1.57"/><path class="cls-9" d="M52.36,44.2A5.22,5.22,0,0,0,54.66,43"/><path class="cls-9" d="M53.65,44.88a5.51,5.51,0,0,0,2-.58"/><path class="cls-9" d="M55.1,45.69A4.62,4.62,0,0,0,57,45.45"/><path class="cls-9" d="M55.68,46.8a2.4,2.4,0,0,0,1.59-.34"/><path class="cls-9" d="M28,42l3.46-1.77"/><path class="cls-9" d="M34.08,42.84a4.17,4.17,0,0,1-2.32.51"/><path class="cls-9" d="M32.92,44.37a4.35,4.35,0,0,0,1.89-.21"/><path class="cls-9" d="M33.79,45.75a6,6,0,0,1,1.89-.14"/><path class="cls-9" d="M35,46.62a4.12,4.12,0,0,0,1.6-.14"/><path class="cls-9" d="M36.27,48.24a1.08,1.08,0,0,1,.73-.08"/><path class="cls-9" d="M18.68,34l2.53-2.1"/><path class="cls-9" d="M19.9,34.2a15.76,15.76,0,0,0,3.2-2.48"/><path class="cls-9" d="M22.19,33.72a16.93,16.93,0,0,1,2.62-1.15"/><path class="cls-9" d="M23.38,34.36l2.72-1"/><path class="cls-9" d="M23.08,36a14,14,0,0,0,3.19-1.2"/><path class="cls-9" d="M65.69,40.1l6.25-2"/><path class="cls-9" d="M67.31,41.8l5.88-1.4"/><path class="cls-9" d="M70.05,43.56a23.31,23.31,0,0,0,4.61-.88"/><path class="cls-9" d="M72.22,45.29l4-.3"/><path class="cls-9" d="M72.79,47.31l3.91-.05"/><path class="cls-9" d="M74.38,49.27l3.34.51"/><path class="cls-9" d="M75,51.33a14,14,0,0,0,3.46.47"/><path class="cls-9" d="M75.24,53.64l3.21.93"/><path class="cls-9" d="M75.76,55.61c.07.18.27.26.45.33l2.58,1"/><path class="cls-9" d="M76.12,58.12a4.19,4.19,0,0,1,3.28,2.23"/><path class="cls-9" d="M76.73,60.92a8.89,8.89,0,0,1,2.59,1.79"/><path class="cls-9" d="M76.7,63.72a3.87,3.87,0,0,1,2.77,1.74"/><path class="cls-9" d="M76.81,65.84a4,4,0,0,1,2.27,2.21"/><path class="cls-9" d="M77.4,68.41a5.23,5.23,0,0,1,1.81,1.81"/><path class="cls-9" d="M77.56,70a2.64,2.64,0,0,1,1.69,1.68"/><path class="cls-9" d="M77.29,72.55a1.83,1.83,0,0,1,1,1.47"/><path class="cls-9" d="M50.67,105.21a4.35,4.35,0,0,1,2.06,2.46"/><path class="cls-9" d="M52.84,104.86a6.55,6.55,0,0,0,2,2.17"/><path class="cls-9" d="M54.13,103.15c0-.15.24-.1.34,0l2.8,2.9"/><path class="cls-9" d="M55.55,102.28a14.8,14.8,0,0,0,4,2.63"/><path class="cls-9" d="M57.11,100.72l4.47,2.94"/><path class="cls-9" d="M58.21,100a21.31,21.31,0,0,0,5.27,2.36"/><path class="cls-9" d="M60.49,98.76q2.25,1,4.59,1.86"/><path class="cls-9" d="M62.25,97q2.23,1,4.4,2.21"/><path class="cls-9" d="M64.19,95.73a10.29,10.29,0,0,0,4,.67"/><path class="cls-9" d="M66.41,93.72l3.78.7"/><path class="cls-9" d="M67.57,91.69A13,13,0,0,1,71.91,93"/><path class="cls-9" d="M68.88,89.79a25.76,25.76,0,0,1,3.9.63"/><path class="cls-9" d="M70.91,88.2l2.75.33"/><path class="cls-9" d="M71.48,86.93a7,7,0,0,1,2.62.28"/><path class="cls-9" d="M72.36,85.16l2.46.18"/><path class="cls-9" d="M73.22,83l2.33.39"/><path class="cls-9" d="M73.66,81.85a5.21,5.21,0,0,0,1.88-.29"/><path class="cls-9" d="M75,80.26l1-.17"/><path class="cls-9" d="M76.27,78.37h.29"/><path class="cls-9" d="M43,79.34a14.15,14.15,0,0,0,5.31,3.55"/><path class="cls-9" d="M45.8,78.83a10.3,10.3,0,0,0,4.67,2.54"/><path class="cls-9" d="M48.46,78.42c1.65.53,2.93,2,4.63,2.29.08-.09-.07-.24-.16-.17"/><path class="cls-9" d="M50.32,77.51l3.75,1.35"/><path class="cls-9" d="M52.49,76.48a6.7,6.7,0,0,1,2.31.33"/><path class="cls-9" d="M53.94,74.16a1.92,1.92,0,0,1,1.45,0"/><path class="cls-9" d="M54.67,72.43a3,3,0,0,0,1.16.14"/><path class="cls-9" d="M55.68,70.69h.87"/><path class="cls-9" d="M2.06,64.49a21.87,21.87,0,0,0,3-1.21"/><path class="cls-9" d="M1.63,66.83A11.76,11.76,0,0,0,4.5,65.59"/><path class="cls-9" d="M2.78,68.09l2.74-1.47"/><path class="cls-9" d="M3.93,69.17a2.36,2.36,0,0,0,1.72-.68"/><path class="cls-9" d="M4.94,71.08a4,4,0,0,0,1.9-1"/><path class="cls-9" d="M5.54,72.8a3.78,3.78,0,0,0,2.13-1"/><path class="cls-9" d="M6.83,74A2,2,0,0,0,8,73.58"/><path class="cls-9" d="M8,76.05a1.9,1.9,0,0,0,1.31-.43"/><path class="cls-9" d="M9.3,77.79a1.4,1.4,0,0,0,1-.28"/><path class="cls-3" d="M43.55,107.67a18.81,18.81,0,0,1-4.22-2.18c-.58-.36-1.14-.76-1.72-1.07a6.61,6.61,0,0,0-6-.21"/><path class="cls-9" d="M26.76,105.45a1.53,1.53,0,0,0,.49-.86"/><path class="cls-9" d="M27.63,105.73c.2-.3.38-.61.55-.92"/><path class="cls-9" d="M28.88,106.33c.15-.23.29-.47.44-.71"/><path class="cls-9" d="M29.8,106.49a1.36,1.36,0,0,0,.34-.7"/><path class="cls-9" d="M31,106.55l.28-.71"/><path class="cls-9" d="M31.76,106.44a4.39,4.39,0,0,1,.77-1.09"/><path class="cls-9" d="M32.68,106.33a10.83,10.83,0,0,1,.89-1"/><path class="cls-9" d="M33.53,106.34a2.87,2.87,0,0,1,.86-.91"/><path class="cls-9" d="M34.75,106.43a6.26,6.26,0,0,1,1.15-.9"/><path class="cls-9" d="M35.73,106.88a4.25,4.25,0,0,1,.87-.66"/><path class="cls-9" d="M36.55,107.1l.43-.28"/></g></g></svg>