<svg xmlns="http://www.w3.org/2000/svg" viewBox="0 0 91.72 110.8"><defs><style>.cls-1{isolation:isolate;}.cls-2{fill:#fdb517;}.cls-2,.cls-3,.cls-4,.cls-5,.cls-6{stroke:#231f20;stroke-linecap:round;stroke-linejoin:round;}.cls-2,.cls-3,.cls-4,.cls-5{stroke-width:0.87px;}.cls-3{fill:#231f20;}.cls-4{fill:#914f22;}.cls-5{fill:#d27528;}.cls-6{fill:none;stroke-width:0.33px;}.cls-7{fill:#c9ebfc;opacity:0.3;mix-blend-mode:screen;}</style></defs><g class="cls-1"><g id="Layer_1" data-name="Layer 1"><path class="cls-2" d="M63.94,6.42A16.2,16.2,0,0,0,56.11,11a15.06,15.06,0,0,0-1.24,1.38C43.81,8.28,30.7,11.4,23.63,14.52S12.05,28.31,12.05,28.31L5.42,29l-3.51.36C7.57,26.21,6.49,12.66,25.69,3.79S63.94,6.42,63.94,6.42Z"/><path class="cls-3" d="M56.11,11a15.06,15.06,0,0,0-1.24,1.38C43.81,8.28,30.7,11.4,23.63,14.52S12.05,28.31,12.05,28.31L5.42,29c1.8-3.67,6.43-11.63,14.69-16.81C30.86,5.44,42,3.46,56.11,11Z"/><path class="cls-2" d="M63.85,107.62s-8.29,5.09-17.61,1.4S26.58,93.66,20.07,88.63A25.88,25.88,0,0,0,.43,83.68,32.07,32.07,0,0,1,4.58,72.89a13.4,13.4,0,0,1,2.85-3.14s22.41,8,22.67,8S55.94,95.14,55.94,95.14a23.58,23.58,0,0,0,2.81,7A16.85,16.85,0,0,0,63.85,107.62Z"/><path class="cls-3" d="M58.75,102.16C38.61,106.86,22,87,14.9,79.17c-4.5-5-8.12-6.15-10.32-6.28a13.4,13.4,0,0,1,2.85-3.14s22.41,8,22.67,8S55.94,95.14,55.94,95.14A23.58,23.58,0,0,0,58.75,102.16Z"/><path class="cls-2" d="M62.36,97.91c-21,4.9-39.46-14.17-46.92-20.91S3.49,72.33,3.49,72.33a11.4,11.4,0,0,1,3.94-7.14A16.45,16.45,0,0,0,9.1,63.48a7.92,7.92,0,0,0,2.1-4.29L56.06,83.54A113.4,113.4,0,0,0,60.45,94C61.56,96.39,62.36,97.91,62.36,97.91Z"/><path class="cls-3" d="M60.45,94C27.16,90.89,13.34,71.3,9.1,63.48a7.92,7.92,0,0,0,2.1-4.29L56.06,83.54A113.4,113.4,0,0,0,60.45,94Z"/><path class="cls-4" d="M65.37,90.68C25.33,85.77,12.75,70.13,9,59.61c-2.1-5.83-1.49-10.1-1.36-10.08L18,48.86l6.65.8,7.6.91Z"/><path class="cls-3" d="M25,52.82c-2,1.51-6,1.28-7.43,1.07s-2.19-.35-5.59,3.28a12.53,12.53,0,0,1-3,2.44c-2.1-5.83-1.49-10.1-1.36-10.08L18,48.86l6.65.8C25.41,51,25.77,52.26,25,52.82Z"/><path class="cls-3" d="M72.77,46.58s2.7,7.11,1.65,9.48S32.65,57.09,17,43.75c-9.25-7.89,7.55-5.89,7.55-5.89Z"/><path class="cls-5" d="M65.37,18.38A168.91,168.91,0,0,1,51.6,31.55c-.87.73-1.74,1.42-2.6,2.08-3.7.23-8.4.57-12.94,1-7,.72-13.58,1.76-15.57,3.2-4.67,3.39-3.17,5.89-3.17,5.89s5.28,3,9.75,5.41c-.4.49-2.71,4.21-8.93,3.46H18a9.53,9.53,0,0,0-7,2,8.78,8.78,0,0,1-5.69,2.17,47.79,47.79,0,0,1,4.76-30.6c.54-1,1.1-2,1.7-2.91C18.3,13.14,28.42,6.62,39.26,7.05,59.81,7.87,65,18.44,65.37,18.38Z"/><path class="cls-5" d="M65.37,18.38A168.91,168.91,0,0,1,51.6,31.55c-.87.73-1.74,1.42-2.6,2.08-3.7.23-8.4.57-12.94,1C26.93,24,15.93,24.77,10.15,26.19c.54-1,1.1-2,1.7-2.91C18.3,13.14,28.42,6.62,39.26,7.05,59.81,7.87,65,18.44,65.37,18.38Z"/><path class="cls-5" d="M65.37,18.38A168.91,168.91,0,0,1,51.6,31.55C47,25.3,39.73,19.19,29.86,18.75a32.09,32.09,0,0,0-18,4.53C18.3,13.14,28.42,6.62,39.26,7.05,59.81,7.87,65,18.44,65.37,18.38Z"/><path class="cls-2" d="M14.42,37.86s-1.08-2.79,6.38-4.08S58.38,28.87,66,12.18c0,0,18.28,16.36,19.79,36.57,0,0-19.4,6.18-68.09-8.88Z"/><path class="cls-6" d="M73.06,47.84c-10.12,0-27.78-1.73-54.46-10l-1.33-.81a13.27,13.27,0,0,1,3.9-1.16l1.95-.32C32.75,34,57.45,30.08,66.53,15.73,71,20.34,81.59,32.65,83.45,47.06A58.65,58.65,0,0,1,73.06,47.84Z"/><path class="cls-3" d="M9.24,41.79S8.73,50.42,19,50c0,0,9.63,9.12,8.48,28.7,0,0,9.7-7.29,24.23,1.9L30.49,50.31,19.24,44Z"/><path class="cls-2" d="M60.37,53.93C46,53.45,27.64,45.86,20.49,42.65a6,6,0,0,0,.07-.86,5.66,5.66,0,1,0-5.66,5.74,5.54,5.54,0,0,0,3.34-1.11c11.3,8.85,12,29.15,12,29.15,7-2.55,13.22-.63,22.7,8.11S69.33,94.29,69.33,94.29,67.25,82.71,72.19,79c13.68-10.43,19.1-27.67,19.1-27.67C85.86,53.47,78.7,54.54,60.37,53.93Z"/><path class="cls-6" d="M66.78,90.89a53.88,53.88,0,0,1-12.36-8.8c-7.3-6.72-13.06-9.72-18.68-9.72a17.26,17.26,0,0,0-3.54.38c-.63-6.07-3.12-20.58-12.62-28l-.33-.26.35.16c7.32,3.29,25.91,11,40.7,11.47,3.44.12,6.46.17,9.24.17,8.79,0,14.15-.58,18.09-1.54-2.44,5.58-7.77,15.65-16.76,22.51C66.89,80.27,66.53,86.71,66.78,90.89Z"/><path class="cls-3" d="M62.84,83.14s-1.14-12,8.77-17.47C71.61,65.67,58.83,65.66,62.84,83.14Z"/><path class="cls-3" d="M57.32,78.11S56.32,67.59,65,62.8C65,62.8,53.81,62.79,57.32,78.11Z"/><path class="cls-3" d="M51.71,72.62s-.79-8.31,6.07-12.09C57.78,60.53,48.93,60.52,51.71,72.62Z"/><path class="cls-2" d="M17.18,41.79a2.28,2.28,0,1,1-2.28-2.31A2.3,2.3,0,0,1,17.18,41.79Z"/><path class="cls-6" d="M46.79,23.48a2.68,2.68,0,0,1,1.3,1.25"/><path class="cls-6" d="M47.85,23.3a6,6,0,0,1,1.25,1"/><path class="cls-6" d="M48.88,23l1.06.88"/><path class="cls-6" d="M49.75,22.76l1.13.75"/><path class="cls-6" d="M50.54,22.18l1.18.79"/><path class="cls-6" d="M51.34,21.82l1.21.67"/><path class="cls-6" d="M52.34,21.47l1,.58"/><path class="cls-6" d="M53.42,20.83a5.27,5.27,0,0,0,.92.46"/><path class="cls-6" d="M54.35,20.32l.87.29"/><path class="cls-6" d="M55.14,19.75a3.13,3.13,0,0,1,.94.3"/><path class="cls-6" d="M56.36,19.2l.72.14"/><path class="cls-6" d="M57,18.53a.9.9,0,0,0,.79.29"/><path class="cls-6" d="M57.8,18a.65.65,0,0,0,.51.2"/><path class="cls-6" d="M58.38,17.47l.58.2"/><path class="cls-6" d="M59,17l.36.08"/><path class="cls-6" d="M59.53,16.29l.3-.14"/><path class="cls-6" d="M31.87,28.33a6.85,6.85,0,0,0,1.5,1.39"/><path class="cls-6" d="M33.15,28.35a8.5,8.5,0,0,0,1.31,1"/><path class="cls-6" d="M34.3,28.13l1.38.93"/><path class="cls-6" d="M35.31,28l1.22.73"/><path class="cls-6" d="M36.41,27.75l1.22.58"/><path class="cls-6" d="M37.42,27.51l1.07.47"/><path class="cls-6" d="M38.42,27.24a1.7,1.7,0,0,1,.93.59"/><path class="cls-6" d="M39.29,27l1.08.5"/><path class="cls-6" d="M40.22,26.76l.94.49"/><path class="cls-6" d="M41,26.53l.72.27"/><path class="cls-6" d="M42.46,25.94c.07,0,0,.47.07.49l-.72-.11"/><path class="cls-6" d="M24.47,13.16a11.81,11.81,0,0,0,1.46-1.7"/><path class="cls-6" d="M25.8,12.54a21.07,21.07,0,0,0,1.68-1.85"/><path class="cls-6" d="M27.69,11.55a23.25,23.25,0,0,0,2.1-1.86"/><path class="cls-6" d="M29.35,11.19a9.94,9.94,0,0,1,2.32-1.76"/><path class="cls-6" d="M31.42,10.45a19.77,19.77,0,0,0,2.7-1.84"/><path class="cls-6" d="M33.47,10.2a24.61,24.61,0,0,1,2.65-1.61"/><path class="cls-6" d="M35.65,9.8c.83-.56,1.68-1.08,2.55-1.58"/><path class="cls-6" d="M37.79,9.62a11.71,11.71,0,0,1,2.51-1.3"/><path class="cls-6" d="M39.35,9.52l2.19-.89"/><path class="cls-6" d="M41.31,9.76l1.87-.87"/><path class="cls-6" d="M42.67,9.94c.76-.31,1.53-.59,2.31-.83"/><path class="cls-6" d="M44.16,10.11l2.12-.8"/><path class="cls-6" d="M45.64,10.41l1.79-.6"/><path class="cls-6" d="M47.2,10.44c-.06.07.09.13.18.1l1.19-.32"/><path class="cls-6" d="M48.45,10.84c-.05.07.1.12.19.09l1.17-.4"/><path class="cls-6" d="M49.67,11.51a12,12,0,0,0,1.58-.46"/><path class="cls-6" d="M51,11.77a3.51,3.51,0,0,0,1-.26"/><path class="cls-6" d="M18,22.29l.61-.67"/><path class="cls-6" d="M18.74,22.35a20.69,20.69,0,0,0,2.19-2"/><path class="cls-6" d="M20.32,21.91a11.08,11.08,0,0,1,2-1.72"/><path class="cls-6" d="M21.69,21.84a18.34,18.34,0,0,1,2.46-1.93"/><path class="cls-6" d="M23.72,21.42a21.75,21.75,0,0,1,2.45-1.58"/><path class="cls-6" d="M25,21.53A9.89,9.89,0,0,1,27.75,20"/><path class="cls-6" d="M26.72,21.59q1.56-.87,3.21-1.59"/><path class="cls-6" d="M29.1,21.53a10.4,10.4,0,0,1,3.27-1.44"/><path class="cls-6" d="M31.05,21.45a17.7,17.7,0,0,1,2.55-.94"/><path class="cls-6" d="M32.66,21.79A5.41,5.41,0,0,1,34.89,21"/><path class="cls-6" d="M34.45,22c.71-.26,1.44-.49,2.17-.7"/><path class="cls-6" d="M35.69,22.54l2.3-.61"/><path class="cls-6" d="M37.27,23l1.65-.33"/><path class="cls-6" d="M38.51,23.53A4.53,4.53,0,0,1,40,23.07"/><path class="cls-6" d="M39.87,24.11l.71-.18"/><path class="cls-6" d="M10.2,29.17a8.64,8.64,0,0,0,1.4-1.56"/><path class="cls-6" d="M11.43,28.88c.63-.64,1.27-1.28,1.91-1.91"/><path class="cls-6" d="M12.82,28.54a11.89,11.89,0,0,1,1.76-1.4"/><path class="cls-6" d="M14.29,28.42a10.47,10.47,0,0,1,2.16-1.51"/><path class="cls-6" d="M16.24,28,18,26.92"/><path class="cls-6" d="M17.89,28A3.86,3.86,0,0,1,20,27.19"/><path class="cls-6" d="M19.76,28l1.44-.65"/><path class="cls-6" d="M21,28.32a9.23,9.23,0,0,1,1.53-.53"/><path class="cls-6" d="M22.27,28.69a6.61,6.61,0,0,1,1.81-.41"/><path class="cls-6" d="M23.37,29.3A7.15,7.15,0,0,1,25,28.9"/><path class="cls-6" d="M24.15,29.85l1.8-.44"/><path class="cls-6" d="M25.15,30.34,27,30.06"/><path class="cls-6" d="M26.38,30.72a3.3,3.3,0,0,0,.94-.15"/><path class="cls-6" d="M27.18,31.37l.5-.07"/><path class="cls-6" d="M13.48,33.23a4.71,4.71,0,0,1,.37.94"/><path class="cls-6" d="M12,33.39l1.15,1.09"/><path class="cls-6" d="M11.09,33.83a7,7,0,0,0,1,.85"/><path class="cls-6" d="M10,34.31a5.65,5.65,0,0,1,1.07.95"/><path class="cls-6" d="M9.24,35.1l.83.68"/><path class="cls-6" d="M8.72,35.91a4.43,4.43,0,0,1,.67.63"/><path class="cls-6" d="M7.93,36.65a2,2,0,0,1,.89.3"/><path class="cls-6" d="M7.35,37.7a2.93,2.93,0,0,1,.87.22"/><path class="cls-6" d="M7.42,38.46l.73.09"/><path class="cls-6" d="M7.14,39.44l.72,0"/><path class="cls-6" d="M7.06,40.25a1.26,1.26,0,0,0,.72,0"/><path class="cls-6" d="M7.14,41.24h.43"/><path class="cls-6" d="M7.35,42h.08"/><path class="cls-6" d="M7.64,48.38a1.91,1.91,0,0,0,1.24-.57"/><path class="cls-6" d="M8.1,49.42a14.37,14.37,0,0,0,1.34-1"/><path class="cls-6" d="M8.79,50A6,6,0,0,1,10,49"/><path class="cls-6" d="M9.6,50.84a3.24,3.24,0,0,0,.93-1"/><path class="cls-6" d="M10.33,51.27l.84-1.1"/><path class="cls-6" d="M11.11,51.41l.64-.81"/><path class="cls-6" d="M12,51.47a1.49,1.49,0,0,0,.36-.57c.06-.2.72.14.87,0"/><path class="cls-6" d="M13.69,51.4l.15-.22"/><path class="cls-6" d="M14.42,51.62l.14-.22"/><path class="cls-6" d="M14.42,42.53l.51.5"/><path class="cls-6" d="M15,42.33a.41.41,0,0,1,.5.27"/><path class="cls-6" d="M16,42a1.29,1.29,0,0,1-.64-.29C15.43,41.69,15.93,41.93,16,42Z"/><path class="cls-6" d="M14.2,37.62a4.87,4.87,0,0,0,.88-.69"/><path class="cls-6" d="M15.27,37.62a3.12,3.12,0,0,1,.81-.42"/><path class="cls-6" d="M15.93,38.14a3.69,3.69,0,0,1,1-.36"/><path class="cls-6" d="M16.8,38.6A5.58,5.58,0,0,1,18,38.45"/><path class="cls-6" d="M17.66,38.93h.65"/><path class="cls-6" d="M17.88,39.5l.57.09"/><path class="cls-6" d="M18.17,40.37l.57.07"/><path class="cls-6" d="M18.38,41a.36.36,0,0,0,.36.14"/><path class="cls-6" d="M18.6,41.88a.89.89,0,0,0,.5.15"/><path class="cls-6" d="M11.4,44.94a3.43,3.43,0,0,0,.92-.68"/><path class="cls-6" d="M11.89,45.49l.65-.51"/><path class="cls-6" d="M12.55,45.93l.52-.57"/><path class="cls-6" d="M13.86,45.7a1.53,1.53,0,0,1,.11,1"/><path class="cls-6" d="M14.49,46.14c0,.19,0,.38.07.57"/><path class="cls-6" d="M15.21,46.14l.07.36"/><path class="cls-6" d="M15.8,46l.22.36"/><path class="cls-6" d="M16.44,45.85l.14.22"/><path class="cls-6" d="M17.23,45.71h.07"/><path class="cls-6" d="M33.44,6.88l.43-1.3a14.11,14.11,0,0,1,1-2.45"/><path class="cls-6" d="M35.35,6.44q1-1.92,2.22-3.75"/><path class="cls-6" d="M37.94,6.38a41.44,41.44,0,0,0,3-3.35"/><path class="cls-6" d="M40,6.13c0,.07.12,0,.18,0L43.67,3"/><path class="cls-6" d="M43.18,6.42q2-1.45,4-2.81"/><path class="cls-6" d="M45.76,7.05Q48.06,5.43,50.45,4"/><path class="cls-6" d="M48.47,7.9a6.52,6.52,0,0,1,1-.75,14.28,14.28,0,0,1,1.66-.83,27.05,27.05,0,0,0,2.66-1.41"/><path class="cls-6" d="M51.63,9A18.66,18.66,0,0,1,56,6"/><path class="cls-6" d="M54.14,9.82A33.65,33.65,0,0,1,59,6.15"/><path class="cls-6" d="M31.39,7.15c.13-1,.26-2.07.4-3.11"/><path class="cls-6" d="M29.35,7.79l-.66-3.24"/><path class="cls-6" d="M25.29,5.62A14.06,14.06,0,0,0,26.61,9"/><path class="cls-6" d="M22.89,7.46a1.42,1.42,0,0,1,.21.36l1,2.13"/><path class="cls-6" d="M20.87,8.76c.06.09.11.18.16.27l1.15,2"/><path class="cls-6" d="M18.52,10.32,20,12.19"/><path class="cls-6" d="M16.14,12.12a10,10,0,0,0,1.68,1.57"/><path class="cls-6" d="M14.27,13.21l1.93,1.6"/><path class="cls-6" d="M13.28,15.05l1.48,1.19"/><path class="cls-6" d="M11.83,16.55a3.85,3.85,0,0,1,1.64.91"/><path class="cls-6" d="M11.1,18a2.81,2.81,0,0,1,1.23.86"/><path class="cls-6" d="M9.88,19.38a2.59,2.59,0,0,1,1.52.73"/><path class="cls-6" d="M9,20.64a1.23,1.23,0,0,1,1,.56"/><path class="cls-6" d="M8.51,21.77a1.37,1.37,0,0,1,1.1.57"/><path class="cls-6" d="M8,22.92a.64.64,0,0,1,.65.22"/><path class="cls-6" d="M7,24.14a.79.79,0,0,1,.64.52"/><path class="cls-6" d="M65.52,20.42a2.88,2.88,0,0,0,1.74-.87"/><path class="cls-6" d="M66.51,21.18a6.35,6.35,0,0,1,1.72-1"/><path class="cls-6" d="M67.56,22.23a6.24,6.24,0,0,1,1.32-.83"/><path class="cls-6" d="M68.23,23.11a3.82,3.82,0,0,0,1.09-.74"/><path class="cls-6" d="M68.77,24a2.52,2.52,0,0,0,1.07-.68"/><path class="cls-6" d="M70.71,24.18a4.8,4.8,0,0,0-1.29.77C69.89,24.7,70.24,24.43,70.71,24.18Z"/><path class="cls-6" d="M70.83,26.83c.51-.16.59-1,1.07-1.23l-1.4.45"/><path class="cls-6" d="M71.58,27.78,73,27.57"/><path class="cls-6" d="M72.23,28.74l1.29-.24"/><path class="cls-6" d="M72.76,29.44l1.41-.18"/><path class="cls-6" d="M73.31,30.47l1.4-.14"/><path class="cls-6" d="M74,31.35a2.29,2.29,0,0,1,1.19-.07"/><path class="cls-6" d="M74.28,32.52h1.3"/><path class="cls-6" d="M74.82,33.5a1.12,1.12,0,0,1,1.09,0"/><path class="cls-6" d="M75.35,34.56a.84.84,0,0,1,1,.1"/><path class="cls-6" d="M75.8,35.77a.68.68,0,0,1,.86.1"/><path class="cls-6" d="M76.36,36.76a.63.63,0,0,1,.85.07"/><path class="cls-6" d="M76.67,37.71a.71.71,0,0,1,.85-.11"/><path class="cls-6" d="M76.86,39a1,1,0,0,1,1-.19"/><path class="cls-6" d="M77.31,40.1l.75-.25"/><path class="cls-6" d="M77.85,41.38a.84.84,0,0,1,.64-.22"/><path class="cls-6" d="M78.28,42.58l.62-.42a.22.22,0,0,1,0,.29"/><path class="cls-6" d="M78.71,43.76h.54"/><path class="cls-6" d="M48,31.42a18.62,18.62,0,0,1,3-1.49"/><path class="cls-6" d="M49.08,32.18l2.71-1.08"/><path class="cls-6" d="M50.16,32.81a12.83,12.83,0,0,0,2.4-.82"/><path class="cls-6" d="M51.58,33.52,53.09,33"/><path class="cls-6" d="M52.55,34.05l1.3-.45"/><path class="cls-6" d="M53,34.81l1.08-.42"/><path class="cls-6" d="M53.84,35.22a2,2,0,0,0,.87-.11"/><path class="cls-6" d="M54.38,36.3l.54-.22"/><path class="cls-6" d="M21.08,37.15l.87-.63"/><path class="cls-6" d="M22.48,37.59l.76-1"/><path class="cls-6" d="M23.27,37.84l1-1.1"/><path class="cls-6" d="M24.76,37.7l1-1.39"/><path class="cls-6" d="M26.18,37.93l.73-1.1"/><path class="cls-6" d="M27.48,37.84A2.93,2.93,0,0,0,28.86,36"/><path class="cls-6" d="M28.76,38.68a17.24,17.24,0,0,0,1.5-2.28"/><path class="cls-6" d="M30.61,37.93c.44-.74.84-1.49,1.21-2.26"/><path class="cls-6" d="M32.45,37.72a5.82,5.82,0,0,0,1.31-2.17"/><path class="cls-6" d="M33.84,37.6a13.41,13.41,0,0,0,1.46-2.68"/><path class="cls-6" d="M35.9,37.06a3.11,3.11,0,0,0,.76-1.19"/><path class="cls-6" d="M69.78,73.14l.62,1.21"/><path class="cls-6" d="M71.27,72.18l.54,1"/><path class="cls-6" d="M72.56,71.21a3.94,3.94,0,0,1,.63,1.2"/><path class="cls-6" d="M73.62,70.15l.66,1.07"/><path class="cls-6" d="M74.6,69.17l.76,1"/><path class="cls-6" d="M75.6,68a2.73,2.73,0,0,0,.71.8"/><path class="cls-6" d="M76.33,67a4.6,4.6,0,0,1,1.08.66"/><path class="cls-6" d="M77.52,65.92l.87.54"/><path class="cls-6" d="M78.28,64.93a3.2,3.2,0,0,1,1,.46"/><path class="cls-6" d="M79.25,63.75a1.34,1.34,0,0,1,.86.34"/><path class="cls-6" d="M80,62.46a1.57,1.57,0,0,1,.86.33"/><path class="cls-6" d="M80.65,61.91a.55.55,0,0,1,.54,0"/><path class="cls-6" d="M81.31,60.73h.43"/><path class="cls-6" d="M81.63,59.44h.43"/><path class="cls-6" d="M82.28,58.47l.43-.22"/><path class="cls-6" d="M64.44,79.77a3.36,3.36,0,0,1,1.3.09"/><path class="cls-6" d="M64.44,81.28h1.08"/><path class="cls-6" d="M64.44,82.57a2,2,0,0,0,1-.1"/><path class="cls-6" d="M64.44,83.89a1.91,1.91,0,0,0,.75-.13"/><path class="cls-6" d="M64.33,85.08l.76-.11"/><path class="cls-6" d="M64.44,86a1,1,0,0,0,.66-.28"/><path class="cls-6" d="M64.77,87.34a.44.44,0,0,1,.43-.24"/><path class="cls-6" d="M47.57,70.75h1"/><path class="cls-6" d="M48.22,69.5l.76.11"/><path class="cls-6" d="M48.11,68.52h.65"/><path class="cls-6" d="M48.22,67l.76.12"/><path class="cls-6" d="M53.42,76.59a14.6,14.6,0,0,1,1.6.6"/><path class="cls-6" d="M53.85,75.43l1,.22"/><path class="cls-6" d="M53.84,74.36h.65"/><path class="cls-6" d="M54,73.28h.65"/><path class="cls-6" d="M54.17,72.09a.86.86,0,0,1,.65.09"/><path class="cls-6" d="M54.28,71.22h.65"/><path class="cls-6" d="M54.39,70.13a.42.42,0,0,0,.44-.09"/><path class="cls-6" d="M59.35,80.59a1.25,1.25,0,0,1,1.29.59"/><path class="cls-6" d="M59.58,78.88a2.23,2.23,0,0,1,1,.35"/><path class="cls-6" d="M59.68,78.14a.7.7,0,0,1,.75.11"/><path class="cls-6" d="M59.79,77.07a.85.85,0,0,1,.66.09"/><path class="cls-6" d="M60,76.3h.32"/><path class="cls-6" d="M60.34,75.12a.26.26,0,0,1,.32.1"/><path class="cls-6" d="M60.45,73.79l.32.11"/><path class="cls-6" d="M27.46,50.46a3.62,3.62,0,0,0,1.42-.85"/><path class="cls-6" d="M28.53,50.87l1.21-.72"/><path class="cls-6" d="M29.84,51.43a5.06,5.06,0,0,1,1.4-.87"/><path class="cls-6" d="M31,52l.87-.63"/><path class="cls-6" d="M31.92,52.66l1-.81"/><path class="cls-6" d="M33,52.83a2.63,2.63,0,0,0,.9-.72"/><path class="cls-6" d="M34.27,53.27c.22-.21.44-.43.65-.65"/><path class="cls-6" d="M35.16,53.94l.76-.75"/><path class="cls-6" d="M36.76,54.24l1-.66"/><path class="cls-6" d="M38.27,54.89l.87-1"/><path class="cls-6" d="M39.47,55.44c.28-.3.56-.59.85-.88"/><path class="cls-6" d="M40.55,55.76l.75-1.3"/><path class="cls-6" d="M42,56c.18-.32.35-.65.53-1"/><path class="cls-6" d="M43.26,56.31l.74-1"/><path class="cls-6" d="M44.78,56.31l.75-1.19"/><path class="cls-6" d="M46.16,56.62l.65-.76"/><path class="cls-6" d="M47.37,57.07l.54-.65"/><path class="cls-6" d="M49.21,57.5l.1-.22"/><path class="cls-6" d="M33.19,64.59a2.5,2.5,0,0,0,1.29-.21"/><path class="cls-6" d="M33.18,66l1.42-.49"/><path class="cls-6" d="M33.74,66.91a5,5,0,0,0,1.52-.65"/><path class="cls-6" d="M34.6,67.86A13.25,13.25,0,0,0,36.22,67"/><path class="cls-6" d="M35.59,68.57a4.24,4.24,0,0,0,1.66-1.07"/><path class="cls-6" d="M37.21,68.86l1.4-1"/><path class="cls-6" d="M38.26,69.69l1.32-1.06"/><path class="cls-6" d="M39.68,69.81l.85-.45"/><path class="cls-6" d="M41.3,70.36a.7.7,0,0,0,.54-.44"/><path class="cls-6" d="M16.45,56.54a13.85,13.85,0,0,1,2-1.13"/><path class="cls-6" d="M17.71,56.9c.79-.43,1.59-.84,2.41-1.23"/><path class="cls-6" d="M18.48,57.9a22.13,22.13,0,0,1,2.5-.82"/><path class="cls-6" d="M19.47,58.6a8.48,8.48,0,0,1,2.7-.28"/><path class="cls-6" d="M20.33,59.8l1.84-.35"/><path class="cls-6" d="M21,60.76l1.4-.14"/><path class="cls-6" d="M21.52,61.81a1.34,1.34,0,0,0,1.09,0"/><path class="cls-6" d="M21.84,62.89l1.2.18"/><path class="cls-6" d="M22.06,64.09h1"/><path class="cls-6" d="M22.49,64.85a1.79,1.79,0,0,0,1,.09"/><path class="cls-6" d="M22.68,66a1.15,1.15,0,0,0,1.21.27"/><path class="cls-6" d="M22.81,67.36a2.47,2.47,0,0,0,1.08.07"/><path class="cls-6" d="M23,68.54a1.26,1.26,0,0,1,1.08.18"/><path class="cls-6" d="M23.23,69.85a3.08,3.08,0,0,0,1,.26"/><path class="cls-6" d="M23.69,71.37a.48.48,0,0,1,.57.27"/><path class="cls-6" d="M23.58,73l.53-.11"/><path class="cls-6" d="M38.92,79a12.09,12.09,0,0,1,2-1"/><path class="cls-6" d="M39.87,79.72a10.36,10.36,0,0,1,2.52-1.24"/><path class="cls-6" d="M41.2,80.42a24.4,24.4,0,0,1,2.91-1"/><path class="cls-6" d="M42.92,80.72a9,9,0,0,1,2.49-1.07"/><path class="cls-6" d="M44.34,81.08a5,5,0,0,1,2.15-.58"/><path class="cls-6" d="M45.85,82.05,47,81.71"/><path class="cls-6" d="M46.6,82.9a1.52,1.52,0,0,1,1.08-.21"/><path class="cls-6" d="M47.14,83.93a2,2,0,0,0,1.08-.28"/><path class="cls-6" d="M47.89,84.72l1-.21"/><path class="cls-6" d="M49,85.73l.75-.25"/><path class="cls-6" d="M50.83,94.84a11.44,11.44,0,0,0,3.63.62,32,32,0,0,0,4.9-.2"/><path class="cls-6" d="M52.44,96.64a7.86,7.86,0,0,1,3.05.09,8.37,8.37,0,0,0,3.77-.51"/><path class="cls-6" d="M49.94,104.71a10,10,0,0,0,3.08.18,20.34,20.34,0,0,0,5.25-1.47"/><path class="cls-6" d="M52.22,106.15a13.51,13.51,0,0,0,6.41-1.57"/><path class="cls-6" d="M54.16,107.52a21.69,21.69,0,0,0,4.58-1.42"/><path class="cls-6" d="M55.79,108.73a17.78,17.78,0,0,0,4-1.35"/><path class="cls-6" d="M36.13,91.73l2.76,1.5"/><path class="cls-6" d="M37.41,91.47a2.64,2.64,0,0,1,1.79.67"/><path class="cls-6" d="M37.62,90.55A2.05,2.05,0,0,1,39,91"/><path class="cls-6" d="M12.76,83a27.62,27.62,0,0,1,3.15,1.15"/><path class="cls-6" d="M13.84,82.27a2.07,2.07,0,0,1,1.41.18"/><path class="cls-6" d="M13.53,81.19a.67.67,0,0,1,.85.19"/><path class="cls-6" d="M13.62,80.3H14"/><path class="cls-6" d="M40.23,103.65a18.54,18.54,0,0,0,2.48,1.62"/><path class="cls-6" d="M41,103.34a7.18,7.18,0,0,1,1.54,1"/><path class="cls-6" d="M41.43,102.43l1,.6"/><path class="cls-6" d="M9,70.77a1.31,1.31,0,0,1,.85.6"/><path class="cls-6" d="M9,69.78a4.42,4.42,0,0,1,1.8,1.52"/><path class="cls-6" d="M9.52,68.83a6.14,6.14,0,0,1,2,2.39"/><path class="cls-6" d="M9.74,67.6a5.35,5.35,0,0,1,2.1,2.46"/><ellipse class="cls-7" cx="30.98" cy="16.22" rx="10.92" ry="4.82" transform="translate(-3.16 8.66) rotate(-15.15)"/></g></g></svg>