<svg xmlns="http://www.w3.org/2000/svg" viewBox="0 0 83.31 110.8"><defs><style>.cls-1{isolation:isolate;}.cls-2{fill:#d27528;}.cls-2,.cls-3,.cls-4,.cls-6{stroke:#231f20;stroke-linecap:round;stroke-linejoin:round;}.cls-2,.cls-3,.cls-4{stroke-width:0.87px;}.cls-3{fill:#231f20;}.cls-4{fill:#fdb517;}.cls-5{fill:#c9ebfc;opacity:0.5;mix-blend-mode:screen;}.cls-6{fill:none;stroke-width:0.33px;}</style></defs><g class="cls-1"><g id="Layer_1" data-name="Layer 1"><path class="cls-2" d="M68.46,27.25V45.1a4,4,0,1,1-7.95,0V27.25a18.86,18.86,0,1,0-37.71,0V45.1a4,4,0,0,1-8,0V27.25a26.81,26.81,0,1,1,53.62,0Z"/><path class="cls-3" d="M14.84,38.17h8V45.1a4,4,0,0,1-8,0Z"/><path class="cls-3" d="M68.46,38.17V45.1a4,4,0,1,1-7.95,0V38.17Z"/><path class="cls-4" d="M80.6,66.32a165,165,0,0,1-7.35-21.94,5,5,0,0,0-4.59-4h-54a5,5,0,0,0-4.59,4A165,165,0,0,1,2.71,66.32c-5.5,12.78-3.29,44,32.47,44H48.12C83.89,110.36,86.09,79.1,80.6,66.32Z"/><path class="cls-5" d="M16.11,55c-1.54,3.44-4.09,5.65-5.71,4.93s-1.69-4.1-.15-7.54,4.09-5.65,5.7-4.93S17.64,51.54,16.11,55Z"/><path class="cls-2" d="M35.18,98.42c-9.51,0-16.11-2.7-19.63-8C11.35,84,12,75.06,13.68,71a161.86,161.86,0,0,0,6.13-17.23,2,2,0,0,1,1.93-1.44H61.56a2,2,0,0,1,1.94,1.44A162.65,162.65,0,0,0,69.63,71c1.73,4,2.33,12.95-1.88,19.34-3.51,5.34-10.12,8-19.63,8Z"/><path class="cls-3" d="M20.37,90.38C16.16,84,16.76,75.06,18.49,71a161.86,161.86,0,0,0,6.13-17.23,2,2,0,0,1,1.94-1.44H21.74a2,2,0,0,0-1.93,1.44A161.86,161.86,0,0,1,13.68,71C12,75.06,11.35,84,15.55,90.38c3.52,5.34,10.12,8,19.63,8H40C30.49,98.42,23.88,95.72,20.37,90.38Z"/><circle class="cls-4" cx="41.65" cy="69.18" r="12.37" transform="translate(-35.22 93.92) rotate(-76.79)"/><path class="cls-2" d="M43.64,69.78l1.77,6.91H37.9l1.77-6.91a4.29,4.29,0,0,1,2-8.1,4.42,4.42,0,0,1,1.1.14,4.29,4.29,0,0,1,.89,8Z"/><path class="cls-3" d="M43.64,69.78l1.77,6.91H40.1l1.77-6.91a4.3,4.3,0,0,1,.88-8,4.29,4.29,0,0,1,.89,8Z"/><circle class="cls-3" cx="33.39" cy="69.18" r="0.87"/><circle class="cls-3" cx="49.91" cy="69.18" r="0.87"/><path class="cls-6" d="M51.11,6.07a2.18,2.18,0,0,0,1.29-.68"/><path class="cls-6" d="M52.85,7a10.11,10.11,0,0,0,2.3-.91"/><path class="cls-6" d="M54.28,7.62a12.21,12.21,0,0,1,2.62-1"/><path class="cls-6" d="M55.68,8.19a19.58,19.58,0,0,0,2.23-.77"/><path class="cls-6" d="M57.27,9.19l1.36-.48"/><path class="cls-6" d="M58.14,10.41a3.7,3.7,0,0,1,2-.49"/><path class="cls-6" d="M59.08,11.23a6.74,6.74,0,0,1,1.66-.3"/><path class="cls-6" d="M60,12.54a4,4,0,0,1,2-.08"/><path class="cls-6" d="M61,13.9l1.52-.24"/><path class="cls-6" d="M61.54,15.28h1.52"/><path class="cls-6" d="M62.48,16.77a17,17,0,0,0,1.74-.16"/><path class="cls-6" d="M62.92,18.07c.63,0,1.25-.07,1.88-.15"/><path class="cls-6" d="M63.28,19.35l1.52-.08"/><path class="cls-6" d="M63.86,21c.58-.05,1.16-.12,1.73-.2"/><path class="cls-6" d="M63.8,23A3.58,3.58,0,0,1,66,22.85"/><path class="cls-6" d="M64.3,24.38l2.31-.22"/><path class="cls-6" d="M65,25.7l1.59-.17"/><path class="cls-6" d="M65,27l1,0"/><path class="cls-6" d="M65.16,28.72l1-.12"/><path class="cls-6" d="M65.09,29.79a4.69,4.69,0,0,0,.86-.2"/><path class="cls-6" d="M65.31,31.5a3,3,0,0,0,.94-.15"/><path class="cls-6" d="M65,32.91l.92-.22"/><path class="cls-6" d="M65,34.19a3,3,0,0,0,1-.31"/><path class="cls-6" d="M65,36.15A3.12,3.12,0,0,0,66,35.69"/><path class="cls-6" d="M18.63,35.62A8.36,8.36,0,0,0,21,35.29"/><path class="cls-6" d="M18.84,34.5a3.38,3.38,0,0,0,1.75-.68"/><path class="cls-6" d="M19.05,33a12.18,12.18,0,0,1,1.54-.53"/><path class="cls-6" d="M19.32,31.66A4.46,4.46,0,0,1,20.88,31"/><path class="cls-6" d="M19.29,29.89c-.06-.11.09-.22.22-.27l1-.36"/><path class="cls-6" d="M19.42,28.72a4.27,4.27,0,0,0,1.17-.63"/><path class="cls-6" d="M19.42,27.2a4.48,4.48,0,0,1,1-.62"/><path class="cls-6" d="M19.57,26a7.57,7.57,0,0,0,1.3-.8"/><path class="cls-6" d="M19.64,24.31a6.52,6.52,0,0,0,1.17-.86"/><path class="cls-6" d="M20,22.22l1.16-.79"/><path class="cls-6" d="M20.29,20.47,22,19.62"/><path class="cls-6" d="M21.09,18.3l1.68-.79"/><path class="cls-6" d="M22.18,16.49a5.77,5.77,0,0,0,1.38-.58"/><path class="cls-6" d="M23.12,14.9a9.25,9.25,0,0,0,2.1-.3"/><path class="cls-6" d="M24.43,13.79l1.6-.25"/><path class="cls-6" d="M25.59,12.41l1.52-.13"/><path class="cls-6" d="M26.75,11.08,28.27,11"/><path class="cls-6" d="M27.68,10a2.12,2.12,0,0,1,1.38.2"/><path class="cls-6" d="M29,9a7,7,0,0,0,1,.28"/><path class="cls-6" d="M30.16,8.06a1.73,1.73,0,0,1,1,.47"/><path class="cls-6" d="M31.46,7.65a.8.8,0,0,1,.79.36"/><path class="cls-6" d="M32.76,6.91a.79.79,0,0,1,.65.38"/><path class="cls-6" d="M33.85,6.49a.58.58,0,0,1,.59.36"/><path class="cls-6" d="M35.08,6.05a3.14,3.14,0,0,1,.57.45"/><path class="cls-6" d="M36.68,6.05l.22.58"/><path class="cls-6" d="M37.84,5.82a.33.33,0,0,1,.2.44"/><path class="cls-6" d="M39.44,5.68a.3.3,0,0,1,.06.3"/><path class="cls-6" d="M66.89,44.45a7.12,7.12,0,0,1,2-.64"/><path class="cls-6" d="M67.48,45.49a20.34,20.34,0,0,1,2.25-.73"/><path class="cls-6" d="M68.72,46.5a2.66,2.66,0,0,1,1.59-.26"/><path class="cls-6" d="M69,47.67a4.13,4.13,0,0,1,1.52-.23"/><path class="cls-6" d="M69.74,48.69a1.8,1.8,0,0,1,1.31,0"/><path class="cls-6" d="M70.1,49.94l1.22-.19"/><path class="cls-6" d="M70.32,51.33l1.51-.21"/><path class="cls-6" d="M70.6,52.5,72,52.21"/><path class="cls-6" d="M71,53.81c.46-.08.92-.18,1.36-.3"/><path class="cls-6" d="M71.26,55.23a7.15,7.15,0,0,0,1.51-.33"/><path class="cls-6" d="M71.84,56.48A5.87,5.87,0,0,0,73,56.1"/><path class="cls-6" d="M72.21,57.58c.41-.08.81-.18,1.21-.3"/><path class="cls-6" d="M72.43,59.52a13.85,13.85,0,0,0,1.35-.64"/><path class="cls-6" d="M72.92,60.57a7.33,7.33,0,0,0,1.23-.67"/><path class="cls-6" d="M73.51,61.37l.92-.55"/><path class="cls-6" d="M74,62.08l.79-.45"/><path class="cls-6" d="M74.22,63.16l1-.49"/><path class="cls-6" d="M74.8,68.45a24.72,24.72,0,0,1,3.63-.58"/><path class="cls-6" d="M75.66,69.8a12.7,12.7,0,0,1,3.06-.44"/><path class="cls-6" d="M76.54,71.29a4.6,4.6,0,0,1,2.62-.19"/><path class="cls-6" d="M77.49,72.56l1.59,0"/><path class="cls-6" d="M78,73.81a4.88,4.88,0,0,1,1.69.33"/><path class="cls-6" d="M78.12,75c0,.09.1.15.19.17l1.29.35"/><path class="cls-6" d="M78.14,76.5a2.06,2.06,0,0,1,1.49.54"/><path class="cls-6" d="M78,78a5.34,5.34,0,0,0,.89.36,1.05,1.05,0,0,1,.67.63"/><path class="cls-6" d="M78.35,79.38a1.76,1.76,0,0,1,1.5,1.32"/><path class="cls-6" d="M78.49,80.94a2.34,2.34,0,0,1,1,1.07"/><path class="cls-6" d="M78.14,82l.7.62c.23.19.48.51.3.76"/><path class="cls-6" d="M78.22,83.6a5,5,0,0,1,1,1.67"/><path class="cls-6" d="M77.85,85.28A1.92,1.92,0,0,1,79,86.36"/><path class="cls-6" d="M77.34,86.73A2.85,2.85,0,0,1,78.81,88"/><path class="cls-6" d="M77.05,88.4a1.64,1.64,0,0,1,1.53.71"/><path class="cls-6" d="M76.54,89.84a1.21,1.21,0,0,1,1.09.87"/><path class="cls-6" d="M76.4,91a1.22,1.22,0,0,1,.93.89"/><path class="cls-6" d="M75.76,92.78a1.14,1.14,0,0,1,.69.76"/><path class="cls-6" d="M75.53,93.9a.58.58,0,0,1,.29.36"/><path class="cls-6" d="M50.76,106.5l1,2"/><path class="cls-6" d="M52.07,106.5a4.24,4.24,0,0,0,.84,1.32"/><path class="cls-6" d="M53.38,106.13l1,1.63"/><path class="cls-6" d="M54.9,106.14a3.18,3.18,0,0,0,1,1.27"/><path class="cls-6" d="M56.18,106.15a3.82,3.82,0,0,0,.86,1.31"/><path class="cls-6" d="M57.33,105.91a2.13,2.13,0,0,0,.91,1.1"/><path class="cls-6" d="M58.38,105.48a5.76,5.76,0,0,0,1.06,1.25"/><path class="cls-6" d="M59.65,105.21c.34.41.69.81,1,1.22"/><path class="cls-6" d="M60.86,105l1,.86"/><path class="cls-6" d="M62.2,104.75a2.51,2.51,0,0,1,1.14,1"/><path class="cls-6" d="M63.42,104.2c.07-.13.26,0,.37,0l.7.56"/><path class="cls-6" d="M64.68,103.43c.51.31,1,.64,1.49,1"/><path class="cls-6" d="M66.11,103a7.57,7.57,0,0,1,1.45.58"/><path class="cls-6" d="M67.12,102.19a1.68,1.68,0,0,1,1.36.57"/><path class="cls-6" d="M68.49,101.41a1.33,1.33,0,0,1,1.3.4"/><path class="cls-6" d="M70,100.61a2,2,0,0,1,1.24.38"/><path class="cls-6" d="M71.18,99.47a.9.9,0,0,1,.72,0"/><path class="cls-6" d="M71.91,98.47l.57-.09"/><path class="cls-6" d="M72.84,97.09a.26.26,0,0,1,.36,0"/><path class="cls-6" d="M6.52,79.67a12.52,12.52,0,0,0,2-.76"/><path class="cls-6" d="M6.83,80.89a3.9,3.9,0,0,0,1.8-1.12"/><path class="cls-6" d="M7.18,82.52a10.66,10.66,0,0,1,2-1.14"/><path class="cls-6" d="M7.25,84.27A9.82,9.82,0,0,1,9.43,83"/><path class="cls-6" d="M7.58,85.9l2.06-1.64"/><path class="cls-6" d="M8.12,87.46a11.63,11.63,0,0,0,1.59-1.17"/><path class="cls-6" d="M8.8,88.59a9.8,9.8,0,0,0,1.64-1.14"/><path class="cls-6" d="M9.52,90.24a2.55,2.55,0,0,0,1.12-1.13"/><path class="cls-6" d="M10.44,91.94l1.08-1.3"/><path class="cls-6" d="M11.18,93.34a8.42,8.42,0,0,0,1.3-1.61"/><path class="cls-6" d="M11.69,94.42l1.14-1.32"/><path class="cls-6" d="M12.5,95.38a6.33,6.33,0,0,0,1.36-1.84"/><path class="cls-6" d="M13.65,96.17a4.09,4.09,0,0,0,1-1.4"/><path class="cls-6" d="M14.73,96.74a9.57,9.57,0,0,0,.9-1.59"/><path class="cls-6" d="M15.88,97.17a7.33,7.33,0,0,1,.67-1.23"/><path class="cls-6" d="M17.18,98.1A6.32,6.32,0,0,1,18,96.72"/><path class="cls-6" d="M18.2,98.32l.64-1.09"/><path class="cls-6" d="M19.14,98.25l.36-.5"/><path class="cls-6" d="M20.07,99c.08-.14.15-.29.22-.43"/><path class="cls-6" d="M6.93,77.17s0,0,0,0,0-.06.06-.07c.6-.24,1.21-.45,1.82-.63"/><path class="cls-6" d="M6.8,75.59A8.53,8.53,0,0,1,9,75.37"/><path class="cls-6" d="M7.82,73.93a13.51,13.51,0,0,1,1.54-.3"/><path class="cls-6" d="M8,72.58a3.23,3.23,0,0,1,1.67-.35"/><path class="cls-6" d="M8.69,71.33,10.23,71"/><path class="cls-6" d="M9.2,69.6a3.83,3.83,0,0,1,1.17-.13"/><path class="cls-6" d="M15.2,44.86a6.79,6.79,0,0,0,.8-1.78"/><path class="cls-6" d="M16.74,44a10.19,10.19,0,0,1,.81-1.66"/><path class="cls-6" d="M17.58,43.92a3.81,3.81,0,0,0,.84-1.26"/><path class="cls-6" d="M18.62,44.1l.79-1.53"/><path class="cls-6" d="M20.8,42.15l-.6,1.29"/><path class="cls-6" d="M22,42.29a3.27,3.27,0,0,0-.71,1.24"/><path class="cls-6" d="M23,42.09l-.5,1.16"/><path class="cls-6" d="M24.73,42,24,43.23"/><path class="cls-6" d="M26.09,42c-.22.39-.43.78-.64,1.17"/><path class="cls-6" d="M27.7,41.94l-.65.94"/><path class="cls-6" d="M28.43,42.16c-.19.31-.38.63-.58.94"/><path class="cls-6" d="M29.72,42.3l-.5.73"/><path class="cls-6" d="M30.6,42.3c-.14.27-.29.53-.44.8"/><path class="cls-6" d="M14.78,43l-.71,1.39"/><path class="cls-6" d="M32.11,102.8a13.87,13.87,0,0,1,2.1-.67"/><path class="cls-6" d="M32.83,104.12a4.33,4.33,0,0,1,1.82-.87"/><path class="cls-6" d="M34,104.78a3,3,0,0,1,1.43-.74"/><path class="cls-6" d="M35.1,105.53a3.15,3.15,0,0,1,.77-.35"/><path class="cls-6" d="M35.41,106.45a.64.64,0,0,1,.7-.42"/><path class="cls-6" d="M36.1,107.38a1.46,1.46,0,0,1,.58-.36"/><path class="cls-6" d="M42.47,44l2.18-.77"/><path class="cls-6" d="M43.33,44.79a15.28,15.28,0,0,1,2-.65"/><path class="cls-6" d="M44.28,45.39A11.34,11.34,0,0,0,46,45"/><path class="cls-6" d="M44.8,46.1a13,13,0,0,0,1.87-.28"/><path class="cls-6" d="M45.74,47.06l1.59.08"/><path class="cls-6" d="M46.17,48a1.75,1.75,0,0,1,1.1.21"/><path class="cls-6" d="M46.25,49a1.21,1.21,0,0,1,.65.06"/><path class="cls-6" d="M59.15,55a3.81,3.81,0,0,1,1.67-.56"/><path class="cls-6" d="M59.72,55.66c.58,0,1.16-.09,1.75-.11"/><path class="cls-6" d="M60,57.15a3.64,3.64,0,0,1,2.32-.3"/><path class="cls-6" d="M60.16,58.65a9.3,9.3,0,0,1,2.1-.34"/><path class="cls-6" d="M61,59.61l2.54-.33"/><path class="cls-6" d="M61.18,60.88a16.57,16.57,0,0,1,2.53-.26"/><path class="cls-6" d="M62.05,61.92l2.1,0"/><path class="cls-6" d="M62.41,63.39a4.43,4.43,0,0,1,1.74,0"/><path class="cls-6" d="M62.92,64.49a10.94,10.94,0,0,1,1.81,0"/><path class="cls-6" d="M63.06,65.68c.58,0,1.16,0,1.74-.07"/><path class="cls-6" d="M63.79,66.92A3.69,3.69,0,0,1,65,67"/><path class="cls-6" d="M64.08,68.14l1.66,0"/><path class="cls-6" d="M64.76,69.15a4,4,0,0,0,1.14,0,1.17,1.17,0,0,1,1,.35"/><path class="cls-6" d="M65.53,70.74a4.47,4.47,0,0,1,1.59,0"/><path class="cls-6" d="M66.12,71.85a4.22,4.22,0,0,1,1.66,0"/><path class="cls-6" d="M66.77,72.64a2,2,0,0,1,1.16,0"/><path class="cls-6" d="M67,74l1,.25"/><path class="cls-6" d="M67.41,75.39a2.76,2.76,0,0,1,1,.13"/><path class="cls-6" d="M67.19,76.8a1.5,1.5,0,0,1,.73.06"/><path class="cls-6" d="M67.49,77.79l.57.24"/><path class="cls-6" d="M67.34,78.68a.7.7,0,0,1,.44.21"/><path class="cls-6" d="M65.16,81.9a6,6,0,0,1,2.64,1.32"/><path class="cls-6" d="M65.45,83.69a7.66,7.66,0,0,1,2.12,1.06"/><path class="cls-6" d="M65.09,85.13a3.69,3.69,0,0,1,1.82.93"/><path class="cls-6" d="M64.87,86a1.35,1.35,0,0,1,1.21,1"/><path class="cls-6" d="M64.37,87.31a1.08,1.08,0,0,1,1,.79"/><path class="cls-6" d="M63.79,88.18a.74.74,0,0,1,.73.79"/><path class="cls-6" d="M62.92,89.25a1.19,1.19,0,0,1,.61.88"/><path class="cls-6" d="M62.4,90a1.05,1.05,0,0,1,.63.54"/><path class="cls-6" d="M61.62,90.69a2.11,2.11,0,0,1,.77.47"/><path class="cls-6" d="M60.74,91.29a1.06,1.06,0,0,1,.66.36"/><path class="cls-6" d="M60.46,91.79l.43.8"/><path class="cls-6" d="M59.43,92.89a.64.64,0,0,1,.3.58"/><path class="cls-6" d="M58.48,93.27a.71.71,0,0,1,.33.56"/><path class="cls-6" d="M57.28,93.9a1.24,1.24,0,0,1,0,.87"/><path class="cls-6" d="M56.4,95a.35.35,0,0,1,0,.44"/><path class="cls-6" d="M55.31,95.06a.12.12,0,0,1-.15.07"/><path class="cls-6" d="M25.15,64.79H27"/><path class="cls-6" d="M24.72,66.58a2.84,2.84,0,0,1,1.6-.21"/><path class="cls-6" d="M24.87,68.18a8.87,8.87,0,0,1,2-.54"/><path class="cls-6" d="M25,69.92l1.45-.51"/><path class="cls-6" d="M25.39,71.35c.53-.19,1-.4,1.55-.62"/><path class="cls-6" d="M25.52,73.1a.16.16,0,0,0,.07.18A5.82,5.82,0,0,0,27.12,72"/><path class="cls-6" d="M25.9,74.79l1.42-1.05"/><path class="cls-6" d="M26.76,76.57c.11.19.39,0,.54-.12l.75-.81"/><path class="cls-6" d="M27.7,77.83a6.76,6.76,0,0,0,1.14-1.19"/><path class="cls-6" d="M28.67,79.07a12.25,12.25,0,0,0,.9-1.12"/><path class="cls-6" d="M29.45,80.5l.94-1.38"/><path class="cls-6" d="M30.33,81.16c.32-.44.64-.89,1-1.33"/><path class="cls-6" d="M31.6,82.16l.81-1.45"/><path class="cls-6" d="M32.41,82.09l.56-1"/><path class="cls-6" d="M33.42,83.1c.15-.26.29-.53.43-.8"/><path class="cls-6" d="M34.36,83.83c.12-.29.24-.58.37-.87"/><path class="cls-6" d="M26.68,63.17a7.7,7.7,0,0,1,1.66.08"/><path class="cls-6" d="M27.33,62.3l1.23-.07"/><path class="cls-6" d="M28,61.11l.94-.09"/><path class="cls-6" d="M28.63,60.49a.6.6,0,0,1,.51-.15"/><path class="cls-6" d="M43.35,58.9l1.23-.74"/><path class="cls-6" d="M44.42,59.38l1-.69"/><path class="cls-6" d="M45.81,60l1-.6"/><path class="cls-6" d="M46.82,60.4a3.26,3.26,0,0,1,1.24-.49"/><path class="cls-6" d="M47.41,61.14a3.28,3.28,0,0,1,1.3-.56"/><path class="cls-6" d="M48.28,61.59l1-.37"/><path class="cls-6" d="M48.86,62.24l1.08-.15"/><path class="cls-6" d="M49.3,63a2.52,2.52,0,0,1,1.22,0"/><path class="cls-6" d="M49.94,63.84l1.23.14"/><path class="cls-6" d="M50.52,64.85a1.59,1.59,0,0,1,1.17.19"/><path class="cls-6" d="M51.32,65.56a1.55,1.55,0,0,1,.87.15"/><path class="cls-6" d="M51.25,66.5a1.13,1.13,0,0,1,.8.29"/><path class="cls-6" d="M51.67,67.54a3.18,3.18,0,0,0,.74.17"/><path class="cls-6" d="M40.9,79.17a2.52,2.52,0,0,1,.71,1.18"/><path class="cls-6" d="M41.85,79.16a2.68,2.68,0,0,1,.62.9"/><path class="cls-6" d="M42.86,79.14a1.2,1.2,0,0,1,.67.71"/><path class="cls-6" d="M43.77,78.91l1,.69"/><path class="cls-6" d="M44.87,78.74a1,1,0,0,1,.73.52"/><path class="cls-6" d="M45.67,78.46a.91.91,0,0,1,.72.44"/><path class="cls-6" d="M46.39,78a1,1,0,0,1,.73.44"/><path class="cls-6" d="M46.91,77.5l.92.32"/><path class="cls-6" d="M47.55,76.65a1.41,1.41,0,0,1,1.09.44"/><path class="cls-6" d="M48.28,76a1,1,0,0,1,1,.39"/><path class="cls-6" d="M49,75.42a3,3,0,0,1,.94.07"/><path class="cls-6" d="M49.58,74.54a.72.72,0,0,1,.87.23"/><path class="cls-6" d="M49.93,73.72a1.22,1.22,0,0,1,.73,0"/><path class="cls-6" d="M50.3,72.88h.58"/><path class="cls-6" d="M51,72.16h.43"/><path class="cls-6" d="M34.62,75.17a1.25,1.25,0,0,0,1.34.49"/><path class="cls-6" d="M35.16,74.54l1.08.09"/><path class="cls-6" d="M35.66,73.68h.87"/><path class="cls-6" d="M35.88,72.73l1,.08"/><path class="cls-6" d="M36.39,71.5a.82.82,0,0,0,.65,0"/><path class="cls-6" d="M36.39,70.6a3.26,3.26,0,0,0,1-.17"/><path class="cls-6" d="M36.68,69.55h.43"/><path class="cls-6" d="M35.3,68.25a.74.74,0,0,0,.72,0"/><path class="cls-6" d="M34.93,67.29a3.43,3.43,0,0,0,.81-.41"/><path class="cls-6" d="M35.08,66.35l.73-.2"/><path class="cls-6" d="M35.23,65.27a3.8,3.8,0,0,0,1-.08"/><path class="cls-6" d="M35.37,64.18h.73"/><path class="cls-6" d="M35.81,63.38a1.65,1.65,0,0,0,.73-.05"/><path class="cls-6" d="M36.25,62.6l.36-.07"/><path class="cls-6" d="M27.62,89.7a3.38,3.38,0,0,0,1.81-.44"/><path class="cls-6" d="M28.48,90.84l2.39-1.09"/><path class="cls-6" d="M29.5,92.51a17.76,17.76,0,0,0,2.33-1.21"/><path class="cls-6" d="M31.27,92.92l1.79-1.33"/><path class="cls-6" d="M32.41,93.26a4.28,4.28,0,0,0,1.31-1.16"/><path class="cls-6" d="M33.7,94l1.24-1.29"/><path class="cls-6" d="M34.66,94.35a5.81,5.81,0,0,0,1-1.09"/><path class="cls-6" d="M35.68,94.8a1.86,1.86,0,0,0,.77-1"/><path class="cls-6" d="M37.13,94.93A13,13,0,0,1,38,93.81"/><path class="cls-6" d="M38.06,95.21a3.1,3.1,0,0,0,.45-.79"/><path class="cls-6" d="M39.23,95.36l.39-.54"/><path class="cls-6" d="M40.22,95.69a.35.35,0,0,0,.18-.42"/></g></g></svg>