<svg xmlns="http://www.w3.org/2000/svg" viewBox="0 0 101.67 110.69"><defs><style>.cls-1{isolation:isolate;}.cls-2{fill:#dcdbdb;}.cls-2,.cls-3,.cls-4,.cls-6,.cls-7{stroke:#231f20;stroke-linecap:round;stroke-linejoin:round;}.cls-2,.cls-4,.cls-6{stroke-width:0.87px;}.cls-3{fill:#231f20;stroke-width:0.43px;}.cls-4,.cls-5{fill:#666766;}.cls-5{opacity:0.3;mix-blend-mode:screen;}.cls-6,.cls-7{fill:none;}.cls-7{stroke-width:0.33px;}</style></defs><g class="cls-1"><g id="Layer_1" data-name="Layer 1"><path class="cls-2" d="M44.5,15.88c-4.88-.23-9.08,2-12,4.22,0-2.33.11-5.21.33-8,.41-5.2,1-10,1-10S36.33,4.89,39,8.28A80.37,80.37,0,0,1,44.5,15.88Z"/><path class="cls-3" d="M44.5,15.88c-4.88-.23-9.08,2-12,4.22,0-2.33.11-5.21.33-8A44.63,44.63,0,0,1,39,8.28,80.37,80.37,0,0,1,44.5,15.88Z"/><path class="cls-2" d="M17.9,65.48l-.79-.13c-2.64-.46-5.8-1.22-8.65-2-4.37-1.15-8-2.28-8-2.28s3.76-2.32,8.06-4.63a75.52,75.52,0,0,1,7-3.39l.24-.1c0,.2-.08.39-.12.58a18.41,18.41,0,0,0,1.8,11h0Z"/><path class="cls-3" d="M18.11,62.74s-.24.76-.67,1.82h0c-.1.25-.2.52-.33.79-2.64-.46-5.8-1.22-8.65-2a31.15,31.15,0,0,1,0-6.91,75.52,75.52,0,0,1,7-3.39l.12.48Z"/><path class="cls-2" d="M101.24,30.67s-2.68,2.78-5.82,5.65c-1.18,1.09-2.44,2.18-3.63,3.14-.56.45-1.1.87-1.62,1.25a16,16,0,0,0-4.45-10l.61-.05c2.35-.19,5.23-.23,7.83-.2C98,30.51,101.24,30.67,101.24,30.67Z"/><path class="cls-3" d="M95.42,36.32c-1.18,1.09-2.44,2.18-3.63,3.14a66.17,66.17,0,0,1-5.46-8.78c2.35-.19,5.23-.23,7.83-.2A31.89,31.89,0,0,1,95.42,36.32Z"/><path class="cls-2" d="M66.74,89.9c-.18,2.61-.62,5.8-1.13,8.87-1,6-2.17,11.48-2.17,11.48s-5.1-6.85-8.74-13c-.75-1.27-1.44-2.52-2-3.67C58.25,94.3,63.24,92.14,66.74,89.9Z"/><path class="cls-3" d="M66.74,89.9c-.18,2.61-.62,5.8-1.13,8.87A52.62,52.62,0,0,1,54.7,97.23c-.75-1.27-1.44-2.52-2-3.67C58.25,94.3,63.24,92.14,66.74,89.9Z"/><path class="cls-4" d="M97.2,52A43.47,43.47,0,1,1,80.64,17.94,43.17,43.17,0,0,1,97.2,52Z"/><path class="cls-3" d="M73.53,44.75s-1.89,5.55,2,8.49,16.19,5.29,16.19,5.29S90,45.24,84,44.12A21,21,0,0,0,73.53,44.75Z"/><path class="cls-5" d="M35.68,39.7c-3.82,6.47-9.84,10-13.46,7.84S18.78,38.43,22.6,32s9.85-10,13.46-7.83S39.51,33.24,35.68,39.7Z"/><path class="cls-3" d="M89.13,77.24a43.48,43.48,0,0,1-8.93,9.24c-3.46-1.1-7.48-2.43-10.65-3.65-7.06-2.72-7.17-8.69-7.17-8.69Z"/><path class="cls-3" d="M31.58,89.29a43.44,43.44,0,0,1-8.06-6.2c4.35-3,10.76-6.65,11.24-3.08C35.11,82.59,33.43,86.21,31.58,89.29Z"/><path class="cls-3" d="M23,39.71c-1.32,1.38-6.65.53-10.63-.35a43.2,43.2,0,0,1,3.79-8.79C18.84,32.83,24.63,38,23,39.71Z"/><path class="cls-3" d="M80.64,17.94c-1.76,2.24-4,5-6,7.1-3.92,4.13-9.06,1-9.06,1L69.83,11.7A43.33,43.33,0,0,1,80.64,17.94Z"/><path class="cls-2" d="M73.11,24.41c-1.47,3.1-5.78,4.13-9.6,2.31s-5.74-5.82-4.26-8.92S76,.43,76,.43,74.59,21.3,73.11,24.41Z"/><path class="cls-2" d="M79,53.29c-3.65-.17-6.44-3.62-6.25-7.71s3.31-7.25,7-7.08S94.54,46,94.54,46,82.6,53.47,79,53.29Z"/><path class="cls-2" d="M66.94,80.28c-4.18-1.23-6.34-6.42-4.82-11.59s6.15-8.36,10.33-7.13S97.6,79.14,97.6,79.14,71.13,81.51,66.94,80.28Z"/><path class="cls-2" d="M25.91,26.59c3,1.17,4.27,5.14,2.82,8.85S23.67,41.2,20.66,40,3.26,25.48,3.26,25.48,22.91,25.41,25.91,26.59Z"/><path class="cls-2" d="M22.3,72c2.76-2.34,7.34-1.47,10.23,1.94s3,8.07.22,10.41-23.64,9.4-23.64,9.4S19.54,74.32,22.3,72Z"/><path class="cls-2" d="M59.11,49.37S53.84,58.94,44.8,61.42s-18.46-3.07-18.46-3.07a31.08,31.08,0,0,1,6.83-8A22.78,22.78,0,0,1,36.58,48,17.89,17.89,0,0,1,45,45.68a23.43,23.43,0,0,1,4.14.27A31.28,31.28,0,0,1,59.11,49.37Z"/><path class="cls-4" d="M49.94,47.88A8.54,8.54,0,0,1,33.47,52.4a8.28,8.28,0,0,1-.3-2.07A22.78,22.78,0,0,1,36.58,48,17.89,17.89,0,0,1,45,45.68a23.43,23.43,0,0,1,4.14.27A8.89,8.89,0,0,1,49.94,47.88Z"/><path class="cls-3" d="M47.06,48.67a5.55,5.55,0,0,1-10.71,2.94A5.46,5.46,0,0,1,36.58,48,17.89,17.89,0,0,1,45,45.68,5.46,5.46,0,0,1,47.06,48.67Z"/><path class="cls-2" d="M41,54.05a2.25,2.25,0,1,1-2.76-1.58A2.24,2.24,0,0,1,41,54.05Z"/><path class="cls-6" d="M48.28,67.62s5.19,1.09,7.47-3.8"/><path class="cls-7" d="M51.31,54.62l1,.4"/><path class="cls-7" d="M52.28,54l.91.51"/><path class="cls-7" d="M53,53.56a3,3,0,0,0,.87.32"/><path class="cls-7" d="M53.48,52.89a2.84,2.84,0,0,0,1,.42"/><path class="cls-7" d="M54,52.24l.92.29"/><path class="cls-7" d="M54.51,51.59a4.18,4.18,0,0,0,.69.2"/><path class="cls-7" d="M55,50.78l.54.07"/><path class="cls-7" d="M55.43,49.92a.61.61,0,0,1,.43.11"/><path class="cls-7" d="M55.7,49.43a.42.42,0,0,1,.32.11"/><path class="cls-7" d="M30.72,58.4a2.83,2.83,0,0,0,.82-.87"/><path class="cls-7" d="M31.76,58.78l.5-.7"/><path class="cls-7" d="M32.56,59.2a3.87,3.87,0,0,0,.5-.86"/><path class="cls-7" d="M33.54,59.42a1.73,1.73,0,0,1,.37-.66"/><path class="cls-7" d="M34.2,59.53a1.61,1.61,0,0,1,.25-.55"/><path class="cls-7" d="M35.33,59.75l.23-.32"/><path class="cls-7" d="M43.69,64a2.9,2.9,0,0,0,.29-.81"/><path class="cls-7" d="M45,62.9a1.71,1.71,0,0,1,.16.7"/><path class="cls-7" d="M46.24,62.52a4,4,0,0,1,.2.75"/><path class="cls-7" d="M47.12,62.3l.12.65"/><path class="cls-7" d="M48.37,62l.21.76"/><path class="cls-7" d="M49.24,61.54l.54.6"/><path class="cls-7" d="M50.21,61.12a.93.93,0,0,1,.57.4"/><path class="cls-7" d="M51.19,60.51c.32.23.64.48.94.74"/><path class="cls-7" d="M52.66,59.91l.65.38"/><path class="cls-7" d="M53.74,59.1l.75.4"/><path class="cls-7" d="M54.88,58.34l.65.38"/><path class="cls-7" d="M55.75,57.47l.6.21"/><path class="cls-7" d="M56.78,56.65l.66.22"/><path class="cls-7" d="M57.49,55.73l.6.11"/><path class="cls-7" d="M58.2,54.91c0,.17.1.33.16.49"/><path class="cls-7" d="M23,55.16a3.87,3.87,0,0,1,1.12.54"/><path class="cls-7" d="M24.09,54.1a2.62,2.62,0,0,0,1,.39"/><path class="cls-7" d="M25.12,53.24l.76.38"/><path class="cls-7" d="M26.11,52.3a1.89,1.89,0,0,0,.68.47"/><path class="cls-7" d="M27.25,51.38a1.36,1.36,0,0,0,.52.46"/><path class="cls-7" d="M28.06,50.68l.48.43"/><path class="cls-7" d="M29,50l.6.38"/><path class="cls-7" d="M30,49.48l.49.28"/><path class="cls-7" d="M30.82,48.89l.28.27"/><path class="cls-7" d="M47.61,13.17,50,10.41"/><path class="cls-7" d="M50,12.23,52.48,10"/><path class="cls-7" d="M52.67,12.07a21.89,21.89,0,0,1,2.84-2.22"/><path class="cls-7" d="M54.77,12.14,57,10.47"/><path class="cls-7" d="M57,12.3l2.46-1.53"/><path class="cls-7" d="M58.49,12.55c.68-.42,1.35-.87,2-1.35"/><path class="cls-7" d="M80.36,25.09l2.86-1.38"/><path class="cls-7" d="M81.67,26.22A7.14,7.14,0,0,1,84.32,25"/><path class="cls-7" d="M82.94,27.37a27.16,27.16,0,0,1,3.26-1.1"/><path class="cls-7" d="M84.39,29l3.47-.95"/><path class="cls-7" d="M86.07,30.22a17.79,17.79,0,0,1,2.81-.71"/><path class="cls-7" d="M87.36,31.38a7.4,7.4,0,0,0,2.1,0"/><path class="cls-7" d="M87.87,32.94l2-.13"/><path class="cls-7" d="M88.16,34.6l2-.16"/><path class="cls-7" d="M89,35.83h1.81"/><path class="cls-7" d="M89.89,37.29a7,7,0,0,1,1.45.13"/><path class="cls-7" d="M90.47,38.8l1.16-.07"/><path class="cls-7" d="M91.13,40.24l1.23.14"/><path class="cls-7" d="M92.5,41.63l.58.07"/><path class="cls-7" d="M91.41,52l3,.23"/><path class="cls-7" d="M91.2,53.94a10.05,10.05,0,0,1,3.47.72"/><path class="cls-7" d="M91.63,56.11c1,.06,1.94.17,2.91.32"/><path class="cls-7" d="M91.27,57.57a7,7,0,0,1,2.62.68"/><path class="cls-7" d="M91.2,58.93l2.1.49"/><path class="cls-7" d="M91.34,60.09l1.6.35"/><path class="cls-7" d="M90.83,61.4A7,7,0,0,1,92.3,62"/><path class="cls-7" d="M90.18,62.49a9.18,9.18,0,0,1,1.61.85"/><path class="cls-7" d="M89.39,64.09a3.27,3.27,0,0,1,2,.69"/><path class="cls-7" d="M88.74,65a12.67,12.67,0,0,1,2.1.93"/><path class="cls-7" d="M88.73,66.19a13.18,13.18,0,0,1,1.83,1.12"/><path class="cls-7" d="M87.93,68.22a3.74,3.74,0,0,1,2,1.29"/><path class="cls-7" d="M51.63,90.47A15.29,15.29,0,0,1,53.14,93"/><path class="cls-7" d="M53.17,89.57a22.41,22.41,0,0,0,3.26,3.55"/><path class="cls-7" d="M55.59,89.25a42.65,42.65,0,0,0,3.27,3.18"/><path class="cls-7" d="M58,89l3.79,3.09"/><path class="cls-7" d="M60.86,89.27A16.74,16.74,0,0,0,64,91.46"/><path class="cls-7" d="M62.69,89l3.64,2.19"/><path class="cls-7" d="M65.78,88.56a11.62,11.62,0,0,1,2.33,1"/><path class="cls-7" d="M67.37,87.83l2,.94"/><path class="cls-7" d="M69.4,87.25l1.74.58"/><path class="cls-7" d="M71.94,86.81l.43.44"/><path class="cls-7" d="M39.87,81.16l2.07,2.48"/><path class="cls-7" d="M41.13,81a14.9,14.9,0,0,0,2.36,2"/><path class="cls-7" d="M43.19,81.09a10,10,0,0,0,1.74,1.37"/><path class="cls-7" d="M44.64,80.65c.53.35,1.08.68,1.64,1"/><path class="cls-7" d="M46.37,80.08,47.9,81"/><path class="cls-7" d="M47.68,79.43l1.37.72"/><path class="cls-7" d="M68.68,44.75a5.13,5.13,0,0,1,1.58-.63"/><path class="cls-7" d="M68.61,46.19a3.9,3.9,0,0,1,1.51-.6"/><path class="cls-7" d="M69,47.56,70.55,47"/><path class="cls-7" d="M69.62,49.09l1.3-.51"/><path class="cls-7" d="M70,51l1.52-.87"/><path class="cls-7" d="M71.07,52l1.16-.22"/><path class="cls-7" d="M71.79,52.92l1.38-.07"/><path class="cls-7" d="M73,53.94l1.16.07"/><path class="cls-7" d="M74,55l1.16.44"/><path class="cls-7" d="M75.12,56l1.31.8c0-.53.09-1,.07-1.52"/><path class="cls-7" d="M34.43,5.27a1.12,1.12,0,0,0,.51-.5"/><path class="cls-7" d="M34.86,5.86l.59-.5"/><path class="cls-7" d="M35.08,6.73A2.88,2.88,0,0,1,36,6.06"/><path class="cls-7" d="M35.58,7.66A3.1,3.1,0,0,0,36.45,7"/><path class="cls-7" d="M36,8.39A3.4,3.4,0,0,0,37,7.73"/><path class="cls-7" d="M95.85,33.15A1.73,1.73,0,0,1,96,34"/><path class="cls-7" d="M96.63,32.87l.21.65"/><path class="cls-7" d="M97.35,32.29l.12.71"/><path class="cls-7" d="M98.15,32a.58.58,0,0,1,.1.51"/><path class="cls-7" d="M75.74,48.79a10,10,0,0,0,.72,2.05"/><path class="cls-7" d="M77.41,49a4.2,4.2,0,0,0,1,2.09"/><path class="cls-7" d="M79,49.37a6,6,0,0,0,1,1.63"/><path class="cls-7" d="M81,49a5.9,5.9,0,0,0,.72,1.24"/><path class="cls-7" d="M82.43,48.65l.72,1"/><path class="cls-7" d="M84,48.08l.65.87"/><path class="cls-7" d="M85.48,47.35c.19.31.38.63.58.94"/><path class="cls-7" d="M86.79,46.91a4.13,4.13,0,0,0,.55.81"/><path class="cls-7" d="M87.79,46.7l.57.51"/><path class="cls-7" d="M88.81,46.19l.43.51"/><path class="cls-7" d="M90,46l.14.36"/><path class="cls-7" d="M66.5,24.68a5.21,5.21,0,0,0,2.54.8"/><path class="cls-7" d="M68.37,23.63a6.77,6.77,0,0,0,2.62.6"/><path class="cls-7" d="M69.55,22.22a2.84,2.84,0,0,0,2,.32"/><path class="cls-7" d="M70.27,20.69a4.11,4.11,0,0,0,1.31,0"/><path class="cls-7" d="M70.71,19.53a2,2,0,0,0,1.09-.26"/><path class="cls-7" d="M71.14,17.79a2.59,2.59,0,0,0,1.17-.18"/><path class="cls-7" d="M71.43,16.71l.94-.14"/><path class="cls-7" d="M71.94,15.49a1.87,1.87,0,0,1,.79-.31"/><path class="cls-7" d="M72.07,14.09l.88-.34"/><path class="cls-7" d="M72.15,12.87a2.1,2.1,0,0,0,1-.34"/><path class="cls-7" d="M72.37,11l1-.28"/><path class="cls-7" d="M73,9.75a1.82,1.82,0,0,0,.89-.17"/><path class="cls-7" d="M73.17,9l.94-.35"/><path class="cls-7" d="M73.31,7.59c.2-.09.39-.19.58-.29"/><path class="cls-7" d="M73.6,6.58,74,6.22"/><path class="cls-7" d="M7.49,26.39a.34.34,0,0,1,.28.39"/><path class="cls-7" d="M8.42,26.36a2.38,2.38,0,0,1,.9,1.51"/><path class="cls-7" d="M9.85,26.45A3.21,3.21,0,0,1,10.73,28"/><path class="cls-7" d="M11,26.57a2.85,2.85,0,0,1,.8,1.52"/><path class="cls-7" d="M12.26,26.8A1.53,1.53,0,0,1,13,28.23"/><path class="cls-7" d="M13.86,27a3.71,3.71,0,0,1,1,1.81"/><path class="cls-7" d="M15.52,27a2.14,2.14,0,0,1,.81,1.8"/><path class="cls-7" d="M17.4,27.08a5.91,5.91,0,0,1,.76,2.52"/><path class="cls-7" d="M19.07,27.51A3.73,3.73,0,0,1,20,29.68"/><path class="cls-7" d="M20.74,27.58a10.27,10.27,0,0,1,.66,2.32"/><path class="cls-7" d="M22.21,27.9a6.09,6.09,0,0,1,1,3"/><path class="cls-7" d="M23.64,28.6c.36.07.53.49.63.85.15.56.31,1.12.46,1.68"/><path class="cls-7" d="M24.86,28.59a6.91,6.91,0,0,1,.86,2.68"/><path class="cls-7" d="M26.31,29a3,3,0,0,1,.5,2.45"/><path class="cls-7" d="M3.81,59.76a1,1,0,0,1,.61.84"/><path class="cls-7" d="M5.1,59.51l.29.51"/><path class="cls-7" d="M5.75,59.15a1.15,1.15,0,0,1,.3.65"/><path class="cls-7" d="M6.48,58.64l.21.51"/><path class="cls-7" d="M7.12,58.21l.09.72"/><path class="cls-7" d="M14.23,89.19l1.07,1"/><path class="cls-7" d="M15.3,88.41l1.37,1.32"/><path class="cls-7" d="M16.53,87.91a4.86,4.86,0,0,0,1.54,1.2"/><path class="cls-7" d="M18.06,87.54a7.92,7.92,0,0,0,1.81,1.09"/><path class="cls-7" d="M19.73,86.59l1.52,1"/><path class="cls-7" d="M20.73,85.88a8.33,8.33,0,0,0,2,1.06"/><path class="cls-7" d="M22.26,85.44l2.44,1.12"/><path class="cls-7" d="M24,84.36l2.25,1.3"/><path class="cls-7" d="M25.3,83.48l2.75,1.31"/><path class="cls-7" d="M26.75,82.9l3,1.1"/><path class="cls-7" d="M28.78,81.89c.76.25,1.51.54,2.25.86"/><path class="cls-7" d="M30,80.65a19.32,19.32,0,0,0,2.46.74"/><path class="cls-7" d="M30.73,79.85a10.33,10.33,0,0,0,1.67,0"/><path class="cls-7" d="M31.1,78.12a2.33,2.33,0,0,0,.87-.05"/><path class="cls-7" d="M30.88,76.75l.94-.15"/><path class="cls-7" d="M64.9,74.91c-.06,0,0-.11,0-.1s.09.06.11.11c.52,1.07,1,2.14,1.5,3.22"/><path class="cls-7" d="M67,76.26a4.48,4.48,0,0,0,1.17,2"/><path class="cls-7" d="M68.32,76.45a5.36,5.36,0,0,0,1.57,2.13"/><path class="cls-7" d="M70.49,76.6a11.65,11.65,0,0,0,1.3,1.88"/><path class="cls-7" d="M72.21,76.18A6.76,6.76,0,0,0,74,78.27"/><path class="cls-7" d="M74.47,76.53a6.12,6.12,0,0,0,1.37,1.67"/><path class="cls-7" d="M76.29,76.31a5,5,0,0,0,1.36,1.6"/><path class="cls-7" d="M78.38,76.31a14.55,14.55,0,0,0,1.51,1.53"/><path class="cls-7" d="M80.26,76.53l1.23,1.09"/><path class="cls-7" d="M81.86,76.6l.87.87"/><path class="cls-7" d="M83.31,76.67c.24.24.48.49.71.74"/><path class="cls-7" d="M84.54,76.82l.58.72"/><path class="cls-7" d="M86.34,76.61l.64.73"/><path class="cls-7" d="M87.72,76.75a1.5,1.5,0,0,0,.73.58"/><path class="cls-7" d="M89.31,76.75l.73.72"/><path class="cls-7" d="M90.84,77l.43.72"/><path class="cls-7" d="M61.21,99.91c.83-.25,1.77.37,2.56,0"/><path class="cls-7" d="M62.08,101.12l1.59-.36"/><path class="cls-7" d="M62.16,101.82l1.09-.22"/><path class="cls-7" d="M62.37,102.66l.59-.14"/><path class="cls-7" d="M62.23,103.39l.79-.31"/><path class="cls-7" d="M62.45,104.19h.65"/><path class="cls-7" d="M62.59,105.06l.58.07"/><path class="cls-7" d="M62.74,106.22l.14.51c.37-.1.8,0,1.16-.08"/><path class="cls-2" d="M58.36,31.88a6.72,6.72,0,1,1-6.71-6.71A6.72,6.72,0,0,1,58.36,31.88Z"/><path class="cls-2" d="M56.15,80.54a4.86,4.86,0,1,1-4.85-4.85A4.85,4.85,0,0,1,56.15,80.54Z"/><circle class="cls-2" cx="17.14" cy="52.5" r="3.35"/><path class="cls-7" d="M51.8,35.91l1.74,1"/><path class="cls-7" d="M53.25,35.19a3.77,3.77,0,0,0,1.16.51"/><path class="cls-7" d="M54,34.38l.94.21"/><path class="cls-7" d="M54.49,33.29a2.46,2.46,0,0,0,1,0"/><path class="cls-7" d="M54.92,32.21a.67.67,0,0,0,.64-.22"/><path class="cls-7" d="M54.92,31.27l.58-.43"/><path class="cls-7" d="M54.85,30.11l.21-.65"/><path class="cls-7" d="M54.56,29.1c0-.15-.05-.29-.08-.44C54.48,29,54.56,28.76,54.56,29.1Z"/><path class="cls-7" d="M49.43,82.16a5.2,5.2,0,0,1,1.31,1.67"/><path class="cls-7" d="M50.93,82.18a7.52,7.52,0,0,1,1.18,1"/><path class="cls-7" d="M52,82.17l.94.8"/><path class="cls-7" d="M52.75,81.67l.72.44"/><path class="cls-7" d="M53.18,81h.65"/><path class="cls-7" d="M53.47,79.79h.58"/><path class="cls-7" d="M53.47,79.14l.36-.15"/><path class="cls-7" d="M16.14,53.66a7.2,7.2,0,0,1,1.32.81"/><path class="cls-7" d="M17.2,53.19a8.44,8.44,0,0,1,1.22.67"/><path class="cls-7" d="M18.06,52.71l.8.21"/><path class="cls-7" d="M18.28,52a1.31,1.31,0,0,0,.59,0"/><path class="cls-7" d="M18.21,51.33l.43-.14"/><path class="cls-7" d="M17.84,50.68l.58-.22"/></g></g></svg>