<svg xmlns="http://www.w3.org/2000/svg" viewBox="0 0 70.31 110.8"><defs><style>.cls-1{isolation:isolate;}.cls-2{fill:#d27528;}.cls-2,.cls-3,.cls-4,.cls-6{stroke:#231f20;stroke-linecap:round;stroke-linejoin:round;}.cls-2,.cls-3,.cls-4{stroke-width:0.87px;}.cls-3{fill:#fdb517;}.cls-4{fill:#231f20;}.cls-5{fill:#c9ebfc;opacity:0.5;mix-blend-mode:screen;}.cls-6{fill:none;stroke-width:0.33px;}</style></defs><g class="cls-1"><g id="Layer_1" data-name="Layer 1"><path class="cls-2" d="M69.51,12.86A2.27,2.27,0,0,0,69.2,10C67.87,8,63.09,1.3,63.09,1.3L49.2,9.51l-15.52.14a7.71,7.71,0,0,0-6.39,3.5l-15,23-2-7.36-6.55,6c-.9.83-1.77,1.48-1.07,2.49l6,8.35a4.49,4.49,0,0,0,1.62,1.85L26.66,58a4.76,4.76,0,0,1,1.67,6.17l-9.54,18.8,3.62-13.67L.79,99.89s5.72,9.21,6.67,9.46a2.88,2.88,0,0,0,1.43.9,2.92,2.92,0,0,0,2.71-.6L67,62.07a4.76,4.76,0,0,0,1.6-4.35v-.08a.06.06,0,0,1,0,0c0-.08,0-.17,0-.25l0-.09a4.55,4.55,0,0,0-.35-.93c-1.58-3.57-6.45-9.22-6.45-9.22l-4.66,1-3.54-2.37a4.47,4.47,0,0,1-1.27-6.14Z"/><path class="cls-3" d="M21,4.24,2.69,32.31A4.47,4.47,0,0,0,4,38.52L20.38,49.06a4.77,4.77,0,0,1,1.67,6.16L.76,97.16a3,3,0,0,0,1.84,4.19h0a3,3,0,0,0,2.72-.61L60.75,53.16a4.77,4.77,0,0,0-.45-7.58l-13-8.72A4.47,4.47,0,0,1,46,30.72L63.22,4A2.29,2.29,0,0,0,61.28.43L27.39.75A7.7,7.7,0,0,0,21,4.24Z"/><path class="cls-2" d="M29.8,59.16a13.43,13.43,0,0,0-4.72-17.42L19.59,38.2a8.63,8.63,0,0,1-2.56-12l9.64-14.77a4.51,4.51,0,0,1,3.75-2.05L43.55,9.3a3.19,3.19,0,0,1,2.72,4.92L38.68,26a13.22,13.22,0,0,0,3.75,18.08l4.48,3a4,4,0,0,1,.52,6.33L20.17,78.92a.81.81,0,0,1-1.26-1Z"/><path class="cls-4" d="M33.58,59.16a13.43,13.43,0,0,0-4.71-17.42l-5.5-3.54a8.63,8.63,0,0,1-2.56-12l9.64-14.77A4.51,4.51,0,0,1,34.2,9.42L44,9.33a2.53,2.53,0,0,0-.48,0l-13.13.12a4.51,4.51,0,0,0-3.75,2.05L17,26.24a8.63,8.63,0,0,0,2.56,12l5.49,3.54A13.43,13.43,0,0,1,29.8,59.16L18.91,77.92a.81.81,0,0,0,1.26,1l4.23-4Z"/><path class="cls-5" d="M24.35,11.09c-1.68,2.53-3.83,4.06-4.82,3.41s-.42-3.23,1.26-5.76,3.83-4.07,4.81-3.42S26,8.55,24.35,11.09Z"/><path class="cls-6" d="M42.62,28.08a4.93,4.93,0,0,0,1.62.59"/><path class="cls-6" d="M43.17,26.83a3.42,3.42,0,0,0,1.56.62"/><path class="cls-6" d="M44.25,25.91l1.67.68"/><path class="cls-6" d="M45,25.16c.54.21,1.08.4,1.63.56"/><path class="cls-6" d="M45.76,24.29l1.42.65"/><path class="cls-6" d="M46.48,23.3a6,6,0,0,0,1.51.41"/><path class="cls-6" d="M47.12,22c.6,0,1,.64,1.64.67"/><path class="cls-6" d="M48.1,20.87l1.46.78"/><path class="cls-6" d="M48.76,19.87a12.29,12.29,0,0,0,1.57.58"/><path class="cls-6" d="M49.63,18.9a6.53,6.53,0,0,0,1.35.53"/><path class="cls-6" d="M50.24,17.68a9.19,9.19,0,0,0,1.49.62"/><path class="cls-6" d="M51.1,16.82l1.61.56"/><path class="cls-6" d="M51.82,15.66l1.18.5a.57.57,0,0,0,.49.05"/><path class="cls-6" d="M52.87,14.37a4.61,4.61,0,0,0,1.54.48"/><path class="cls-6" d="M53.7,13.19a2,2,0,0,1,1.08.3"/><path class="cls-6" d="M54.46,12a3.07,3.07,0,0,1,1.14.38"/><path class="cls-6" d="M55.28,11a5.43,5.43,0,0,0,1.19.35"/><path class="cls-6" d="M55.66,9.58a2.81,2.81,0,0,1,1.52.42"/><path class="cls-6" d="M56.53,8.34a11.41,11.41,0,0,1,1.18.33"/><path class="cls-6" d="M56.91,7.44l1.41.46"/><path class="cls-6" d="M57.67,6.45a11.2,11.2,0,0,1,1.41.36"/><path class="cls-6" d="M58.16,5.75a9,9,0,0,1,1.36.17"/><path class="cls-6" d="M59.14,4.66a4,4,0,0,0,1.64-.17"/><path class="cls-6" d="M59.18,3.67l1.32-.78"/><path class="cls-6" d="M59,2.66a4.06,4.06,0,0,0,.78-1"/><path class="cls-6" d="M58.16,2.28a2.48,2.48,0,0,0,.28-.76"/><path class="cls-6" d="M57.07,2.28l.23-.59"/><path class="cls-6" d="M42.23,30.86a2.41,2.41,0,0,0,1.54.24"/><path class="cls-6" d="M42.47,32.05h1"/><path class="cls-6" d="M42.54,33.51l.94,0"/><path class="cls-6" d="M42.9,35a2.48,2.48,0,0,0,1.15,0"/><path class="cls-6" d="M43.33,36.51a2.12,2.12,0,0,0,1.16-.19"/><path class="cls-6" d="M44.2,37.92l.73-.2"/><path class="cls-6" d="M46.17,39.77l1.73-.69"/><path class="cls-6" d="M47,40.77,48.62,40"/><path class="cls-6" d="M48,41.34l1.23-.51"/><path class="cls-6" d="M48.92,42.28a3.26,3.26,0,0,0,1.52-.44"/><path class="cls-6" d="M50.44,43.33a3.17,3.17,0,0,0,1.73-.42"/><path class="cls-6" d="M52,44.32a9.38,9.38,0,0,0,1.88-.46"/><path class="cls-6" d="M53.43,45.16l2.14-.62"/><path class="cls-6" d="M55.08,46.06,57,46"/><path class="cls-6" d="M56.1,47.07a3.86,3.86,0,0,1,1.88,0"/><path class="cls-6" d="M56.89,48.15a3.9,3.9,0,0,1,1.52.13"/><path class="cls-6" d="M57.59,49.3a6.18,6.18,0,0,0,1.47.29"/><path class="cls-6" d="M57.69,50.8a1.11,1.11,0,0,1,.88.31"/><path class="cls-6" d="M57.62,52a1.09,1.09,0,0,1,.64.25"/><path class="cls-6" d="M4.7,96.28a3.28,3.28,0,0,1,.8,1"/><path class="cls-6" d="M5.81,95.67l.69.76"/><path class="cls-6" d="M6.87,94.83l.79.66"/><path class="cls-6" d="M7.87,93.82a4.58,4.58,0,0,0,.74.72"/><path class="cls-6" d="M9,92.59l.88,1"/><path class="cls-6" d="M10.36,91.41l.86.81"/><path class="cls-6" d="M11.61,90.15a5.28,5.28,0,0,0,1,.73"/><path class="cls-6" d="M13,89.23a5.52,5.52,0,0,0,1,.68"/><path class="cls-6" d="M14.63,88a3.13,3.13,0,0,0,.8.64"/><path class="cls-6" d="M15.93,87.08l.87.65"/><path class="cls-6" d="M17.11,86.26a.87.87,0,0,0,.71.53"/><path class="cls-6" d="M18.05,85.54a2,2,0,0,0,.71.52"/><path class="cls-6" d="M19,84.53a.44.44,0,0,0,.35.29"/><path class="cls-6" d="M28.89,76.22l1.32,1.07"/><path class="cls-6" d="M30.22,74.74c.37.33.75.65,1.16,1"/><path class="cls-6" d="M31.4,73.64A11,11,0,0,0,33,74.91"/><path class="cls-6" d="M33,72.43l1.09.87"/><path class="cls-6" d="M34.91,71.29l.88.7"/><path class="cls-6" d="M36.31,70a3.8,3.8,0,0,0,1.37.81"/><path class="cls-6" d="M37.9,69.1l.87.43"/><path class="cls-6" d="M38.78,68.13l.92.41"/><path class="cls-6" d="M40,67.05l1.15.51"/><path class="cls-6" d="M41.23,66.12l1,.5"/><path class="cls-6" d="M42.4,65l1.08.4"/><path class="cls-6" d="M43.57,63.92a1.75,1.75,0,0,0,.85.33"/><path class="cls-6" d="M44.86,62.92l1.07.47"/><path class="cls-6" d="M46,61.56a1.26,1.26,0,0,1,.94.21"/><path class="cls-6" d="M47.26,60.37l.85.48"/><path class="cls-6" d="M48.12,59.81a2.61,2.61,0,0,1,.86.52"/><path class="cls-6" d="M49.32,58.77a2.44,2.44,0,0,0,1.55.82"/><path class="cls-6" d="M50.07,57.93a3.25,3.25,0,0,0,1.31.66"/><path class="cls-6" d="M51.32,57.05l.72.44"/><path class="cls-6" d="M14.49,79.3a3,3,0,0,1,1.51.53"/><path class="cls-6" d="M15.13,78l1.38.51"/><path class="cls-6" d="M16.09,77l1.29.41"/><path class="cls-6" d="M17,75.83l.94.16"/><path class="cls-6" d="M17.31,74.52a2.61,2.61,0,0,1,.87.23"/><path class="cls-6" d="M17.75,73.51a1.62,1.62,0,0,1,1,0"/><path class="cls-6" d="M18.26,72.12a2.67,2.67,0,0,0,.79.09"/><path class="cls-6" d="M19.13,70.82l.72.09"/><path class="cls-6" d="M19.85,69.59l1.16.1"/><path class="cls-6" d="M20.43,68.44l.72.08"/><path class="cls-6" d="M21.45,67.35a5.36,5.36,0,0,1,.94.29"/><path class="cls-6" d="M22.32,66.39a1.83,1.83,0,0,0,1,0"/><path class="cls-6" d="M23.11,65a2.61,2.61,0,0,0,.87.15"/><path class="cls-6" d="M23.55,64l.94.16"/><path class="cls-6" d="M24,62.71a2.89,2.89,0,0,0,.88,0"/><path class="cls-6" d="M24.85,61.69l.8-.08"/><path class="cls-6" d="M25.51,60.53a1.75,1.75,0,0,0,.72,0"/><path class="cls-6" d="M26.08,59.26l.44.11"/><path class="cls-6" d="M14,81.3a6.88,6.88,0,0,0,1.32.46"/><path class="cls-6" d="M14.26,82.34a.38.38,0,0,1,.53.16"/><path class="cls-6" d="M13.25,83.81a.13.13,0,0,0-.12.14.33.33,0,0,1,.36-.11"/><path class="cls-6" d="M9.77,106.5a2.05,2.05,0,0,1,.81.79"/><path class="cls-6" d="M10.78,105.84a1,1,0,0,0,1,.85"/><path class="cls-6" d="M11.91,105.09a2.71,2.71,0,0,0,.9.85"/><path class="cls-6" d="M13.19,103.88a1.93,1.93,0,0,0,.92.7"/><path class="cls-6" d="M14.41,102.8l.81.49"/><path class="cls-6" d="M15.44,101.7a2.91,2.91,0,0,0,1.15.81"/><path class="cls-6" d="M16.88,101.13l.93.52"/><path class="cls-6" d="M17.61,100.54l.94.52"/><path class="cls-6" d="M18.62,99.83l.65.36"/><path class="cls-6" d="M19.85,99a2.2,2.2,0,0,1,.87.51"/><path class="cls-6" d="M22.77,91.52a3.73,3.73,0,0,1,1.49,1.35"/><path class="cls-6" d="M23.77,90.54a3.05,3.05,0,0,0,1.15,1"/><path class="cls-6" d="M24.78,90.18l1.15.88"/><path class="cls-6" d="M26.24,88.87,27.46,90"/><path class="cls-6" d="M27.61,87.93l1.08.67"/><path class="cls-6" d="M28.92,87l1.21.75"/><path class="cls-6" d="M29.94,85.73a3.1,3.1,0,0,1,1,.69"/><path class="cls-6" d="M30.87,84.82a1.84,1.84,0,0,1,.72.44"/><path class="cls-6" d="M31.9,83.59A1.85,1.85,0,0,1,33,84.4"/><path class="cls-6" d="M33,82.57a2.78,2.78,0,0,1,1.09.66"/><path class="cls-6" d="M37.61,81.05a12.07,12.07,0,0,1,1.74,1.09"/><path class="cls-6" d="M39.22,80.51a15.3,15.3,0,0,1,1.55,1.08"/><path class="cls-6" d="M40.61,79.91a9.82,9.82,0,0,1,1.26.88"/><path class="cls-6" d="M42.17,79l1.16.72"/><path class="cls-6" d="M43.41,78.22a1.61,1.61,0,0,0,.94.46"/><path class="cls-6" d="M44.49,77.23a4,4,0,0,1,.89.47"/><path class="cls-6" d="M45.43,76.5a4.71,4.71,0,0,0,.88.34"/><path class="cls-6" d="M46.45,75.26a2.73,2.73,0,0,0,.81.62"/><path class="cls-6" d="M47.61,73.72a1.87,1.87,0,0,1,1.46.37"/><path class="cls-6" d="M49.13,72.71a2.25,2.25,0,0,1,.87.37"/><path class="cls-6" d="M50,72a1.54,1.54,0,0,1,.8.3"/><path class="cls-6" d="M50.88,71a1.83,1.83,0,0,1,1,.54"/><path class="cls-6" d="M52.67,70a.54.54,0,0,1,.71.4"/><path class="cls-6" d="M53.5,64.29l2.81,2.48"/><path class="cls-6" d="M55.66,64.81a11.64,11.64,0,0,1,1.59,1.39"/><path class="cls-6" d="M57,64.56a8.2,8.2,0,0,1,1.68,1.24"/><path class="cls-6" d="M57.93,63.59a2.44,2.44,0,0,1,1.27,1"/><path class="cls-6" d="M59.23,63a2.9,2.9,0,0,1,1.26.8"/><path class="cls-6" d="M60.37,62.15a2.3,2.3,0,0,1,1,.55"/><path class="cls-6" d="M61.89,61.11a2.11,2.11,0,0,0,.79.46"/><path class="cls-6" d="M63.05,60.18a3.23,3.23,0,0,1,.94.65"/><path class="cls-6" d="M64.07,59.23a2.13,2.13,0,0,1,.65.51"/><path class="cls-6" d="M64.65,58.5l.57.44"/><path class="cls-6" d="M65.3,57.14a.79.79,0,0,1,.58.5"/><path class="cls-6" d="M46.89,31.77,48,31.05"/><path class="cls-6" d="M46.89,33a1.62,1.62,0,0,0,.87-.51"/><path class="cls-6" d="M47.33,34a4.39,4.39,0,0,0,1-.59"/><path class="cls-6" d="M48.06,35.25a2,2,0,0,1,1-.52"/><path class="cls-6" d="M48.86,35.63l.85-.53"/><path class="cls-6" d="M49.42,36.47l.72-.44"/><path class="cls-6" d="M50.29,37a.85.85,0,0,0,.45-.5"/><path class="cls-6" d="M51.83,32.84l1.15.95"/><path class="cls-6" d="M52.94,31.78c.41.29.81.6,1.19.93"/><path class="cls-6" d="M54.14,31.17a3.71,3.71,0,0,1,1,.88"/><path class="cls-6" d="M54.88,29.82a4.26,4.26,0,0,1,1.28.72"/><path class="cls-6" d="M55.73,28.77a1.69,1.69,0,0,1,1,.68"/><path class="cls-6" d="M56.46,27.7l1.08.38"/><path class="cls-6" d="M57.47,26.18a2.15,2.15,0,0,1,1.09.65"/><path class="cls-6" d="M58.06,25.13a1.93,1.93,0,0,1,.86.48"/><path class="cls-6" d="M58.93,23.91a7.1,7.1,0,0,1,.86.46"/><path class="cls-6" d="M59.5,22.92a2.75,2.75,0,0,1,.87.44"/><path class="cls-6" d="M60.16,21.82a2.07,2.07,0,0,1,.86.6"/><path class="cls-6" d="M60.74,20.87l.79.38"/><path class="cls-6" d="M61.38,19.8l.73.29"/><path class="cls-6" d="M62,19l.94.37"/><path class="cls-6" d="M62.4,17.92a1.73,1.73,0,0,1,.73.36"/><path class="cls-6" d="M63,16.44l.79.46"/><path class="cls-6" d="M63.48,15.9l.87.36"/><path class="cls-6" d="M64.29,14.93a2.1,2.1,0,0,1,.57.45"/><path class="cls-6" d="M64.79,14.44l.59.5"/><path class="cls-6" d="M65.37,13.35a2.75,2.75,0,0,1,.79.51"/><path class="cls-6" d="M65.88,12.62l.64.31"/><path class="cls-6" d="M66.31,11.61a2,2,0,0,1,.87.29"/><path class="cls-6" d="M67,10a.56.56,0,0,1,.5.22"/><path class="cls-6" d="M53.76,22.2a1.46,1.46,0,0,0,.74.71"/><path class="cls-6" d="M54.06,21.54a1.12,1.12,0,0,0,.72.59"/><path class="cls-6" d="M54.63,20.83a.81.81,0,0,0,.66.45"/><path class="cls-6" d="M54.71,19.89a2.11,2.11,0,0,1,.95.57"/><path class="cls-6" d="M55.74,19.28l.58.44"/><path class="cls-6" d="M56.23,18.66l.52.13"/><path class="cls-6" d="M56.68,17.68l.36.16"/><path class="cls-6" d="M56.89,16.83l.36.29"/><path class="cls-6" d="M57.26,16a.77.77,0,0,1,.42.31"/><path class="cls-6" d="M58.27,15.16a.26.26,0,0,1,.21.29"/><path class="cls-6" d="M9.91,45.31a2.67,2.67,0,0,1,.66-.5"/><path class="cls-6" d="M10.5,46l.87-.72"/><path class="cls-6" d="M11.53,46.34a3.27,3.27,0,0,1,.63-.6"/><path class="cls-6" d="M12.17,46.85l.71-.67"/><path class="cls-6" d="M13,47.42a1.17,1.17,0,0,1,.52-.51"/><path class="cls-6" d="M13.61,47.78l.8-.66"/><path class="cls-6" d="M14.2,48.22a1.54,1.54,0,0,1,.72-.51"/><path class="cls-6" d="M15,48.58l.51-.44"/><path class="cls-6" d="M15.42,48.86l.65-.51"/><path class="cls-6" d="M16,49.36l.8-.5"/><path class="cls-6" d="M16.88,49.74a1.94,1.94,0,0,1,.58-.44"/><path class="cls-6" d="M17.46,50.18a2.07,2.07,0,0,1,.94-.46"/><path class="cls-6" d="M18.4,50.62l.94-.32"/><path class="cls-6" d="M19,51.19a1,1,0,0,1,.86-.44"/><path class="cls-6" d="M19.93,51.92a.52.52,0,0,1,.43-.15"/><path class="cls-6" d="M15.87,19.05a4.92,4.92,0,0,1,1.43.62"/><path class="cls-6" d="M15.31,20.15a4.54,4.54,0,0,0,1.29.72"/><path class="cls-6" d="M14.41,21.88a5.8,5.8,0,0,1,1.32.14"/><path class="cls-6" d="M13.91,23.23a3.19,3.19,0,0,1,1.23-.06"/><path class="cls-6" d="M13.18,24.85l1.31,0"/><path class="cls-6" d="M13,26.12,14.12,26"/><path class="cls-6" d="M12.6,27.3a2.34,2.34,0,0,0,1-.2"/><path class="cls-6" d="M12.38,28.93a3.46,3.46,0,0,0,1.15-.38"/><path class="cls-6" d="M12.38,30.51a1.83,1.83,0,0,0,1-.29"/><path class="cls-6" d="M12.38,32.42a1.83,1.83,0,0,0,.95-.15"/><path class="cls-6" d="M12.53,34.2a2,2,0,0,0,1-.35"/><path class="cls-6" d="M13,35.71a.8.8,0,0,0,.65-.26"/><path class="cls-6" d="M13.42,36.73l1.13-.63"/><path class="cls-6" d="M13.92,37.84a2.48,2.48,0,0,0,1.35-.65"/><path class="cls-6" d="M15.14,38.66a1.36,1.36,0,0,0,.94-.45"/><path class="cls-6" d="M16,39.69a9.08,9.08,0,0,0,1-.76"/><path class="cls-6" d="M17.11,40.34l.86-.68"/><path class="cls-6" d="M18.13,41a9,9,0,0,0,1.05-.91"/><path class="cls-6" d="M19.13,41.63l1.37-.88"/><path class="cls-6" d="M20,42l1-.66"/><path class="cls-6" d="M21.31,42.65,22.38,42"/><path class="cls-6" d="M22.17,43.51a1.43,1.43,0,0,1,.94-.44"/><path class="cls-6" d="M23.18,44.15l.87-.44"/><path class="cls-6" d="M24.12,45a1.72,1.72,0,0,1,.88-.42"/><path class="cls-6" d="M24.93,45.25a2.36,2.36,0,0,1,.79-.15"/><path class="cls-6" d="M25.74,46.15a.69.69,0,0,1,.64,0"/><path class="cls-6" d="M26.52,47.71H27"/><path class="cls-6" d="M27,48.5l.43-.3"/><path class="cls-6" d="M28.72,5.21l1.2,1.26"/><path class="cls-6" d="M30,4.48a3.77,3.77,0,0,0,1.08,1.1"/><path class="cls-6" d="M31.24,4.43a2.12,2.12,0,0,0,.64.81"/><path class="cls-6" d="M32.29,4.24c.18.26.37.51.55.76"/><path class="cls-6" d="M33.48,3.86l.43.72"/><path class="cls-6" d="M34.72,3.63a2.72,2.72,0,0,1,.49.88"/><path class="cls-6" d="M35.93,3.58l.52.86"/><path class="cls-6" d="M37.32,3.78l.51.8"/><path class="cls-6" d="M38.49,3.56c.12.19.24.39.37.58"/><path class="cls-6" d="M37,11.62l1.08-.8"/><path class="cls-6" d="M37.91,12.08l1.51-.76"/><path class="cls-6" d="M39.35,12.23,40.94,12"/><path class="cls-6" d="M39.94,13.05l1.79-.32"/><path class="cls-6" d="M40.15,14h1.59"/><path class="cls-6" d="M40.43,14.85a1.88,1.88,0,0,1,1.17.08"/><path class="cls-6" d="M40,16.13a.73.73,0,0,1,.95,0"/><path class="cls-6" d="M39.35,17.27a1.34,1.34,0,0,1,.66.05"/><path class="cls-6" d="M38.91,18.58l.51.08"/><path class="cls-6" d="M38.26,19.93a1.3,1.3,0,0,1,.87,0"/><path class="cls-6" d="M37.83,20.86a6.8,6.8,0,0,0,1-.13"/><path class="cls-6" d="M37.25,22.34a1,1,0,0,1,.94,0"/><path class="cls-6" d="M36.91,23.34a1.38,1.38,0,0,1,.85-.08"/><path class="cls-6" d="M36.09,24.77l.72-.13"/><path class="cls-6" d="M35.22,26.42l.79-.24"/><path class="cls-6" d="M34.57,27.71a1.22,1.22,0,0,1,.57-.38"/><path class="cls-6" d="M32.17,33.72l1.52-.45"/><path class="cls-6" d="M32.3,35.29a12.8,12.8,0,0,1,1.9-.72"/><path class="cls-6" d="M33,36.72a12.55,12.55,0,0,1,1.28-.5"/><path class="cls-6" d="M33.44,38.26a3.68,3.68,0,0,1,1.41-.67"/><path class="cls-6" d="M34.29,39.18a7.11,7.11,0,0,1,1.06-.64"/><path class="cls-6" d="M35,40.45a2.46,2.46,0,0,0,1.21-.72"/><path class="cls-6" d="M35.61,41.46a4.37,4.37,0,0,0,1.12-.79"/><path class="cls-6" d="M36.53,42.65A3.76,3.76,0,0,1,37.61,42"/><path class="cls-6" d="M37,43.44a3.82,3.82,0,0,0,.94-.59"/><path class="cls-6" d="M37.56,44.55a2.86,2.86,0,0,1,1.49-.67"/><path class="cls-6" d="M38.26,45a5.09,5.09,0,0,1,1.45-.5"/><path class="cls-6" d="M39.44,45.73l1-.35"/><path class="cls-6" d="M39.93,46.55l1-.59"/><path class="cls-6" d="M40.88,47a3.73,3.73,0,0,1,1.66-.65"/><path class="cls-6" d="M42.13,47.31a4.7,4.7,0,0,1,1.42-.7"/><path class="cls-6" d="M43,47.64a2.93,2.93,0,0,1,.94-.37"/><path class="cls-6" d="M43.41,48.51a3.69,3.69,0,0,1,1.08-.3"/><path class="cls-6" d="M43.77,49.23a3.91,3.91,0,0,1,1.16-.36"/><path class="cls-6" d="M43.93,50.13a2.85,2.85,0,0,1,1.44-.29"/><path class="cls-6" d="M44.5,51.21a2,2,0,0,1,.94-.13"/><path class="cls-6" d="M44.42,52l.73-.14"/><path class="cls-6" d="M34.08,62.41a2.28,2.28,0,0,1,.26.67"/><path class="cls-6" d="M34.67,61.91a1.28,1.28,0,0,0,.37.55"/><path class="cls-6" d="M35.52,61.11a2.33,2.33,0,0,1,.27.52"/><path class="cls-6" d="M36.09,60.25a1,1,0,0,1,.36.43"/><path class="cls-6" d="M36.81,58.87a1.76,1.76,0,0,1,.67.57"/><path class="cls-6" d="M37.74,58.09a5.89,5.89,0,0,0,1,.77"/><path class="cls-6" d="M38.55,57.35l.72.52"/><path class="cls-6" d="M39.43,55.88a4,4,0,0,1,1.06.56"/><path class="cls-6" d="M40.22,55l1.44.81"/><path class="cls-6" d="M41.38,54.29a1.68,1.68,0,0,1,.95.51"/><path class="cls-6" d="M42.31,53.37l.82.48"/></g></g></svg>