<svg xmlns="http://www.w3.org/2000/svg" viewBox="0 0 89.19 91.5"><defs><style>.cls-1{isolation:isolate;}.cls-2{fill:#914f22;}.cls-10,.cls-12,.cls-2,.cls-3,.cls-4,.cls-5,.cls-6,.cls-7,.cls-8,.cls-9{stroke:#231f20;stroke-linecap:round;stroke-linejoin:round;}.cls-10,.cls-2,.cls-3,.cls-5,.cls-7,.cls-8{stroke-width:0.87px;}.cls-3{fill:#d27528;}.cls-4{fill:#231f20;stroke-width:0.43px;}.cls-5{fill:#fdb517;}.cls-6{fill:#bc3c51;}.cls-6,.cls-9{stroke-width:0.65px;}.cls-7{fill:#f05867;}.cls-8{fill:#f48e9d;}.cls-9{fill:#d64355;}.cls-10{fill:#f9bcc8;}.cls-11{fill:#c9ebfc;opacity:0.5;mix-blend-mode:screen;}.cls-12{fill:none;stroke-width:0.33px;}</style></defs><g class="cls-1"><g id="Layer_1" data-name="Layer 1"><path class="cls-2" d="M85.79,31.47a41.85,41.85,0,0,1,1.42,4.22,41.38,41.38,0,0,1,1.52,12.68A44.35,44.35,0,0,1,60.48,87.84,44.37,44.37,0,0,1,12.85,78.5,41.89,41.89,0,0,1,5.26,68.22a43.74,43.74,0,0,1-1.86-4,41.77,41.77,0,0,1-3-16c.26.85.55,1.69.86,2.53.07.18.14.36.22.54A39,39,0,0,0,12.38,66.51a41.46,41.46,0,0,0,42.34,6.81,41.44,41.44,0,0,0,26.13-34,39,39,0,0,0-2.54-18.54l-.22-.54c-.35-.83-.72-1.64-1.11-2.44A42,42,0,0,1,85.79,31.47Z"/><path class="cls-3" d="M.44,48.19v.1l.1.21Z"/><path class="cls-3" d="M77.05,17.88,77,17.8l.14.3A1.42,1.42,0,0,0,77.05,17.88Z"/><path class="cls-3" d="M85.05,30.24a42,42,0,0,1,1.52,12.68A44.36,44.36,0,0,1,58.32,82.4a44.37,44.37,0,0,1-47.63-9.35A41.58,41.58,0,0,1,3.1,62.78c-.24-.45-.47-.91-.69-1.37.3.93.63,1.85,1,2.77a43.74,43.74,0,0,0,1.86,4A41.89,41.89,0,0,0,12.85,78.5a44.37,44.37,0,0,0,47.63,9.34A44.35,44.35,0,0,0,88.73,48.37a41.38,41.38,0,0,0-1.52-12.68,41.85,41.85,0,0,0-1.42-4.22c-.37-.91-.76-1.81-1.18-2.69C84.76,29.27,84.91,29.75,85.05,30.24Z"/><path class="cls-4" d="M12.38,66.51a85.7,85.7,0,0,0,.47,12A41.89,41.89,0,0,1,5.26,68.22a99.36,99.36,0,0,1-4-17.5c.07.18.14.36.22.54A39,39,0,0,0,12.38,66.51Z"/><path class="cls-4" d="M87.21,35.69a41.38,41.38,0,0,1,1.52,12.68,83,83,0,0,0-7.88-9,39,39,0,0,0-2.54-18.54l-.22-.54A99.92,99.92,0,0,1,87.21,35.69Z"/><path class="cls-5" d="M36.15,26.54c19.43-7.71,40.9-1.11,52.22,14.75a42,42,0,0,0-2.58-9.82C77,9.37,51.46-1.22,28.71,7.81S-5.37,42.08,3.4,64.18a41.6,41.6,0,0,0,4.86,8.91C5.62,53.79,16.72,34.25,36.15,26.54Z"/><path class="cls-5" d="M34.65,22.76A46,46,0,0,0,5.76,69.14a41.89,41.89,0,0,0,2.5,4c-2.64-19.3,8.46-38.84,27.89-46.55s40.9-1.11,52.22,14.75a43.69,43.69,0,0,0-.89-4.59A46,46,0,0,0,34.65,22.76Z"/><polygon class="cls-6" points="42.95 2.95 49.35 19.08 38.59 32.69 21.42 30.17 15.02 14.04 25.78 0.43 42.95 2.95"/><polygon class="cls-7" points="42.95 2.95 37.57 9.76 28.98 8.5 25.78 0.43 42.95 2.95"/><polygon class="cls-8" points="25.78 0.43 28.98 8.5 23.6 15.3 15.02 14.04 25.78 0.43"/><polygon class="cls-8" points="23.6 15.3 26.8 23.37 21.42 30.17 15.02 14.04 23.6 15.3"/><polygon class="cls-7" points="35.39 24.63 38.59 32.69 21.42 30.17 26.8 23.37 35.39 24.63"/><polygon class="cls-9" points="42.95 2.95 49.35 19.08 40.77 17.82 37.57 9.76 42.95 2.95"/><polygon class="cls-10" points="23.6 15.3 28.98 8.49 37.57 9.76 40.77 17.82 35.39 24.63 26.8 23.37 23.6 15.3"/><path class="cls-11" d="M23.74,9.81c1.12.87.9,3-.48,4.81s-3.43,2.53-4.55,1.65-.91-3,.48-4.81S22.61,8.94,23.74,9.81Z"/><path class="cls-12" d="M29.64,4a2.89,2.89,0,0,0,.46-1"/><path class="cls-12" d="M30.81,3.63l.51-1"/><path class="cls-12" d="M31.72,3.55a8,8,0,0,1,.48-.85"/><path class="cls-12" d="M32.81,3.52a2.19,2.19,0,0,1,.48-.75"/><path class="cls-12" d="M33.73,3.63a2.36,2.36,0,0,1,.58-.75"/><path class="cls-12" d="M34.73,3.48l.61-.58"/><path class="cls-12" d="M35.7,3.75a1.26,1.26,0,0,1,.57-.5"/><path class="cls-12" d="M36.47,4a1.92,1.92,0,0,1,.44-.46"/><path class="cls-12" d="M37.2,4.34a2.16,2.16,0,0,1,.49-.51"/><path class="cls-12" d="M38.25,4.79l.39-.43"/><path class="cls-12" d="M31.44,11.54l.48-.73"/><path class="cls-12" d="M32.28,11.85a3.87,3.87,0,0,1,.49-1"/><path class="cls-12" d="M33.09,11.76c.16-.31.33-.61.49-.91"/><path class="cls-12" d="M33.66,12l.5-.79"/><path class="cls-12" d="M34.37,11.87c.14-.26.3-.5.46-.75"/><path class="cls-12" d="M35.08,12.12a7.42,7.42,0,0,1,.47-.83"/><path class="cls-12" d="M36.16,11.94a3.39,3.39,0,0,0,.34-.53"/><path class="cls-12" d="M36.42,12.92a2.74,2.74,0,0,0,.68-.55"/><path class="cls-12" d="M36.92,13.54a8.37,8.37,0,0,0,.62-.57"/><path class="cls-12" d="M37.41,14.49a1.46,1.46,0,0,0,.41-.29"/><path class="cls-12" d="M37.85,15.38a.59.59,0,0,0,.29-.27"/><path class="cls-12" d="M38.3,16.33a.45.45,0,0,0,.24-.14"/><path class="cls-12" d="M38.6,17.1a1,1,0,0,0,.17-.25"/><path class="cls-12" d="M42.18,7.07a2.35,2.35,0,0,0,.43-.46"/><path class="cls-12" d="M42.66,8a3.09,3.09,0,0,0,.54-.48"/><path class="cls-12" d="M43.14,8.75l.53-.4"/><path class="cls-12" d="M43.53,9.42s0,.05,0,.05a.18.18,0,0,0,.07-.05l.2-.25"/><path class="cls-12" d="M43.83,10.3a.68.68,0,0,0,.34-.26"/><path class="cls-12" d="M44.28,11.11a.57.57,0,0,0,.27-.26"/><path class="cls-12" d="M44.7,12.06a.05.05,0,0,0,.06,0l.3-.27"/><path class="cls-12" d="M45.12,13a.84.84,0,0,0,.25-.34"/><path class="cls-12" d="M45.48,13.81a2.19,2.19,0,0,1,.25-.37"/><path class="cls-12" d="M40.94,20a4.25,4.25,0,0,0,.54-.79"/><path class="cls-12" d="M41.82,20.25a4.16,4.16,0,0,0,.47-.71"/><path class="cls-12" d="M42.75,20.6a4.59,4.59,0,0,1,.5-.79"/><path class="cls-12" d="M43.31,20.75a4.1,4.1,0,0,0,.59-.66"/><path class="cls-12" d="M44,20.83l.37-.41"/><path class="cls-12" d="M44.81,21.41l.28-.4"/><path class="cls-12" d="M45.51,21.55l.25-.3"/><path class="cls-12" d="M46.39,21.61l.12-.21"/><path class="cls-12" d="M27.21,25.7c.11-.24.23-.47.34-.71"/><path class="cls-12" d="M28,25.78A1.81,1.81,0,0,1,28.3,25"/><path class="cls-12" d="M28.85,26l.26-.62"/><path class="cls-12" d="M29.56,26.1c.1-.2.2-.41.29-.61"/><path class="cls-12" d="M30.24,26.18a.79.79,0,0,1,.2-.5"/><path class="cls-12" d="M31.13,26.28l.2-.33"/><path class="cls-12" d="M31.92,26.38s0,.05,0,0,0,0,.05-.05l.25-.46"/><path class="cls-12" d="M32.68,26.76a0,0,0,0,0,0,0,.08.08,0,0,0,0,0,2.92,2.92,0,0,0,.31-.73"/><path class="cls-12" d="M33.56,26.62s0,.11,0,0a2.67,2.67,0,0,1,.23-.59"/><path class="cls-12" d="M34.17,26.76l.08-.28"/><path class="cls-12" d="M24.31,3.93A4.15,4.15,0,0,0,25.05,3"/><path class="cls-12" d="M25,4.51l.44-.75"/><path class="cls-12" d="M25.42,5.48A2,2,0,0,0,25.9,5"/><path class="cls-12" d="M26,6.37c.13-.09.25-.19.37-.29"/><path class="cls-12" d="M26.48,7.11l.37-.19"/><path class="cls-12" d="M26.83,7.79a.37.37,0,0,0,.2-.12"/><path class="cls-12" d="M21.18,17.69l.47-.51"/><path class="cls-12" d="M21.65,18.42a1.35,1.35,0,0,1,.48-.5"/><path class="cls-12" d="M22.09,19.22l.49-.32"/><path class="cls-12" d="M22.62,20.1l.64-.26"/><path class="cls-12" d="M23.22,21.27A1.24,1.24,0,0,1,23.7,21"/><path class="cls-12" d="M28.31,21.51,29,20.39"/><path class="cls-12" d="M29.49,21.66a3,3,0,0,0,.34-.86"/><path class="cls-12" d="M30.68,21.7,31,21"/><path class="cls-12" d="M31.79,21.42l-.25.42C31.66,21.67,31.79,21.62,31.79,21.42Z"/><path class="cls-12" d="M32.14,22.22a4.06,4.06,0,0,0,.27-.65"/><path class="cls-12" d="M32.72,22.41a1.91,1.91,0,0,0,.22-.62"/><path class="cls-11" d="M14.2,23.13c1.12.75.54,3.58-1.29,6.33s-4.23,4.36-5.35,3.61S7,29.49,8.85,26.75,13.08,22.38,14.2,23.13Z"/><path class="cls-12" d="M52.6,8.65l-.09-.36a9.64,9.64,0,0,1,1.3,3.29"/><path class="cls-12" d="M54.45,8.83a13.72,13.72,0,0,1,1,2.39"/><path class="cls-12" d="M56.43,9.05A7.12,7.12,0,0,1,57.83,12"/><path class="cls-12" d="M58.71,10a4.5,4.5,0,0,1,1.14,2.44"/><path class="cls-12" d="M62,10.63a4.79,4.79,0,0,1,.72,2.52"/><path class="cls-12" d="M64.24,11.74A9.33,9.33,0,0,1,64.75,14"/><path class="cls-12" d="M66.25,13a10.3,10.3,0,0,1,.61,2.17"/><path class="cls-12" d="M68.28,13.84a10.67,10.67,0,0,1,.42,2.24"/><path class="cls-12" d="M70.23,15l.36,1.66"/><path class="cls-12" d="M71.77,16.06a7.53,7.53,0,0,1,.15,1.64"/><path class="cls-12" d="M73.22,16.89,73.49,19"/><path class="cls-12" d="M74.62,18.23a4.77,4.77,0,0,1,.09,1.88"/><path class="cls-12" d="M75.49,19.39l.1,1.46"/><path class="cls-12" d="M76.9,20.43,77,21.89"/><path class="cls-12" d="M78,21.4a5.53,5.53,0,0,1,.35,1.65"/><path class="cls-12" d="M79.32,22.47c.07.54.15,1.07.22,1.61"/><path class="cls-12" d="M80.4,23.44l-.1.74"/><path class="cls-12" d="M3.84,46.41a5.53,5.53,0,0,1,.81,1.8"/><path class="cls-12" d="M4.75,44.16a4.71,4.71,0,0,0,1,2"/><path class="cls-12" d="M5.56,42.64a8.83,8.83,0,0,0,1.09,2.17"/><path class="cls-12" d="M6.48,41.18a18.4,18.4,0,0,1,1.29,1.88"/><path class="cls-12" d="M7.46,39.59l1.31,1.58"/><path class="cls-12" d="M8.8,38c.29.48.58,1,.88,1.45"/><path class="cls-12" d="M9.75,36.58l.8,1.39"/><path class="cls-12" d="M10.84,34.74l.57,1.18"/><path class="cls-12" d="M11.81,33.06l.38,1a.3.3,0,0,0,.12.15s.14,0,.11-.1"/><path class="cls-12" d="M13,32l.51,1.3"/><path class="cls-12" d="M14.56,30.77c.16.33.33.66.5,1"/><path class="cls-12" d="M15.84,29.66c.1.26.21.51.31.77"/><path class="cls-12" d="M17.46,28.51a2,2,0,0,1,.27.9"/><path class="cls-12" d="M17.55,36.78c.1.26.2.52.31.78"/><path class="cls-12" d="M18.16,36a4.22,4.22,0,0,0,.5.91"/><path class="cls-12" d="M19.12,35.46l.52.8"/><path class="cls-12" d="M19.65,34.75l.69.72"/><path class="cls-12" d="M20.45,34l.54.59"/><path class="cls-12" d="M21.06,33.29l.71.52"/><path class="cls-12" d="M21.88,32.56l.51.3"/><path class="cls-12" d="M71,26.56a6.89,6.89,0,0,1,1-1.21"/><path class="cls-12" d="M72.83,26.55l.45-.88"/><path class="cls-12" d="M73.58,26.94l.56-.62"/><path class="cls-12" d="M74.55,27.36l.63-.44"/><path class="cls-12" d="M75.42,28l.84-.13c.29-.05.61.69.9.74"/><path class="cls-12" d="M77,29.29l.86.15c.35.07.44.77.76.9.18-.21.42-.25.6-.47"/><path class="cls-12" d="M79.83,31.57l.24-.39"/><path class="cls-12" d="M65.1,71.41a7.73,7.73,0,0,1,1.66,2.38"/><path class="cls-12" d="M66.58,70.68a11.94,11.94,0,0,0,2.16,2.16"/><path class="cls-12" d="M67.94,69.41a24.3,24.3,0,0,0,2.22,2"/><path class="cls-12" d="M69.42,68.64l2.23,1.62"/><path class="cls-12" d="M70.68,68,73,69"/><path class="cls-12" d="M71.78,66.5l2.36.66"/><path class="cls-12" d="M73.65,64.16a18.27,18.27,0,0,1,2.1.77"/><path class="cls-12" d="M75.1,62.27l2.37.16"/><path class="cls-12" d="M76.82,60.3l2.1.26"/><path class="cls-12" d="M78.31,59l1.74.11"/><path class="cls-12" d="M79.16,57.36l1.74.11"/><path class="cls-12" d="M79.84,55.79l1.65.14"/><path class="cls-12" d="M80.74,54.53l1.33.06"/><path class="cls-12" d="M81.26,52.82l1.31-.22"/><path class="cls-12" d="M82,51.34l1.09-.53"/><path class="cls-12" d="M82.53,49.72l.9-1.26C83,49.45,82.93,48.72,82.53,49.72Z"/><path class="cls-12" d="M21.31,75.51c.35-.37.7-.75,1.06-1.12"/><path class="cls-12" d="M22.71,76.26,23.82,75"/><path class="cls-12" d="M23.84,77.32l1.38-1.55"/><path class="cls-12" d="M25.35,77.62l1.22-1.48"/><path class="cls-12" d="M27.13,77.81l1.11-1.74"/><path class="cls-12" d="M28.51,77.77l1-1.38"/><path class="cls-12" d="M30.1,78.24l.87-.85"/><path class="cls-12" d="M31.57,78.65l1.06-1.12"/><path class="cls-12" d="M33.16,79.12c.29-.44.57-.89.86-1.34"/><path class="cls-12" d="M34.65,79.63c.16-.6.31-1.2.47-1.8"/><path class="cls-12" d="M35.75,79.6l.33-1.43"/><path class="cls-12" d="M36.89,80l.48-1.8"/><path class="cls-12" d="M38.47,79.92l.66-1.37"/><path class="cls-12" d="M40.13,80.06l.72-2"/><path class="cls-12" d="M41.7,80.24l.3-2"/><path class="cls-12" d="M43.19,80c.4-.43.8-.85,1.19-1.28"/><path class="cls-12" d="M45.18,80.16c.39-.43.79-.85,1.19-1.28"/><path class="cls-12" d="M47,79.73l.67-.57"/><path class="cls-12" d="M68,80.5a1.3,1.3,0,0,1,.59,1.21"/><path class="cls-12" d="M68.93,79a6.67,6.67,0,0,1,.79,1.58"/><path class="cls-12" d="M70.73,78l.69,1.43"/><path class="cls-12" d="M71.81,77.2a2.36,2.36,0,0,1,.74.89"/><path class="cls-12" d="M72.92,76.45c.21.25.41.5.61.76"/><path class="cls-12" d="M74.27,75.31a2.92,2.92,0,0,1,.65.84"/><path class="cls-12" d="M75.4,73.86l.52.8"/><path class="cls-12" d="M76.84,72.19c.27.36.55.72.83,1.07"/><path class="cls-12" d="M77.9,71.07l.93.83"/><path class="cls-12" d="M78.79,69.82l.81.78"/><path class="cls-12" d="M79.92,68.36l1,1"/><path class="cls-12" d="M81,66.83l.67.43"/><path class="cls-12" d="M81.81,65.31l.57.18"/><path class="cls-12" d="M82.34,63.6l.65-.36"/><path class="cls-12" d="M83.14,61.58l.64-.15"/><path class="cls-12" d="M83.87,59.89l.63.35"/><path class="cls-12" d="M84.6,58.7l.74-.39"/><path class="cls-12" d="M85.29,56.93l.69-.78"/><path class="cls-12" d="M85.87,55.1l.58,0"/><path class="cls-12" d="M86.49,53.15l.36,1.16"/><path class="cls-12" d="M28.5,86.79a9.47,9.47,0,0,0,.95-1.67"/><path class="cls-12" d="M29.87,87.17a4.14,4.14,0,0,0,.63-1.1"/><path class="cls-12" d="M31.55,87.67,32,86.5"/><path class="cls-12" d="M32.36,88c.25-.49.49-1,.73-1.48"/><path class="cls-12" d="M34,87.92l.64-1.16"/><path class="cls-12" d="M35.12,88.35l1-1.2"/><path class="cls-12" d="M36.69,88.53l1.61-.74"/><path class="cls-12" d="M38.59,88.28l1.09-.54"/><path class="cls-12" d="M40,88.52l1.24-.39c.37-.12.88.35,1.26.4.16-.35.29-.35.54-.64"/><path class="cls-12" d="M44.5,88.53l.45-.88"/></g></g></svg>