<svg xmlns="http://www.w3.org/2000/svg" viewBox="0 0 93.03 110.69"><defs><style>.cls-1{isolation:isolate;}.cls-11,.cls-2{fill:#c9ebfc;}.cls-10,.cls-2,.cls-4,.cls-5,.cls-6,.cls-7,.cls-8{stroke:#231f20;stroke-linecap:round;stroke-linejoin:round;}.cls-10,.cls-2,.cls-4,.cls-6,.cls-8{stroke-width:0.87px;}.cls-11,.cls-3{opacity:0.5;}.cls-4{fill:#914f22;}.cls-5{fill:none;stroke-width:0.33px;}.cls-6{fill:#923948;}.cls-7{fill:#231f20;stroke-width:0.43px;}.cls-8,.cls-9{fill:#d27528;}.cls-9{opacity:0.3;}.cls-11,.cls-9{mix-blend-mode:screen;}.cls-10{fill:#f05867;}</style></defs><g class="cls-1"><g id="Layer_1" data-name="Layer 1"><path class="cls-2" d="M64.36,106.5a12.33,12.33,0,0,1-13,3.06C-7.55,89.5-4.11,60.28,6.87,46.73c7.34-9.07,16.94-8.21,24.63-5.15l-7-29.78L44.7,7l7,29.78c5.5-6.18,13.7-11.24,24.32-6.42C91.94,37.58,108.09,62.17,64.36,106.5Z"/><g class="cls-3"><path class="cls-4" d="M40.93,8.51a23.62,23.62,0,0,0-4.88,1.73,1.85,1.85,0,0,0-.65.45,1.49,1.49,0,0,0-.27,1,1.54,1.54,0,0,0-.71-.81,1.9,1.9,0,0,0-.78-.11,23.33,23.33,0,0,0-5.14.64c-1.29.31-3.29,1.61-1.82,3.1a11.44,11.44,0,0,1,2.79,3.93c.73,1.75,1.45,3.49,2.18,5.23a7.18,7.18,0,0,0,1.7,2.78c1.39,1.19,3.35,1,5.09.78l.34-.07a3.37,3.37,0,0,0,.34-.09c1.66-.57,3.49-1.29,4.2-3a7.23,7.23,0,0,0,.28-3.25l-.39-5.65A11.26,11.26,0,0,1,44,10.47C44.59,8.48,42.22,8.21,40.93,8.51Z"/><path class="cls-5" d="M40,12.84q.87,4.26,1.32,8.6"/><path class="cls-5" d="M41.53,22.92c.09.65.16,1.31.21,2"/><path class="cls-5" d="M38.89,14.8a43.44,43.44,0,0,1,1.49,10.39"/><path class="cls-5" d="M36.72,14.2c.5,1.54,1,3.08,1.49,4.62a2.64,2.64,0,0,1,.18,1"/><path class="cls-5" d="M34.67,14.68A45.19,45.19,0,0,1,37.2,26.84"/><path class="cls-5" d="M37.89,21.89a44.15,44.15,0,0,1,.5,5.26"/><path class="cls-5" d="M30,15.32c.25.1.35.41.43.68a49,49,0,0,0,2.79,7.41"/><path class="cls-5" d="M32.74,18.36a87.52,87.52,0,0,0,3,8.52"/><path class="cls-5" d="M33.05,14.21a7.5,7.5,0,0,0,.37,1.39c.5,1.53,1,3.08,1.4,4.63"/><path class="cls-5" d="M42,19.81a.53.53,0,0,1,.42-.11"/><path class="cls-5" d="M42,19.16a1.23,1.23,0,0,1,.54-.05"/><path class="cls-5" d="M41.93,18.45a.62.62,0,0,1,.42-.1"/><path class="cls-5" d="M41.94,17.89a.89.89,0,0,1,.38-.12"/><path class="cls-5" d="M41.85,17l.31-.08"/><path class="cls-5" d="M41.68,16.45l.41-.16"/><path class="cls-5" d="M41.72,15.53l.27-.11"/><path class="cls-5" d="M41.65,14.76a.7.7,0,0,1,.34-.12"/><path class="cls-5" d="M41.59,14a1.4,1.4,0,0,1,.34-.13"/><path class="cls-5" d="M41.47,13.34a.17.17,0,0,1,.21-.05"/><path class="cls-5" d="M41.39,12.73a.39.39,0,0,1,.26,0"/><path class="cls-5" d="M41.3,12a.31.31,0,0,0,.28,0"/><path class="cls-5" d="M41.06,11.16h.33"/><path class="cls-5" d="M41,10.64a.29.29,0,0,1,.33,0"/><path class="cls-5" d="M36.45,18.54l.55,0"/><path class="cls-5" d="M36.79,19a.46.46,0,0,1,.44-.05"/><path class="cls-5" d="M36.94,19.51a.83.83,0,0,1,.44,0"/><path class="cls-5" d="M37.19,20.06a.44.44,0,0,1,.4,0"/><path class="cls-5" d="M37.38,20.56a.59.59,0,0,1,.32,0"/><path class="cls-5" d="M37.63,21a.21.21,0,0,1,.19,0"/><path class="cls-5" d="M34.75,21.4a1.38,1.38,0,0,1,.72-.15"/><path class="cls-5" d="M35.15,21.9a.47.47,0,0,1,.52-.14"/><path class="cls-5" d="M35.3,22.61l.42-.09"/><path class="cls-5" d="M35.41,23.25l.37-.05"/><path class="cls-5" d="M35.51,24l.39-.08"/><path class="cls-5" d="M35.72,24.55l.32-.08"/><path class="cls-5" d="M35.84,25.19l.31-.07"/><path class="cls-5" d="M36.05,25.62l.18,0"/><path class="cls-5" d="M32.92,24.46l.44-.15"/><path class="cls-5" d="M33.24,24.89a.88.88,0,0,1,.41-.17"/><path class="cls-5" d="M33.55,25.39a.91.91,0,0,1,.46-.1"/><path class="cls-5" d="M33.85,25.9a.91.91,0,0,1,.43-.1"/><path class="cls-5" d="M34.28,26.28a.31.31,0,0,1,.29-.06"/><path class="cls-5" d="M34.72,26.6l.09-.1"/></g><path class="cls-6" d="M24.34,84.93s-12.7-4.47-16.61-9.24S5.11,56.92,21.59,58.84s20.68,11.6,31.49,3.93,28.39-16.1,34,1.86L48.31,83.12Z"/><path class="cls-7" d="M44.7,7l1.82,7.72c-7.8,1.92-16.61,1.35-21.17.83l-.89-3.77Z"/><path class="cls-4" d="M21.16,7.31l1.47,6.24C23,15.07,28.76,15,35.52,13.4s11.95-4.12,11.6-5.63L45.64,1.53Z"/><path class="cls-8" d="M45.64,1.53C46,3,40.81,5.56,34.05,7.16s-12.54,1.66-12.89.15,4.83-4,11.59-5.63S45.28,0,45.64,1.53Z"/><path class="cls-9" d="M28.51,4.5c.19.53-.87,1.44-2.38,2s-2.89.62-3.08.08.86-1.44,2.37-2S28.31,4,28.51,4.5Z"/><path class="cls-5" d="M23.6,8.39a4.9,4.9,0,0,0,.27,1.37c.12.36.28.71.38,1.08a3.51,3.51,0,0,1,.12.79"/><path class="cls-5" d="M24.54,8.53l1.35,4.54a.55.55,0,0,1,0,.38"/><path class="cls-5" d="M26.13,10.27a10.37,10.37,0,0,1,.6,2.33"/><path class="cls-5" d="M27.39,11a16.91,16.91,0,0,1,.46,1.69"/><path class="cls-5" d="M33.17,8.61c.43,1.48.87,3,1.31,4.45a1.34,1.34,0,0,1,.08.56"/><path class="cls-5" d="M34.9,8.67l-.06-.14c.28,1,.55,1.91.82,2.86"/><path class="cls-5" d="M35.9,8.75A12.64,12.64,0,0,1,36.68,11"/><path class="cls-5" d="M37.07,8.63l.75,1.91,0-.13"/><path class="cls-5" d="M38.23,6.2c.43,1.55.85,3.1,1.27,4.65"/><path class="cls-5" d="M37.07,11.59c.11.49.23,1,.35,1.49"/><path class="cls-5" d="M41.19,4.81c.38,1.5.8,3,1.25,4.45"/><path class="cls-5" d="M43,4.08,44.16,9V8.91"/><path class="cls-5" d="M43.92,3.42c.16.45.31.91.46,1.36a1.37,1.37,0,0,1,.11.84"/><path class="cls-5" d="M44.86,4.31l1,3.14.34,1.32c0,.08,0,.17,0,.22"/><path class="cls-5" d="M40.83,8l.79,2.89s0,.07.05.07,0-.07,0-.05c0,.17.08.33.11.49a.12.12,0,0,1,0,.1s-.08,0-.06,0"/><path class="cls-5" d="M29.12,9.14c.1.45.19.91.29,1.37A23.82,23.82,0,0,0,30.32,14"/><path class="cls-5" d="M30.08,7.91A16.31,16.31,0,0,1,31.19,12"/><path class="cls-5" d="M31.05,8s0,0,0,0,.05,0,.06.06c.09.22.17.45.25.67a4.91,4.91,0,0,1,.39,2"/><path class="cls-5" d="M22.73,10.28c.23.68.47,1.36.71,2a6.53,6.53,0,0,1,.48,2.11.17.17,0,0,1-.06-.14"/><path class="cls-5" d="M24.65,6.16l2.11.36a4.23,4.23,0,0,0,.79.08c.28,0,.56-.07.84-.1a19.67,19.67,0,0,1,2,0,12.54,12.54,0,0,0,4-.92"/><path class="cls-5" d="M28.42,5.66a5.93,5.93,0,0,0,2.81,0,22.89,22.89,0,0,0,5.18-1.55"/><path class="cls-5" d="M33.81,2.57a15.69,15.69,0,0,1,7.79-.35"/><path class="cls-5" d="M37.1,2.88l3.06,0s0,0,0,.06.07,0,.1,0a1.22,1.22,0,0,1,.63,0"/><path class="cls-5" d="M42.33,1.38A8.27,8.27,0,0,1,43.5,2"/><path class="cls-5" d="M35.91,5.15l.63.17"/><path class="cls-5" d="M36.7,4.76l.63.32"/><path class="cls-5" d="M37.49,4.53l.58.17"/><path class="cls-5" d="M38.41,4.25l.53.14"/><path class="cls-5" d="M39.11,3.88l.57.07"/><path class="cls-5" d="M42.06,3.08l.47.15"/><path class="cls-5" d="M42.54,2.78A1.41,1.41,0,0,1,43,3"/><path class="cls-5" d="M43,2.58a1.44,1.44,0,0,1,.39.2"/><path class="cls-5" d="M26,4.56a3.25,3.25,0,0,0,.43.18"/><path class="cls-5" d="M26.53,4.32a2.55,2.55,0,0,0,.39.24"/><path class="cls-5" d="M27.11,4.05l.45.24"/><path class="cls-5" d="M27.7,3.83l.46.08"/><path class="cls-5" d="M28.18,3.69h.47"/><path class="cls-5" d="M28.67,3.47a2.4,2.4,0,0,0,.37.28"/><path class="cls-5" d="M29.2,3.4l.34.29"/><path class="cls-5" d="M29.77,3.26l.4,0"/><path class="cls-5" d="M30.35,3a1,1,0,0,1,.38.28"/><path class="cls-5" d="M31,2.93a1.72,1.72,0,0,0,.27.27"/><path class="cls-5" d="M31.4,2.77a2.28,2.28,0,0,1,.33.29"/><path class="cls-5" d="M23.17,6.88l.48.54"/><path class="cls-5" d="M23.88,7a2.44,2.44,0,0,0,.46.39"/><path class="cls-5" d="M24.46,6.89l.61.38"/><path class="cls-5" d="M25.1,6.9a4.07,4.07,0,0,0,.48.33"/><path class="cls-5" d="M25.64,6.87l.53.33"/><path class="cls-5" d="M26.27,7l.28.33"/><path class="cls-5" d="M45.19,3.79a.65.65,0,0,1,.35-.15"/><path class="cls-5" d="M45.45,4.2l.24-.14"/><path class="cls-5" d="M45.62,4.58a2.85,2.85,0,0,0,.23.26"/><path class="cls-5" d="M45.8,5l.12,0"/><path class="cls-5" d="M46,5.58l.07.07"/><path class="cls-5" d="M39.54,6.73l.49.09"/><path class="cls-5" d="M39.65,7.31l.44,0"/><path class="cls-5" d="M39.82,7.78a.59.59,0,0,1,.33-.17"/><path class="cls-5" d="M39.92,8.51a1.76,1.76,0,0,1,.39-.19"/><path class="cls-5" d="M40,9.15A1.33,1.33,0,0,1,40.36,9"/><path class="cls-5" d="M40.24,9.59a.9.9,0,0,0,.28-.08"/><path class="cls-5" d="M36.88,7.41a1.79,1.79,0,0,1,.45-.19"/><path class="cls-5" d="M37.18,7.72a1.08,1.08,0,0,1,.38-.17"/><path class="cls-5" d="M37.4,8h.37"/><path class="cls-5" d="M37.68,8.37A.67.67,0,0,1,38,8.31"/><path class="cls-5" d="M37.92,8.75l.18-.05"/><path class="cls-5" d="M32.31,11.12a1.64,1.64,0,0,1,.52-.24"/><path class="cls-5" d="M32.54,11.54a.93.93,0,0,1,.45-.18"/><path class="cls-5" d="M32.74,12a1,1,0,0,1,.49-.14"/><path class="cls-5" d="M32.82,12.43a2,2,0,0,1,.43-.08"/><path class="cls-5" d="M33,12.81a.23.23,0,0,0,.2,0c.07,0,.16,0,.19.06"/><path class="cls-5" d="M27.79,9.66a2.31,2.31,0,0,1,.51-.22"/><path class="cls-5" d="M28,10.35a1.14,1.14,0,0,1,.59-.24"/><path class="cls-5" d="M28.26,11.05a1,1,0,0,1,.46-.18"/><path class="cls-5" d="M28.45,11.52a.64.64,0,0,1,.3-.19"/><path class="cls-5" d="M28.6,12l.26-.07"/><path class="cls-5" d="M28.71,12.61l.15.33"/><path class="cls-10" d="M70.17,60.94c-10.9,4-15.75,16.88-31.68,19.75s-30.76-5-30.76-5h0c4.77,9,16.71,20.12,45.07,29.77a8,8,0,0,0,8.47-2C77.4,87.12,84.5,74.29,87.06,64.63,86,61.49,80.48,57.2,70.17,60.94Z"/><path class="cls-11" d="M23.53,63c-1.21,7.31-6,12.62-10.61,11.85S5.48,67.54,6.69,60.22s6-12.62,10.61-11.85S24.74,55.69,23.53,63Z"/><path class="cls-11" d="M24.56,79.71c1.93,2.39,2,5.56.09,7.06s-4.95.8-6.88-1.6-2-5.55-.09-7.06S22.64,77.31,24.56,79.71Z"/><path class="cls-5" d="M42.53,19.15a8.46,8.46,0,0,0,2.66-.71"/><path class="cls-5" d="M42.8,21.23a8.62,8.62,0,0,0,2.52-.85"/><path class="cls-5" d="M43.1,23.59a4,4,0,0,0,2.08-.46"/><path class="cls-5" d="M43.47,25.49l2.35-.56"/><path class="cls-5" d="M43.93,27c.73.49,1.82-.29,2.56.18"/><path class="cls-5" d="M44.21,30.08A10.77,10.77,0,0,0,47.11,29"/><path class="cls-5" d="M45.15,32.14a7.28,7.28,0,0,0,2-.72"/><path class="cls-5" d="M45.55,34.31l2.52-.82"/><path class="cls-5" d="M46.06,36.47l2.09-.74"/><path class="cls-5" d="M47.37,38.19l2-.7"/><path class="cls-5" d="M48.42,39.75,50,39.16"/><path class="cls-5" d="M49.23,41.26l1,.33"/><path class="cls-5" d="M50.06,43.32l.9.47"/><path class="cls-5" d="M50.76,44.85l1.58-.48"/><path class="cls-5" d="M61.1,35.52a23.53,23.53,0,0,1,4-4"/><path class="cls-5" d="M63.94,36.16a58.69,58.69,0,0,1,4.66-4.4"/><path class="cls-5" d="M67.32,36.06a24,24,0,0,1,4.92-3.17"/><path class="cls-5" d="M70.44,36.24a54.64,54.64,0,0,0,5-2.51"/><path class="cls-5" d="M73.1,37.39A21.74,21.74,0,0,1,78,35.25"/><path class="cls-5" d="M75.36,39a45,45,0,0,0,4.7-1.64"/><path class="cls-5" d="M78,40.11a26.34,26.34,0,0,1,3.26-1"/><path class="cls-5" d="M79.78,41.86l3.4-.89"/><path class="cls-5" d="M81.33,43.64a18.49,18.49,0,0,1,3.09-.81"/><path class="cls-5" d="M83.21,44.88a22.36,22.36,0,0,1,2.72-.45"/><path class="cls-5" d="M84.57,46.86l2-.21"/><path class="cls-5" d="M85.5,48.84l1.89-.13"/><path class="cls-5" d="M86.33,50.91a4.77,4.77,0,0,0,1.55-.13"/><path class="cls-5" d="M87.16,52.53l1.29-.3"/><path class="cls-5" d="M87.21,54.67l1.15.07"/><path class="cls-5" d="M87.78,56.11l1.17.18"/><path class="cls-5" d="M88.42,58.34l1,.09"/><path class="cls-5" d="M53.82,99.83l3.11,1.79"/><path class="cls-5" d="M55.52,98.86a30.72,30.72,0,0,1,3.15,1.56"/><path class="cls-5" d="M57.51,98.31c.07-.21.38-.19.58-.1.77.31,1.62.88,2.35.48"/><path class="cls-5" d="M59,96.89a15,15,0,0,0,2.21.5"/><path class="cls-5" d="M59.76,95.42,62.5,96"/><path class="cls-5" d="M61.21,94.39l2.8.35"/><path class="cls-5" d="M63.05,93.05a15.74,15.74,0,0,1,2.74.15"/><path class="cls-5" d="M64.65,91.2a7.45,7.45,0,0,1,2.26,0"/><path class="cls-5" d="M65.73,89.57l2.33-.22"/><path class="cls-5" d="M67.3,88.08l2-.16"/><path class="cls-5" d="M68.44,86.69l1.66-.17"/><path class="cls-5" d="M69.49,85.4l1.77-.19"/><path class="cls-5" d="M70.88,84.08l1.63-.27"/><path class="cls-5" d="M72.28,82.38l1.58-.48"/><path class="cls-5" d="M73.5,80.85l1.24-.52"/><path class="cls-5" d="M74.2,79l1.18-.73"/><path class="cls-5" d="M75.31,77.49l1.4-1.24"/><path class="cls-5" d="M77.22,74.55l.67-.5"/><path class="cls-5" d="M41.8,91.61a13,13,0,0,0,4.66.65"/><path class="cls-5" d="M43.44,90l3.65.61"/><path class="cls-5" d="M44.81,88.7A6.87,6.87,0,0,0,48,89"/><path class="cls-5" d="M45.43,86.92l3,.19"/><path class="cls-5" d="M46.87,85.8l1.87-.2"/><path class="cls-5" d="M47.9,84.41,49.15,84"/><path class="cls-5" d="M49,82.35,50.38,82"/><path class="cls-5" d="M50.26,81l.91-.44"/><path class="cls-5" d="M52.36,79.4l.62-.26"/><path class="cls-5" d="M29.71,69a12.23,12.23,0,0,1,3-3.29"/><path class="cls-5" d="M31.46,70a3,3,0,0,1,1.13-1.84c.79-.78,1.61-1.54,2.44-2.29"/><path class="cls-5" d="M33.92,69.28l2.39-2.36"/><path class="cls-5" d="M35.81,69.63c.54-.61,1.07-1.23,1.6-1.84"/><path class="cls-5" d="M38,70l1.5-1.72"/><path class="cls-5" d="M39.16,70.43l1.44-1.59"/><path class="cls-5" d="M40.87,70.47c.58-.58,1.16-1.17,1.73-1.76"/><path class="cls-5" d="M42.61,70.18l1.6-1.85"/><path class="cls-5" d="M44.16,70l1.48-1.37"/><path class="cls-5" d="M45.27,70.45l1.65-1.18"/><path class="cls-5" d="M47,70.85l1.36-1.91"/><path class="cls-5" d="M66.27,59.28a19.76,19.76,0,0,1,1.82-2.89"/><path class="cls-5" d="M68.4,58.77a17.43,17.43,0,0,1,2.37-2.84"/><path class="cls-5" d="M70.44,57.92a14.69,14.69,0,0,1,2.06-2.46"/><path class="cls-5" d="M72.2,57.64a10.4,10.4,0,0,1,2.12-2.07"/><path class="cls-5" d="M73.75,57.51l1.7-1.42"/><path class="cls-5" d="M75.17,57.28l1.61-.83"/><path class="cls-5" d="M76.47,58l1.63-.27c0,.35.12,1,.09,1.34"/><path class="cls-5" d="M18,44.17a20.56,20.56,0,0,1,2.72-2.72"/><path class="cls-5" d="M19.68,44.48a17.91,17.91,0,0,1,2.73-2.41"/><path class="cls-5" d="M22,44a7.48,7.48,0,0,1,2.5-1.73"/><path class="cls-5" d="M23.84,44.32l2.47-1.49"/><path class="cls-5" d="M25.63,44.23l2-1"/><path class="cls-5" d="M27.78,44.74l2.15-1"/><path class="cls-5" d="M29.27,45.29,31,44.54"/><path class="cls-5" d="M30.7,46.54l1.87-.67"/><path class="cls-5" d="M31.78,47.3l1.93-.45"/><path class="cls-5" d="M33.07,48.47l1.68-.06"/><path class="cls-5" d="M34,49.71l1.47.44c.68.21,1.21,1,1.87,1.25"/></g></g></svg>