<svg xmlns="http://www.w3.org/2000/svg" viewBox="0 0 123.52 110.8"><defs><style>.cls-1{isolation:isolate;}.cls-2{fill:#fdb517;}.cls-2,.cls-3,.cls-4,.cls-5,.cls-6,.cls-7,.cls-8{stroke:#231f20;stroke-linecap:round;stroke-linejoin:round;}.cls-2,.cls-3,.cls-4,.cls-5,.cls-6,.cls-7{stroke-width:0.87px;}.cls-3{fill:#231f20;}.cls-4{fill:#914f22;}.cls-5{fill:#eb9649;}.cls-6{fill:#d27528;}.cls-7,.cls-8{fill:none;}.cls-8{stroke-width:0.33px;}.cls-9{fill:#c9ebfc;opacity:0.5;mix-blend-mode:screen;}</style></defs><g class="cls-1"><g id="Layer_1" data-name="Layer 1"><path class="cls-2" d="M101.07,23.43a6.61,6.61,0,0,1-3-.37,9,9,0,0,1-5.5-7.65,9.46,9.46,0,0,1,1.91-6.84,7,7,0,0,1,4.8-2.71c4.19-.42,8,3.18,8.46,8S105.26,23,101.07,23.43Z"/><path class="cls-3" d="M98.1,23.06a9,9,0,0,1-5.5-7.65,9.46,9.46,0,0,1,1.91-6.84,5.37,5.37,0,0,1,.7-.11,7.24,7.24,0,0,1,7.67,6.75A7.4,7.4,0,0,1,98.1,23.06Z"/><path class="cls-4" d="M101.75,14.84a6.27,6.27,0,0,1-5.92,5.82L23.17,25l-10.41.62S6.31,15,11.73,6.52l6.42.13L95.58,8.17a6.25,6.25,0,0,1,6.18,6.14C101.76,14.48,101.76,14.66,101.75,14.84Z"/><path class="cls-5" d="M67.82,101.85l2.29,4.09L72.05,108c16-2,37.1-5.17,51-9.72A253,253,0,0,1,93,30.64Q91.73,25.89,90.64,21L22.2,23.21s.54,3.66,1.59,9.52c3.45,19.35,12.42,62.7,25.57,77.63,0,0,7.11-.56,17.31-1.72Z"/><path class="cls-3" d="M93,30.64c-5.66-.15-15.23-.29-26.8-.21-14.89.11-34.91,1.67-42.43,2.3-1.05-5.86-1.59-9.52-1.59-9.52L90.64,21Q91.72,25.88,93,30.64Z"/><path class="cls-5" d="M96.49,13.73c-.7-6.47-4.59-11.36-8.68-10.92C81.31,2.52,33.47.5,25.08.44S16.62,4.1,16.62,4.1s-.54,23.08,2.53,25.71,7.21.89,12.34.05c4.84-.8,53.09-3.32,58.37-3.59a3.71,3.71,0,0,0,.47,0C94.43,25.8,97.18,20.2,96.49,13.73Z"/><path class="cls-6" d="M29.61,24.6a10.94,10.94,0,0,1-3.46,4.79A6.4,6.4,0,0,1,23,30.65C20,31,17,28.92,14.88,25.48a20.84,20.84,0,0,1-2.77-8.57A20,20,0,0,1,13.54,6.56c1.39-3.06,3.62-5.12,6.3-5.4a7,7,0,0,1,5.08,1.62,13.25,13.25,0,0,1,3.37,4.07,20.92,20.92,0,0,1,2.47,8A20.59,20.59,0,0,1,29.61,24.6Z"/><path class="cls-3" d="M28.07,27.43a2.42,2.42,0,0,1-3.83.06,19.88,19.88,0,0,1-3.93-10.22c-.54-5,.57-9.6,2.7-12.53a2.42,2.42,0,0,1,3.83-.06,19.79,19.79,0,0,1,3.92,10.21C31.3,19.91,30.2,24.51,28.07,27.43Z"/><path class="cls-4" d="M29.61,24.6,23.17,25l-8.29.5-2.12.13S6.31,15,11.73,6.52l1.81,0,4.61.09,10.14.2a20.92,20.92,0,0,1,2.47,8A20.59,20.59,0,0,1,29.61,24.6Z"/><line class="cls-7" x1="36.06" y1="42.49" x2="90.36" y2="40.42"/><line class="cls-7" x1="38.99" y1="58.51" x2="92.57" y2="52.94"/><line class="cls-7" x1="42.36" y1="72.94" x2="94.79" y2="65.46"/><line class="cls-7" x1="75.21" y1="81.39" x2="99.24" y2="77.06"/><path class="cls-3" d="M23.17,25l-10.41.62S6.31,15,11.73,6.52l6.42.13C21,9.27,25.06,14.93,23.17,25Z"/><ellipse class="cls-2" cx="10.62" cy="16.36" rx="10.19" ry="11.8" transform="translate(-0.66 0.45) rotate(-2.35)"/><path class="cls-8" d="M7.94,24.7a24.37,24.37,0,0,0,2.79,1.94"/><path class="cls-8" d="M9.81,24.93c.76.33,1.51.71,2.24,1.11"/><path class="cls-8" d="M11.27,24.48a7.76,7.76,0,0,0,2.15.71"/><path class="cls-8" d="M12.63,23.79a4.62,4.62,0,0,0,1.81.57"/><path class="cls-8" d="M13.5,22.74A4.67,4.67,0,0,1,15,23"/><path class="cls-8" d="M14.15,21.61a4.79,4.79,0,0,0,1.31-.06"/><path class="cls-8" d="M15,20.55l1-.14"/><path class="cls-8" d="M15.31,19.58l.87-.07"/><path class="cls-8" d="M15.6,18.71a1.52,1.52,0,0,0,.73-.06"/><path class="cls-8" d="M15.74,17.56a1.36,1.36,0,0,0,.66-.15"/><path class="cls-8" d="M15.75,16.61a.75.75,0,0,0,.65-.21"/><path class="cls-8" d="M25.31,8.39a16.32,16.32,0,0,1,3.63-.18"/><path class="cls-8" d="M23.57,9.7c1.91,0,3.82,0,5.73.08"/><path class="cls-8" d="M26,11.27a7.87,7.87,0,0,1,2.47-.12"/><path class="cls-8" d="M26.4,12.32a15.8,15.8,0,0,1,2.17-.13"/><path class="cls-8" d="M22.39,14a7.3,7.3,0,0,1,2.47-.19l4.36.16"/><path class="cls-8" d="M25,15.39c1.15-.16,2.31-.21,3.46-.26l.52,0L30.32,15"/><path class="cls-8" d="M25.31,16.86l3.77,0"/><path class="cls-8" d="M22.79,18.5a5.09,5.09,0,0,1,1.86-.19c.42,0,.83.11,1.25.11s.91-.07,1.36-.08a8.47,8.47,0,0,1,1.87.29"/><path class="cls-8" d="M22.78,20.85l5.72.06"/><path class="cls-8" d="M25,22.52c1.59.1,3.18.15,4.78.14"/><path class="cls-8" d="M25,23.79a3.77,3.77,0,0,1,1.52-.22"/><path class="cls-8" d="M25.53,20A4,4,0,0,0,26.62,20"/><path class="cls-8" d="M20.82,11.14l3.41.13"/><path class="cls-8" d="M19.59,8.69h2.83a1.15,1.15,0,0,0,.93-.28"/><path class="cls-8" d="M17.56,5.5l.8.23"/><path class="cls-8" d="M18.42,5.1l1,.3"/><path class="cls-8" d="M19.16,4.5,20,5"/><path class="cls-8" d="M20.61,4.64l-.72-.43A1.56,1.56,0,0,1,20.61,4.64Z"/><path class="cls-8" d="M20.89,3.42l.36.29"/><path class="cls-8" d="M21.25,3l.29.22Z"/><path class="cls-8" d="M19.74,26.92,21,26.38"/><path class="cls-8" d="M21.47,27a2.85,2.85,0,0,1-.94.58C20.82,27.37,21.18,27.17,21.47,27Z"/><path class="cls-8" d="M22.34,27.62l-.72.38C21.82,28,22.17,27.74,22.34,27.62Z"/><path class="cls-8" d="M22.41,28.87l.51-.22"/><path class="cls-8" d="M23.07,29.07a.32.32,0,0,0,.3-.2"/><path class="cls-8" d="M85.47,6a17.79,17.79,0,0,0,3.11-.89"/><path class="cls-8" d="M86.5,6.93l2-.72"/><path class="cls-8" d="M87.5,7.55a7.69,7.69,0,0,1,1.88-.45"/><path class="cls-8" d="M87.86,8.13l2-.46"/><path class="cls-8" d="M88.3,8.86A6.82,6.82,0,0,0,90,8.5"/><path class="cls-8" d="M88.81,9.58l1.3-.07"/><path class="cls-8" d="M89,10.67l1.31-.15"/><path class="cls-8" d="M89.46,11.4l1.3-.08"/><path class="cls-8" d="M89.68,12.19h1.08"/><path class="cls-8" d="M89.82,13l.65.22"/><path class="cls-8" d="M89.75,13.86l.29.29"/><path class="cls-8" d="M89.68,14.66l.14.36C90,15,89.53,14.66,89.68,14.66Z"/><path class="cls-8" d="M67.07,12l1-.16a13.83,13.83,0,0,1,3.9-.25"/><path class="cls-8" d="M68.14,13.24a28.56,28.56,0,0,1,4.5-.66"/><path class="cls-8" d="M69.46,14.16a23.92,23.92,0,0,1,3.25-.53"/><path class="cls-8" d="M70.18,14.78l2.46-.21"/><path class="cls-8" d="M70.61,15.67l1.74-.07"/><path class="cls-8" d="M70.47,16.54l1.67-.07"/><path class="cls-8" d="M70.54,17.42a4.69,4.69,0,0,1,1.24,0"/><path class="cls-8" d="M70.54,18.28c.52,0,1,0,1,.08"/><path class="cls-8" d="M70.32,19.37l.85,0s.11,0,.13.05,0,.1-.07.06"/><path class="cls-8" d="M70.18,20.31l.58.36"/><path class="cls-8" d="M69.74,21.4l.29.43"/><path class="cls-8" d="M69.16,23.07c.24.08.2-.26.44-.29l-.15-.44"/><path class="cls-8" d="M40,3.26,41.8,3a17.05,17.05,0,0,1,4.61-.34"/><path class="cls-8" d="M41.76,4.46a43.55,43.55,0,0,1,5.59-.69"/><path class="cls-8" d="M43.07,5.26a34.44,34.44,0,0,0,5.36-.57"/><path class="cls-8" d="M45,5.94l4-.11"/><path class="cls-8" d="M46.55,6.8c.92-.09,1.83-.15,2.75-.17"/><path class="cls-8" d="M47.35,7.42l1.88.28"/><path class="cls-8" d="M47.42,8.44a6.65,6.65,0,0,1,2,.08"/><path class="cls-8" d="M47.64,9.38l1.45.14"/><path class="cls-8" d="M47.49,10.61a3.25,3.25,0,0,1,1.24.18"/><path class="cls-8" d="M47.49,11.55l.82.11c.06,0,.13,0,.14.08s-.08.1-.09,0"/><path class="cls-8" d="M47.27,12.71a1.15,1.15,0,0,1,.54.24"/><path class="cls-8" d="M47,13.57c.08.12.15.24.22.36"/><path class="cls-8" d="M46.33,14.73l.36.22"/><path class="cls-8" d="M46,15.75l.22.21"/><path class="cls-8" d="M97.94,10.76l1-.23"/><path class="cls-8" d="M98.45,11.55l1-.12"/><path class="cls-8" d="M99,12.2l.65-.09"/><path class="cls-8" d="M99.17,12.71a.56.56,0,0,0,.44.06"/><path class="cls-8" d="M99.17,13.34l.51.08"/><path class="cls-8" d="M99.17,14a.42.42,0,0,0,.36.06"/><path class="cls-8" d="M99.17,14.51l.36.08"/><path class="cls-8" d="M99,15.23l.37.13"/><path class="cls-8" d="M98.82,15.92a.29.29,0,0,1,.38.18"/><path class="cls-8" d="M98.3,16.62l.51.08"/><path class="cls-8" d="M98.08,18.07c.1-.08.27-.52.37-.59a.33.33,0,0,0-.29-.06"/><path class="cls-8" d="M102.22,9a3.41,3.41,0,0,0,1.67-.68"/><path class="cls-8" d="M102.59,10.05a14.71,14.71,0,0,0,1.72-.76"/><path class="cls-8" d="M103.38,10.91a5.19,5.19,0,0,0,1.37-.53"/><path class="cls-8" d="M103.75,11.81a4.39,4.39,0,0,0,1.21-.44"/><path class="cls-8" d="M104.18,12.44a1.86,1.86,0,0,0,.86-.33"/><path class="cls-8" d="M104.32,13.17a2.3,2.3,0,0,0,.72-.26"/><path class="cls-8" d="M104.89,13.78a.92.92,0,0,1-.65.1C104.48,13.78,104.65,13.88,104.89,13.78Z"/><path class="cls-8" d="M104.39,15l.43-.08"/><path class="cls-8" d="M104.75,15.39a.39.39,0,0,1,.39,0"/><path class="cls-8" d="M105.11,16l-.65.09A1.31,1.31,0,0,0,105.11,16Z"/><path class="cls-8" d="M104.47,16.77l.14-.07"/><path class="cls-8" d="M86.59,32.55a35.39,35.39,0,0,1,5.11-.67"/><path class="cls-8" d="M86.71,34.21l5.21-1"/><path class="cls-8" d="M87.69,35.85l3.25-.48"/><path class="cls-8" d="M89.21,36.83l1.52-.14"/><path class="cls-8" d="M90.29,37.45l1.2-.32"/><path class="cls-8" d="M89.64,45.3A16.82,16.82,0,0,0,95.41,44"/><path class="cls-8" d="M91.28,46.78a21.83,21.83,0,0,0,3.58-.72"/><path class="cls-8" d="M92.47,47.89h2.06"/><path class="cls-8" d="M93.23,49.31l1.52-.44"/><path class="cls-8" d="M93.88,50.39l1.2-.43"/><path class="cls-8" d="M91.38,56.65a25.11,25.11,0,0,0,6.08-1"/><path class="cls-8" d="M93.45,58.81,98,58"/><path class="cls-8" d="M95.82,59.86c.18.21.51.17.78.11l2.06-.45"/><path class="cls-8" d="M96.6,61.7a9.9,9.9,0,0,0,2.28-.45"/><path class="cls-8" d="M97.14,63l1.74-.54"/><path class="cls-8" d="M98.23,64.09l1.84-.57"/><path class="cls-8" d="M94.55,68.5a62.36,62.36,0,0,0,8-2.66"/><path class="cls-8" d="M97.36,69.32a34.09,34.09,0,0,0,3.7-1.09"/><path class="cls-8" d="M98.8,70.85c-.13.05.08.18.21.13l2.23-.88"/><path class="cls-8" d="M100.62,71.8l1.08-.33"/><path class="cls-8" d="M100.84,73.22l1.2-.65"/><path class="cls-8" d="M101.61,74.43a1.41,1.41,0,0,1,.86-.35"/><path class="cls-8" d="M98.58,82.86a58,58,0,0,0,6.72-2.56"/><path class="cls-8" d="M102.68,83.33q2.07-1.06,4-2.28"/><path class="cls-8" d="M104.23,84.38l4.12-1"/><path class="cls-8" d="M105.54,86.65A36.48,36.48,0,0,1,110,85"/><path class="cls-8" d="M107.26,87.92,111,86.56"/><path class="cls-8" d="M109,89.35l2.58-1.06"/><path class="cls-8" d="M109.87,91.08a23.64,23.64,0,0,1,2.8-1.17"/><path class="cls-8" d="M111.82,92.14l2.05-1"/><path class="cls-8" d="M112.47,93.55l1.3-.66"/><path class="cls-8" d="M113.23,95l1.31-.33"/><path class="cls-8" d="M114,96.82l.87-.55"/><path class="cls-8" d="M115.08,97.58l.76-.44"/><path class="cls-8" d="M59.2,107.15a17.68,17.68,0,0,0,4.69-.58"/><path class="cls-8" d="M60.61,105.39a13.22,13.22,0,0,1,3.81-.41"/><path class="cls-8" d="M62,103.73l2.42-.57"/><path class="cls-8" d="M62.79,102.69a6.75,6.75,0,0,1,1.85-.63"/><path class="cls-8" d="M63.44,101.29l1.09-.43"/><path class="cls-8" d="M63.44,100.08l.87-.43"/><path class="cls-8" d="M63.44,98.44l.86-.23"/><path class="cls-8" d="M63.36,97a1,1,0,0,0,1.16-.63"/><path class="cls-8" d="M62.47,95.09l1.09-.76"/><path class="cls-8" d="M39.2,50.42a21.54,21.54,0,0,0,3.36-.69"/><path class="cls-8" d="M40.19,51.14c.82-.17,1.64-.31,2.47-.4"/><path class="cls-8" d="M41.15,52.19a4.36,4.36,0,0,0,2.16-.42"/><path class="cls-8" d="M41.26,53.55a12.8,12.8,0,0,1,2.39-.22"/><path class="cls-8" d="M42.57,54.66a3.81,3.81,0,0,1,1.74-.17"/><path class="cls-8" d="M43.54,55.82a3.92,3.92,0,0,0,1-.39"/><path class="cls-8" d="M50.68,32.88c1.67-.83,3.73-.22,5.49-.84"/><path class="cls-8" d="M52.79,33.57l3.79-.82"/><path class="cls-8" d="M53.66,34.57l3.14-.45"/><path class="cls-8" d="M55.07,35.54l2.5-.28"/><path class="cls-8" d="M55.61,36.74a8.7,8.7,0,0,0,2.92-.21"/><path class="cls-8" d="M57.24,37.54l2.07.17"/><path class="cls-8" d="M57.56,73.08a49.58,49.58,0,0,0,5.56-.92"/><path class="cls-8" d="M60.18,74.27c1.42-.14,2.84-.33,4.24-.58"/><path class="cls-8" d="M61.7,75.05l2.5-.3"/><path class="cls-8" d="M62.35,76.62a20.42,20.42,0,0,1,2.07,0"/><path class="cls-8" d="M63.57,78.06a1.61,1.61,0,0,1,1.55.09"/><path class="cls-8" d="M64.42,79.86h1"/><ellipse class="cls-9" cx="6.67" cy="11.49" rx="4.79" ry="3.06" transform="translate(-6.59 10.62) rotate(-56.12)"/></g></g></svg>