<svg id="Layer_1" data-name="Layer 1" xmlns="http://www.w3.org/2000/svg" viewBox="0 0 90.84 110.8"><defs><style>.cls-1{fill:#02763c;}.cls-1,.cls-2,.cls-3,.cls-4,.cls-5,.cls-6,.cls-7,.cls-8,.cls-9{stroke:#231f20;stroke-linecap:round;stroke-linejoin:round;}.cls-1,.cls-2,.cls-3,.cls-4,.cls-5,.cls-6,.cls-7,.cls-8{stroke-width:0.87px;}.cls-2{fill:#231f20;}.cls-3{fill:#923948;}.cls-4{fill:#fdb517;}.cls-5{fill:#8dc640;}.cls-6{fill:#63883b;}.cls-7{fill:#f05867;}.cls-8{fill:#fff;}.cls-9{fill:none;stroke-width:0.33px;}</style></defs><path class="cls-1" d="M90.1,7.92s2.79,28-8.4,56.57a103.84,103.84,0,0,1-5.56,11.92l-.68,1.24c-16.94,30.89-18.35,32.71-18.35,32.71s-50-7.12-49.47-7.23S.43,93,.43,93l20.85-8.85L44.6,87.67l5.85-22.12,4.3-16.25,9.46-35.77L72.32.43S86.61,7,90.1,7.92Z"/><path class="cls-2" d="M81.7,64.49a103.84,103.84,0,0,1-5.56,11.92l-.68,1.24L64.7,68.83a90.58,90.58,0,0,0-14.25-3.28l4.3-16.25Z"/><path class="cls-3" d="M87.37,51.6c-.21.89-.52,2.16-.91,3.65-.22.86-.47,1.8-.74,2.78-1.26,4.5-3,9.92-4.85,13.31a4.29,4.29,0,0,1-3.34,2.19l.61-1.25L66.51,62.75l-5.7-7.36,4.12-11.87L66.14,40l.77-2.2L72,35s11,8.77,14.79,13.8A3.36,3.36,0,0,1,87.37,51.6Z"/><path class="cls-4" d="M86.46,55.25c-.22.86-.47,1.8-.74,2.78A103.44,103.44,0,0,0,71,44.07q-3.09-.33-6.1-.55L66.14,40c1.64.13,3.3.29,5,.47A102,102,0,0,1,86.46,55.25Z"/><path class="cls-5" d="M72.32.43A152.12,152.12,0,0,1,73.1,19c-.11,5.5-.49,10.86-1.1,16A181.64,181.64,0,0,1,68.06,56.8c-.5,2-1,4-1.55,6-.59,2.09-1.19,4.13-1.81,6.08-6.09,19.45-13.26,31.73-13.26,31.73L22.28,96.23.43,93A164.67,164.67,0,0,0,12.09,69.29c.8-2,1.55-4,2.24-6a3.26,3.26,0,0,0,.15-.44,156.61,156.61,0,0,0,4.88-17c.77-3.38,1.39-6.61,1.89-9.67,3-18.43,1.57-30.62,1.57-30.62C30.27,6.11,40.65,5.22,50,4,62,2.49,72.32.43,72.32.43Z"/><path class="cls-6" d="M51.38,7.27l-1,.12c-2.37.31-4.68.57-6.86.8h0a145.28,145.28,0,0,1-17.07.88A138.64,138.64,0,0,1,24.6,36.66c-.54,3.32-1.19,6.65-1.93,9.87a163,163,0,0,1-5,17.38l0,.1c0,.13-.08.26-.13.39-.69,2-1.46,4-2.29,6.14-.16.42-.34.85-.51,1.27a28.09,28.09,0,0,1,7.9,21l27,4a177.72,177.72,0,0,0,11.87-29c.61-2,1.21-4,1.77-6s1-3.84,1.52-5.83a177.46,177.46,0,0,0,3.87-21.39c.61-5.18,1-10.41,1.07-15.54C59.25,18.72,54,12.44,51.38,7.27Z"/><polygon class="cls-5" points="24.16 39.02 45.78 16.09 63.61 39.48 60.99 57.14 34.73 82 19.79 59.12 24.16 39.02"/><path class="cls-6" d="M32.36,40.35A35.41,35.41,0,0,0,32.8,65c.79,2,2,4.08,4,4.79a5.45,5.45,0,0,0,4.55-.66,12.41,12.41,0,0,0,3.38-3.32A36.75,36.75,0,0,0,52,45.86a23.58,23.58,0,0,0-1.44-10.34C49,31.82,45,26.33,40.71,29,36.64,31.49,33.94,35.92,32.36,40.35Z"/><path class="cls-2" d="M68.06,56.8c-.5,2-1,4-1.55,6-.59,2.09-1.19,4.13-1.81,6.08-15.64-5.25-42.59-5.93-50.22-6a156.61,156.61,0,0,0,4.88-17c11.59.25,30,.47,30,.47Z"/><path class="cls-7" d="M72,35c-.22,1.89-.47,3.76-.75,5.59-.17,1.16-.36,2.3-.55,3.43a186.53,186.53,0,0,1-4.19,18.72,3.25,3.25,0,0,1-.63.06s-4-2.93-20.1-2.68-30.84,1.93-30.84,1.93l-.61,1.2-.33.67a3.87,3.87,0,0,1-.68-3.28c.36-.93,2.53-8.95,4.25-15.38l1-3.7,1.2-4.49a3.66,3.66,0,0,1,1.48-1,15,15,0,0,1,3.6-1C29,34.54,61.28,30.92,72,35Z"/><path class="cls-4" d="M71.25,40.6c-.17,1.16-.36,2.3-.55,3.43a213.8,213.8,0,0,0-53.13,1.24l1-3.7A213.25,213.25,0,0,1,71.11,40.5Z"/><path class="cls-8" d="M51.44,100.56a30.68,30.68,0,0,1,5.67,9.8"/><path class="cls-5" d="M36.62,14.31a3.7,3.7,0,0,1-7.35.75,3.7,3.7,0,0,1,7.35-.75Z"/><path class="cls-5" d="M48.76,88.21a3.7,3.7,0,1,1-4-3.12A3.62,3.62,0,0,1,48.76,88.21Z"/><path class="cls-9" d="M75.66,2.35a256.06,256.06,0,0,1-.12,29.58"/><path class="cls-9" d="M79.39,14.9a139.88,139.88,0,0,1-2.51,23.72"/><path class="cls-9" d="M81.87,5.3c1,10.64-.5,21.34-2,31.92"/><path class="cls-9" d="M85,11.63a105.85,105.85,0,0,1-2.47,29.59"/><path class="cls-9" d="M87.31,7.48c1.49,12.39-1.15,24.86-3.78,37.06"/><path class="cls-9" d="M68,68.83a25.43,25.43,0,0,1-2.14,6.35q-6,13.59-12.87,26.75"/><path class="cls-9" d="M54.22,104.21A75.2,75.2,0,0,0,63.34,86.9"/><path class="cls-9" d="M70.91,70.57a143.69,143.69,0,0,1-5.7,13.19"/><path class="cls-9" d="M72.72,72.34A89.55,89.55,0,0,1,68,82.87c-.63,1.2-1.29,2.37-1.94,3.55l-5.27,9.47"/><path class="cls-9" d="M68.15,86a69.79,69.79,0,0,1-4.69,8.62l-7.73,12.73"/><path class="cls-9" d="M2.6,95.64c3.9,0,7.73,1,11.56,1.71,2.61.5,5.23.89,7.86,1.27l3,.46c1.79.26,3.58.53,5.39.62"/><path class="cls-9" d="M7.21,98.46q13.83,2.13,27.72,3.87a18.32,18.32,0,0,1,3.82.75"/><path class="cls-9" d="M32.16,100.4q11,1.47,21.87,3.45"/><path class="cls-9" d="M27.63,103.18q12,1.56,24,3.68"/><path class="cls-9" d="M6.69,100.42l7.73,1.49c.81.16,1.63.32,2.44.46q4.38.8,8.81,1.17"/><path class="cls-9" d="M78.93,12.71a2,2,0,0,1,1,.35"/><path class="cls-9" d="M79.15,11.82A2.9,2.9,0,0,1,80,12"/><path class="cls-9" d="M79.36,10.85a1.34,1.34,0,0,1,.66.08"/><path class="cls-9" d="M79.26,9.72a1.52,1.52,0,0,0,.6,0"/><path class="cls-9" d="M79.31,8.86l.38-.11"/><path class="cls-9" d="M79.15,7.72a.47.47,0,0,1,.43,0"/><path class="cls-9" d="M84.75,44a2.34,2.34,0,0,1,1,.76"/><path class="cls-9" d="M85.36,43a1.24,1.24,0,0,1,.63.42"/><path class="cls-9" d="M85.57,42.12c0-.08.12-.08.19,0l.46.36"/><path class="cls-9" d="M85.9,41.2l.53.18"/><path class="cls-9" d="M86,40.22l.71.22"/><path class="cls-9" d="M86.33,39.12l.59.15"/><path class="cls-9" d="M86.38,38a.58.58,0,0,1,.43,0"/><path class="cls-9" d="M86.6,37.12l.43.06"/><path class="cls-9" d="M86.76,35.91l.49.07"/><path class="cls-9" d="M86.82,34.85a.64.64,0,0,1,.43,0"/><path class="cls-9" d="M87,34,87.3,34"/><path class="cls-9" d="M87.14,33a.47.47,0,0,1,.33,0"/><path class="cls-9" d="M87.47,32.3l.38-.11"/><path class="cls-9" d="M87.63,31.42a.26.26,0,0,1,.27-.1"/><path class="cls-9" d="M88.66,13.49l.44.06"/><path class="cls-9" d="M88.61,14.3l.44.1"/><path class="cls-9" d="M88.61,15.11a.38.38,0,0,0,.33.11"/><path class="cls-9" d="M88.6,16l.35.09"/><path class="cls-9" d="M88.66,17a.23.23,0,0,1,.22.3"/><path class="cls-9" d="M88.74,18.07a.21.21,0,0,1,.35.14"/><path class="cls-9" d="M88.83,19.3v.06"/><path class="cls-9" d="M81.39,35.37l.75.41"/><path class="cls-9" d="M81.82,34.4a1.81,1.81,0,0,1,.75.29"/><path class="cls-9" d="M82.14,33.59a1.1,1.1,0,0,1,.54,0"/><path class="cls-9" d="M82.25,32.73l.38-.11"/><path class="cls-9" d="M82.36,31.59l.38-.17"/><path class="cls-9" d="M82.3,30.55l.33-.06"/><path class="cls-9" d="M82.52,29.69a.5.5,0,0,0,.32-.23"/><path class="cls-9" d="M82.84,28.32a.19.19,0,0,1,.17-.1"/><path class="cls-9" d="M74.8,35.62a1.55,1.55,0,0,0,1,.29"/><path class="cls-9" d="M75.29,34.92h.87"/><path class="cls-9" d="M75.83,34.14A1.47,1.47,0,0,0,76.6,34"/><path class="cls-9" d="M76.16,33.33l.49-.1"/><path class="cls-9" d="M76.43,32.51l.33-.12"/><path class="cls-9" d="M76.6,31.7l.22-.16"/><path class="cls-9" d="M76.65,30.61l.27-.1"/><path class="cls-9" d="M76.82,29.85l.22-.1"/><path class="cls-9" d="M68.4,84.62a1.85,1.85,0,0,1,.68.42"/><path class="cls-9" d="M69.15,83.71l.75.41"/><path class="cls-9" d="M69.75,82.69a2.23,2.23,0,0,0,.76.48"/><path class="cls-9" d="M70.4,82l.54.32"/><path class="cls-9" d="M70.84,81.21a.83.83,0,0,0,.48.15"/><path class="cls-9" d="M71.26,80.46a.37.37,0,0,0,.39.16"/><path class="cls-9" d="M71.59,79.63a.35.35,0,0,1,.38,0"/><path class="cls-9" d="M72,79l.38-.11"/><path class="cls-9" d="M72.52,78.08l.16,0"/><path class="cls-9" d="M62.68,84.79a1.67,1.67,0,0,1,.65.29"/><path class="cls-9" d="M63.22,83.76a.85.85,0,0,1,.59.35"/><path class="cls-9" d="M63.66,83.18a1.26,1.26,0,0,0,.54.13"/><path class="cls-9" d="M64.05,82.29a.66.66,0,0,0,.48,0"/><path class="cls-9" d="M64.53,81.49a.37.37,0,0,0,.27.05"/><path class="cls-9" d="M64.75,80.74a1,1,0,0,0,.37-.17"/><path class="cls-9" d="M65.07,79.53a.14.14,0,0,1,.16,0"/><path class="cls-9" d="M55.61,104.59a.52.52,0,0,1,.33.44"/><path class="cls-9" d="M56.17,103.54a1.27,1.27,0,0,1,.46.46"/><path class="cls-9" d="M56.7,103a1.22,1.22,0,0,1,.55.48"/><path class="cls-9" d="M57.35,102.24a.44.44,0,0,1,.47.24"/><path class="cls-9" d="M57.84,101.44a.43.43,0,0,1,.42.21.17.17,0,0,0,.06-.2"/><path class="cls-9" d="M58.28,100.52l.32.27"/><path class="cls-9" d="M58.65,100l.17.09"/><path class="cls-9" d="M57.74,95.08a1.21,1.21,0,0,1,.37.49"/><path class="cls-9" d="M58.28,94.37c.13.14.26.29.38.44"/><path class="cls-9" d="M58.61,93.87l.32.23"/><path class="cls-9" d="M58.77,93.34a.35.35,0,0,0,.27,0"/><path class="cls-9" d="M59.09,92.64h.22"/><path class="cls-9" d="M63.46,76.2l.45.42"/><path class="cls-9" d="M63.73,75.32a2.59,2.59,0,0,1,.51.42"/><path class="cls-9" d="M64.21,74.58l.36.19"/><path class="cls-9" d="M64.53,73.61a.67.67,0,0,1,.38.22"/><path class="cls-9" d="M64.75,73a.58.58,0,0,1,.37.17"/><path class="cls-9" d="M65,72.47a.71.71,0,0,0,.43,0"/><path class="cls-9" d="M65.45,71.71a.54.54,0,0,1,.33.05"/><path class="cls-9" d="M41.48,103.34a1.44,1.44,0,0,1,.54.44"/><path class="cls-9" d="M42.62,103.34a1.1,1.1,0,0,1,.32.55"/><path class="cls-9" d="M43.52,103.6l.39.62"/><path class="cls-9" d="M44.64,103.72a2,2,0,0,1,.31.6"/><path class="cls-9" d="M45.4,103.77a.83.83,0,0,1,.31.5"/><path class="cls-9" d="M46.33,103.77a3.84,3.84,0,0,1,.42.77"/><path class="cls-9" d="M47.19,104.05a1.23,1.23,0,0,0,.33.6"/><path class="cls-9" d="M48.27,104.11a1.26,1.26,0,0,1,.39.7"/><path class="cls-9" d="M49.25,104.27a1.3,1.3,0,0,1,.39.76"/><path class="cls-9" d="M50.24,104.42a1.45,1.45,0,0,1,.42.56"/><path class="cls-9" d="M51.1,104.49a.88.88,0,0,1,.29.54"/><path class="cls-9" d="M51.86,104.71a1.12,1.12,0,0,1,.39.59"/><path class="cls-9" d="M52.62,104.87c.11.21.22.43.34.64"/><path class="cls-9" d="M53.26,105.14l.22.44"/><path class="cls-9" d="M29,104.55a.42.42,0,0,1,.24.58"/><path class="cls-9" d="M29.74,104.76a.67.67,0,0,0,.32.38"/><path class="cls-9" d="M30.57,104.7c.1.2.2.4.31.6"/><path class="cls-9" d="M31.32,104.7a1.17,1.17,0,0,1,.37.55"/><path class="cls-9" d="M32.24,104.81c.17.23.33.47.49.71"/><path class="cls-9" d="M33.22,104.92l.6.87"/><path class="cls-9" d="M34.35,105.09c.14.19.27.39.4.59"/><path class="cls-9" d="M35.24,105.28a2.6,2.6,0,0,1,.53.62"/><path class="cls-9" d="M36.6,105.35l.43.6"/><path class="cls-9" d="M37.51,105.41l.43.6"/><path class="cls-9" d="M38.54,105.58l.39.59"/><path class="cls-9" d="M39.79,105.74l.49.59"/><path class="cls-9" d="M41.05,106.11a2.44,2.44,0,0,1,.59.61"/><path class="cls-9" d="M42.35,106.6a.45.45,0,0,1,.37.33"/><path class="cls-9" d="M5.45,96.69a1.2,1.2,0,0,1,.59.84"/><path class="cls-9" d="M6.52,96.94l.49.59"/><path class="cls-9" d="M7.44,97a2.3,2.3,0,0,0,.5.53"/><path class="cls-9" d="M8.65,97a1,1,0,0,1,.42.55"/><path class="cls-9" d="M9.67,97.26c.17.23.34.46.5.7"/><path class="cls-9" d="M10.77,97.63a1.77,1.77,0,0,1,.54.61"/><path class="cls-9" d="M11.7,98a1.25,1.25,0,0,1,.57.69"/><path class="cls-9" d="M12.78,98.21a.58.58,0,0,1,.47.41"/><path class="cls-9" d="M13.6,98.05a2.25,2.25,0,0,1,.59.56"/><path class="cls-9" d="M14.7,98.26a1.31,1.31,0,0,1,.52.68"/><path class="cls-9" d="M15.77,98.42a.86.86,0,0,1,.64.47"/><path class="cls-9" d="M17,98.72a1.72,1.72,0,0,1,.55.49"/><path class="cls-9" d="M18.17,99a.92.92,0,0,1,.55.54"/><path class="cls-9" d="M19.32,99.12a.81.81,0,0,1,.43.49"/><path class="cls-9" d="M20.51,99.28a.93.93,0,0,1,.62.64"/><path class="cls-9" d="M67.11,4.15l1.46-.28"/><path class="cls-9" d="M67.92,5.12A5.76,5.76,0,0,0,69.29,5"/><path class="cls-9" d="M68.71,6.12a1.71,1.71,0,0,1,1-.13"/><path class="cls-9" d="M68.58,7.37a.92.92,0,0,1,1.09,0"/><path class="cls-9" d="M68.72,8.46a1.23,1.23,0,0,1,.94,0"/><path class="cls-9" d="M68.93,9.82a1.19,1.19,0,0,1,.87,0"/><path class="cls-9" d="M69.08,11.13a1.38,1.38,0,0,1,.94,0"/><path class="cls-9" d="M69.29,12.36a1.39,1.39,0,0,1,1-.09"/><path class="cls-9" d="M69.52,13.68l.57-.15"/><path class="cls-9" d="M69.66,14.76l.36-.08"/><path class="cls-9" d="M55.45,8.08a11.19,11.19,0,0,0,2-.63"/><path class="cls-9" d="M56.18,9a8.91,8.91,0,0,0,1.66-.53"/><path class="cls-9" d="M57.19,9.85a7.45,7.45,0,0,0,1.59-.54"/><path class="cls-9" d="M58.36,10.78a4.45,4.45,0,0,1,1.5-.77"/><path class="cls-9" d="M59.37,11.29l1.71-.85"/><path class="cls-9" d="M60.53,12.37,62,11.48"/><path class="cls-9" d="M61.55,13.25l1.28-.69"/><path class="cls-9" d="M62.63,13.82a2.7,2.7,0,0,1,.93-.6"/><path class="cls-9" d="M63.57,14.68a1.91,1.91,0,0,1,.94-.66"/><path class="cls-9" d="M64.8,14.9a.27.27,0,0,1,.29-.15"/><path class="cls-9" d="M54.3,17a4.46,4.46,0,0,0,1.28-.62"/><path class="cls-9" d="M55.25,17.75a5.76,5.76,0,0,1,1.79-.7"/><path class="cls-9" d="M56.7,18.34c.46-.24.94-.45,1.42-.65"/><path class="cls-9" d="M58.37,19.07a5,5,0,0,1,1.2-.65"/><path class="cls-9" d="M59.66,19.61A2.5,2.5,0,0,1,61,18.74"/><path class="cls-9" d="M60.89,20.12a8.17,8.17,0,0,1,1.37-.8"/><path class="cls-9" d="M62.24,20.51a6,6,0,0,1,1.84-.6"/><path class="cls-9" d="M63.35,21.28a9.06,9.06,0,0,1,1.95-1"/><path class="cls-9" d="M64.86,21.62a12.91,12.91,0,0,1,2.26-.72"/><path class="cls-9" d="M65.68,22.31l1.87-.55"/><path class="cls-9" d="M65.67,23.46a5.53,5.53,0,0,1,1.59-.39"/><path class="cls-9" d="M66.12,24.51a3.9,3.9,0,0,1,1.36-.15"/><path class="cls-9" d="M65.84,26.18a2.4,2.4,0,0,1,1.65-.08"/><path class="cls-9" d="M65.74,27.82l1.38-.13"/><path class="cls-9" d="M65.66,28.93A6.43,6.43,0,0,1,67,28.77"/><path class="cls-9" d="M66,30.12a2.55,2.55,0,0,1,.87-.07"/><path class="cls-9" d="M66.18,31.21a.45.45,0,0,1,.5,0"/><path class="cls-9" d="M66.29,32.43a.23.23,0,0,1,.33-.22"/><path class="cls-9" d="M26.91,31.54a3.49,3.49,0,0,1,.95.8"/><path class="cls-9" d="M27.91,30.69a3.9,3.9,0,0,0,1.08.67"/><path class="cls-9" d="M28.79,30c.24.15.48.3.71.46"/><path class="cls-9" d="M29.65,29.32l.58.44"/><path class="cls-9" d="M30.37,28.15a1.09,1.09,0,0,1,.79.52"/><path class="cls-9" d="M31.41,27l.83.64"/><path class="cls-9" d="M32.33,26.06l.65.51"/><path class="cls-9" d="M33.06,25.31a.77.77,0,0,1,.49.61"/><path class="cls-9" d="M33.85,23.74l.72.58"/><path class="cls-9" d="M34.87,22.87a1.49,1.49,0,0,1,1,.87"/><path class="cls-9" d="M36.53,21.77a.66.66,0,0,1,.58.52"/><path class="cls-9" d="M37.12,21.05l.58.66"/><path class="cls-9" d="M38.18,20.13a3,3,0,0,0,.61.77"/><path class="cls-9" d="M38.93,19.61a1.34,1.34,0,0,0,.57.51"/><path class="cls-9" d="M39.79,18.67a2,2,0,0,1,.65.51"/><path class="cls-9" d="M40.67,17.79l.51.36"/><path class="cls-9" d="M41.68,16.85a.19.19,0,0,1,.21.22"/><path class="cls-9" d="M60.81,23.15a4.74,4.74,0,0,1,1.74-.71"/><path class="cls-9" d="M61.67,23.72a7.81,7.81,0,0,1,1.46-.55"/><path class="cls-9" d="M62.69,24.61a1.72,1.72,0,0,1,1.24-.43"/><path class="cls-9" d="M63.13,25.48a1.19,1.19,0,0,1,.58.15"/><path class="cls-9" d="M63.3,26.38a.21.21,0,0,1,.35.11"/><path class="cls-9" d="M31.33,15.88a7.39,7.39,0,0,1,.85.62"/><path class="cls-9" d="M32.4,15.47a5.49,5.49,0,0,0,1.23.87"/><path class="cls-9" d="M33.44,15.08a1.43,1.43,0,0,0,.84.3"/><path class="cls-9" d="M33.78,14.25h.65"/><path class="cls-9" d="M33.84,13.57l.8-.2"/><path class="cls-9" d="M46,21.5a1,1,0,0,0,.82-.5"/><path class="cls-9" d="M46.6,22.22l1-.44"/><path class="cls-9" d="M47.27,22.82l1.08-.44"/><path class="cls-9" d="M47.85,24a5.11,5.11,0,0,1,1.07-.4"/><path class="cls-9" d="M48.56,24.75l1.09-.37"/><path class="cls-9" d="M49.44,26a7.83,7.83,0,0,0,1.36-.48"/><path class="cls-9" d="M50.38,26.83a6.6,6.6,0,0,0,1.23-.34"/><path class="cls-9" d="M50.75,27.82a2.11,2.11,0,0,1,1.08-.24"/><path class="cls-9" d="M51,28.54a3.24,3.24,0,0,0,1.15-.24"/><path class="cls-9" d="M51.67,29.6c-.05-.1.11-.17.23-.17h2.17"/><path class="cls-9" d="M52.48,30.77a2.66,2.66,0,0,1,1.67-.16"/><path class="cls-9" d="M53.58,31.68a2.59,2.59,0,0,1,1-.07"/><path class="cls-9" d="M41.88,30.39a3.51,3.51,0,0,1,1.32-.7"/><path class="cls-9" d="M42.54,30.83a5.3,5.3,0,0,1,1.24-.28"/><path class="cls-9" d="M43.49,31.42a2,2,0,0,1,1.38-.24"/><path class="cls-9" d="M44.57,32.16s-.06,0,0,0a.08.08,0,0,0,.08,0L45.8,32"/><path class="cls-9" d="M45.23,32.8a2.15,2.15,0,0,0,.8-.06"/><path class="cls-9" d="M37.56,68.3c-.05,0,0-.1,0-.12s.1,0,.15,0a4.94,4.94,0,0,1,.75.47"/><path class="cls-9" d="M38.64,67.72a2.11,2.11,0,0,1,1.15.67"/><path class="cls-9" d="M39.52,67.12l1.14.42"/><path class="cls-9" d="M40.31,66.5a1.36,1.36,0,0,0,1.37.31"/><path class="cls-9" d="M41.24,65.86a3.43,3.43,0,0,1,.95.49"/><path class="cls-9" d="M34.53,76.69a7.08,7.08,0,0,1,1.19,1.13"/><path class="cls-9" d="M35.59,75.86a13.72,13.72,0,0,0,1.09.93"/><path class="cls-9" d="M37.12,75l.91.82"/><path class="cls-9" d="M38.33,74.28l.75.47"/><path class="cls-9" d="M39.36,73a1.87,1.87,0,0,1,1,.66"/><path class="cls-9" d="M40.59,72.62a1.89,1.89,0,0,1,.87.41"/><path class="cls-9" d="M41.39,71.87l.72.43"/><path class="cls-9" d="M42.33,71.29l.8.28"/><path class="cls-9" d="M43,70.58a1.88,1.88,0,0,0,1,.28"/><path class="cls-9" d="M43.7,69.86l.88.25"/><path class="cls-9" d="M44.29,69l.93.38"/><path class="cls-9" d="M45.08,68.46a2,2,0,0,1,1,.15"/><path class="cls-9" d="M45.81,67.58l.58.16"/><path class="cls-9" d="M46.24,67l1.1.23"/><path class="cls-9" d="M47.11,66.58l.72.23"/><path class="cls-9" d="M27.83,64.89l2.11-.48"/><path class="cls-9" d="M28.55,65.92a1.75,1.75,0,0,1,1.61-.37"/><path class="cls-9" d="M29.29,66.82l1.22-.41"/><path class="cls-9" d="M30.15,67.59l.86-.38"/><path class="cls-9" d="M30.88,68.47a2.53,2.53,0,0,1,.94-.18"/><path class="cls-9" d="M31.2,69.43a1,1,0,0,1,.77-.29"/><path class="cls-9" d="M31.85,70.29a.45.45,0,0,1,.56-.18"/><path class="cls-9" d="M32.76,71.51l.44-.22"/><path class="cls-9" d="M43.5,89.55l.51.8"/><path class="cls-9" d="M44.31,89.51a1.55,1.55,0,0,1,.76.85"/><path class="cls-9" d="M45.16,89.43a1.07,1.07,0,0,1,.79.49"/><path class="cls-9" d="M46,89.19a1.1,1.1,0,0,1,.73.21"/><path class="cls-9" d="M46.1,88.32a1.11,1.11,0,0,1,.65.22"/><path class="cls-9" d="M46.46,87.6a.62.62,0,0,1,.58.22"/><path class="cls-9" d="M53.2,68a3.46,3.46,0,0,1,1.16-.43"/><path class="cls-9" d="M53.72,68.9a2.91,2.91,0,0,1,1.66-.7"/><path class="cls-9" d="M55.07,69.38a4.14,4.14,0,0,1,2.41-.54"/><path class="cls-9" d="M55.66,70.11a4.13,4.13,0,0,1,2-.37"/><path class="cls-9" d="M56.1,71.51h1.45"/><path class="cls-9" d="M55.8,72.78a6.59,6.59,0,0,0,1.39.28"/><path class="cls-9" d="M55.35,74.16a3,3,0,0,0,1.48.31"/><path class="cls-9" d="M55,75.84a3.76,3.76,0,0,0,1.19.28"/><path class="cls-9" d="M54.49,77.47a1.34,1.34,0,0,0,.89.27"/><path class="cls-9" d="M53.49,79.53l1.31,0"/><path class="cls-9" d="M53.34,81a2,2,0,0,0,.73,0"/><path class="cls-9" d="M52.84,82.34A3.44,3.44,0,0,0,54,82.26"/><path class="cls-9" d="M52.46,83.5a.78.78,0,0,0,.75-.1"/><path class="cls-9" d="M51.77,85l1.15-.32c.13-.06.26.16.15.24s-.29-.09-.2-.2"/><path class="cls-9" d="M51.75,85.79a.57.57,0,0,0,.58,0"/><path class="cls-9" d="M51.18,87l.79-.17"/><path class="cls-9" d="M51.32,87.75l.65-.09"/><path class="cls-9" d="M50.81,89a1.39,1.39,0,0,0,.87-.3"/><path class="cls-9" d="M50.38,90.07a1.42,1.42,0,0,0,.65-.29"/><path class="cls-9" d="M49.8,91.45l.65-.23"/><path class="cls-9" d="M49.22,93.55l.49-.46"/><path class="cls-9" d="M13.12,75.05a.18.18,0,0,1-.19.08l1.65-.76"/><path class="cls-9" d="M13.27,76.3a10.43,10.43,0,0,1,1.59-.74"/><path class="cls-9" d="M13.56,77.11A9.36,9.36,0,0,1,15,76.63"/><path class="cls-9" d="M14,78.25a3.38,3.38,0,0,1,1.59-.37"/><path class="cls-9" d="M14.59,79.24a6.83,6.83,0,0,1,2.22-.51"/><path class="cls-9" d="M15.44,80.28a7.75,7.75,0,0,1,2.39-.37"/><path class="cls-9" d="M16.75,81.23a3.07,3.07,0,0,1,1.67-.18"/><path class="cls-9" d="M17,82.2a3.82,3.82,0,0,1,1.39,0l-.07.23"/><path class="cls-9" d="M17,83.19a2.53,2.53,0,0,1,1.55.3"/><path class="cls-9" d="M17.19,84.5a2.33,2.33,0,0,1,1.52,0"/><path class="cls-9" d="M17.33,85.59a2.33,2.33,0,0,1,1.38.1"/><path class="cls-9" d="M17.26,86.82a1.81,1.81,0,0,1,1.31.17"/><path class="cls-9" d="M17,88.36a1.41,1.41,0,0,1,1.17.14"/><path class="cls-9" d="M17.11,89.49a1.12,1.12,0,0,1,1.09.42"/><path class="cls-9" d="M17.18,91a1.38,1.38,0,0,1,1.1.18"/><path class="cls-9" d="M17.55,92.55l.65-.37"/><path class="cls-9" d="M20.37,65.34a4.63,4.63,0,0,0,.94-.35"/><path class="cls-9" d="M20.45,66.82,22,66.06"/><path class="cls-9" d="M21.38,67.23a3.87,3.87,0,0,1,1.23-.45"/><path class="cls-9" d="M21.82,67.67l-.13.14a6.14,6.14,0,0,0,1.58-.36"/><path class="cls-9" d="M22.18,68.92a8,8,0,0,0,1.37-.39"/><path class="cls-9" d="M22.91,70.06l1.16-.2"/><path class="cls-9" d="M23.56,71a5,5,0,0,1,1.52-.33"/><path class="cls-9" d="M23.86,71.94c0,.11.16.12.27.08l1.39-.49"/><path class="cls-9" d="M24.86,73l1.08-.26"/><path class="cls-9" d="M25.66,73.9h1.09"/><path class="cls-9" d="M26.45,75.2A2.32,2.32,0,0,1,27.69,75"/><path class="cls-9" d="M27.55,75.87a1.08,1.08,0,0,1,.79,0"/><path class="cls-9" d="M27.83,77.09,28.7,77"/><path class="cls-9" d="M28.21,78a.73.73,0,0,1,.8,0"/><path class="cls-9" d="M28.7,78.94a4.25,4.25,0,0,0,.8,0"/><path class="cls-9" d="M29.14,80.07a3.66,3.66,0,0,1,.94-.44"/><path class="cls-9" d="M25.74,83.63a5.4,5.4,0,0,1,1.73-.36"/><path class="cls-9" d="M26.46,84.48a2.55,2.55,0,0,1,1.23-.36"/><path class="cls-9" d="M26.9,85.41l1-.27c.14,0,.37,0,.37.12"/><path class="cls-9" d="M27.12,87.15,28,87"/><path class="cls-9" d="M27.3,88.45a.43.43,0,0,1,.57.06"/><path class="cls-9" d="M27.37,89.88a.32.32,0,0,1,.49,0"/><path class="cls-9" d="M5,90l1-1.68"/><path class="cls-9" d="M5.8,90.28A7.7,7.7,0,0,1,7,88.6"/><path class="cls-9" d="M6.9,90.14a2.7,2.7,0,0,1,1.3-1.08"/><path class="cls-9" d="M7.77,90.44a3,3,0,0,1,.85-.82"/><path class="cls-9" d="M8.55,90.57a3,3,0,0,1,.95-.72"/><path class="cls-9" d="M9.57,90.93l.78-.6"/><path class="cls-9" d="M68.29,35.94A3.9,3.9,0,0,1,70,35.66"/><path class="cls-9" d="M68.42,36.76a4.27,4.27,0,0,1,1.38.05"/><path class="cls-9" d="M68.28,38.11a5,5,0,0,1,1.45-.06"/><path class="cls-9" d="M68.42,39l.73,0"/><path class="cls-9" d="M65.89,45.7a14.41,14.41,0,0,1,2.68-.59"/><path class="cls-9" d="M66.32,46.79a4,4,0,0,1,1.45-.3"/><path class="cls-9" d="M66.11,48l1.37-.19"/><path class="cls-9" d="M66.05,49.07A1.38,1.38,0,0,1,67.27,49"/><path class="cls-9" d="M65.75,50.6a9,9,0,0,1,1.36-.23"/><path class="cls-9" d="M65.18,52.21l1.43-.41"/><path class="cls-9" d="M65,53.81l1.13-.26"/><path class="cls-9" d="M64.44,55.57a1.64,1.64,0,0,1,1.08-.34"/><path class="cls-9" d="M64.07,57.32a1.44,1.44,0,0,0,.52-.3c.17-.1.44-.12.53.06"/><path class="cls-9" d="M64.08,58.33l.49-.16a.23.23,0,0,1,.16,0s.06.12,0,.13"/><path class="cls-9" d="M63.74,59.77a.81.81,0,0,1,.7-.48"/><path class="cls-9" d="M77.34,69l2,.46"/><path class="cls-9" d="M78.49,68.16a1.78,1.78,0,0,1,1.6.16"/><path class="cls-9" d="M78.84,66.82a1.21,1.21,0,0,1,1.24.2"/><path class="cls-9" d="M79.29,65.83a1.34,1.34,0,0,1,1.31.31"/><path class="cls-9" d="M79.66,64.44a5.34,5.34,0,0,1,1.59.25"/><path class="cls-9" d="M80.51,63.76a4.26,4.26,0,0,1,1.18-.11"/><path class="cls-9" d="M80.89,62.61l1.17-.2"/><path class="cls-9" d="M81.4,61.28a1.66,1.66,0,0,1,1,0"/><path class="cls-9" d="M81.83,60a.79.79,0,0,1,1,0"/><path class="cls-9" d="M82.34,58.75a1.48,1.48,0,0,1,.8.14"/><path class="cls-9" d="M82.56,57.6a.92.92,0,0,1,.52,0"/><path class="cls-9" d="M84.23,50.39a12.23,12.23,0,0,1,1.45.82"/><path class="cls-9" d="M85,49.81a1.34,1.34,0,0,1,.86.39"/><path class="cls-9" d="M84.74,48.62c.19-.1.15.42.35.49l.73.28"/><path class="cls-9" d="M71.11,48.25a6.48,6.48,0,0,1,1.36-.76"/><path class="cls-9" d="M71.76,49a7.18,7.18,0,0,1,1.51-.9"/><path class="cls-9" d="M72.79,49.56a1.45,1.45,0,0,1,1.37-.48"/><path class="cls-9" d="M73.52,50.29a1.35,1.35,0,0,1,1.14-.42"/><path class="cls-9" d="M74.3,50.79a2.18,2.18,0,0,1,1.44-.52"/><path class="cls-9" d="M75.39,51.23l1.15-.4"/><path class="cls-9" d="M75.89,52.53a2.43,2.43,0,0,1,.87-.26"/><path class="cls-9" d="M76.83,53.46a.69.69,0,0,1,.44-.15"/><path class="cls-9" d="M77.34,54.26a4.24,4.24,0,0,1,1.08-.39"/><path class="cls-9" d="M18.1,48.22l1.11-1.06"/><path class="cls-9" d="M19.3,48.33A8.7,8.7,0,0,1,21,46.79"/><path class="cls-9" d="M21.36,48.07l1.74-1.45"/><path class="cls-9" d="M23.39,48.15a7.09,7.09,0,0,1,1.77-1.64"/><path class="cls-9" d="M25.93,47.49A22.62,22.62,0,0,1,28,45.63"/><path class="cls-9" d="M27.94,47.05a13.09,13.09,0,0,1,1.79-1.7"/><path class="cls-9" d="M29.52,46.82a8.51,8.51,0,0,0,1.86-1.63"/><path class="cls-9" d="M31.59,46.78l2.55-2"/><path class="cls-9" d="M33.33,46.49l1.89-1.6"/><path class="cls-9" d="M34.73,46.23a15.37,15.37,0,0,1,2-1.49"/><path class="cls-9" d="M36,47a18.56,18.56,0,0,1,2.2-1.45"/><path class="cls-9" d="M33.41,54a10.87,10.87,0,0,1,2.25-.89"/><path class="cls-9" d="M34.36,54.91a2,2,0,0,1,1.81-.65"/><path class="cls-9" d="M35,55.81a6.24,6.24,0,0,1,1.57-.61"/><path class="cls-9" d="M35.6,56.7a3,3,0,0,0,1.15-.42"/><path class="cls-9" d="M36.46,57.52a.91.91,0,0,0,.86-.37"/><path class="cls-9" d="M40.3,45.41c0,.1.17.05.24,0l1.35-1.29"/><path class="cls-9" d="M41.59,46a5.11,5.11,0,0,1,1.81-1.55"/><path class="cls-9" d="M43.56,45.77a3.55,3.55,0,0,1,1.08-1.17"/><path class="cls-9" d="M45,45.85a3.79,3.79,0,0,1,1.35-1.26"/><path class="cls-9" d="M47.31,45.68a15.89,15.89,0,0,1,1.34-1.12"/><path class="cls-9" d="M49.29,45.49a3.14,3.14,0,0,1,1.59-1.26"/><path class="cls-9" d="M50.93,45.57s-.08.07-.09,0,0-.1.08-.14a10.92,10.92,0,0,1,1.55-1"/><path class="cls-9" d="M53.19,46a3.79,3.79,0,0,1,1.25-.71"/><path class="cls-9" d="M54.88,46.08,56.1,45"/><path class="cls-9" d="M56.85,46.38l1.41-1"/><path class="cls-9" d="M32.9,36.49l1.31-1.08"/><path class="cls-9" d="M33.93,36.87l1-1.12"/><path class="cls-9" d="M35.24,36.44a6.26,6.26,0,0,1,1.65-1.1"/><path class="cls-9" d="M36.3,36.92a12.37,12.37,0,0,1,1.38-1.23"/><path class="cls-9" d="M37.9,36.48l1.52-1"/><path class="cls-9" d="M39.66,36.44A5.61,5.61,0,0,1,41,35.6"/><path class="cls-9" d="M40.75,36.74l1.35-1"/></svg>